<?xml version="1.0" encoding="utf-8"?>
<!-- Generator: Adobe Illustrator 24.3.0, SVG Export Plug-In . SVG Version: 6.00 Build 0)  -->
<svg version="1.1" id="Layer_1" xmlns="http://www.w3.org/2000/svg" xmlns:xlink="http://www.w3.org/1999/xlink" x="0px" y="0px"
	 viewBox="0 0 512 512" style="enable-background:new 0 0 512 512;" xml:space="preserve">
<g>
	<path d="M342.85,161.83c0-13.33,0-26.67,0-40c0-5.5,2.57-8.09,8.11-8.09c26.52,0,53.03,0,79.55,0.01c5.67,0,8.28,2.6,8.28,8.22
		c0.01,26.59,0.01,53.18,0.01,79.78c0,5.55-2.72,8.23-8.31,8.23c-26.29,0-52.57,0-78.86-0.01c-6.48,0-8.74-2.28-8.74-8.82
		c0-13.11,0-26.21,0-39.32C342.86,161.83,342.85,161.83,342.85,161.83z M379.82,194.64c4.07,0,7.95,0,11.82,0
		c3.02,0,3.03-0.01,3.03-2.97c0.01-7.62-0.05-15.23,0.04-22.85c0.04-3.79,2.98-6.79,6.86-7.34c3.33-0.47,6.11,1.22,7.14,4.65
		c0.52,1.72,0.76,3.58,0.78,5.38c0.09,7.01,0.07,14.01,0.01,21.02c-0.01,1.56,0.43,2.17,2.06,2.12c3.65-0.1,7.31-0.08,10.97-0.01
		c1.51,0.03,1.97-0.55,1.95-2.01c-0.06-5.41,0.04-10.82-0.04-16.22c-0.06-4.25,0.05-8.56-0.55-12.75
		c-0.95-6.57-4.41-11.58-11.12-13.38c-6.72-1.8-12.86-0.77-17.53,5.01c-0.06,0.08-0.27,0.05-0.57,0.09c0-1.15,0.11-2.29-0.05-3.39
		c-0.08-0.51-0.68-1.35-1.06-1.36c-4.54-0.09-9.08-0.06-13.73-0.06C379.82,165.4,379.82,179.9,379.82,194.64z M371.86,150.56
		c-4.29,0-8.24,0.1-12.18-0.04c-2.06-0.07-2.75,0.51-2.73,2.66c0.11,9.59,0.05,19.17,0.05,28.76c0,3.58-0.06,7.15,0.06,10.73
		c0.02,0.66,0.78,1.85,1.22,1.87c4.46,0.14,8.93,0.09,13.57,0.09C371.86,179.86,371.86,165.36,371.86,150.56z M364.61,129.54
		c-4.8,0.01-8.43,3.32-8.47,7.72c-0.04,4.44,3.52,7.83,8.3,7.88c4.92,0.06,8.61-3.33,8.55-7.84
		C372.92,132.77,369.42,129.52,364.61,129.54z"/>
	<path d="M313.34,152.22c0-6.83,0-13.79,0-20.94c4.91,0,9.58,0,14.61,0c0,21,0,41.96,0,63.07c-3.99,0-8.14,0-12.45,0
		c-0.22-2.03-0.43-3.96-0.65-6.02c-0.32,0.14-0.58,0.17-0.67,0.31c-5.59,8.79-22.09,10.06-29.95-1.49
		c-5.77-8.48-5.76-22.05,0.05-30.5c5.08-7.38,14.56-10.65,23-7.71C309.38,149.66,311.23,151.05,313.34,152.22z M313.5,171.35
		c-0.05,0-0.09,0-0.14,0c0-1.45,0.08-2.9-0.02-4.33c-0.26-3.71-2.53-6.65-5.81-7.7c-3.65-1.16-7.55-0.03-9.9,2.86
		c-3.74,4.59-3.91,13.83-0.29,18.46c2.46,3.15,5.79,4.09,9.58,3.24c3.5-0.78,5.93-3.73,6.33-7.51
		C313.44,174.7,313.42,173.02,313.5,171.35z"/>
	<path d="M238.26,194.46c-6.13,0-11.67,0.05-17.2-0.07c-0.6-0.01-1.34-0.89-1.74-1.54c-3.14-5.05-6.21-10.14-9.3-15.21
		c-0.31-0.5-0.66-0.97-1.1-1.61c-2.09,2.23-3.98,4.17-3.68,7.53c0.32,3.53,0.07,7.11,0.07,10.78c-4.99,0-9.67,0-14.49,0
		c0-21.07,0-41.99,0-63.08c4.77,0,9.45,0,14.37,0c0,11.66,0,23.27,0,35.55c0.79-0.88,1.19-1.25,1.5-1.68
		c3.51-4.89,6.94-9.84,10.55-14.65c0.61-0.81,1.95-1.47,2.97-1.5c4.99-0.15,9.99-0.07,15.7-0.07c-5.88,6.48-11.28,12.42-16.8,18.5
		C225.42,176.32,231.66,185.14,238.26,194.46z"/>
	<path d="M140.42,194.27c0-14.52,0-28.83,0-43.32c4.84,0,9.58,0,14.54,0c0,1.8,0,3.43,0,5.77c2.62-3.52,5.42-5.71,9.15-6.51
		c10.84-2.32,19.64,4,20.4,15.5c0.62,9.33,0.16,18.73,0.17,28.1c0,0.13-0.12,0.26-0.26,0.54c-4.55,0-9.17,0-14.09,0
		c-0.05-0.79-0.14-1.59-0.14-2.39c-0.01-6.55,0-13.11-0.02-19.66c0-1.37-0.01-2.75-0.21-4.1c-0.65-4.54-3.37-7.07-7.34-6.93
		c-4.18,0.15-7.57,3.51-7.64,7.88c-0.11,7.08-0.04,14.17-0.04,21.26c0,1.21,0,2.43,0,3.86
		C150.09,194.27,145.36,194.27,140.42,194.27z"/>
	<path d="M277.5,176.3c-10.55,0-20.42,0-30.44,0c0.45,3.93,2.77,6.03,6.01,7.29c4.72,1.83,9.59,1.34,14.44,0.65
		c1.79-0.26,3.54-0.74,5.59-1.19c0.58,2.92,1.2,5.72,1.64,8.54c0.06,0.41-0.6,1.24-1.07,1.38c-9.47,2.84-18.99,3.91-28.38-0.12
		c-6.95-2.98-10.57-8.62-11.89-15.94c-1.94-10.78,2.94-21.88,12-26.48c6.18-3.14,12.76-3.61,19.3-1.26
		c8.63,3.1,11.91,10.14,12.77,18.63C277.73,170.5,277.5,173.25,277.5,176.3z M263.7,166.26c0.44-4.93-2.62-8.68-7.12-8.94
		c-5.2-0.29-9.38,3.66-9.4,8.94C252.69,166.26,258.21,166.26,263.7,166.26z"/>
	<path d="M73.22,131.23c4.84,0,9.52,0,14.48,0c0,16.7,0,33.25,0,50c8.62,0,16.96,0,25.48,0c0,4.42,0,8.64,0,13.07
		c-13.27,0-26.54,0-39.96,0C73.22,173.31,73.22,152.4,73.22,131.23z"/>
	<path d="M133.63,194.35c-4.94,0-9.55,0-14.37,0c0-14.42,0-28.81,0-43.53c4.48,0,8.93-0.05,13.38,0.09
		c0.35,0.01,0.94,1.35,0.94,2.08c0.06,11.33,0.05,22.67,0.05,34C133.63,189.41,133.63,191.82,133.63,194.35z"/>
	<path d="M126.27,144.9c-4.77-0.03-8.01-3.04-8.04-7.46c-0.02-4.5,3.27-7.56,8.18-7.58c4.83-0.02,8.17,3.09,8.15,7.6
		C134.55,141.94,131.22,144.93,126.27,144.9z"/>
</g>
<path d="M357.15,262.32c-37.54,0-67.97,30.43-67.97,67.97s30.43,67.97,67.97,67.97s67.97-30.43,67.97-67.97
	S394.69,262.32,357.15,262.32z M333.42,372.11c-5.97,0-11.72,0.07-17.46-0.11c-0.57-0.02-1.54-1.55-1.57-2.4
	c-0.16-4.59-0.08-9.2-0.08-13.8c0-12.33,0.08-24.66-0.06-36.99c-0.03-2.77,0.86-3.52,3.51-3.43c5.07,0.18,10.15,0.05,15.67,0.05
	C333.42,334.48,333.42,353.12,333.42,372.11z M323.87,308.47c-6.14-0.07-10.73-4.42-10.67-10.14c0.05-5.66,4.72-9.91,10.89-9.93
	c6.2-0.02,10.7,4.15,10.77,9.98C334.94,304.18,330.2,308.54,323.87,308.47z M398.6,372.17c-4.7-0.1-9.41-0.12-14.1,0.01
	c-2.1,0.06-2.67-0.73-2.65-2.73c0.08-9.01,0.1-18.03-0.01-27.04c-0.03-2.32-0.34-4.71-1-6.92c-1.33-4.41-4.9-6.59-9.18-5.98
	c-4.99,0.7-8.77,4.57-8.82,9.44c-0.11,9.79-0.04,19.59-0.05,29.39c0,3.81-0.01,3.81-3.9,3.81c-4.98,0-9.96,0-15.2,0
	c0-18.96,0-37.61,0-56.66c5.99,0,11.83-0.04,17.66,0.08c0.49,0.01,1.26,1.09,1.36,1.75c0.21,1.42,0.06,2.88,0.06,4.36
	c0.39-0.06,0.66-0.01,0.74-0.11c6.01-7.43,13.9-8.76,22.54-6.44c8.63,2.32,13.08,8.76,14.31,17.21c0.78,5.39,0.63,10.92,0.71,16.4
	c0.1,6.95-0.02,13.91,0.05,20.87C401.13,371.46,400.55,372.21,398.6,372.17z"/>
<path d="M208.28,267.01H92.03c-2.84,0-5.15,2.3-5.15,5.15v116.26c0,2.84,2.3,5.15,5.15,5.15h116.26c2.84,0,5.15-2.3,5.15-5.15
	V272.16C213.43,269.32,211.12,267.01,208.28,267.01z M126.42,372.11c-5.97,0-11.72,0.07-17.46-0.11c-0.57-0.02-1.54-1.55-1.57-2.4
	c-0.16-4.59-0.08-9.2-0.08-13.8c0-12.33,0.08-24.66-0.06-36.99c-0.03-2.77,0.86-3.52,3.51-3.43c5.07,0.18,10.15,0.05,15.67,0.05
	C126.42,334.48,126.42,353.12,126.42,372.11z M116.87,308.47c-6.14-0.07-10.73-4.42-10.67-10.14c0.05-5.66,4.72-9.91,10.89-9.93
	c6.2-0.02,10.7,4.15,10.77,9.98C127.94,304.18,123.2,308.54,116.87,308.47z M191.6,372.17c-4.7-0.1-9.41-0.12-14.1,0.01
	c-2.1,0.06-2.67-0.73-2.65-2.73c0.08-9.01,0.1-18.03-0.01-27.04c-0.03-2.32-0.34-4.71-1-6.92c-1.33-4.41-4.9-6.59-9.18-5.98
	c-4.99,0.7-8.77,4.57-8.82,9.44c-0.11,9.79-0.04,19.59-0.05,29.39c0,3.81-0.01,3.81-3.9,3.81c-4.98,0-9.96,0-15.2,0
	c0-18.96,0-37.61,0-56.66c5.99,0,11.83-0.04,17.66,0.08c0.49,0.01,1.26,1.09,1.36,1.75c0.21,1.42,0.06,2.88,0.06,4.36
	c0.39-0.06,0.66-0.01,0.74-0.11c6.01-7.43,13.9-8.76,22.54-6.44c8.63,2.32,13.08,8.76,14.31,17.21c0.78,5.39,0.63,10.92,0.71,16.4
	c0.1,6.95-0.02,13.91,0.05,20.87C194.13,371.46,193.55,372.21,191.6,372.17z"/>
</svg>
