<?xml version="1.0" encoding="UTF-8" standalone="yes"?>
<!-- Created with sK1/UniConvertor (http://sk1project.org/) -->
<svg xmlns="http://www.w3.org/2000/svg" xmlns:xlink="http://www.w3.org/1999/xlink"
  width="1024pt" height="1024pt" viewBox="0 0 1024 1024"
  fill-rule="evenodd">
<g>
<g>
<path style="stroke:none; fill:#000000" d="M 488.5 90C 433 93.9 378.6 108.7 329.5 133.3C 251.6 172.2 189.6 230.9 145.8 307.2C 93 399.2 75.8 505.6 97.6 605C 103.5 631.9 113 661.1 123.8 686C 133.4 707.9 152.5 742.8 153.4 740C 153.6 739.2 154.6 735.8 155.5 732.5C 157.4 725.7 160.2 720 163.8 715.3C 167.5 710.3 168.1 711.4 164.9 717.3C 162.2 722.4 157 741.3 157 746.3C 157 749 169.4 767.6 182.7 784.7C 232.1 848.4 300.8 896.4 380 922.7C 392.3 926.8 394.8 927.3 407.5 928.1C 415.2 928.5 426.2 929.6 432 930.4C 437.8 931.2 449.4 932.6 457.8 933.5C 473.4 935 475.4 935.6 480.3 939.6C 481.9 940.9 483.6 942 484.1 942C 484.6 942 485 939.5 485 936.5C 485 931.6 484.7 930.9 482.3 929.7C 478.2 927.6 472.1 926.3 456 924.1C 428.1 920.2 415.4 918.8 401.5 918.1C 388.5 917.4 386.9 917.1 380.3 914C 372.9 910.6 369.1 907.7 370.8 906.6C 371.4 906.3 376.2 905.5 381.6 905C 394.5 903.7 400.1 901.7 404 897.4C 405.6 895.5 407 893.6 407 893.1C 407 891.2 403.9 890 396.4 888.8C 389.4 887.8 388 887.2 384.3 883.8C 379.5 879.5 374.8 878.8 368.3 881.5L 364.8 883L 366.2 880.7C 367 879.5 369.8 877.2 372.3 875.6C 378.4 871.9 386.2 871.2 400.1 873.4C 405.9 874.3 411.3 874.8 412.2 874.5C 413 874.2 414.7 872.5 416 870.8C 418.1 867.9 418.4 867.8 423.8 868.5C 431.4 869.4 443 872.6 449.3 875.4C 456.5 878.6 461.2 882.7 467.2 890.7C 470 894.4 474 899.6 476.2 902.1C 480 906.6 482 911.3 482 915.7C 482 919.3 480.5 918.4 477 912.7C 475.1 909.5 471.9 906.1 469.2 904.3C 460.8 898.7 445 893.9 431 892.6C 423.1 891.8 424.3 892.7 437 896.9C 442.2 898.7 451 902.3 456.5 905C 467.5 910.3 486.6 923.5 488.7 927.2C 489.5 928.6 489.9 931.9 489.8 935.5L 489.5 941.5L 518 941.5C 548.3 941.4 559.4 940.4 587 935.4C 602.4 932.5 615.1 929.4 631.2 924.6C 651.2 918.5 652.3 920.1 621.5 909.4C 596.8 900.8 594.2 899.6 591.2 896.2L 587.8 892.5L 596.2 891.8C 607.8 890.9 615.9 888.7 627.5 883C 646.2 873.9 657.3 861.4 662.5 843.5C 664.9 835.4 664.2 818.8 661.1 810.9C 654.1 793.3 639.5 784.2 619.7 785.2C 608.5 785.8 599.1 788.8 588.7 795.3C 580.2 800.7 574.2 806.6 566.6 817.4C 563.5 821.7 561 824.5 561 823.7C 561 822.8 562.2 818.4 563.6 814C 565 809.5 565.9 805.2 565.6 804.4C 564.7 802.1 560.7 802.8 553.7 806.3L 547.2 809.6L 546.6 804.5C 546.3 801.8 545.8 797.6 545.4 795.3C 544.9 791.7 545.1 791 547.3 789.6C 550.6 787.4 561.2 785.6 590.6 782.5C 611.1 780.3 619 779.9 635.5 780.2C 667.1 780.7 667.2 780.8 674 813.5C 677.6 830.9 680.5 851.9 682.1 871.5C 683.3 885.7 683.2 887.1 681.3 895.5C 680.1 900.5 679.3 904.6 679.4 904.8C 680.1 905.4 689.2 900.7 689.6 899.5C 690.6 897.1 688 855.3 686 839.2C 682.8 814.5 678.1 792.9 673 780C 670.4 773.5 670.4 771.2 673 776.7C 676 783.5 681.6 801.6 683.9 812C 688.5 833.5 692 866.4 692 887.7L 692 899.1L 699.9 895C 712.2 888.6 711.2 891.2 709.4 870.5C 707.3 845.1 700.8 805.9 697.9 801C 696.6 798.7 696.8 800.9 699 811.6C 704 835.7 708 867.2 707.9 881C 707.9 885.1 707.7 888 707.5 887.5C 707.3 886.9 706.2 879.3 705 870.5C 700.6 836.5 692.4 795.6 683 761C 680.2 750.9 678 742.4 678 742C 678 741.6 679.8 740.8 682.1 740.1C 684.4 739.4 686.8 738.6 687.6 738.3C 688.7 737.9 689 738.9 689 742.6C 689 748.4 690.9 765.2 691.6 765.9C 691.8 766.1 692.6 765.8 693.2 765.2C 693.9 764.5 694.9 764 695.5 764C 696.7 764 700.3 772 699.5 772.8C 699.3 773 697.1 772.5 694.6 771.7C 692 770.8 690 770.3 690 770.5C 690 770.7 693.7 773.7 698.3 777.1C 702.8 780.5 706.7 783.5 707 783.8C 707.3 784 705.1 786.3 702.2 789L 696.9 793.7L 702.4 798.4C 708.8 803.8 710 806.8 712.9 824C 717.6 851.8 719 868.4 717.6 878.9L 716.7 885.4L 720.1 883.4C 724.2 880.9 724.4 884.4 717.9 842.3C 712.8 808.8 712 800.7 714.6 809C 718.6 821.7 726.1 857.6 727.6 871.8C 728 875.2 728.4 878 728.7 878C 729.4 878 737.5 872.6 738.6 871.4C 739.3 870.5 739.3 866.5 738.4 857.8C 737.7 851.1 737.3 845.4 737.5 845.2C 737.6 845 739 850 740.5 856.2C 742 862.4 743.3 867.6 743.5 867.8C 743.9 868.2 754.4 860.2 759.8 855.4L 764.1 851.5L 759.7 840C 757.3 833.7 752.5 821.8 749.1 813.6C 742 796.4 741.2 791.5 746 794C 749.2 795.7 752.1 801.8 755.1 813.1C 757.6 822.8 765.2 842.6 768 847C 768.8 848.2 770.1 847.4 775.2 842.3L 781.4 836.1L 783.1 825.8C 784.1 820.1 784.8 815.4 784.7 815.3C 784.6 815.2 780.6 818 775.7 821.6C 770.9 825.1 766.5 828 766 828C 765 828 769.6 814.6 779 790.6C 786.3 771.8 786.2 768.6 778.3 774.6C 776.5 776 775 776.9 775 776.6C 775 776.3 777.2 773.1 780 769.5C 785.4 762.3 787.4 759 786.4 759C 786 759 782.6 761.2 778.9 763.9C 770.1 770.4 768.3 771.2 765.9 770.5C 761.7 769.1 764.9 760.2 776.5 740.5C 779.5 735.3 782 730.8 782 730.5C 782 730.2 781 730.5 779.8 731.1C 777 732.6 758.7 739 758.3 738.6C 758.1 738.5 759.1 736.1 760.4 733.4C 765.7 722.2 766.5 718.4 766.4 703C 766.4 695 765.9 685.3 765.5 681.5L 764.7 674.5L 763.3 683.4C 762.6 688.3 760.6 696.2 758.9 700.9C 754.6 713 752.3 721.7 751 730.6C 750.5 734.9 749.8 738.6 749.5 738.8C 749.3 739 747.5 738.2 745.6 737C 742.1 734.9 740.2 731.2 741.4 729.2C 742.2 727.8 740.3 709.8 738 696.3C 735.5 682.1 732.9 675.1 727.9 669.4C 725.7 666.9 724 663.8 724 662.5C 724 658.6 722.2 655 719.6 653.9C 717.5 652.9 717.3 652.4 718.1 649.6C 721.5 637.8 715.9 619 702.7 597.2C 699.6 592.2 697.4 588 697.8 588C 699.3 588 714.7 597.4 721.9 602.8C 746.2 620.7 772.3 650.4 778.1 666.6C 780.7 674 781 686.9 778.6 695.8C 777.7 699.3 777 702.5 777 702.8C 777.1 703.2 779.1 701.3 781.5 698.5C 784.6 695 786 694 786.3 695C 788.7 702.8 791.7 708.4 799.5 720C 814 741.4 815.5 744.7 817.5 759.3C 818 763.4 819.1 765.2 823.6 770.1C 826.6 773.3 829 776.1 829 776.3C 829 776.5 828.5 778.1 827.9 779.9C 826.5 783.8 824.6 783.8 821.2 780C 819.7 778.3 818.1 777 817.5 777C 816.6 777 801 792.6 801 793.5C 801 793.6 806.5 791.8 813.2 789.4C 820 787 826.5 785 827.7 785C 830.2 785 838.2 775.2 851.2 756C 864.9 735.8 876.9 714 886.8 691.5C 891 681.8 900.1 655.7 899.4 655.1C 899.2 654.8 894.6 653.7 889.3 652.5L 879.7 650.3L 885.9 648.6C 889.3 647.6 892 646.6 891.8 646.2C 891.6 645.8 890.4 643.4 889.2 640.7L 887.1 636L 861.1 636L 835.1 636L 834 632.2C 833.5 630.2 832.1 627.1 831 625.5C 828.4 621.6 828.5 619.7 831.3 616.5C 833 614.4 834.7 613.8 839.3 613.3L 845.2 612.7L 832.5 607.9L 819.8 603L 799 603L 778.2 603L 778.7 593.8C 779.2 584.9 779.1 584.3 776.5 581L 773.9 577.5L 779.7 574.8C 782.9 573.3 789.6 571 794.5 569.9C 799.5 568.7 804.2 567.5 805 567.2C 805.8 566.9 801.1 566.1 794.5 565.3C 778.7 563.5 775 562.5 775 560C 775 557.5 777.2 556.4 784.5 555.5L 790.5 554.8L 784 552.9C 767.8 548.2 734.9 545.4 727.3 548C 725.6 548.6 723.8 550.2 723.2 551.5C 722.2 553.6 722.6 554.5 726.3 559.1C 730.3 564.1 730.3 564.3 727.8 563.7C 721.6 562.1 709.4 560.9 706.1 561.5C 699 562.8 697.2 564.5 695 571.9C 692.6 579.9 691 581.8 687.6 580.2C 685.5 579.3 685.3 578.4 684.7 569.3C 684.4 563.9 683.8 558.8 683.5 557.9C 683 556.6 684.7 556.2 693.9 555.2C 710.8 553.5 715.6 550.5 721.4 538C 724.8 530.7 724.7 528.4 720.4 519.7L 716.7 512.3L 720.8 508.2C 724.6 504.4 724.9 504.3 726.4 505.9C 728.7 508.4 742.9 515.7 748.2 517C 752.5 518.1 753.1 518 757.3 515.5C 767.4 509.6 772.8 500.6 772.6 490.1L 772.5 483.8L 767 482.1C 756.8 478.9 749.5 473.9 751.7 471.6C 753.9 469.4 765.5 473.5 770.8 478.3C 772 479.4 773 479.9 773 479.3C 773 476.2 760.2 469.7 754.1 469.8C 751 469.8 748.7 469.1 746.6 467.6C 744.9 466.3 741.9 464.7 740 464C 738.1 463.3 736.4 462.5 736.2 462.4C 736 462.3 738.4 455.4 741.4 447.1C 761.5 393 764.1 343.4 749.4 297.8L 745.9 287L 747 276.7C 749.7 252.4 744 230.9 731.8 219.4C 728.9 216.6 725.8 214 725 213.4C 724.2 212.9 722.1 210.5 720.5 208.1C 718.8 205.7 713.6 199.7 708.7 194.8L 700 186L 717.7 185.9L 735.5 185.9L 728.8 183.8C 725 182.6 722 181.3 722 180.9C 722 180.4 730.2 179.9 740.2 179.8L 758.5 179.5L 748.5 171.3L 738.5 163L 730.5 163C 719.6 163 718 162.4 718 158.9C 718 156.2 718.2 156.1 723.3 155.8L 728.5 155.5L 722.5 151.4C 697.6 134.3 661.6 116.9 630.9 107.2C 608.4 100 581.1 94.3003 556 91.5003C 538.6 89.6003 505 88.8 488.5 90zM 585 136.5C 625.4 143.7 665.3 161.7 697.2 187.2C 705.3 193.7 720 208.3 720 210C 720 210.4 716.3 209.6 711.8 208.3C 700.1 204.8 682.8 205.4 665.8 209.8C 653.1 213.1 635.2 219.9 622.5 226.2C 593.3 240.9 555.9 269 536.8 290.7C 531.3 297 526.2 304 527.2 304C 527.4 304 531.4 299.7 536 294.4C 551.7 276.5 576.2 255.9 597.4 242.6C 615.2 231.4 642.5 218.6 659.4 213.5C 684.6 205.8 709.5 206.3 723.8 214.6C 738.2 223 746.1 240.7 745.9 263.4L 745.7 274.5L 744.9 263.9C 742.3 230 726.8 215 694.5 215C 658.7 215 618.5 233.7 573.5 271.3C 554.8 286.9 536.4 304.6 525.4 317.4C 520.1 323.5 515.4 328.6 514.9 328.8C 513 329.5 514.2 327 520 318.7L 525.9 310.1L 499.9 285.4C 485.5 271.8 473.4 259.7 472.8 258.5C 472.1 257 472.2 252.4 472.9 244.2C 474.6 225.4 474.4 219.9 471.7 215.9C 468.5 211 460.8 207.5 450.3 206C 437.4 204.3 437.4 204.3 436 201.1C 434.9 198.4 435.1 197.5 437.7 192.8C 441.6 185.5 456.7 170.5 467.1 163.7C 490.2 148.5 515.8 138.2 538.5 135.1C 547.9 133.8 574.5 134.6 585 136.5zM 679.8 145.3C 680 146.5 679.5 147 678.1 147C 676.9 147 676 146.4 676 145.7C 676 142.6 679.2 142.3 679.8 145.3zM 456.4 163.7C 439 176.8 419.3 196.1 405 214C 397.8 223 394.3 228.5 389 239.5C 375.6 267 365 294.2 365 300.9C 365 305 368.4 308.8 372.8 309.7L 376.5 310.4L 371.1 311.2C 368.1 311.7 365.5 312.2 365.4 312.3C 365.2 312.4 364.6 315.5 364.1 319C 363.1 325.1 363.1 325.6 365 326.9C 366.9 328.2 366.9 328.4 365.4 330.1C 363 332.8 362.4 340.2 364.4 341.9C 366.7 343.9 366.4 345.7 363.3 347.7C 361.7 348.6 360.3 349.5 360.1 349.7C 359.8 349.9 360.5 350.6 361.5 351.4C 363.2 352.6 363.2 352.7 360.7 353.4C 357.7 354.1 355.7 359.6 356.2 365.8L 356.5 369.5L 365.5 370.1L 374.5 370.6L 365.8 370.8C 361.1 370.9 356.5 370.7 355.6 370.4C 353.5 369.6 353.6 367.3 356 357.1L 358 348.7L 355.8 346.3L 353.5 343.8L 356.8 341.2C 360.4 338.2 360.9 335.2 358.5 330.6C 357.1 328 357.1 327.6 358.5 326.6C 359.8 325.7 360 323.9 359.8 318.5L 359.5 311.5L 356.3 311.2C 354.5 311 353 310.8 353 310.6C 353 310.5 355 305 357.4 298.4C 365.5 276.4 378.2 245.6 384.5 232.5C 390 221.3 392.1 218.2 399.7 209.8C 414.9 193.1 431.3 179 449.3 166.9C 460.3 159.5 464.4 157.7 456.4 163.7zM 352.5 182.5C 352.5 184.7 349.4 185.8 347.8 184.2C 346.1 182.5 347.7 179.8 350.2 180.2C 351.7 180.4 352.5 181.2 352.5 182.5zM 367 194.6C 367 196.5 364.2 197.6 362.8 196.2C 362 195.4 362 194.7 362.9 193.6C 364.3 191.9 367 192.6 367 194.6zM 698.4 228.6C 710.3 231.6 721.4 238.8 728.4 247.8C 733.7 254.9 736.5 260.1 731.9 254.5C 723.6 244.4 714.9 238.2 704.2 234.4C 691.1 229.9 674.3 229.5 659 233.5C 644.3 237.3 619.3 248.3 604.3 257.5C 596.7 262.2 601.5 257.9 611.5 251.1C 641.4 230.7 673.6 222.4 698.4 228.6zM 335.2 234.5C 336.9 238.2 334.9 242 331.2 242C 327.7 242 326 240.4 326 237C 326 233.6 327.7 232 331.2 232C 333.3 232 334.4 232.7 335.2 234.5zM 705.8 241.5C 720.7 245 727.4 252 739 276.3C 754.7 309.1 761 347 756.5 381.6C 750.9 423.8 737.1 462.4 718.3 487.7C 715.2 491.9 712.3 495 711.2 495C 708.3 495 702 493 702 492C 702 491.5 705.4 485 709.5 477.6C 727.9 444.6 737.3 415.8 740 384C 741.3 369.7 740.8 358.6 738.4 340.1C 734 306.8 721.1 275.4 700.9 248.8C 697.6 244.6 695 240.9 695 240.6C 695 239.6 699.3 240 705.8 241.5zM 220 262.5C 220 263.3 219.6 264 219.1 264C 217.8 264 216.9 262.4 217.7 261.6C 218.8 260.5 220 261 220 262.5zM 444.5 288.2C 455.2 290.9 467.3 299.2 473.2 307.8L 476.4 312.5L 469.4 306C 465.6 302.4 459.3 297.9 455.5 295.8C 448.1 292 436.4 288 432.5 288C 431.2 288 429.8 287.5 429.4 286.9C 428.7 285.7 437.6 286.5 444.5 288.2zM 434.1 301.7C 443.5 305.9 449.6 314.5 452 327C 453.5 334.7 453.2 350.7 451.5 359.7C 450.1 367 446.1 379.5 445.4 378.7C 445.2 378.6 445.8 374.6 446.6 370C 453 334.1 428.7 298.8 402.8 306.4C 391.9 309.5 385.1 316.9 380.3 330.6C 377.9 337.7 377.6 339.8 377.6 352C 377.6 363.5 378 367 380.3 375.4C 382.9 384.9 389.3 401.2 392.7 406.9C 393.6 408.5 392.9 408 390.6 405.5C 385.6 399.9 380.7 389.4 376.9 376.5C 374.2 366.9 373.8 363.9 373.7 353C 373.6 324.9 383.3 308.3 404.5 300.7C 411.4 298.3 427.5 298.8 434.1 301.7zM 251.8 308.2C 252.2 311.8 249.2 313.5 246.2 311.4C 242.4 308.8 244.3 304.7 249 305.2C 250.9 305.4 251.6 306.2 251.8 308.2zM 381 316C 380.2 316.5 379.1 317 378.5 317C 378 317 378.2 316.5 379 316C 379.8 315.5 381 315 381.5 315C 382.1 315 381.8 315.5 381 316zM 255.5 320.9C 255.8 321.4 255.6 322.1 255 322.5C 254.5 322.8 254 322.4 254 321.6C 254 319.8 254.6 319.5 255.5 320.9zM 508.4 335.7C 510.5 346 513.1 385.3 512.3 394.1L 511.7 400.1L 506.7 399.8L 501.7 399.5L 501.9 387C 502.2 371.4 500.2 348.7 497.5 336.3C 497 334.3 497.4 334.1 501.7 333.7C 504.4 333.5 506.8 333.3 507.2 333.2C 507.5 333.1 508.1 334.2 508.4 335.7zM 515.7 339.2C 517.6 345.1 519 357.7 519.7 375.2C 520.2 389.8 520.1 392.2 518.6 394.4C 517.7 395.8 516.5 397 516 397C 515.4 397 515 392.2 515 385.2C 514.9 374 513.8 354.6 512.4 341.1C 511.9 335.9 512 334.8 513.1 335.2C 513.9 335.4 515 337.2 515.7 339.2zM 166.4 357.5C 166.7 358.4 166.3 359.3 165.4 359.7C 163.5 360.4 162.6 359.5 163.3 357.5C 164.1 355.6 165.6 355.6 166.4 357.5zM 330.5 365C 330.8 365.5 330.4 366 329.6 366C 328.7 366 328 365.5 328 365C 328 364.4 328.4 364 328.9 364C 329.5 364 330.2 364.4 330.5 365zM 359 383.2C 357.5 395.8 358.1 397 366.4 400.4C 370.1 401.8 374.5 403 376.3 403.1L 379.5 403.2L 376.5 404.1C 372.7 405.2 361.4 401.8 358.6 398.7C 357 396.8 356.8 395.4 357.4 388.5C 358.1 379.1 359.1 372.8 359.7 373.4C 360 373.6 359.7 378.1 359 383.2zM 310.8 386.2C 312.6 388 312.2 390.8 310 392C 307.2 393.5 303.5 389.8 305 387C 306.2 384.8 309 384.4 310.8 386.2zM 386.9 407.8C 387.6 409 387.3 411.7 385.9 416.5C 383.7 424.4 383.5 431.7 385.3 434.1C 388 437.7 399.7 442.2 425 449.5C 435.2 452.5 442.9 454.9 442.2 454.9C 440.5 455 407.8 446.8 397.4 443.6C 380.4 438.5 379.5 436.8 383.1 418.1C 384.3 411.4 385.5 406 385.7 406C 385.8 406 386.4 406.8 386.9 407.8zM 579 448.6C 591.6 458.1 602.7 465.2 618.5 474.1C 648.1 490.6 679.5 501 700 501C 707.5 501 711.7 499.8 717.3 496.1C 720.5 494 721.3 493.9 722.1 495.1C 723.8 497.6 722.1 503.3 718.8 506.4L 715.6 509.3L 701.1 508.7C 685.5 508 675.2 506.1 661 501.2C 631.4 491 599.9 474.3 580.1 458.2C 569.4 449.5 551.3 430 543.8 419L 538.6 411.5L 554.1 426.5C 562.6 434.8 573.8 444.7 579 448.6zM 495.7 414.1L 498.5 415.2L 493.9 417.5C 488.1 420.5 483.7 425.4 479.7 433.7L 476.5 440.1L 471.5 439.5C 468.8 439.1 466.1 438.4 465.6 438C 464.4 436.8 470 425.2 473.9 420.8C 479.7 414.1 488.7 411.4 495.7 414.1zM 503.3 421.6C 503.7 422 501.3 423.5 498.1 425C 492 427.9 486.9 432.4 481.9 439.2C 477.7 445.2 478.3 442.3 482.9 435.4C 487.7 428 491.7 424.2 496.6 422.5C 501 420.9 502.4 420.7 503.3 421.6zM 522.1 433.5C 525.9 435.5 528.1 436 530.6 435.6C 534.1 434.9 545.9 438.9 548.1 441.6C 549.6 443.5 548.4 443.4 541.5 441C 538.3 439.9 534.2 439 532.4 439C 529.7 439 529 439.5 528.1 442.1C 526.6 446.5 526.6 446.7 529.9 446.2C 533.4 445.7 539.3 447.5 541.1 449.6C 543 451.9 541.9 452 534.4 449.8C 523.5 446.6 519.2 448.7 517 458.4C 515.2 466.4 514.9 467.1 513.9 466.5C 512.5 465.6 512.8 460.4 514.4 456.5C 515.5 453.9 515.6 452.9 514.7 452.2C 512.5 450.5 506.7 449 499.9 448.4C 490.7 447.5 490.3 447.1 493.3 442.4C 496.2 437.8 500.3 433.9 504.5 431.6C 508.5 429.4 515.4 430.2 522.1 433.5zM 360 435.8C 351.3 441.8 337.4 452.7 331 458.5C 315 473.3 308.3 483.3 305.5 496.5C 303.7 505.3 303.7 511.1 305.5 527.3C 307.5 545.3 306 551.6 298.7 556C 294.8 558.4 288.3 558.6 271 556.5C 249.8 554 233.7 554.7 223.8 558.7C 221 559.8 217.4 563.3 210.4 571.9C 205.1 578.3 200.1 585.1 199.2 587C 198.1 589.6 197.7 594.4 197.7 606.5C 197.8 615.3 197.5 621.2 197.1 619.6L 196.5 616.6L 191.7 622C 182.9 631.7 180.8 638.3 180.8 655C 180.8 664.6 180.6 665.8 179.8 662C 179.3 659.5 179.1 653 179.3 647.5C 179.7 634.9 182.3 628.9 190.8 620.8L 196.6 615.3L 196.5 601.9C 196.5 590.4 196.8 588 198.5 584.8C 201.8 578.5 217.2 561 221.5 558.5C 231.1 552.8 248.4 551.6 276.1 554.7C 293.7 556.6 297.4 556 301.4 550.7C 303.3 548 303.5 546.8 303.1 535.7C 302 505.9 302.3 496.9 304.9 490C 310.8 473.8 323.4 460.5 350.4 441.6C 356.4 437.4 361.5 434 361.9 434.1C 362.2 434.1 361.4 434.9 360 435.8zM 375.1 446.6C 366 451.4 355.8 458.4 349.8 463.8C 347.7 465.7 346 466.8 346 466.3C 346 465.4 358.1 455.1 363.8 451C 368.4 447.9 380.1 442.1 382 442C 382.8 442 379.7 444.1 375.1 446.6zM 400.5 454.1C 401.1 454.9 402.6 456.4 404 457.3C 405.3 458.2 405.9 459 405.1 459C 404.4 459 402.5 457.7 400.9 456.1C 398.8 453.9 398 452.3 398.1 449.8L 398.3 446.5L 398.9 449.5C 399.2 451.1 400 453.2 400.5 454.1zM 469.8 457.4C 470 458.8 471.5 461.1 473.1 462.5C 476.6 465.4 476.5 465.4 470.2 463.9C 463.8 462.3 463 461.4 463 456.4L 463 452.1L 466.3 453.5C 468.5 454.4 469.6 455.6 469.8 457.4zM 381.4 458.5C 377.8 462.1 376 467.1 376 473.2C 376.1 480.7 377.7 484.6 385.6 497C 386.5 498.4 385.1 497.3 382.5 494.6C 374.8 486.4 371.7 477.7 373.4 468.5C 374.1 465.1 381.1 456 383.1 456C 383.5 456 382.8 457.1 381.4 458.5zM 573.5 474.8C 616.7 504.2 662.7 523 691.4 523C 701.2 523 705.4 521.6 710.1 516.8C 714.4 512.4 715 513.2 712.1 519.7C 708.8 527 702.3 528.8 686.5 527.1C 657.5 523.8 627.5 514.2 585.3 494.7C 572.9 488.9 549 477.2 548.2 476.5C 548.1 476.4 549.3 473.7 551 470.5C 552.6 467.4 554 463.9 554 462.8C 554 460.9 554.2 460.9 557.3 463.4C 559 464.8 566.4 470 573.5 474.8zM 534 464.5C 535.8 466.7 532.7 471.2 529.7 470.8C 526.9 470.4 526.3 467.4 528.6 464.9C 530.7 462.6 532.3 462.5 534 464.5zM 743.2 467.5C 746.6 469.8 749.7 473.7 748.8 474.5C 748 475.3 734 468.7 734 467.6C 734 464.2 738.3 464.1 743.2 467.5zM 490.2 470.1C 492.9 471.8 498.8 474.3 503.3 475.6C 510.6 477.7 512 478.6 516.1 483C 521.6 489 521.3 489.5 515.6 484.2C 512 480.9 510 480 501.7 478.1C 493.1 476.1 491.5 475.4 487.3 471.5C 481.7 466.3 483.2 465.6 490.2 470.1zM 239.8 474.7C 239.4 476.9 237.6 476.7 237.2 474.6C 237 473.6 237.5 473 238.5 473C 239.5 473 240 473.7 239.8 474.7zM 554.6 482.5L 562.1 485.9L 561.4 490.7C 561.1 493.3 560.6 495.7 560.4 495.9C 560.2 496.1 556.8 494.9 552.8 493.2C 548.8 491.5 543.8 489.9 541.8 489.5C 537.6 488.7 537.6 488.7 539.1 485.7C 540.8 482.4 544.2 479 545.7 479C 546.5 479 550.5 480.6 554.6 482.5zM 757.9 482.6C 763.8 485.6 764.5 486.6 763.1 490.1L 762.1 492.5L 762.1 490.2C 762 488.3 760.7 487.2 755 484.7C 751.2 482.9 748 481.2 748 480.7C 748 479.2 752.8 480.1 757.9 482.6zM 372.6 497.6C 371.9 499.8 370.9 504.9 370.5 508.9C 369.9 514.6 369.5 515.9 368.8 514.5C 367.3 511.9 368.4 504.3 371 498.2C 373.6 492.2 374.7 491.8 372.6 497.6zM 365.3 507.7C 364.6 507.9 363.4 507.9 362.8 507.7C 362.1 507.4 362.6 507.2 364 507.2C 365.4 507.2 365.9 507.4 365.3 507.7zM 353.2 509.5C 343.9 511 342 511.5 342 512.8C 342 514.8 348.9 516.1 385 520.5C 405.6 523 423.2 525.2 424 525.5C 427.5 526.5 408.3 524.6 378.5 520.9C 336.7 515.8 338 515.7 337.8 522.1C 337.6 527.5 340.5 529.1 352.7 530.6L 363.5 531.9L 351.5 531.6C 334.4 531.1 332 529.5 334.1 520.2C 336 511.6 337.7 510.2 347.9 509C 358.6 507.8 362.2 508.1 353.2 509.5zM 126.5 513.5C 126.5 516 126.1 516.5 124.1 516.5C 120.9 516.5 119.2 513.7 121 511.5C 121.7 510.6 123.3 510 124.4 510.2C 126 510.4 126.5 511.2 126.5 513.5zM 720 528.6C 720 531 718 533 713 535.5C 710.3 536.9 708.1 537.1 702 536.7C 692.7 535.9 678 532.9 667.5 529.6C 658.3 526.7 646.1 521.6 650.5 522.5C 679.7 528.7 683.1 529.2 693.5 529.4C 702.9 529.5 705 529.2 707.5 527.6C 711 525.3 712.7 523.4 714.1 520C 715.2 517.5 715.2 517.5 717.5 522C 718.8 524.5 719.9 527.4 720 528.6zM 366.9 533.3C 362.8 536.3 347.4 545.2 349.7 543.3C 353.6 539.9 366.3 532.1 366.9 532.6C 367.1 532.8 367.1 533.1 366.9 533.3zM 359.8 544.3C 348.5 550.4 335.4 560 325.6 569.2C 320.9 573.6 317 576.8 317 576.4C 317 576 318.8 573.3 320.9 570.5C 325 565 332.3 558.5 340 553.3C 344.1 550.5 360.2 542.1 364 540.7C 368.3 539.2 366.7 540.5 359.8 544.3zM 163.6 542.8C 167.9 545.7 167 552.9 162.3 553C 160.2 553 157 549.1 157 546.5C 157 543.2 160.9 541 163.6 542.8zM 484.7 555C 506.1 565.8 537.6 586.3 551 598.1C 556.2 602.7 553.4 601 509.5 573C 495.6 564.2 484.5 557.8 474.3 552.6C 470.3 550.6 467 548.8 467 548.5C 467 546.8 472.7 548.9 484.7 555zM 457.5 562.1L 460.5 564.2L 454.6 563.5C 451.3 563.2 448.8 563.1 449.1 563.4C 449.3 563.6 453.1 565 457.5 566.5C 474.6 572.2 490.6 582.6 504.1 596.6C 511.5 604.3 521.7 617.7 520.8 618.5C 520.6 618.8 518.7 617.8 516.6 616.4C 502.7 606.9 466.5 588.6 458.6 587.1C 452.9 586 428.2 584.5 429 585.3C 429.3 585.6 434.9 587.7 441.5 590C 459.5 596.3 475.5 604.2 477.3 607.7C 478.1 609.2 484.5 627.6 491.6 648.5L 504.5 686.5L 504.3 696C 504.1 709.9 499.5 729.7 496.3 730.7C 495.7 730.9 492.5 728.7 489.2 725.8C 486 722.9 481.8 719.4 480.1 718C 477.1 715.7 476.2 713.3 469.1 690.5C 460.3 662.4 459.4 659 460.8 660.5C 462.1 661.8 478.4 691.7 484.6 704.2C 487.3 709.6 489.8 714 490.2 714C 491.5 714 492.2 705.1 491.2 700.3C 489.9 694.2 478.6 669 467.3 646.7C 456.7 625.9 452.6 621 440.2 614.7C 430.4 609.6 412.6 602.5 400.2 598.6C 392.2 596.1 375.1 592.6 374.3 593.3C 374.1 593.5 374.6 595 375.4 596.6C 376.3 598.1 376.8 599.5 376.6 599.7C 376.4 599.9 374.2 599.1 371.6 597.9C 365.9 595.4 364.3 595.6 347.6 601.1C 341.1 603.2 335.6 605 335.5 605C 335.4 605 335.5 603.7 335.8 602.1C 336.4 597.9 338.2 596.6 349.5 592.2C 358.1 588.9 359.5 588 359.3 586.2C 358.5 579.5 361.2 577.9 389.3 568.5C 416 559.6 419.2 559 438.5 559.6C 452.4 560 454.8 560.3 457.5 562.1zM 489.7 574.2C 493.9 577 499.7 583.6 498.8 584.5C 498.5 584.9 490.4 578.8 477.9 568.7L 474.5 565.9L 480 568.6C 483 570.1 487.4 572.6 489.7 574.2zM 543.3 570C 553.7 573.5 559.3 575.9 586 588.2C 618.2 603.1 632.8 608 645.5 608C 651.2 608 651.6 608.2 653.5 611.2C 657.6 617.7 658.2 619.4 659.3 625.6C 660.2 630.7 660.8 632 662.2 632C 664.3 632 664.3 632.1 660.3 617.1C 659 612 658 607.7 658.2 607.5C 658.4 607.4 661 606.5 664 605.5C 671.2 603.2 680 594.6 682.7 587.1C 683.7 584.3 684.9 582.1 685.4 582.3C 687 582.8 694.1 602.9 696.1 612.5C 698.2 622.5 698.7 642.1 697 648.1C 696.4 650.1 695.1 652.5 694 653.5C 692.9 654.5 692 656.1 692 657.2C 692 658.7 691.2 659 687.5 659C 682.1 659 682 659.6 685.5 668.2C 688.5 675.6 688.5 676.2 686 678.5C 684.7 679.7 684 681.6 684 684.2C 684 687.7 684.2 688 687 688C 688.6 688 690.5 688.6 691.2 689.3C 691.9 690.1 693.2 690.5 694.1 690.3C 695.5 689.9 695.9 690.8 696.2 695.8C 696.5 702.6 695.6 703.2 694.6 696.9C 694.2 694.6 693.7 693 693.4 693.3C 693.1 693.6 693.6 699.8 694.5 707C 695.4 714.3 695.9 720.4 695.8 720.6C 695.6 720.8 694.1 714.4 692.5 706.4C 690.9 698.4 689.2 691.6 688.7 691.3C 688.2 691 687.3 691.3 686.7 691.9C 685.9 692.7 686 697.6 686.9 710.1C 687.5 719.5 687.8 727.5 687.5 727.8C 685.9 729.4 684.7 724.8 682.7 709.4L 680.4 692.5L 676.9 692.2C 670.7 691.7 668.4 691 670.1 689.9C 670.8 689.4 673 689 674.8 689C 676.5 689 678 688.7 678 688.2C 678 686.1 672 659.8 670.5 655.5C 668.5 649.8 662.3 637 661.4 637C 661.1 637 661.1 640.3 661.5 644.2C 662.1 650.7 660.8 660.7 658.4 668C 658.1 668.8 655.8 665.8 652.7 660.5C 645.3 647.8 637.8 640.6 625.5 634.2C 620 631.4 613 627.6 610 625.9L 604.6 622.7L 610 628.7C 613 632 621.8 641.6 629.5 650.1C 637.2 658.6 647.1 669 651.4 673.4C 657 678.9 659.8 682.7 661.1 686.1L 663 691L 656.2 691C 652.5 691 647.8 690.7 645.8 690.4L 642.1 689.7L 641.8 680.7L 641.5 671.6L 638.1 669.3C 635.9 667.8 633.2 667 630.6 667C 626.6 667 626.3 666.8 624.1 662.2C 622.8 659.6 619.4 654.5 616.4 650.9C 610.9 644.2 588.5 623.1 572.8 609.9C 567.9 605.9 564 602 564 601.3C 564 600.5 566.6 601 572.3 602.9C 576.8 604.4 581.9 606 583.5 606.3L 586.5 607L 583.5 605.3C 581.9 604.4 575.7 602 569.8 599.9C 557.7 595.7 557.2 595.4 540.4 581.8C 528.5 572.3 525 569 526.5 569C 527.4 569 540.5 576.1 563 588.8C 592.3 605.4 608.6 613.5 621.3 617.9C 644.3 625.8 650.3 630 653.6 640.5C 654.4 643.2 655.4 646.1 655.6 646.9C 656.7 650.2 656.9 646.9 655.9 641.1C 654.1 629.5 649.1 619 645.6 619C 638 619 605.1 605.1 564 584.4C 527.8 566.3 523.8 563.5 543.3 570zM 269.2 571.1C 274.4 572.8 277 575.5 277 579.2L 277 582.3L 282.3 581.7C 287.4 581.1 287.4 581.1 279 584.1C 271.3 586.8 251.6 591.9 243.3 593.4C 239.4 594.1 237.3 592.3 236.4 587.4C 234.9 579.2 237.3 572.2 242.5 569.9C 245.2 568.7 264.6 569.5 269.2 571.1zM 126 575.5C 126 577.3 125.5 578 124.1 578C 123 578 121.8 577.5 121.5 577C 120.4 575.2 121.8 573 124 573C 125.5 573 126 573.7 126 575.5zM 619 591.6C 636.8 596 639.6 596.4 651 596.4C 665.3 596.5 669.4 595.2 677 588.4L 681.4 584.5L 678 590.9C 669.7 606.4 649.8 610 622.5 600.9C 613 597.7 589.7 587 588.6 585.2C 587.9 584.1 589 584.3 619 591.6zM 537.5 602.9C 584.7 636.5 608.3 656.9 610.4 666C 611 668.3 610.4 668.8 604.8 671.6C 599.5 674.2 598.5 675.1 598.7 677.1C 598.7 678.4 599.1 683.1 599.5 687.5L 600.2 695.5L 597.5 691C 596 688.5 593.2 683.8 591.2 680.5C 585.3 670.6 579.9 664.1 566.4 651C 544.8 630 541.4 626.3 537.8 620.3C 532.1 610.8 523.1 592.9 524.3 593.7C 525 594 530.9 598.2 537.5 602.9zM 269.1 605.7C 269.9 606.6 270.5 609.4 270.5 612C 270.5 615.6 269.8 617.5 267.7 620.3C 263.4 625.9 261.1 631.9 259.9 640.6C 259.3 644.9 258.4 649.2 257.9 650.2C 257.4 651.1 253.8 654.1 249.8 656.9C 243.4 661.4 242 662 237.5 662L 232.3 662L 230.7 652C 228.3 637.6 228.3 637.3 233.6 631.9C 238.1 627.4 238.3 626.9 239 619.6C 240 608.9 242.4 606.5 253.3 605.1C 263.8 603.7 267.6 603.8 269.1 605.7zM 402 620C 406.7 622.9 415.5 628.8 421.7 633.2C 434.4 642.1 432.1 638.2 443.1 669C 450.7 690.1 451.8 692.5 460.6 710.3C 468.9 726.7 472.3 736.1 474 746.4C 476.4 761.7 478 777 478 785.6C 478 795.7 476.7 798.5 470.8 801.6C 467.6 803.2 465.9 802.6 464 798.9C 461.4 794.1 453.7 750.8 452.5 734C 452.1 728.8 451.2 723.8 450.6 722.7C 449 720 404.2 680.5 405.1 682.6C 405.4 683.1 409.8 692 415.1 702.5C 420.3 712.9 427.2 727.4 430.4 734.6C 434.6 744.3 438.2 750.6 443.9 758.3C 448.9 765 452.1 770.3 452.8 773.1C 453.6 776.5 453.6 777.1 452.7 775.6C 448.8 769.4 448.1 769.7 450.6 776.5C 454 786 458.8 796.1 463.8 804.4C 468.5 812 469.5 816.3 468.3 823C 467.3 828.2 465.3 829.2 461.6 826.3C 440.8 810.2 434.7 806.3 409.3 792.5C 400.3 787.7 393 783.6 393 783.4C 393 783.2 396.9 783.1 401.6 783.2C 411.8 783.5 413.3 782.5 411 776.9C 409.2 772.5 389.9 753.1 383.9 749.7C 381.4 748.2 375.6 746.1 371 744.9C 366.4 743.8 361.8 742.4 360.8 741.9C 359.9 741.4 357.5 737.9 355.5 734.2C 353.6 730.5 346.8 721.4 340.5 714C 334.3 706.6 329.3 700.4 329.5 700.2C 329.7 700 337 705.1 345.7 711.6C 368.9 728.9 379.1 736.2 379.5 735.8C 379.7 735.6 376.7 730.4 372.9 724.2C 369.1 718.1 366.3 713 366.6 713C 368.7 713 390.2 727.1 407.3 739.5C 418.1 747.4 427 753.7 427 753.5C 427 752.8 407.5 724.7 400.8 715.7C 397.6 711.4 395 707.7 395 707.4C 395 707.2 395.9 707.4 396.9 708C 399.9 709.5 405 709.2 405.7 707.5C 406.8 704.4 391.5 669.9 386.8 665.1C 383.4 661.7 364.6 648.4 359.3 645.6C 357.5 644.7 354.5 644 352.5 644L 348.9 644L 350.4 641.2C 352.6 637 361.5 629.1 366.6 626.9C 369.1 625.7 375.2 623.8 380.2 622.6C 387 620.8 388.6 620.2 386.4 619.9C 381.3 619.1 352.7 620.8 345.7 622.3C 342 623 339 623.5 339 623.3C 339 622.9 345.9 620 351 618.3C 359.4 615.5 371.3 614.1 382.5 614.4L 393.6 614.7L 402 620zM 580.8 621.2C 599.9 635.6 616.8 652.8 622.1 663.1L 623.9 666.8L 619.2 667.5C 615.4 668.1 614.3 667.9 613.5 666.5C 607.1 655.7 600.3 648.3 584.5 635.1C 579 630.5 574 625.6 573.3 624.1C 571.8 621 571.6 616 572.9 616C 573.4 616 577 618.4 580.8 621.2zM 709.9 623C 714.9 634.5 715.9 643.9 712.9 651.7C 711.7 654.9 710 654.6 710 651.1C 710 649.5 709.1 642.2 708 634.8C 706.9 627.5 706 620.7 706 619.7C 706 616.5 707.7 618 709.9 623zM 529.5 649.1C 535.3 653.5 540.2 657.5 540.4 657.9C 541.5 659.6 545.8 693.1 548.5 720.7C 549.1 726.8 549 727 545.4 731C 543.4 733.2 541.5 734.8 541.2 734.5C 540.9 734.2 540.3 724.8 539.9 713.7L 539.2 693.5L 532.7 677C 529.2 667.9 524.5 656.1 522.2 650.7C 520 645.4 518.3 641 518.6 641C 518.9 641 523.8 644.6 529.5 649.1zM 849 653.5C 849 654.3 848.3 655 847.5 655C 846.7 655 846 654.3 846 653.5C 846 652.7 846.7 652 847.5 652C 848.3 652 849 652.7 849 653.5zM 451.5 661C 454.5 663.2 457.1 665.6 457.1 666.3C 457.3 668.4 457 671.3 455.8 678C 454.7 684.2 454.6 684.3 453.7 681.5C 453.2 679.8 451 673.8 448.9 668.1C 446.7 662.3 445 657.5 445 657.3C 445 656.5 446.5 657.3 451.5 661zM 721 659C 721 659.6 716.8 660 710.4 660C 703.7 660 700.1 659.6 700.5 659C 700.8 658.4 705.5 658 711.1 658C 717 658 721 658.4 721 659zM 720.5 664.5C 720.5 666.3 719.5 666.6 712 667.6L 703.5 668.8L 712 669C 722.8 669.3 725.4 670 725.8 672.8C 726.1 675 725.9 675 714.5 675C 701.7 675 702.5 675.5 701.6 667.2L 701.1 661.9L 710.8 662.2C 719.7 662.5 720.5 662.7 720.5 664.5zM 561.3 679.8C 573.1 692.7 576.2 697.1 581 708.2L 583.3 713.5L 584.9 706.8C 585.8 703.2 586.8 699.8 587.2 699.5C 587.6 699.1 588.8 700.7 590 703C 592.5 708 603.5 735.8 607.6 747.5C 609.1 751.9 610.6 755.8 611 756.2C 611.3 756.7 613.8 754.8 616.5 752L 621.3 747.1L 617 743.3L 612.7 739.4L 625.4 738.1L 638.1 736.8L 643.6 739.5C 650.1 742.7 653.2 746.9 655.4 755.4C 656.6 760 657.9 762.1 661.4 765.4C 665.4 769.1 669.9 776.6 670 779.6C 670 780.4 667.8 780.2 662.8 779.2C 657.8 778.2 648.8 777.7 634.5 777.7C 613.8 777.6 604.3 778.3 570.5 782.1C 561.2 783.1 549.7 784 545 784L 536.5 783.9L 538.8 782C 544.2 777.5 551.7 775.7 567.5 775.2L 582.4 774.7L 577.7 772.4C 565.7 766.2 568.2 756.2 582 755.2C 585.3 755 588 754.5 588 754.1C 588 753.7 580.8 750.5 571.9 747C 563.1 743.5 555.7 740.3 555.5 740C 555.1 739.4 551.1 710.4 548 686.5C 546.9 677.7 545.7 668.7 545.4 666.5L 544.8 662.5L 547 664.5C 548.2 665.6 554.6 672.4 561.3 679.8zM 636 670.5C 637.7 671.4 639 672.2 639 672.4C 639 672.7 639.2 673.4 639.5 674.2C 639.9 675.2 637.8 675.5 629.3 675.5C 623.3 675.5 615.2 675.9 611.3 676.3C 604.9 677 604 676.9 604 675.5C 604 670.9 629.2 667 636 670.5zM 821 672C 821 672.5 820.6 673 820 673C 819.5 673 819 672.5 819 672C 819 671.4 819.5 671 820 671C 820.6 671 821 671.4 821 672zM 250.6 681.6C 249.8 688.4 248.8 690.3 240.9 701C 233.7 710.8 231.4 715.5 226.4 730.7C 222.3 743.2 222.2 743.2 217.3 735.4C 214.3 730.7 213 730.2 208.8 732.4C 207.1 733.3 206 733.5 206 732.8C 206 731 215.7 715.7 221.4 708.6C 227.3 701.3 250.1 676 250.8 676C 251.1 676 251 678.5 250.6 681.6zM 724.1 686.9C 724.9 687.9 726.6 694.5 727.9 701.6C 729.9 712.8 733.7 731.2 735.6 739C 736.2 741.1 735.5 740.8 731.1 736.5C 724.5 730.2 724.3 729.8 722.4 719.8C 721.6 715.2 719.8 708 718.4 703.7C 716.1 696.2 715.2 686.1 716.7 684.6C 717.8 683.5 722.3 684.9 724.1 686.9zM 626.8 686.9C 627.5 687.3 628.4 690.3 628.7 693.6L 629.3 699.5L 625.2 695.8C 623 693.8 620 691.4 618.6 690.5C 614.4 687.7 615.3 686 620.8 686C 623.4 686 626.1 686.4 626.8 686.9zM 628.1 710C 628.5 711.9 629 715.4 629.4 717.7L 630 721.8L 623.6 719.3C 618.1 717.1 617.1 716.3 616.6 713.7C 615.2 706.9 616 706 623.5 706.3C 627.2 706.5 627.5 706.7 628.1 710zM 638.3 733.1C 637.1 734.3 612.3 737.6 611.3 736.6C 610 735.4 612.3 734.5 620.3 733.4C 631.3 731.8 639.7 731.7 638.3 733.1zM 733.3 745.6C 737.3 746.9 738 747.6 738.5 750.3C 738.8 752.1 739.4 755.6 739.9 758.2L 740.7 763L 733.4 763L 726.1 763L 725.8 753.5C 725.5 742.7 725.3 742.9 733.3 745.6zM 192.1 754L 191.3 761.5L 191.1 755.3C 191 749.9 191.7 745.4 192.5 746.2C 192.7 746.4 192.5 749.9 192.1 754zM 744.6 766.5C 746.3 767.8 745.1 767.9 733.3 768C 721.1 768 718.8 767.6 720.7 765.7C 721 765.3 726.1 765 732 765C 739.8 765 743.1 765.4 744.6 766.5zM 748.6 773.7C 748.9 775.3 749.3 776.9 749.4 777.4C 749.5 777.9 751.1 778.8 753 779.4C 756.4 780.5 756.5 780.6 756.8 786.7C 757 790.6 756.7 793 756 793C 755.5 793 755 790.9 755 788.2C 755 780.6 754.9 780.5 739.2 780.2C 725.3 779.9 725.3 779.9 724.6 782.2C 724.3 783.5 724 786 724 787.7C 724 791.2 722.6 792.1 721.6 789.4C 721.3 788.5 721 786.3 721 784.5C 721 782.6 720.6 780.8 720 780.5C 718.9 779.8 718.6 772.7 719.7 771.7C 720 771.3 726.5 771 734.1 771L 748 771L 748.6 773.7zM 750.8 783.6C 755.9 785.8 753.2 786.6 746.2 784.9C 742.1 783.9 741.2 783.4 742.6 782.9C 745.5 781.8 746.7 781.9 750.8 783.6zM 638.5 789C 650.5 793.5 659.6 806.2 660.4 819.9C 660.6 823 660.6 824.1 660.3 822.5C 658.7 810.7 652.3 799.8 644 794.7C 640.8 792.7 639.3 792.6 628.5 792.8C 608.9 793.2 597.9 797.6 593 806.8C 592 808.9 591.1 809.9 591 809.2C 591 806.9 593.9 802.3 597.2 799.5L 600.4 796.8L 598.2 794.9L 595.9 793.1L 598.7 791.7C 601.8 790.1 610.1 787.4 614 786.6C 619.6 785.6 632.6 786.8 638.5 789zM 594.8 796.7C 594.6 797.7 593.5 798.6 592.2 798.8C 589.6 799.2 589.4 798.2 591.8 796.4C 594.2 794.6 595.2 794.7 594.8 796.7zM 629.9 804C 633.3 804.9 638 808.6 638 810.2C 638 810.7 636.6 810 634.9 808.8C 630.1 805.2 622.8 805.6 616.1 809.8L 610.9 813L 613.1 809.9C 615.2 806.9 621.9 803.1 625 803C 625.8 803 628 803.4 629.9 804zM 416.2 807.5C 427 809.4 441.2 814.3 446.9 818.3C 451.9 821.7 466.2 835.7 470.1 841C 471.6 842.9 473 845.6 473.3 846.9C 473.9 849.4 472.4 864.9 471.5 865.9C 470.4 866.9 469 863.6 469 860C 468.9 848.5 461.9 839.3 442.6 825.8L 436.6 821.6L 439.3 826.2C 440.8 828.8 442 831.1 442 831.4C 442 831.7 439.9 830.7 437.3 829.1C 434.6 827.5 428 824 422.5 821.3C 413.3 816.9 412 816.5 404.9 816.5C 397.7 816.5 396.7 816.8 387.9 821.4C 379 826 378.4 826.2 372.7 825.6C 369.5 825.3 366.5 824.8 366.1 824.5C 365.6 824.3 365 820.4 364.6 815.9C 364.1 809.7 364.2 807.5 365.2 806.8C 367.5 805.4 407 805.9 416.2 807.5zM 362.4 811.7C 362.7 813.8 363 817.4 363 819.6C 363 823 362.6 823.9 360.9 824.3C 358.5 824.9 358.3 824.5 357.1 816C 356.1 808.6 356.3 808 359.4 808C 361.3 808 361.9 808.7 362.4 811.7zM 353.9 812.2C 354.4 813.5 355.1 816.8 355.4 819.6L 356.1 824.7L 345.3 825.3C 337.5 825.8 332.5 826.7 327.1 828.5C 317.4 831.9 315.9 830.7 322 824.4C 328 818.4 330.9 816.7 341.5 813.1C 352.3 809.4 352.8 809.4 353.9 812.2zM 629.5 813C 631 813.6 630.6 813.7 627.7 813.7C 622.6 813.6 618.6 817.5 618.6 822.5C 618.6 824.5 618.3 825.5 617.8 824.7C 615.7 821.4 618.8 814.8 623.4 813C 626 811.9 627 811.9 629.5 813zM 636 834C 635.2 834.6 633.8 835 633 834.9C 632.1 834.9 632.5 834.3 634 833.5C 636.7 832.1 638.4 832.5 636 834zM 433.4 840.7C 439.1 842.7 444.8 846.1 453.7 853.1C 470.5 866.3 476 873.2 476 881.1C 476 893.7 472.9 895.5 469.3 885C 468.1 881.4 466.1 877.7 465 876.8C 461.7 874.2 451.8 871.3 431.2 867C 407.6 862.1 403.7 862 393.1 866.1C 385.7 869.1 384.9 869.2 382.7 867.7C 380.9 866.6 380.1 864.6 379.1 859.4C 378.4 855.6 377.3 851.5 376.5 850.4C 375.2 848.3 375.4 848.1 380.9 845.6C 396.2 838.8 421.3 836.4 433.4 840.7zM 373.6 852.6C 374.6 854 375.5 857.3 375.8 860C 376.3 865.3 376.5 865.1 368.8 866.3C 366 866.7 366 866.6 366 861.5C 366 858.6 365.7 854.8 365.4 853.1C 364.8 850.1 364.9 850 368.4 850C 371.1 850 372.3 850.6 373.6 852.6zM 362.8 855.5C 364.6 860.9 363.6 865.9 360.7 866.4C 344.8 869.5 340.2 871.1 334.8 875.9C 330.7 879.4 329.5 879.8 330.9 877.1C 332.6 874.1 333.8 867.3 333 865.9C 332 864.4 328 864.3 319 865.3L 312.5 866.1L 316 863C 317.9 861.3 321.1 859.6 323 859.1C 324.9 858.7 332.8 856.7 340.5 854.7C 348.2 852.8 356.1 851.2 358 851.3C 361.1 851.5 361.6 851.9 362.8 855.5z"/>
<path style="stroke:none; fill:#000000" d="M 461.4 737.5C 459.1 743.5 459.9 757.1 463.5 775C 465 782.4 466.3 791.1 466.3 794.2C 466.3 799.2 466.5 799.8 467.8 798.8C 469 797.8 469.1 795.6 468.7 787C 468.3 781.2 467.6 773.1 467.1 769C 466.6 764.9 465.9 755.1 465.5 747.2C 465.1 739.4 464.4 733 464 733C 463.5 733 462.4 735 461.4 737.5z"/>
<path style="stroke:none; fill:#000000" d="M 608.2 791C 602.1 792.7 599.1 794.4 600.1 795.5C 600.4 795.8 604 794.9 608 793.5C 612 792.1 616.1 791 617.1 791C 618.1 791 619.2 790.5 619.5 790C 620.4 788.5 615.3 788.9 608.2 791z"/>
<path style="stroke:none; fill:#000000" d="M 874.5 470.2C 877.8 477.4 877.7 481.7 874 487.1C 872.4 489.5 871 492.1 871 492.8C 871 494.6 924.1 494.1 924.8 492.2C 925 491.4 922.3 489.6 917.6 487.4C 913.4 485.5 910 483.8 910 483.5C 910 483.3 913.4 482.6 917.5 481.9L 925 480.7L 925 472.9L 925 465L 898.5 465L 872.1 465L 874.5 470.2z"/>
<path style="stroke:none; fill:#000000" d="M 911.4 516.1C 908.6 516.6 905 517.5 903.4 518.2C 900.7 519.3 901 519.4 908.5 520.1C 926.1 521.7 924.5 521.9 924.8 518.2C 925.1 515 925.1 515 920.8 515.1C 918.4 515.2 914.2 515.6 911.4 516.1z"/>
<path style="stroke:none; fill:#000000" d="M 738 655.7C 738 657.9 741 671.6 745.7 690.4C 749.7 706.8 750.5 709 751.7 707.5C 755.3 702.4 754.3 692.4 748.1 672.9C 745 663.4 743.4 659.8 741 657.5C 739.4 655.9 738 655.1 738 655.7z"/>
</g>
</g>
</svg>