<?xml version="1.0" encoding="UTF-8" standalone="yes"?>
<!-- Created with sK1/UniConvertor (http://sk1project.org/) -->
<svg xmlns="http://www.w3.org/2000/svg" xmlns:xlink="http://www.w3.org/1999/xlink"
  width="1024pt" height="1024pt" viewBox="0 0 1024 1024"
  fill-rule="evenodd">
<g>
<g>
<path style="stroke:none; fill:#000000" d="M 434.5 78.9C 431.2 79.4 432.3 79.7 440.5 80.2C 446 80.6 454.1 81.7999 458.4 82.9999C 466.1 84.9 477.7 89.5999 476.9 90.4C 476.7 90.6 472.2 91.9999 467 93.4C 459.5 95.4 455.2 95.9999 446.8 95.9999C 440.9 95.9999 435.9 96.4 435.6 96.7999C 435.3 97.2999 438.2 99.3999 442.1 101.5C 450.5 106.1 452.6 108.2 448.4 107.5C 446.8 107.3 443.3 106.9 440.5 106.6L 435.5 106.1L 441.8 108.7C 448.3 111.5 450.3 113.5 444.8 111.9C 439.7 110.4 430 109.2 430.6 110.2C 430.9 110.6 431.7 111 432.3 111C 433 111 435.8 112.2 438.5 113.5L 443.5 116L 439.5 115.5C 430.5 114.2 416.5 113.3 413.7 113.9C 411 114.5 412.8 115.4 427.1 120.5C 443.7 126.4 461.9 134.4 465.5 137.4C 466.8 138.4 464.5 137.9 459 135.9C 428.9 125 420.8 123 401.9 122.3C 385.8 121.7 376.9 123 367.4 127.4C 361.6 130.1 354 136.5 354 138.7C 354 139.5 354.5 139.8 355.1 139.4C 355.9 139 356 141.9 355.5 149.6C 352.8 191.8 373.1 234.3 403 249.4C 406.6 251.2 411.7 253.3 414.3 254C 420.6 255.9 420.3 256.9 413.7 255.9C 406.2 254.7 396.4 250.5 390.4 245.9C 384.6 241.5 384.2 241.4 382.3 243.7C 373.1 255.4 366 289.5 366 322.1C 366 329.7 365.6 336 365.1 336C 364.6 336 363.1 333.1 361.6 329.6C 353 308 351.1 282.4 356.9 266.9C 358.9 261.7 358.9 261.6 357 264C 354.3 267.5 352.4 273 350.1 283.6C 348.7 290 346.7 295.4 343.1 302.2C 337.4 312.9 332.6 325.2 331.5 332C 330 342 329 344.1 321.9 351.7C 318 355.8 315.1 359.4 315.3 359.6C 315.5 359.8 318.1 358.9 321.1 357.6C 324.1 356.2 328.8 354.6 331.5 353.9C 334.3 353.3 336.8 352.5 337.2 352.1C 337.6 351.8 337.2 349 336.4 346C 334.3 338.2 335.3 332.2 341.8 312.5L 347.5 295.5L 348.1 305.5C 348.5 311 349.7 322 350.8 330C 354.8 358.2 354.6 363.2 349.5 368C 346.1 371.2 336.2 371.9 327.4 369.6C 319.6 367.6 319 367.6 319 369.8C 319 374 325.1 376.9 340.7 380.5C 346.5 381.8 351.4 383.1 351.7 383.4C 352 383.6 351.9 384.4 351.5 385.1C 350 387.4 335.3 385.6 326.8 382C 322.5 380.2 318.4 379 317.6 379.3C 316.1 379.9 310.8 394.5 311.8 395.4C 312.1 395.7 313.7 396 315.3 396C 317 396 321.2 396.5 324.7 397.1C 330.6 398.1 331 398.4 331 400.9C 331 405.7 328.9 407.4 324.1 406.6C 321.7 406.3 318.3 405.3 316.5 404.6C 313.7 403.4 313.2 402.7 313.7 400.8C 314 399.2 313.6 399.6 312.3 402C 311.2 403.9 310.5 405.8 310.7 406.1C 310.8 406.4 315 408.4 320 410.5C 325 412.6 329.3 414.7 329.6 415.2C 329.9 415.6 328.4 416 326.3 416C 321.1 416 315 417.1 315 418C 315 418.4 317.8 419.3 321.3 420C 328.3 421.3 336 424.4 336 425.8C 336 426.4 332.5 427.6 328.3 428.5C 324 429.5 318.3 431.2 315.5 432.5C 307.7 435.9 299.6 443.6 306.6 441C 308 440.4 310.8 440 312.9 440C 319.7 440 326.4 449.7 323.1 454.9C 322.6 455.6 318.4 456.9 313.4 457.7C 308.5 458.4 304.1 459.5 303.7 459.9C 303.2 460.4 305 461.1 307.7 461.4C 319.9 463.2 326.5 467.4 324 471.9C 323 473.8 322 474 311.5 474C 298.8 474 297 474.4 297 477.1C 297 478.8 297.8 479 303.8 479.1C 310.5 479.1 315.2 480.2 313.4 481.2C 312.9 481.5 310 482.5 307 483.5C 304 484.5 300.1 486.1 298.3 487.2L 295.1 489.1L 294.7 484.8C 294.4 480.6 294.3 480.6 294.2 485.7C 294 489.6 293 492.8 289.9 498.7C 286.4 505.4 285.9 507.1 286.4 510.7C 286.9 514.7 289.2 519.9 292.2 524.2C 293.2 525.6 293 526.5 291.2 529C 289 532 289 534.7 291.2 533.4C 292 532.9 292.1 533.3 291.5 534.6C 288.4 542.2 288.8 560 292.1 562.9C 293.4 563.9 294 565.8 294 568.7C 294 574.5 295.3 577.5 300.6 583.3C 307.3 590.7 311.6 593.6 320.1 596.1C 330.8 599.2 336 597.4 336 590.6C 336 587.3 331 579 329 579C 327.9 579 321.1 564.8 320.3 560.7C 319.3 556 322.7 557.4 325.5 562.9C 329.6 571 334.9 573.9 339.7 570.5C 342.8 568.4 343.4 564.1 341.6 556.8C 340.8 553.3 339.8 547.8 339.5 544.5C 339.1 541.2 337.8 536.2 336.5 533.3C 335 529.9 334.5 528 335.3 527.7C 336 527.5 335.6 526 334.2 523.5C 332 519.9 332 519.3 333.1 512.4C 334.1 505.8 334.6 504.8 337.8 502.4C 341.2 499.7 341.3 499.7 340.7 493.5C 340.1 487.7 340.3 487.1 342.7 484.9C 344.1 483.6 347 479 349.1 474.8C 352.8 467.5 353 466.5 353 458.1C 353 440.2 357.2 419.9 365.1 399.9C 369.9 387.8 374.1 380.8 375.5 382.2C 375.9 382.6 374.4 387.2 372.1 392.4C 362 416.1 356.9 436.8 356.6 455C 356.5 464.6 356.8 467.1 358.3 469.3C 361 473.5 365 473 369.4 467.9C 373.8 462.7 380.2 450.4 382.6 442.5C 384.7 435.5 385.6 434.2 387.1 435.7C 388.6 437.2 385.2 447.8 379.4 459.7C 371.6 475.6 361.6 482.3 356.1 475.4C 354.9 473.9 354 473.2 354 473.7C 354 475 359.4 480 360.8 480C 361.7 480 362 484.4 362 496.8C 362 512.4 361.7 515.4 357.5 538.2C 355 551.8 353 563.1 353 563.4C 353 563.7 352.4 564 351.7 564C 350.8 564 349.5 568.2 347.8 576.9C 345 591.2 340.3 602.8 335.9 606.3C 333.9 607.9 333 609.8 332.5 613.3C 331.8 617.6 331.9 618 333.9 618C 335.9 618 336 618.5 336 628.7L 336 639.3L 340.4 643.6C 344.6 647.6 344.9 648.3 345.2 653.7C 345.5 659.2 345.6 659.5 348.3 659.8L 351.2 660.1L 351.1 651.8C 351.1 647.2 351.1 639.9 351.2 635.5C 351.2 631.1 350.9 621.2 350.3 613.5C 349.8 605.8 349.6 598.9 350 598.2C 350.7 596.8 352.4 610.1 354 628.4C 354.6 634.9 355.3 640.7 355.6 641.2C 355.9 641.7 355.4 643 354.4 644.1C 353 645.7 352.5 648 352.4 654.8C 352.3 659.6 351.9 666.9 351.6 671C 351.2 677.2 351.3 677.7 352 674C 354.5 661.7 377.2 655.9 393.3 663.5C 396.4 665 399 666.6 399 667C 399 667.4 394.6 667.9 389.3 668.2C 380.8 668.5 378.6 669 373 671.7C 366.8 674.8 358.1 681.2 362.5 679.5C 372.5 675.6 375.8 674.9 379.5 675.5C 384.3 676.2 390.4 679.7 394.3 683.8L 397.2 686.8L 390.8 685.3C 383.9 683.7 370.1 684 363.9 685.9C 358.5 687.6 353.5 691.3 353.2 693.9C 352.7 697 354.4 698 360.3 698C 365.6 698 377.7 700.3 383.7 702.4C 387.4 703.7 387.2 703.8 378 703.7C 369.8 703.7 367.6 704 362.7 706.3C 355.9 709.4 353 713.5 353 720C 353 725.9 355.5 731.1 361.8 738.7C 364.7 742.1 367.7 746.7 368.6 749C 369.5 751.3 372.3 754.8 374.9 757L 379.5 761L 375.3 760.5C 373 760.2 370.9 760.4 370.6 760.8C 370.3 761.3 371.4 763 373.1 764.6C 375.4 766.8 375.9 768 375.5 770.1C 375 772.3 375.5 773.3 378.5 775.8C 380.5 777.4 384.8 780.3 388.1 782.1C 397.9 787.7 398 787.8 394.2 788.6C 392.4 789 390.7 789.6 390.5 790.1C 390.2 790.5 393.6 792.8 398 795.1C 402.4 797.5 407 800.4 408.2 801.7C 410.3 804 410.3 804 408.3 804C 407.2 804 404.6 803.3 402.6 802.5C 397.7 800.4 398.1 801.8 403.5 806C 409.5 810.7 410.1 812.4 405.5 811.6C 401.4 810.8 401.1 811.8 404.5 815C 407.2 817.5 408 820.1 405.5 818C 403.2 816.1 403.1 817 404.7 822.2C 405.7 825.9 406.8 827.4 409.3 828.6C 416.7 832.5 424.8 841.3 423.7 844.3C 423.4 845.1 419.3 846.9 414.6 848.4C 406.5 850.9 404.2 853 409.3 853C 412.2 853.1 420 856.6 420 858C 420 858.5 417.9 859 415.3 859L 410.5 859L 414.4 861.7L 418.3 864.5L 411.9 865C 405.7 865.6 405.6 865.6 408.5 866.8C 422.1 872.4 421.8 873.5 406.9 872.5C 399.9 872 396 872.1 396 872.8C 396 873.3 397.7 874 399.8 874.4C 401.8 874.7 404.6 875.9 406 877L 408.5 879.1L 403.8 878.4C 401.3 878.1 397.7 878.1 396 878.5L 392.8 879.2L 398.1 881.9C 404.4 885 405.9 887.4 400.9 886.5C 399 886.2 395 885.8 392 885.7C 387.2 885.5 385.9 885.9 381.4 889.1C 378.6 891 373.5 893.7 369.9 894.9C 358.5 899.1 355.6 902.5 356.2 911.6L 356.5 916.5L 364.5 919.7L 372.5 922.9L 368 922.9C 365.5 922.9 361.8 922.6 359.8 922.1C 356.4 921.3 356 921.4 356 923.1C 356 924.1 357 925.5 358.3 926.1C 359.5 926.7 360.6 927.4 360.8 927.5C 360.9 927.6 360.6 928.9 360 930.4C 357.4 937.3 361.4 940.4 377.5 944.1C 394.1 947.8 415.5 946.6 435.2 940.6C 439.2 939.4 440.6 939.5 447.1 941.2C 451.2 942.2 457.8 944.6 461.9 946.5C 465.9 948.4 469.4 950 469.7 950C 469.9 950 470.1 946.1 469.9 941.3C 469.8 936.4 470 931.7 470.4 930.8C 470.9 929.7 470.4 928.4 469.1 927.1C 467.3 925.3 465.8 925 458.5 925C 444.7 925 435.5 922.1 438.8 918.8C 439.5 918.1 440 917 440 916.3C 440 915.5 442.1 912.9 444.6 910.5C 448.5 906.9 449.6 906.3 451.1 907.3C 453.5 908.8 468.6 901.4 474.4 895.7L 478.8 891.5L 478.3 878.5C 478.1 870.7 477.3 863.2 476.3 859.7C 475 855 474.9 853.3 475.8 850.6C 477.5 846.1 477.3 843.3 475 836.7C 472.6 829.9 472.5 826.5 474.5 821.7C 476.7 816.4 476.4 813 473.2 807.9C 471.7 805.5 469.9 802.1 469.2 800.5C 467.9 797.3 465.7 779.9 466.5 779.2C 466.8 778.9 468.5 780.4 470.2 782.4C 472 784.5 475.6 788.5 478.3 791.3C 482.2 795.5 483 797 483 800.1L 483 803.9L 488.8 804.5C 491.9 804.9 496.3 805.5 498.5 806C 502.2 806.7 502 806.8 495.9 806.9C 487.1 807 479.2 805.5 475.7 802.9C 473 800.9 472.9 800.9 473.9 802.8C 474.4 803.8 476.5 806.7 478.5 809.1C 481.4 812.4 482.1 814 481.6 816.1C 481.1 818.5 481.7 819.2 487.3 822.9C 491.1 825.4 492.9 827.1 492 827.3C 491.2 827.6 487.9 828.3 484.8 828.9C 478.8 830.2 476.6 831.8 477.6 834.3C 478.4 836.4 482.6 837.7 493.5 839.1C 505.5 840.7 506.5 841.3 499.9 843.5C 492.8 845.8 485 850 485 851.5C 485 852.2 485.6 853.3 486.4 853.9C 488.1 855.3 491.8 854 501.1 848.5C 504.5 846.5 507.5 845.1 507.7 845.4C 507.9 845.6 504.7 849.6 500.5 854.1C 490.5 865 490.2 865.5 494.2 866.9C 497.4 868 501 870.7 501 872C 501 872.4 499.7 873 498.2 873.3C 496.6 873.6 494.3 874.7 493 875.8L 490.6 877.8L 496.7 878.5C 500.1 878.9 503.7 879.8 504.7 880.6C 506.3 881.8 506.2 881.9 502.8 882C 496.8 882 489.2 884 486.8 886.1C 484.7 888 484.7 888.1 486.5 887.6C 495.3 885.4 501.1 886.3 508.9 891.1C 513.3 893.8 512.5 894.3 506.5 892.5C 500.7 890.7 492.7 890.7 488 892.5C 484 893.9 482.9 893.5 498 896.5C 507.5 898.4 516.3 901.4 517.9 903.4C 518.6 904.2 516.8 904 511.7 902.7C 506.6 901.3 500.9 900.7 492.4 900.6C 481.7 900.5 480 900.7 478.1 902.4C 474.1 906 475.5 906.9 482.1 904.9C 493.7 901.3 509.7 903.1 515.7 908.6C 517.9 910.6 518 911 516.5 910.4C 515.4 910 508.9 909.5 502.2 909.2C 489.3 908.7 478.5 910.5 476 913.5C 475.1 914.6 478.5 914.9 494.2 915.2C 507.9 915.5 514.3 916 516.3 917C 521.6 919.6 518.8 920.5 503.6 921C 492.1 921.4 488.7 921.8 487.9 923C 487.4 923.8 485.3 927.6 483.3 931.3C 480.4 936.7 479.1 938.2 476.8 938.7C 471.3 939.8 474.2 940.8 484.8 941.5C 490.7 941.8 496.9 942.7 498.5 943.3C 501.3 944.4 501 944.5 494 945C 489.9 945.3 483.5 945.3 479.8 945L 473 944.5L 473 947.2C 473 951.4 473.9 952.8 477.5 954C 480.2 954.9 480.9 955.7 481.2 958.2C 481.4 960.2 482.5 962 484.3 963.4C 487 965.4 488.3 965.5 514.8 965.5C 540.2 965.5 542.8 965.3 546.4 963.6C 548.5 962.5 551.2 960.1 552.3 958.2L 554.3 954.9L 586.9 955.3C 623.1 955.7 621.8 955.5 649.9 964.2L 663.2 968.3L 681.9 966.1C 703.7 963.5 708.9 962.4 712.5 959.6C 715.9 956.8 715.3 955.5 707.7 950C 704 947.3 701.4 944.6 701.2 943.4C 700.8 940.9 705.1 937 708.4 936.9C 711.6 936.8 703.2 933.4 691.5 929.9C 670.3 923.8 653.9 922.7 625.5 925.5C 608.2 927.3 605.3 926.9 590.5 921.4C 580.6 917.8 580.2 917.7 562.6 917.2C 545.5 916.8 544.5 916.6 542.3 914.4C 539.6 911.7 539.4 908.4 541.6 903.2C 543.8 898.1 544.4 871 542.4 866.1C 540.5 861.5 540.6 860.4 543.7 856.3C 545.8 853.6 546.5 851.4 546.8 846.7C 547 843 547.9 839 549.2 836.7C 550.9 833.5 551.1 831.8 550.6 826.7C 550.2 823.3 549.9 818 550 814.9C 550 811.9 549.7 808.3 549.2 806.9C 548.4 805 548.7 803.5 550.5 800.2C 553.3 795 552.6 790.3 548.5 786L 545.8 783.1L 548 778.6C 549.9 774.7 550.1 773 549.5 767.7C 549.1 764.3 548.3 759.7 547.7 757.5C 547.1 755.3 546.6 748.1 546.5 741.5C 546.3 731.6 545.8 727.3 543.1 717C 538.5 698.9 538.2 694.6 541.4 688.7C 542.8 686.1 544 683.4 544 682.8C 544 682.2 542.6 678.6 540.8 674.8C 539.1 671.1 538 667.7 538.3 667.4C 538.6 667 541.9 665.9 545.6 664.9C 553.7 662.7 554.5 662 554.2 657.6C 554 654.4 554.2 654.2 557.7 653.6C 564.7 652.3 564.7 652.3 565.4 646.7C 565.8 642.6 568.3 599.5 568.3 595.5C 568.3 594.9 568.1 593.9 567.9 593.2C 567.7 592.4 569.1 591.3 571.3 590.5C 576.1 588.9 579.4 585.9 581.6 581.2C 583.2 577.9 583.3 577.8 584.6 579.5C 585.4 580.5 586 582.3 586 583.4C 586 585.9 583.3 594.6 579.1 605.8C 575.4 615.6 575.3 618.3 578.1 621.1C 579.8 622.8 581 623.1 584.1 622.6C 590.5 621.6 605.3 615.2 612.5 610.4C 616.1 608 619.3 606 619.5 606C 619.8 606 620 607.3 620 608.9C 620 610.6 620.5 612.2 621.2 612.6C 622.9 613.7 625 610.1 625 606.2C 625 603.8 625.8 602 627.5 600.4C 628.9 599.1 630 597 630 595.7C 630 594.4 630.8 592.5 631.9 591.6C 633.4 590.3 633.8 588 634.3 580.2C 634.6 573.9 635.6 568.4 637 564.5C 638.9 559.4 639.1 557.2 638.6 550C 638.3 545.3 637.8 539.9 637.4 538C 636.9 535.1 637 534.7 638.1 535.7C 638.8 536.4 639.7 537 640.1 537C 641.5 537 644.2 528.3 644.7 521.8C 645.2 516.3 644.9 514.2 643.2 510.1L 641 505.2L 643.1 500.6C 645 496.2 645.1 495.3 644 481.9C 642.9 469.5 643 467.1 644.5 460.8C 646 454.9 646.2 451.7 645.5 442.1C 644.6 429.1 644.6 427 645.5 421.9C 646 419.3 645.6 417.2 644.2 414.3C 643 412.1 641.8 407.5 641.4 404.1L 640.7 397.8L 643 399C 646.1 400.7 653.7 400.4 658.3 398.5C 661.1 397.3 662.5 397.2 664 398C 666.2 399.2 666.9 398.8 672.8 393.8C 674.6 392.3 676 390.8 676 390.4C 676 389.1 667.7 381 666.4 381C 664.6 381 658 388.8 658 390.9C 658 392 657 393.6 655.8 394.4C 653.3 396.2 645.8 396.5 643.1 395C 639.6 393.2 638 386.7 638 374.7C 638 365.1 637.6 362.2 635.1 354C 633.4 348.8 631.8 342.8 631.5 340.7C 631.1 338.1 629.4 335.2 626 331.5C 620.4 325.3 618.5 321.5 617 313.1C 616.4 309.8 614 303 611.6 297.8C 609.2 292.7 605.8 284.9 604.1 280.5C 599.9 270 594.7 260.6 590.1 255C 583.9 247.6 583.9 247.7 584.6 229.3C 585.4 209.8 583.8 187.9 581.1 179.2C 580.1 175.9 577.9 171.2 576.1 168.7C 572.8 163.9 570.7 163 567 165C 565.3 165.9 564.8 165.6 563.7 162.8C 562.9 161 559.1 156.5 555.2 152.8C 547.2 145.3 542.7 143.4 530.3 142.3L 523.1 141.7L 521.5 136.1C 514.2 110.4 500.6 94.2998 478.2 84.8998C 466.6 80.0998 444.8 77.1 434.5 78.9zM 384 127.8C 384 128.3 382.9 131.8 381.6 135.6C 380.3 139.5 378.5 146.3 377.5 150.8C 376.5 155.5 375 159.6 373.9 160.6C 372.3 162 372 162 369.9 159.9C 367.9 157.9 367.8 157.1 368.3 149.6C 369 140.7 371.2 133 373.8 130.7C 376.7 128.2 384 126.1 384 127.8zM 495.6 133.5C 497.2 134.7 497.2 134.9 495.9 135C 493.1 135 491 138.5 487.6 148.6C 483 162.4 481.6 171.5 482.4 183.5C 482.7 189 483.3 194.6 483.6 196C 484.1 197.9 484 198.2 483.1 197.4C 481.4 195.9 479 183.4 479 176C 479 161.6 488.4 132 492.9 132C 493.3 132 494.5 132.7 495.6 133.5zM 542.5 146.5C 545.1 147.6 546 148.4 545 148.7C 544.2 149 542.6 150 541.5 151C 539.7 152.6 538.6 152.7 532.5 151.8C 528.7 151.3 525.4 150.7 525.2 150.6C 525.1 150.4 524.5 148.8 524 147L 523.1 143.7L 530.8 144.2C 535.1 144.5 540.3 145.6 542.5 146.5zM 550.8 153.2C 552.4 154.8 552.3 155.5 550.4 157.4C 548.3 159.6 546.3 159.4 545 156.9C 543 153.2 547.8 150.2 550.8 153.2zM 541 160.4C 542.9 161.7 546.4 164 548.8 165.4C 551.1 166.9 554.9 169.9 557 172.2C 561.7 176.9 562 176.5 558.4 170.4C 556.3 166.8 556 165.7 557 164.5C 558.5 162.7 559.9 162.6 560.5 164.2C 560.7 164.9 561.4 166.7 561.9 168.2L 562.9 171L 566.5 168.9C 568.5 167.7 570.4 167.1 570.8 167.5C 571.7 168.3 567.3 172 565.4 172C 563.6 172 563.6 171.4 566.5 179.8C 570 189.8 571 197.9 571 217.3L 571 234.1L 567.9 232.5C 562.2 229.5 561.4 224.4 564.7 210.9C 566.2 204.9 566.2 203.7 564.7 197.4C 559.7 175.3 552 167.5 533.8 166.2C 526.1 165.7 526 165.7 526 162.9C 526 161.4 525.7 159.4 525.3 158.4C 524.7 156.8 525.2 156.7 531 157.3C 535.2 157.8 538.6 158.8 541 160.4zM 539.7 171.5C 542.5 172.3 545.9 173.9 547.2 175C 551 178.2 548.1 179.2 537.1 178.5C 531.9 178.2 527.3 177.7 526.9 177.4C 526.4 177.1 526 175 526 172.8L 526 168.7L 530.3 169.3C 532.6 169.7 536.8 170.6 539.7 171.5zM 453.7 231.6C 438.6 245.8 414.9 251.1 400 243.6C 393.8 240.4 387.6 236 388.3 235.3C 388.6 235.1 392.5 236.5 397 238.4C 408.1 243.3 416.2 244.5 426.7 242.6C 436.4 240.9 445.5 236.7 453 230.5C 456 228 458.7 226 459 226C 459.3 226.1 456.9 228.5 453.7 231.6zM 468.6 236.6C 469 237.7 461.2 243.2 459.8 242.8C 459.3 242.6 460.5 240.8 462.5 238.7C 466 235.1 468 234.4 468.6 236.6zM 401.9 255.6L 409 258.2L 406 262.3C 401.3 268.7 401.6 269.2 413.8 272.4C 428.4 276.3 433.8 278.4 440.7 282.9C 451 289.6 451.1 289.5 421.4 289.1L 395 288.8L 394.8 299.4C 394.4 320.3 394.1 318.3 397.8 320C 401 321.5 401.1 321.6 400.5 326.3C 400.2 328.9 400.4 331.9 401 333C 401.9 334.7 401.5 335.3 398.1 337.4L 394.2 339.9L 396.6 346.7C 397.9 350.4 400.2 355.8 401.7 358.7L 404.5 363.9L 401.7 366.8C 400.2 368.3 399 370 399 370.4C 399 370.8 401.6 371 404.7 370.8C 410.9 370.5 410.4 370.1 418.6 381.4C 420.4 383.9 421.8 384.4 431.6 386.2C 437.6 387.3 444.8 388.5 447.5 388.8C 453.1 389.6 453.5 391.6 448 391.3C 446.1 391.1 443.4 391 442 391C 440.6 391 436.1 390.9 432 390.8C 411 390 404.3 390.4 402 392.5C 400.1 394.2 398.7 394.5 391.9 394.1L 384 393.8L 384.2 408.9L 384.5 424L 390 424C 393 424.1 396.9 424.7 398.5 425.4C 401.4 426.6 401.3 426.7 393.9 427.4C 388.9 427.9 385.6 427.8 383.8 427L 381.3 425.8L 380.6 408.2C 380.2 398.4 379.6 389.6 379.4 388.4C 378.9 386.5 379.3 386.3 385.1 386.1C 388.6 386 392 385.4 392.7 384.8C 394.4 383.4 394.4 375.9 392.5 337.3C 390.8 300.9 390.2 262 391.3 256.7C 391.8 254.6 392.7 253 393.5 253C 394.3 253 398.1 254.2 401.9 255.6zM 376.3 331C 377 349.6 376 349 374.1 329.6C 372.8 317.1 372.6 292.9 373.8 287.9C 374.5 284.4 375 292.5 376.3 331zM 405 308.4C 405 310.4 402.6 312 401.1 311C 400.3 310.6 400 309.5 400.3 308.6C 401.1 306.6 405 306.5 405 308.4zM 409.9 307.9C 411.3 308.8 410.8 312 409.3 312C 407.4 311.9 405.8 310.1 406.3 308.6C 407 306.8 407.9 306.6 409.9 307.9zM 415.9 307.9C 417.3 308.8 416.8 312 415.2 312C 413.7 312 411.8 309.2 412.5 308C 413.3 306.8 414.1 306.7 415.9 307.9zM 450.7 308.6C 451.5 310.9 449.5 312.4 446.6 311.6C 443.6 310.9 443.1 308.4 445.8 307.7C 449.1 306.8 450.1 307 450.7 308.6zM 463.5 308C 463.9 308.6 463.6 309.7 463 310.6C 462 311.7 461.4 311.8 460.4 310.9C 459.3 310 459.3 309.4 460.1 308.4C 461.5 306.7 462.6 306.6 463.5 308zM 441.9 309.7C 441.9 310.2 441.3 312.1 440.5 314C 439.6 316.6 439.1 317.1 438.6 315.9C 437.8 314 439.5 309 441 309C 441.5 309 442 309.3 441.9 309.7zM 383 318.5C 384.1 323 385.5 332.4 386 340C 386.6 347.8 387.8 356.4 389 360.5C 391.1 367.9 391.7 376.5 390 377.5C 389.5 377.8 388.8 377.1 388.5 375.8C 384.8 359.2 383 350.2 382.1 343.5C 381.1 335.5 379.8 309.5 380.5 310.1C 380.7 310.3 381.8 314.1 383 318.5zM 463 322.1C 461.8 325.6 460.4 332 459.8 336.4C 458.5 346.5 458.3 347.3 456.9 346.4C 453.8 344.5 458.3 321.7 462.6 316.9C 465.3 313.9 465.4 315.4 463 322.1zM 411.8 328.8C 411.6 330.3 411.1 331.4 410.5 331.3C 409.3 331 408.6 326.4 409.5 324.2C 410.1 322.6 410.2 322.6 411.1 324.3C 411.7 325.3 412 327.3 411.8 328.8zM 522.3 341.9C 520.8 344.3 519.4 332.4 520.6 328.3C 521.3 326.1 521.6 327.1 522 333.5C 522.3 337.9 522.4 341.7 522.3 341.9zM 612.8 332.7C 613.4 334.7 613.8 336.5 613.7 336.6C 613.6 336.7 610.4 338 606.6 339.4C 602.9 340.8 597.7 343.5 595.1 345.4L 590.4 348.9L 587.7 343.4C 586.2 340.4 585 337.7 585 337.5C 585 336.7 595.2 331.8 599.5 330.4C 601.7 329.7 605.3 329.1 607.6 329.1C 611.4 329 611.7 329.2 612.8 332.7zM 404 338C 404 339.1 403.3 340 402.5 340C 401 340 400.4 337.9 401.7 336.7C 402.9 335.4 404 336 404 338zM 431.8 350C 441.8 354.9 450 359.4 450 360C 450 360.6 444.6 361 435 361C 421.8 361 420 360.8 419.1 359.2C 418.2 357.5 413 341 413.4 341C 413.5 341 421.8 345 431.8 350zM 457.5 366.2C 455.7 392.6 463.9 430.5 476.3 453C 480.3 460.4 483.6 464.6 491 472.1C 496.2 477.4 503.1 483.4 506.3 485.5C 509.4 487.6 512 489.5 512 489.7C 512 490.4 504.4 486.9 500.7 484.4C 494.1 480.1 481.1 467 476.5 460C 467.9 447 460.7 427 456.5 404.2C 454.5 393.6 454 387.6 454 375C 454 358.3 454.3 356 456.7 356C 457.9 356 458 357.6 457.5 366.2zM 369.9 367.3C 370 370 369.6 371 368.8 370.8C 367.1 370.2 366.7 367.6 367.5 363.2C 368.1 360 368.4 359.8 369 361.5C 369.5 362.6 369.9 365.2 369.9 367.3zM 451.4 367.6C 452.4 368 453 369.4 453 371.6L 453 375L 439 375L 425 375L 423 371.7C 421.9 370 421 368.2 421 367.7C 421 366.9 449.1 366.7 451.4 367.6zM 465.9 370.9C 468.4 372.5 466.3 375 462.5 375C 459.4 375 459 374.7 459 372.5C 459 370.4 459.5 370 461.8 370C 463.3 370 465.1 370.4 465.9 370.9zM 495 385.4C 495 386.2 492.6 387.4 489 388.4C 483.2 390.1 481 392 485 392C 488.3 392 487.2 393.8 483.3 394.9C 476.9 396.7 475 395.8 476.9 392.1C 479.6 387.2 495 381.5 495 385.4zM 367.5 445.3C 366.7 452.6 365.7 460.6 365.4 463.2C 365.1 465.9 364.4 468 364 468C 362.5 468 360.8 457.2 361.5 452.3C 362.4 446.2 364.6 436.9 366.8 430.5C 368.5 425.5 368.5 425.5 368.8 428.8C 369 430.7 368.4 438.1 367.5 445.3zM 569 428.5C 570.3 430 569.6 451.2 568 463C 567.4 466.9 567.6 469.3 568.5 471.2C 569.7 473.7 569.5 474.2 563.4 481.5C 556.8 489.5 553 493 551.1 493C 549.4 493 549.8 491.1 552.1 487.8C 554.1 485 554.2 484 553.9 458.2L 553.5 431.5L 558 429.2C 563.1 426.7 567.2 426.4 569 428.5zM 402.2 443.1L 401.8 449.6L 408.5 458.1C 417.1 469 419 472.7 419 479C 419 483.5 418.8 484 416.8 484L 414.7 484L 415.4 506.5L 416 529L 412.3 527.4C 402.5 523.3 402.4 523.3 401.6 526.2L 401 528.5L 398.8 526C 395.9 522.6 387.7 505.2 384.6 495.8C 381.1 485.5 381.1 475.5 384.4 466.8C 388.2 456.7 395 442.8 397.7 439.2C 401.3 434.4 402.6 435.5 402.2 443.1zM 607 451C 610.1 454.1 609.4 455 604.2 455C 597.9 455 590.8 457.2 586.5 460.4C 582.7 463.4 582 463.5 582 461.7C 582 458.9 590.8 452.5 597.5 450.4C 603.1 448.6 604.7 448.7 607 451zM 609.4 458.6C 611.4 459.3 610.5 461 608.2 461C 605.4 461 598.8 464.9 594.2 469.3C 589.9 473.4 586.4 478.7 587.3 479.7C 587.6 479.9 588.1 479.2 588.5 478.1C 590 473.3 605.6 463.1 607.8 465.5C 608.2 465.9 608 466.5 607.3 466.7C 604.9 467.6 600.7 471.4 597.9 475.3C 594.8 479.6 594 483.6 596.4 482.7C 597.2 482.4 600.7 481.8 604.2 481.5L 610.5 480.9L 605.9 483.4C 603.4 484.7 600.8 486.5 600.1 487.3C 599.1 488.6 599.7 489 604.4 490C 607.4 490.6 610.4 491.8 611.2 492.7C 612.3 494.2 612.3 494.3 610.5 493.5C 609.4 493 605.3 492.4 601.4 492.2C 593.9 491.8 588.6 493.6 584.4 497.7C 582.7 499.4 582.7 499.2 583.4 494C 584.5 487 584.5 485.7 583.5 478.7L 582.7 472.9L 589.2 466.5C 595.6 460.3 599.4 458.3 605.2 458.1C 606.6 458 608.5 458.3 609.4 458.6zM 425.9 488.2L 425.8 515.5L 423.4 510.5C 421.2 505.8 421 504.5 421 486.5C 421 469.3 421.2 467.2 423 464.2C 424.1 462.5 425.2 461 425.5 461C 425.8 461 426 473.3 425.9 488.2zM 433 476.5C 434.2 482 435.4 487.1 435.6 487.7C 435.8 488.6 438 489 442 489C 449.4 489 449.5 489.6 444.1 498.8C 441.9 502.5 437.8 510.7 434.9 517C 432.1 523.3 429.5 528.7 429.4 528.9C 429.2 529.1 429 514.5 429 496.4C 429 478 429.4 464.2 429.9 465C 430.4 465.8 431.8 471 433 476.5zM 581.1 485.1C 581.8 486.4 582.1 490.8 581.9 495.9C 581.8 500.6 581.8 506.5 581.9 509L 582.1 513.5L 583.7 510.3C 585.3 507.1 588 505.1 588 507.2C 588 507.8 587 509.8 585.9 511.7C 584 514.7 581.7 522 582.5 522C 582.7 522 584.5 521 586.5 519.9C 591.8 516.8 601.3 517.5 610.4 521.8C 614.2 523.6 617.1 525.2 616.9 525.4C 616.7 525.7 613.8 525.2 610.5 524.4C 607.2 523.7 601.2 523 597.2 523C 588.2 523 585.7 524.9 584.7 532.4C 584.3 535 583.2 538.2 582.1 539.6C 581.1 540.9 579.9 543.7 579.5 545.7C 578.6 550.7 568.2 571.6 564.6 575.7C 561.5 579.4 557.6 580 556.2 577.2C 555.7 576.3 555 570.5 554.6 564.5C 554.3 558.4 553.7 549.4 553.4 544.5C 552.9 537.4 553.1 534.7 554.4 531.6C 556.7 526.2 556.4 521.1 553.5 515.4C 552.1 512.7 551 510.4 551 510.3C 551 510.2 554.7 507.7 559.3 504.7C 568 499 573.9 492.9 576.5 486.7C 578.2 482.5 579.4 482.1 581.1 485.1zM 308.7 495.5L 308.5 501L 305 501C 303.1 501 298.6 501.7 295 502.4C 291.4 503.2 288.4 503.7 288.2 503.5C 287.7 503 296.9 491.2 298.2 490.7C 298.9 490.4 301.6 490.1 304.2 490.1L 308.9 490L 308.7 495.5zM 480.5 518C 481.7 520 475.7 528.5 467.1 537C 462.4 541.7 459.2 545 460 544.4C 462.5 542.4 486.3 528.8 490.5 526.9C 495.3 524.7 501 524.4 501 526.3C 501 527 497.7 529.1 493.7 530.8C 486.3 534.1 468.6 544 469.2 544.5C 469.4 544.7 472.5 544 476 543.1C 492.6 538.5 503.8 539.5 510.5 546.3L 514.5 550.4L 507 551.7C 502.9 552.3 499.5 552.9 499.4 552.9C 499.3 553 499.5 556.3 499.8 560.3C 500.2 566.8 499.9 568.3 497.6 573.1C 496.1 576.1 494 579.6 493 581C 491.2 583.3 491 583.3 491.1 581.5C 491.1 580.4 491.7 575 492.5 569.5C 495.2 551 494.7 549.4 486.5 549C 480.3 548.7 480.3 548.7 479.1 553.4C 478.1 557.7 477.8 557.9 470.8 560.8C 466.8 562.4 461.1 564.3 458.2 565C 454.8 565.8 451.9 567.3 449.9 569.3C 447.6 571.6 446.6 572 446 571C 444.7 568.9 446.7 564.9 452 558.7C 454.8 555.5 457 552.7 457 552.5C 457 552.3 454.5 552.9 451.5 553.7C 448.4 554.6 445.7 555 445.4 554.7C 443.7 553 446.7 548.7 452.8 543.6C 460.7 537.2 470.5 527.1 469.7 526.3C 468.6 525.3 452.7 535.5 446.6 541L 440.6 546.5L 443.1 542.1C 444.4 539.7 447.9 535.3 450.8 532.4C 460.1 522.9 478.1 514.2 480.5 518zM 319 523C 320.1 523.6 321.6 526.4 322.6 530C 323.8 534.3 324.7 536 326.2 536.2C 328.6 536.6 328.9 538.4 326.6 538.8C 324 539.3 322.3 537.4 320.4 531.7C 319.5 528.8 318.4 526.1 318 525.6C 316.3 523.8 311.8 526.3 305 532.6C 299.8 537.6 297.9 538.8 297.4 537.7C 296.1 534.3 302.6 526.4 309 523.6C 313.1 521.8 316.4 521.6 319 523zM 394.7 534.2C 399.4 538.5 411.3 554 410.6 554.7C 409.9 555.4 387.6 544.5 386.2 542.8C 385.5 541.9 384.6 539.6 384.3 537.7C 383.9 535 384.2 533.8 385.9 532.1C 387 531 388.5 530 389 530C 389.6 530 392.1 531.9 394.7 534.2zM 308.1 539.6L 301 548.2L 300.9 554.9C 300.8 560 300.6 560.8 300 558.5C 299.6 556.8 299.2 553.3 299.1 550.6C 299 545.9 299.2 545.6 306.2 538.4C 310.1 534.3 313.7 531 314.2 531C 314.7 531 312 534.9 308.1 539.6zM 332 551.3C 332 552 330.7 553.6 329 554.8C 326.1 557 326 557 326 555.1C 326 554 327 552.4 328.2 551.6C 330.9 549.7 332 549.6 332 551.3zM 490.2 556C 489.7 563.7 483.8 593.6 482.5 595.5C 479.4 599.9 476.1 603.4 475.5 602.8C 474.9 602.2 477.1 586.5 481 563.2C 482.1 556.8 483 551.5 483 551.4C 483 551.4 484.7 551.6 486.8 551.9C 490.3 552.6 490.5 552.8 490.2 556zM 591 561.3C 591 567.4 590.3 567.1 589.1 560.4C 588.6 557.7 587.8 554.6 587.5 553.5C 586.9 551.7 587.1 551.8 588.9 553.9C 590.4 555.6 591 557.6 591 561.3zM 580 560C 580 562.1 577.1 568 576.1 568C 574.5 568 574.8 565.4 576.5 562C 578 559.1 580 558 580 560zM 312.5 563C 314.4 566.6 314.4 569 312.6 569C 310.9 569 310 566.8 310 562.9C 310 559.2 310.6 559.2 312.5 563zM 335 560.9C 335 561.5 334 562.6 332.8 563.5C 330.2 565.2 329.1 563.8 331 561.5C 332.4 559.8 335 559.5 335 560.9zM 478 570C 478 571.5 476.8 572.3 472.3 573.5C 458.5 577.4 451.2 580.2 449 582.5C 446.1 585.5 446.8 585.6 452.1 582.9C 456.6 580.7 469.9 577 473.7 577C 477.6 577 475.4 578.7 469.3 580.5C 466.1 581.4 461.8 583.1 459.7 584.1C 454.9 586.6 448 592.8 448 594.6C 448 596.4 447.7 596.5 456.1 592.6C 460.2 590.7 465.9 588.8 468.8 588.5C 475 587.7 474.8 587 472.4 601.7C 470.8 610.9 470.5 611.7 466.8 615.4C 462.6 619.4 460 624.4 460 628C 460 629.9 462.6 633 467.2 636.7C 468.1 637.3 469 639.6 469.4 641.8C 469.7 644.2 470.7 646.1 471.7 646.5C 472.7 647 478.5 647.6 484.7 647.9C 496 648.5 499.6 649.8 497.3 652.1C 495.6 653.8 484.4 654.8 478.1 653.8C 475 653.3 469.4 651.7 465.5 650.3C 461.7 648.9 456.9 647.7 455 647.6C 451.6 647.5 451.5 647.6 451.5 651.5C 451.5 653.8 450.7 656.8 449.7 658.3C 448.8 659.7 448 661.8 448 663C 448 665.7 450.6 665.6 460.5 662.4C 466.7 660.4 469.8 659.9 474.6 660.3C 481.2 660.8 489.1 664.3 493 668.5L 495.1 670.8L 486.2 670.2C 473 669.5 452.3 674.7 447.4 680.1C 445.8 681.9 445.8 682 448.1 682C 449.4 682 454.1 680.8 458.5 679.3C 465.2 677.1 468.3 676.7 477.5 676.6C 484.2 676.6 489.5 677.1 491 677.8C 493.2 678.9 492.9 679 488.3 678.5C 478.1 677.4 455.7 682.7 450.3 687.5C 446.9 690.5 447.9 690.6 458.2 687.9C 464.1 686.4 468.3 685.9 473 686.2C 483 686.9 484.4 688.5 475.2 688.6C 460.8 688.8 449 694.6 449 701.5C 449 702.9 449.3 704 449.8 703.8C 463.4 697 463.4 697 470.9 697C 479.2 697 485 698.4 488 701.2C 491.2 704.2 490.4 704.9 484.6 704.3C 474.3 703.2 454.9 709.5 450.3 715.4C 449.1 716.8 448 718 447.7 718C 447.5 718 447.4 712.7 447.5 706.2C 447.6 698.2 447.2 693.7 446.3 691.8C 444.7 688.6 444.6 679.2 446 675.4C 446.8 673.3 446.7 671.6 445.4 668.1C 443.9 663.7 443.9 663.3 445.9 658.7C 448.3 653 448.5 646.9 446.5 638.5C 444.5 630.2 444.6 627 447.2 624.3C 449.2 622.2 449.3 621.6 448.2 618.7C 446.5 613.9 446.7 613.2 449.8 612.8C 451.7 612.6 452.5 611.9 452.5 610.5C 452.5 608.9 451.9 608.5 449.2 608.7C 445.9 608.8 445.8 608.8 446.3 605.2C 446.6 602.5 446.2 600.9 444.8 599.3C 443.3 597.7 443.1 596.8 443.9 595.2C 444.4 594.2 444.8 591.6 444.8 589.4C 444.5 583 446.9 576.2 450.4 573.5C 454.8 570.2 462.4 568.2 470.8 568.1C 477.3 568 478 568.2 478 570zM 356 587.5C 357.2 594.1 360 604.8 362.2 611.3C 364.4 617.8 365.9 623.4 365.6 623.7C 365.3 624.1 363.6 623.1 362 621.5C 359.7 619.3 359 619 359 620.3C 359 621.2 366.2 629.1 375 637.8C 383.8 646.5 391 654.5 391 655.4C 391 656.9 390.2 657 384.8 656.4C 381.3 656 377.6 655.4 376.5 654.9C 374.7 654.2 374.8 654 377.8 652.9C 379.5 652.1 381 651.1 381 650.6C 381 650.1 377.3 646.2 372.8 641.9C 365.1 634.7 362.7 632.8 363.2 634.7C 363.7 636.6 361.8 646 361 646C 360.4 646 360 645.7 360 645.4C 360 645.1 359.1 640.5 358 635.2C 356.9 629.9 355.1 617.2 354 607C 352.9 596.8 351.8 586.2 351.4 583.3C 351.1 580.4 351.2 575.9 351.6 573.3L 352.4 568.5L 353.1 572C 353.4 573.9 354.8 580.9 356 587.5zM 303.7 572.5C 300.8 575.1 299 575.7 299 574C 299 573 303.8 570.1 305.5 570.1C 306.1 570.1 305.2 571.2 303.7 572.5zM 526.1 571.6C 531.2 573.7 529.4 575.2 524 573.4C 521.8 572.6 519.4 572.3 518.7 572.6C 517.1 573.2 515 577.2 515 579.5C 515 580.3 514.6 581 514 581C 512.7 581 512.7 575.9 514 572.6C 514.8 570.5 515.6 570 518.5 570C 520.4 570 523.8 570.7 526.1 571.6zM 413.3 574.9C 414.2 575.7 414.8 576.5 414.5 576.8C 414 577.3 406 572.3 406 571.5C 406 570.8 411.3 573.2 413.3 574.9zM 573.8 574C 574.4 574 575 574.4 575 575C 575 575.5 573.2 576 571 576C 567.2 576 566.1 575.2 567.7 573.6C 568.1 573.2 569.4 573.1 570.5 573.4C 571.6 573.7 573.1 574 573.8 574zM 589.9 591.4C 590.8 592.5 590.9 593.4 590 595C 588.6 597.7 587 596.7 587 592.9C 587 589.7 588.1 589.2 589.9 591.4zM 347.5 604.7C 344.6 609.3 338.8 616.1 338.3 615.6C 338.1 615.4 340.2 612 343.2 608.2C 348.3 601.3 351 599.2 347.5 604.7zM 469.2 625.7C 468.8 631.3 468.1 632 465.6 629.4C 464.3 628.2 464.2 627.4 465.1 625.7C 466.3 623.4 469.2 619.8 469.5 620.2C 469.6 620.4 469.4 622.9 469.2 625.7zM 375.9 690C 389 691.5 391.1 692.8 384.5 695.6C 379.9 697.5 374.1 697.4 365.2 695.3C 357.4 693.5 356.6 692.2 362.1 690.3C 366.4 688.8 365.9 688.8 375.9 690zM 455.8 726.2C 455.4 731.8 453.6 731.8 453.5 726.3C 453.5 723.4 453.9 722 454.8 722C 455.7 722 456 723.3 455.8 726.2zM 465.9 740.1C 468.7 741.3 471 742.5 471 742.9C 471 743.2 468.9 744.6 466.2 746C 461.8 748.3 461.5 748.7 461.8 752C 462.2 756.4 465.3 760.9 469.9 764C 472.9 766 473.2 766.5 471.6 766.8C 468.6 767.4 462 763.9 460.3 760.7C 457.7 755.5 457.3 738 459.9 738C 460.4 738 463 739 465.9 740.1zM 468.1 770.7C 469 771.5 472.6 773.7 476.1 775.6L 482.5 779.1L 475.7 778.7C 467.7 778.1 464 775.6 464 770.8C 464 767.8 464.7 767.8 468.1 770.7zM 394.8 890.6C 398.5 892.1 402.2 893.9 403 894.7C 404.3 896 404.2 896.4 401.5 898.7C 399.9 900 395.6 902.6 392 904.3C 386 907.2 384.7 907.5 375.3 907.5C 369.6 907.5 365 907.7 365 908C 365 908.3 366.4 910.5 368 913C 369.6 915.5 371 917.9 371 918.3C 371 919.5 365.2 918.1 360.6 915.8C 356.9 913.9 356.8 913.7 357.4 909.7C 358.4 903.1 360.7 901 371 896.8C 376.1 894.8 381.5 892 382.9 890.6C 386.1 887.4 386.6 887.4 394.8 890.6z"/>
<path style="stroke:none; fill:#000000" d="M 546.5 155C 545.4 156.7 547 158.2 548.6 156.9C 549.3 156.3 549.7 155.4 549.4 154.9C 548.7 153.7 547.3 153.8 546.5 155z"/>
<path style="stroke:none; fill:#000000" d="M 403 280.4C 401.2 282.6 402.5 285 405.5 285C 407.8 285 408.1 284.6 407.8 282.3C 407.5 279.1 404.9 278.2 403 280.4z"/>
<path style="stroke:none; fill:#000000" d="M 392 389C 392 389.5 392.7 390 393.5 390C 394.3 390 395 389.5 395 389C 395 388.4 394.3 388 393.5 388C 392.7 388 392 388.4 392 389z"/>
<path style="stroke:none; fill:#000000" d="M 395 492.7C 397.3 495.4 401.9 501.5 405.2 506.5C 411.4 515.8 412.1 514.9 406.7 504.5C 403.7 498.7 394 488 391.9 488C 391.3 488 392.7 490.1 395 492.7z"/>
<path style="stroke:none; fill:#000000" d="M 330.5 316.1C 329.6 317.8 329 319.4 329.2 319.6C 329.5 319.8 330.4 318.4 331.3 316.5C 333.4 312.2 332.6 311.8 330.5 316.1z"/>
<path style="stroke:none; fill:#000000" d="M 326.5 326.2C 325.7 329 325 332.5 325.1 333.9C 325.1 335.3 325.8 333.8 326.5 330.5C 327.2 327.2 328.1 323.7 328.5 322.7C 328.9 321.8 329 321 328.6 321C 328.3 321 327.4 323.3 326.5 326.2z"/>
<path style="stroke:none; fill:#000000" d="M 324.1 338.7C 324.1 339.9 323.7 341.7 323.4 342.7C 322.9 344.4 322.9 344.4 324 342.7C 324.6 341.7 324.9 339.9 324.7 338.7C 324.3 336.5 324.3 336.5 324.1 338.7z"/>
<path style="stroke:none; fill:#000000" d="M 307.3 430.5C 307.3 433.2 307.5 434.3 307.7 432.7C 307.9 431.2 307.9 429 307.7 427.7C 307.5 426.5 307.3 427.7 307.3 430.5z"/>
<path style="stroke:none; fill:#000000" d="M 393.1 869.1C 392.5 870.9 392 873.2 392.1 874.4C 392.1 875.6 392.7 874.2 393.5 871.5C 395 865.8 394.8 864.3 393.1 869.1z"/>
</g>
</g>
</svg>