<?xml version="1.0" encoding="UTF-8" standalone="yes"?>
<!-- Created with sK1/UniConvertor (http://sk1project.org/) -->
<svg xmlns="http://www.w3.org/2000/svg" xmlns:xlink="http://www.w3.org/1999/xlink"
  width="1024pt" height="1024pt" viewBox="0 0 1024 1024"
  fill-rule="evenodd">
<g>
<g>
<path style="stroke:none; fill:#000000" d="M 441 143.6C 431.9 145.1 425.6 147.5 422.7 150.5C 420.9 152.3 417.7 154.3 415.5 155C 407 157.6 397.4 163.5 390.9 170.1C 382.7 178.2 381.6 181.3 382.2 193.2C 382.7 200.9 382.4 203.2 380.2 209.8C 377 219.7 376.6 235.3 379.4 244.5C 382.5 255 387.9 263.9 396.1 272.3C 403.5 279.8 403.8 280.2 403.3 284C 402.6 289.1 403.8 290.5 410.5 292.5C 415.6 293.9 419 296.1 419 298C 419 298.5 417.4 299.8 415.5 301C 411.5 303.4 411 306.2 414 308.3C 415.9 309.6 416 310 414.7 313.7C 413.9 315.9 411.3 320.4 408.8 323.6C 406.3 326.9 402.7 333 400.7 337.2C 397.4 344.5 397 344.9 392.9 346C 390.5 346.7 387.5 348 386.3 349C 385 350 383.1 350.6 382 350.3C 379.1 349.5 375.3 352.4 372.9 357.2C 371 360.8 370.8 362.4 371.4 368.8C 371.8 372.9 373 378.4 374.1 381.2C 375.2 384 376 388.2 375.9 390.8C 375.8 393.4 376 396.4 376.4 397.6C 377.1 399.5 376.8 399.6 374.1 399.2C 370.1 398.6 366.2 401.5 361.6 408.4C 359.7 411.3 357.4 414 356.5 414.4C 355.7 414.7 353.6 417.1 352 419.7C 350.3 422.3 347.6 425.2 345.8 426.1C 342.7 427.7 329.1 439 321.3 446.6C 317.7 450.1 317 451.3 317 454.7C 317 458.1 316.2 459.5 311.4 464.9L 305.7 471.1L 309.1 474.7L 312.5 478.3L 307.9 475.6C 301.7 472.1 296.2 472.1 292 475.7C 287.5 479.4 286.7 482.2 288.6 486.9C 290.1 490.6 290 491 287.9 495.2C 284 502.8 272.2 519.7 269.3 521.8C 267.8 522.9 266.9 524.2 267.3 524.6C 267.7 525.1 268.6 524.8 269.1 524C 270 522.7 270.1 522.8 269.7 524.2C 269.4 525.1 270 526.6 271.2 527.6C 272.7 529.1 273 530.2 272.6 533C 270.6 545.4 270.1 543.7 278 552.7C 285.7 561.6 290.6 564.4 294.7 562.2C 295.8 561.5 298 561.4 300.1 561.9C 304.2 562.8 308 561.7 308 559.5C 308 558.7 309.1 557.5 310.5 557C 315.5 555.1 313 550.2 305.2 546.8C 302.8 545.7 300.6 544.2 300.3 543.4C 300 542.6 301.3 538.5 303.2 534.2C 305.2 530 307.3 524.9 307.9 523C 308.5 521.1 309.8 518.5 310.8 517.2L 312.6 514.9L 319.2 516.7C 325.6 518.4 325.9 518.4 327.9 516.6C 329.1 515.5 330 514.2 330 513.6C 330 512.2 348.7 493 350 493C 350.5 493 352 491.3 353.3 489.3C 355.2 486.2 356.2 485.6 359.1 485.6C 362.2 485.5 362.8 485 365.3 480.2C 367.5 476.1 369.7 473.9 375.1 470.4C 378.9 467.9 382.2 465.5 382.5 465C 382.8 464.5 386.2 463 390 461.5C 395.4 459.5 398 457.7 401.4 453.9C 403.8 451.2 406.1 449 406.4 449C 406.7 449 407.2 450.7 407.5 452.7C 408.3 457 409.7 462.2 411.2 466.2C 412.5 469.7 415.7 469.9 417 466.6C 417.9 464.1 418.1 464 428.6 462.4C 432.7 461.8 433.2 463.3 431.8 470.4C 430.9 474.4 430.9 476.8 431.7 479.4C 433 483.5 431.9 485.4 427.8 486.4C 425.6 486.9 424.9 487.9 424 491.3C 423.5 493.6 422.1 497.2 421 499.2C 419.9 501.2 419 503.9 419 505.2C 419 508.8 414.8 517.9 412.9 518.5C 410.5 519.3 409.7 522.1 411 525.4C 411.5 526.9 412 528.5 412 529C 412 529.5 409.1 534.1 405.7 539.2C 402.2 544.3 398.1 550.7 396.5 553.5C 394.9 556.2 393.6 558.6 393.5 558.8C 393.4 558.9 391.4 558.3 389 557.5C 386.6 556.7 383.9 556.2 382.9 556.5C 380.9 557.2 373.8 566.1 371.9 570.3C 370.8 572.8 370.8 573.3 372.2 574.1C 374.2 575.2 374.2 575 365.6 596C 358.8 612.6 358.5 615.8 363.5 623.6C 367.4 629.7 367.6 630.9 365.5 635.1C 364.6 636.7 364 639.7 364.1 641.8C 364.2 644 363.5 647.1 362.2 649.5C 361 651.7 360 655.3 360 657.5C 360 659.8 359.1 663 357.9 664.9C 355.5 668.9 355.1 673.3 357.1 675.6C 358 676.6 358.3 679.4 358.2 683.8C 357.8 693.9 361.5 700.3 377.1 716.5C 384 723.7 392 732.8 394.9 736.8C 399.5 743 401.2 744.5 407.9 748C 416.3 752.4 419.2 754.9 421.8 760.1C 422.7 762 424.4 763.6 425.5 763.8C 431.2 764.8 435 766.3 437.5 768.6L 440.3 771.1L 438 772.7C 435 774.8 436.4 775.9 444.1 777.1C 447.6 777.7 451.2 778.9 452.2 779.8C 453.1 780.7 454.6 782.1 455.4 782.7C 456.2 783.4 457.2 786 457.6 788.5C 458.2 792.7 458.6 793.3 462.1 794.6C 464.9 795.8 466.2 797 466.9 799.3C 468.3 803.7 470 814.7 470 819.6C 470 821.8 470.7 824.5 471.5 825.6C 473.6 828.4 473.3 831.6 470 841.4C 463.9 859.7 463.9 868.7 470.3 874.8C 476.1 880.4 483.2 881.5 490.8 878C 495.8 875.7 504.2 867.4 507 862C 508.1 859.9 509.4 857.9 509.9 857.5C 510.4 857.2 511.6 854.5 512.4 851.5C 513.3 848.5 518.2 837.5 523.4 827.1C 535.9 801.7 539 794.1 539 788.7C 539 784.6 538.4 783.5 533.3 777.6C 530.2 774 525 769 521.8 766.5C 518.6 764 515.4 760.7 514.8 759.2C 514.2 757.7 511.4 754.2 508.7 751.4C 504.7 747.2 503.5 745 502.1 739.9C 500.6 733.9 500.2 733.4 496.3 731.5C 491.9 729.5 490 726.4 490 721C 490 719.1 489.3 718 487.6 717.2C 485.8 716.4 485 715.2 484.8 712.8C 484.5 709.5 483.5 709 479.9 710.5C 478.6 711 477.6 709.9 475.6 705.3C 469.8 692.4 470.1 692.8 460.3 687.9C 446.6 681 445.9 680.5 446.6 677.1C 447.1 674.6 446.8 673.9 444.1 672.6C 442.4 671.7 441 670.8 441 670.7C 441 668.5 445.8 658 447.5 656.4C 448.8 655.2 450.4 652.3 451 649.9C 452.8 643.2 454.7 640.2 458.8 637.6C 461.1 636.2 463.3 633.6 464.4 631.1C 465.5 628.9 466.8 627 467.4 627C 468 627 470.8 628.1 473.7 629.4C 480.1 632.4 480.9 634.7 478.6 642.9C 476.6 650.2 476.6 653.5 478.7 662.2C 480.4 669.2 480.4 669.3 478.2 673.1C 475.2 678.2 475.4 680.9 479 685.2C 481.8 688.6 482 689.3 481.4 694.3C 480.6 701.2 482.4 704.9 488.3 708.4C 493.1 711.1 494 712.9 494 720.1C 494 725.1 493.8 724.9 504.8 729C 508.7 730.5 508.8 730.6 510 737C 511.2 743.5 513.7 746.9 519.8 750.9C 522.6 752.7 526.6 756.7 529.3 760.4C 532.6 765 535.3 767.7 538.7 769.4C 545.5 772.9 551.4 779.4 553.5 785.8C 555.2 791 557.2 793 560.7 793C 563.3 793 567.7 798.1 570.5 804.5C 571.9 807.6 575.2 813.2 577.9 817C 582.6 823.8 582.7 824 583.3 833.3C 583.9 844.2 584.8 846.4 589 847.8C 593 849.3 592.9 851.5 588.3 864.8C 585.1 873.7 584.5 876.8 584.5 883.5C 584.5 892.4 586.2 896.6 591.3 900.4C 593.6 902.1 595.6 902.5 601.3 902.5C 611.5 902.5 618.1 899.1 628.5 888.6C 637.6 879.3 642.5 871 644.1 862.3C 644.6 859.1 645.8 854.7 646.7 852.5C 649.2 846 656 818 656 814.1C 655.9 809.1 653.1 803.3 647.6 797.2C 640.9 789.6 640.2 788.2 639 780.6C 637.8 772.9 635.7 768.2 633.2 767.3C 632.3 766.9 629.9 765.4 628 763.8C 626.1 762.3 624 761 623.3 761C 620.9 761 620.9 758.9 623.4 755.9C 624.8 754.2 626 752.5 626 752C 626 751.5 624.4 749.7 622.4 747.8C 615.4 741.5 614.8 740.8 613.5 737.6C 612.8 735.9 611.2 733.6 610 732.5C 608.8 731.4 606.4 728.5 604.7 726C 603.1 723.5 600.5 720.1 599 718.5C 597.5 716.8 595.8 713.6 595.1 711.3C 594.3 708.3 592.6 706 589.5 703.5C 586.3 700.8 584.7 698.5 583.4 694.8C 581.5 689 577.3 683.8 573 682C 570.5 680.9 570 680.2 570 677.1C 570 672.2 568.8 670.7 565.1 670.7C 562 670.7 560.9 668.8 563.1 667.5C 563.7 667.1 563.9 664.4 563.5 660.2L 562.8 653.5L 567.3 649.8C 573 645.1 574.2 641.1 571.1 636.9C 568.3 633.2 568.4 628.4 571.5 611.5C 574 598 575.9 592.5 578.8 590.4C 579.9 589.6 580.1 588.4 579.6 585.9C 578 577.4 577.8 574 578.8 574C 580.7 574 586.8 563 588.7 556.2L 590.5 549.5L 591 567C 591.6 585.2 592.3 588.3 596.1 589.5C 599.9 590.8 602 587.5 602 580.2C 602 576.6 602.2 573.9 602.5 574.2C 602.8 574.5 603.7 577.3 604.6 580.5C 606.4 587.8 607.4 589 611.4 589C 616 589 617 587.5 617.1 579.5C 617.2 575.7 617.5 573.6 617.7 575C 618.8 582.1 621.1 584.5 625.6 583.4C 628.8 582.6 630 580.2 630 574.8L 630.1 570.5L 631.5 573.7C 633.2 577.8 636.1 578 639.6 574.4C 641.8 572.3 642.1 571.3 641.6 568.2C 641.3 566.2 640.6 554.6 640.1 542.5L 639.2 520.6L 642 517.3L 644.9 514.1L 644.4 499.8C 644.2 491.9 643.8 483.1 643.5 480.1C 643.1 474.5 643.7 473 649.2 465.9C 651.8 462.7 652 461.8 651.5 456.9C 651 452.1 651.2 450.9 654 446.2C 656.8 441.4 657.3 441 660.9 441C 666.9 441 677.9 435 683.9 428.5C 697.4 413.7 697.2 392.5 683.2 361.5C 680.7 355.9 678.8 350.2 678.9 348.6C 679 345.8 674.1 338.3 663.8 325.9C 661.5 323 660 320.2 660 318.5C 660 314.7 658.5 312.5 655 311C 652.5 310 652 309.2 652 306.5C 652 303.4 650.4 300.5 643.3 290.5C 641.7 288.3 640.7 283.7 639 272.5C 632.5 227.1 627.8 198 626.4 194.3C 624 187.9 620.5 186.6 609.9 188.5C 578.8 194.1 523.5 203 522.6 202.7C 521.9 202.4 520.6 198.7 519.6 194.4C 514.6 172.6 502 158.6 479.6 149.6C 468.9 145.3 449.2 142.2 441 143.6zM 469.5 148C 498.1 155.7 513.6 171.6 519.1 198.8L 520.4 205L 516.5 209.1C 514.3 211.3 510.4 214.8 507.8 216.8C 505.1 218.8 503 220.8 503 221.3C 503 222.4 513.5 214.1 518 209.5C 519.9 207.6 521.8 206 522.2 206C 523.2 206 523.3 211.7 522.3 212.3C 521.8 212.6 521.8 217 522.1 222.2C 522.6 231 522.5 231.7 520.1 235.3C 517.3 239.7 509.1 246.9 504.4 249.3C 501.5 250.8 490.9 255 490.1 255C 489.9 255 494.9 249.9 501.2 243.7C 512.9 232.4 519.1 223.7 520.5 217C 521.2 213.7 521.1 213.7 512.4 221.9C 507.5 226.5 502.7 230.6 501.7 231.1C 499.1 232.6 497.9 228.2 498.2 218.1L 498.5 209.5L 501.3 209.8C 502.8 210 504 209.9 504 209.6C 504 207.1 497.6 190 496.7 190C 496 190 494.6 190.7 493.6 191.5C 491.2 193.3 488 193.5 488 191.8C 488 191.1 489.5 189.1 491.3 187.2C 493.7 184.6 493.9 184 492.3 184.9C 489.1 186.5 488.3 186.3 487.6 183.6C 486.7 180.1 478.6 168.4 473.1 162.7C 470 159.4 465.3 156.3 458.4 152.8C 449.8 148.5 447.1 147.7 440.9 147.2C 429.4 146.3 436.2 145 450 145.4C 457.8 145.7 464.1 146.5 469.5 148zM 449 156.6C 461 160.2 470.7 167.2 477.5 177.4L 480.8 182.2L 477.4 186.7C 473.6 191.7 473.3 193.4 475.5 198.7C 478.1 205 476.3 203.5 470.7 194.9C 467.7 190.3 464.4 185.8 463.4 184.9C 460.1 182.1 436.8 170.2 430.4 168.2C 419.5 164.6 407.2 164.4 398.5 167.6C 396.9 168.2 397 167.7 399.3 165.2C 402.5 161.9 410.5 157.9 419.1 155.5C 425.8 153.6 441 154.2 449 156.6zM 396.1 187.5C 392 192.3 387.5 201.2 385.4 209.1C 383.3 217 383 234.3 384.9 242C 386.9 250.3 394.3 264.8 399.6 270.8C 402.1 273.7 404 276.3 403.7 276.6C 402.6 277.7 393.5 268.3 388.9 261.3C 382.2 251.1 379.9 243.7 379.3 231C 378.5 214.2 383 200.6 393.2 189.5C 398.7 183.5 401.1 181.8 396.1 187.5zM 622.5 191.3C 624.2 192.7 625.3 194.9 625.7 197.6L 626.2 201.7L 620.7 201.2C 615.5 200.8 614.9 201 612.1 203.7C 609.8 206.1 609 207.9 608.5 212.6C 608.1 215.8 607.7 218.9 607.6 219.4C 607.5 220 606.4 214.5 605.2 207.3C 604 200.1 602.8 193.6 602.5 192.8C 602 191.7 603.2 191.1 607.2 190.3C 616.2 188.6 619.6 188.8 622.5 191.3zM 466.4 193.2C 468.7 196.4 468.4 197.8 466 195.2C 464.8 194 463.3 193 462.5 193C 461.7 193 461 192.5 461 192C 461 190.1 464.9 191 466.4 193.2zM 626.7 203.4C 627 203.6 630.1 223.4 633.5 246.4C 634.4 252.3 634.9 257.4 634.7 257.7C 634.4 257.9 632 256.5 629.2 254.6C 623.5 250.4 622.7 250.3 619.7 253.1L 617.5 255.1L 616.8 248.8C 616.4 245.3 615.1 236.6 614 229.4C 612.8 222.2 612 215.2 612.2 213.9C 612.7 211.2 612.4 210.9 615.6 218.7C 617.6 223.7 623.1 223 621.5 217.9C 621 216.5 620.3 216.1 619 216.5C 617.7 216.9 616.9 216.3 616.1 213.9C 613.3 205.8 615.7 201.4 622.4 202.4C 624.6 202.8 626.5 203.2 626.7 203.4zM 590.4 217.3C 606.1 227.7 599.2 246.2 576.6 254C 573.3 255.1 569.3 256 567.6 255.9C 564 255.9 563.8 256 576.3 250.9C 590.6 245.1 598.4 235.5 595.6 227C 594.2 222.7 587.5 217.1 585.8 218.8C 584.2 220.4 582.7 220.3 583.3 218.6C 584.4 215.7 570.6 215.1 557.5 217.5C 540.5 220.7 529.4 222.1 526.3 221.5C 521 220.5 522.5 219 528.8 219C 531.9 219 540.8 217.6 548.5 216C 560.5 213.4 564.1 213 573.8 213.4C 584.7 213.7 585.2 213.8 590.4 217.3zM 613.4 237.1C 614.2 241.7 615.1 252.2 615.5 260.3C 615.8 268.5 616.4 275.9 616.7 276.8C 617.1 277.8 617 278.2 616.6 277.9C 616.2 277.5 615 273.6 614 269.1C 612.9 264.6 610.6 258 608.9 254.4C 607.3 250.8 606 247.6 606.2 247.4C 607.5 246.2 610.9 250.5 611.5 254.1C 612 256.7 612.6 257.8 613.2 257.2C 614.1 256.3 613.3 246.2 611.4 232C 610.3 224.1 612 228.4 613.4 237.1zM 523.5 243.6C 522.1 249 520.2 254.6 519.4 256L 517.8 258.5L 520.3 256C 521.8 254.5 523.4 251.2 524.2 248.1L 525.6 242.7L 529.7 246.6C 531.9 248.7 534.7 251.2 535.9 252C 537.2 252.9 538.2 254.7 538.3 256.4C 538.5 259.1 537.9 259.6 529.7 263.8C 522.4 267.5 510.2 276.6 513.5 275.8C 515.1 275.4 521 278.1 521 279.2C 521 279.9 521.5 279.9 522.3 279.4C 522.9 278.9 524.6 278.5 526 278.5C 528.1 278.5 528.5 279 528.5 281.6C 528.5 283.3 527.9 285.3 527.3 285.9C 526.3 286.8 526 286.7 526 285.6C 526 283.7 522.4 281.7 520.4 282.4C 519.6 282.7 519.1 282.6 519.4 282.1C 519.9 281.4 513.8 279 511.5 279C 511.1 279 508.3 281.6 505.2 284.7C 498.5 291.7 497 290.3 502.9 282.7C 507 277.4 517.4 266.7 522 263C 523.4 261.9 521.9 262.4 518.5 264.2C 515.2 266 508.5 270.9 503.5 275.3C 493 284.4 486.4 289 483.8 289C 482.7 289 485.5 286.6 490.2 283.4C 498.7 277.7 504.4 272.9 498.5 276.5C 496.9 277.5 494.6 279 493.5 280C 488.7 284 480.1 288.6 474.5 290.2L 468.5 291.8L 471 289.8C 472.4 288.7 478.9 285.1 485.5 281.8C 492.1 278.5 498 275.4 498.6 274.9C 499.2 274.4 500.4 274.2 501.2 274.5C 502.2 274.9 504.9 272.7 509 268.1C 515.7 260.5 516.2 259.1 510.5 264.1C 506.3 267.8 506.1 267.3 509.7 261.7L 512.3 257.5L 508.5 260.9C 503.5 265.2 495.4 270.4 491.2 271.8L 487.9 272.9L 492.8 267.4C 495.6 264.3 502.7 257.2 508.8 251.4C 514.9 245.7 521.1 239 522.7 236.5C 524.2 234 525.6 232.4 525.8 232.9C 525.9 233.3 524.9 238.1 523.5 243.6zM 479.3 242.7C 477.3 247 475.3 250.9 474.8 251.5C 473.7 252.7 474.9 246.2 476.3 243.5C 477.4 241.3 482.1 235 482.6 235C 482.8 235 481.3 238.5 479.3 242.7zM 636.3 265.1C 636.7 267.5 637.6 273.1 638.4 277.5C 639.2 281.9 639.6 285.7 639.3 286C 639 286.3 637.9 285.3 636.7 283.8L 634.7 281.1L 630.9 283.3C 628.8 284.5 626.8 285.1 626.4 284.7C 626 284.3 625.8 281.2 625.9 277.8C 626.1 274.3 626.2 267.6 626.3 262.8L 626.3 254L 630.9 257.3C 634.8 260.1 635.6 261.3 636.3 265.1zM 572 258.4C 575.1 259.1 579 260.5 580.8 261.4C 584.6 263.4 588 268.4 588 272L 587.9 274.5L 586.1 272.3C 579 263.8 576.2 261 576.7 263.1C 577.2 265 577 265.2 575.4 264.6C 574.4 264.2 570.8 263.6 567.4 263.3C 558.3 262.5 544 267.1 535.3 273.7C 533.5 275 532 275.7 532 275.2C 532 274.6 532.7 273.9 533.6 273.6C 534.9 273.1 535 272.7 534 271.5C 533.4 270.7 533 269.5 533.3 268.8C 533.7 268 533.9 268.1 533.9 269.2C 534 270.1 534.5 271.2 535 271.5C 535.7 271.9 535.9 271 535.5 268.9C 535 266.1 535.1 265.8 536.5 267C 537.4 267.7 537.9 268.9 537.6 269.6C 537.3 270.4 537.6 270.7 538.6 270.3C 539.9 269.8 539.9 269.5 538.4 267.9C 536.8 266.1 537 263 538.8 263C 539.3 263 540.3 264.1 541 265.5L 542.3 268L 548.2 264.8C 553.3 262.1 554.1 261.3 553.7 259.3C 553.3 257.1 553.5 257 559.9 257C 563.5 257.1 569 257.7 572 258.4zM 548.6 258.8C 548.4 259.2 548.5 260.2 549.1 261C 549.8 262.2 550 262.1 550 260.5C 550 258.9 550.2 258.8 551 260C 552.3 262.1 549.8 263.4 548.3 261.3C 547.2 259.9 547.4 258 548.6 258C 548.9 258 548.9 258.4 548.6 258.8zM 547.1 262.2L 548.3 264.5L 546.1 262.6C 544 260.7 544 260.7 544.6 262.5C 545.2 263.9 545 264.1 544 263.5C 543 262.9 542.8 263.1 543.3 264.4C 544.2 266.8 542.3 265.4 540.8 262.7C 539.8 260.8 539.9 260.7 541.2 261.8C 542.5 262.8 542.9 262.8 543.4 261.5C 544.2 259.3 545.7 259.6 547.1 262.2zM 515 267.3C 515 267.5 514 268.5 512.8 269.6L 510.5 271.5L 512.4 269.2C 514.2 267.1 515 266.5 515 267.3zM 568.1 271.8C 591.8 287.6 595.9 291 599.2 297.5C 601.9 302.8 603.7 304.8 607.7 306.7C 611.2 308.3 614.4 312.7 615.6 317.4L 616.3 320.2L 613.6 318.5C 609.2 315.6 609.6 317.5 614.2 321.2C 617.5 323.9 618.8 325.9 619.8 329.6C 620.5 332.3 624.3 340.1 628.1 346.8C 632 353.6 635 359.4 634.7 359.6C 634.5 359.9 631.9 358.2 628.9 356C 622.3 351 620.7 350.6 611.8 351.2C 606.1 351.7 603.2 352.5 596.8 355.8C 588.4 360.1 588.3 359.1 596.5 352.9C 603.4 347.7 611.4 340.1 610.7 339.4C 609.2 337.9 606.4 339.9 596.1 349.4C 592.2 353 592.6 351.9 598.8 343.2C 606 333.1 601.7 336.2 592.2 348C 586.9 354.6 587 354.5 587 353.2C 587 352.6 589.9 347.7 593.5 342.3L 600.1 332.5L 594.6 338.2C 588 345.1 585.3 348.7 580.5 356.5C 577.1 362 576.9 362.2 577.5 359C 577.8 357.1 579.6 352.3 581.5 348.5C 584.8 341.7 591.8 333.8 600.5 327.1C 602.6 325.5 601.9 325.7 597.9 327.9C 594.8 329.6 591.9 331 591.5 331C 591.1 331 591.9 329.4 593.4 327.5C 596 324.1 596 324.1 594 323C 592.4 322.2 576.8 299.6 571.4 290.5C 570.5 288.8 569.7 289 561.7 293.9C 551.4 300.1 541.7 307.2 539.1 310.6C 538.1 311.9 537 313 536.7 313C 536.4 313 536.8 310.3 537.6 306.9C 539.4 299.4 544.8 288.3 549.8 282.2L 553.5 277.6L 549 280.8C 545.1 283.5 541.6 287.6 532.5 299.5C 531 301.4 531 301.4 531.6 298.5C 532.4 294.4 536.7 285 538.7 282.8C 539.6 281.8 540.1 280.7 539.8 280.4C 539.1 279.8 533.2 287.7 527.9 296.6C 525.6 300.4 524 302.8 524.2 302C 524.5 301.2 526.2 296.1 528 290.7C 532 278.9 534.1 277 546.4 272.8C 556 269.5 564.2 269.2 568.1 271.8zM 621.7 276.2C 621.5 277.5 621.3 276.7 621.3 274.5C 621.2 272.3 621.4 271.3 621.7 272.2C 621.9 273.2 621.9 275 621.7 276.2zM 625.5 302.5C 625.9 307.4 627.1 314.9 628.1 319.2C 630.1 327.2 630.8 345.2 629.1 343.4C 628 342.4 621.9 326 622.5 326C 622.8 326 623.9 327.7 625 329.7L 627.1 333.5L 626.6 323.7C 626.3 318.4 625.6 313.1 625 312C 623.7 309.6 622 293.6 622.1 285L 622.2 278.5L 623.5 286C 624.2 290.1 625.1 297.5 625.5 302.5zM 525 287.5C 525 292 521.7 289.9 521.4 285.3C 521.3 283.5 521.6 283.3 523.2 284.1C 524.2 284.6 525 286.2 525 287.5zM 520.1 289C 521.1 289.6 522 290.6 522 291.2C 522 292.1 521.7 292.1 520.8 291.2C 520.1 290.5 518.5 290 517.1 290C 515 290 514.8 289.8 516 289C 517.9 287.8 517.7 287.8 520.1 289zM 517.4 292.2C 516.9 293 517.2 293.1 518.3 292.7C 520.7 291.8 521.4 293.8 519.6 296.5C 517.7 299.3 515.3 299.7 512.4 297.6C 510.7 296.3 510.8 296.2 514.3 297C 516.3 297.4 518 297.4 518 297C 518 296.5 517 295.9 515.8 295.7C 514.3 295.4 514.5 295.3 516.3 295.5C 517.8 295.6 519.3 295.3 519.6 294.8C 519.9 294.4 518.2 293.9 515.8 293.9C 513.2 293.8 512.4 293.5 513.9 293.3C 515.8 292.9 516 292.6 514.9 291.9C 513.8 291.2 514.1 291 515.8 291C 517.3 291 517.9 291.4 517.4 292.2zM 648.7 301.3C 650.1 303.3 651 305.3 650.7 305.6C 650.2 306.1 642.3 295.4 640.6 292C 639.5 289.8 645.6 296.8 648.7 301.3zM 639.4 310.7C 640.4 313.9 641.5 317.1 641.7 317.7C 642 318.5 641.3 319 639.7 319C 638.3 319 636.8 319.5 636.5 320C 635.2 322.2 634 319.7 634 314.7C 634 311.8 633.3 307 632.5 304C 631.7 301 631 298.3 631.1 298C 631.1 297.7 632.5 299.2 634.3 301.2C 636.1 303.2 638.4 307.5 639.4 310.7zM 514.7 306.2C 513.1 311.2 512.6 315.2 512.6 325C 512.5 336.6 512.8 338.2 515.7 346.7C 523.7 369.5 533.9 382 561.2 402C 566 405.5 569.8 408.6 569.5 408.8C 568.9 409.4 556.9 402.6 548 396.7C 531.6 385.7 517.3 366.8 511 348C 506.8 335 507.6 317.2 513 304.5C 515.9 297.8 517.1 299 514.7 306.2zM 645.1 314.9C 645.7 316.9 646.6 318.9 647 319.5C 647.4 320 648.1 323.3 648.5 326.7C 649 331.3 649.6 333.1 650.9 333.5C 653.2 334.2 660.6 345.7 661.3 349.8C 661.7 351.6 663.3 354.7 664.9 356.8C 668.2 360.9 676.7 378.5 679.5 387C 681.9 394.3 682 404.2 679.7 410.2C 676.7 417.8 668.3 424 660.6 424C 659.2 424 658.9 423.5 659.3 421.8C 659.7 420.6 659.3 413.7 658.4 406.5C 656.7 391.1 656.2 388.3 654.5 385C 652.6 381.3 647.7 350.8 646.4 334.7C 645.9 328.6 644.1 320.1 641.2 311.1C 640.1 307.8 640.1 307.8 642 309.5C 643.1 310.5 644.5 312.9 645.1 314.9zM 643.7 325.4L 644.7 329.8L 641.3 330.3C 636.2 331.2 635 330.3 635 326C 635 322.8 635.4 322.1 637.3 321.7C 642.3 320.7 642.6 320.9 643.7 325.4zM 478.7 328C 483.3 330.1 486.4 334.2 487.5 339.7C 488 342.3 488.5 343 489.8 342.6C 496.9 340.5 496.7 340.4 497.3 346.2C 497.5 349.1 497.6 351.8 497.3 352.2C 497.1 352.7 495.3 353 493.4 353C 491.5 353 490 353.4 490 353.9C 490 354.4 492.3 356.2 495 357.9C 502.1 362.3 501.8 363.8 493.4 365.5C 491.5 365.9 489.8 367.1 488.9 368.6L 487.6 371.2L 486.9 368.7C 486.5 367.3 485.7 360.7 485 353.9C 482.9 333.2 482.1 331.6 474.1 332.7C 470 333.3 469.8 333.4 470.4 336.1C 470.7 337.7 471.2 342 471.6 345.7C 472.5 355 470.5 353 468.9 343C 467.2 331.8 466.7 331 462.3 331C 460.2 331 453.8 331.9 448.1 333C 442.4 334.1 437.5 334.9 437.3 334.7C 436.5 333.8 467.8 326.3 473 326.1C 473.8 326.1 476.4 326.9 478.7 328zM 453.5 335C 451.9 335.4 449.4 335.8 448 335.8C 445.8 335.8 445.8 335.7 448.5 335C 450.2 334.6 452.6 334.2 454 334.2C 456.2 334.2 456.2 334.3 453.5 335zM 645 336.2C 645.1 337.5 645.9 344.9 646.9 352.7C 648.3 364.2 648.4 367 647.3 367C 645.5 367 641.8 363.1 642.5 362C 643.5 360.3 644.7 360.9 645.3 363.2C 647.1 369.8 646.4 359.7 643.7 337.7C 643.4 335.7 643.6 334 644.1 334C 644.6 334 645 335 645 336.2zM 479.9 340.2C 481.4 347.5 484.1 368.2 483.6 368.7C 483.1 369.2 482.5 366.2 481 356C 479.9 348.8 478.4 340.4 477.3 336.7C 477.1 335.8 477.3 335 477.9 335C 478.4 335 479.3 337.4 479.9 340.2zM 475.6 362.2C 476 364 476.4 367.5 476.5 370C 476.6 372.5 477 375.7 477.3 377.2C 479.2 385 479.2 385 476.5 385C 474.2 385 474 384.7 474 379.7C 473.9 376.9 473.5 371.4 473 367.5C 472.5 363.7 472.4 360.2 472.6 359.8C 473.7 358.1 474.9 359.1 475.6 362.2zM 625.7 361.4C 629.5 362.2 633.9 363.4 635.5 364.1C 638.3 365.3 637.9 365.4 629.4 366.1C 617.5 367 614.5 368.5 622.9 369.3C 630.7 370.1 637 373.2 641.5 378.2C 643.5 380.4 645 382.4 644.7 382.6C 644.5 382.8 642.1 382 639.4 380.8C 635.6 379.1 632.7 378.6 626.3 378.6C 619.5 378.6 618.4 378.4 619.8 377.4C 621.5 376.1 616.6 377.3 609.5 379.9L 606.5 381L 610.2 377.6C 612.2 375.7 615.7 373.6 618 373C 624.7 371.2 622.2 371 613.5 372.6C 609.1 373.4 603.5 374.4 601.1 374.7L 596.6 375.3L 603.1 369C 612.9 359.3 614 359 625.7 361.4zM 641 369.7C 641 372.1 640.8 372.2 637.3 371.7C 632.3 370.9 630.6 369 634.8 369C 636.8 369 638.3 368.4 638.6 367.5C 639.5 365.3 641 366.7 641 369.7zM 614.7 380.4C 613.2 381.1 612.3 381.9 612.6 382.3C 613 382.7 612.8 383 612.2 383C 611.7 383 610.3 383.3 609.3 383.7C 607.1 384.4 611.7 380.6 614 379.7C 616.9 378.6 617.5 379.2 614.7 380.4zM 634.8 383.2C 640.6 384.6 644.3 387 646.8 391.3C 648.6 394.1 648.7 395.2 647.8 400.7C 647.2 404.2 646.3 406.7 645.9 406.4C 644.6 405.7 644.8 406.3 647 412C 649.9 419.5 649.5 420 645.3 414C 641 407.9 634.7 404 629.1 404C 624.6 404 625.9 405.1 633.6 407.9C 639.6 410.1 643 412.8 646.2 418C 649.5 423.4 649.3 454.9 645.9 463.8C 645 466.2 644.9 466.1 639.1 460.8C 635.6 457.5 630.7 454.2 626.9 452.6C 621.7 450.4 619.9 449 617.1 444.8C 612.3 437.9 610.1 436.6 604.5 437.4C 602 437.8 600 437.8 600 437.5C 600 436.4 610.4 432.2 616.3 430.9C 624.4 429.2 623.5 427.7 614.8 428.4L 607.5 429L 614.3 425.8C 618 424.1 621 422.3 621 421.8C 621 420.5 618.8 420.9 614.1 423C 606.6 426.5 604.2 424.6 611 420.5C 615.4 417.8 623.6 410.3 622.9 409.6C 622.6 409.2 620.6 409.7 618.5 410.5C 616.5 411.4 614.6 412 614.4 411.8C 614.2 411.6 615.6 409.6 617.5 407.5C 619.4 405.3 621 403.1 621 402.6C 621 401.8 620.2 402.2 614.1 406.8L 611 409.2L 611.6 401.8C 612 397.8 612.4 394.3 612.6 394.1C 613.2 393.5 624.9 393.8 627.2 394.6C 629.3 395.2 629.3 395.3 627.6 396.6C 626 397.7 626.6 397.8 631.2 397.3C 638 396.6 644 398.4 644 401C 644 402 644.4 403.1 644.9 403.4C 645.4 403.8 645.5 402.9 645.1 401.4C 644.6 399.4 642.6 397.8 637.5 395.1L 630.5 391.5L 615.7 391.5C 607.6 391.5 601 391.5 601 391.4C 601 391.2 613.6 383.5 615 382.8C 617.5 381.7 629.8 381.9 634.8 383.2zM 452.4 397C 452.7 398.7 453.3 403.6 453.6 408C 454.2 415.5 454.2 416 452.3 416C 450.5 416 450.3 415.2 450.1 405C 450 398.6 450.3 394 450.8 394C 451.3 394 452 395.4 452.4 397zM 691.1 411.5C 690.4 414.2 689.1 417.6 688.1 419C 686.4 421.2 686.4 420.5 688.6 413.1C 689.9 408.5 691.1 403.6 691.2 402.1C 691.3 400.1 691.4 400.3 691.8 403C 692 404.9 691.7 408.7 691.1 411.5zM 419.8 410.8C 413.3 419.6 410.5 422.9 409.9 422.2C 409.5 421.8 409 418.9 408.8 415.8L 408.3 410.1L 411.4 409.7C 413.1 409.5 416 409.2 417.8 409.2C 420.8 409 421 409.2 419.8 410.8zM 508.2 417C 512.7 418.3 517.6 423.6 519 429C 520.4 434.3 518.9 439.7 515 443.5C 511.3 447 511.2 446.3 514.5 441.4C 518.1 436.2 518 428.4 514.4 424.1C 510.3 419.2 505.6 418.3 497.2 420.9C 489.5 423.2 484.4 426.8 483.7 430.3C 483.4 431.9 483.2 431.6 483.1 429.3C 482.8 420.6 496.7 413.8 508.2 417zM 507.1 426.1C 508.7 427.8 510 430.2 510 431.4C 509.9 433.1 509.5 432.8 508 429.9C 505.9 425.8 503 423 503 425C 503 425.6 503.9 427.5 505.1 429.1C 508.2 433.5 506.7 432.6 502.6 427.5L 498.9 423L 501.5 423C 503.2 423 505.3 424.1 507.1 426.1zM 527.9 458.3C 526.6 459.4 505.7 468 504.5 468C 501.6 468 503.1 465 506.8 463.4C 513.9 460.4 530.3 456.5 527.9 458.3zM 628.9 477C 639.9 478.2 642 479.6 642 485.6C 642 489.8 641.9 490 640.4 488.5C 638.3 486.4 634.4 484.5 629.8 483.2L 626 482.2L 626 488C 626 491.2 625.7 494.5 625.4 495.3C 625 496.5 625.9 496.9 629.5 497.2L 634.2 497.5L 633.8 492.3C 633.6 488.5 633.9 487 634.8 487C 635.6 487 636 488.9 636 493C 636 496.3 636.4 499 636.9 499C 637.4 499 638.5 499.3 639.4 499.6C 640.7 500.1 641 499.4 641 496.2C 641 493.9 641.5 491.8 642 491.5C 642.6 491.1 643 493.9 643 499.3L 643 507.7L 638.2 505.3C 633.1 502.8 624.3 501 616.8 501C 614.2 501 611.8 500.5 611.5 500C 611.1 499.4 614.2 499 620.1 499C 630.7 499 631.3 498.2 621.3 497.2L 614.5 496.5L 614.2 489.6C 614 485.8 614.3 482.3 614.8 481.8C 615.4 481.2 618.2 480.5 621.1 480.1L 626.5 479.4L 620.5 478.5C 616.8 478 613 478.1 610.5 478.8L 606.5 479.8L 608.9 477.9C 611.6 475.7 616.1 475.5 628.9 477zM 538.4 514.9C 540 515.5 541 516.3 540.7 516.6C 540 517.3 526.3 515.1 523.5 513.9C 520.5 512.5 534.9 513.5 538.4 514.9zM 530.3 518.5C 537.6 520 544 523.3 544 525.5C 544 526.5 542.2 526.1 537.6 524C 534.1 522.4 528.2 520.6 524.4 519.9C 518 518.7 517.6 518 523 517.1C 523.3 517.1 526.6 517.7 530.3 518.5zM 637 526.5L 637 536L 630.3 536C 623 536 610.9 533.2 613.2 532C 613.9 531.6 616.9 531 619.8 530.6C 622.7 530.2 625.7 529.7 626.5 529.4C 628.9 528.4 628.2 527.2 625.3 526.8C 622.5 526.5 622.5 526.5 627.5 521.8C 630.4 519 633.5 517 634.8 517C 636.9 517 637 517.3 637 526.5zM 543.8 531.4C 545.4 532.2 547.3 533.6 548.1 534.6C 550.7 537.7 540.4 535.9 534 532.1L 528.5 528.8L 534.8 529.4C 538.2 529.7 542.3 530.6 543.8 531.4zM 545.3 540.7C 552.1 543.8 552.7 545.4 546.8 544.7C 544.4 544.4 537.2 543.6 530.8 542.9C 524.3 542.2 519 541.3 519 540.9C 519 540.2 520.7 539.6 528.5 537.7C 532.1 536.8 539.4 538.1 545.3 540.7zM 628.3 538.7C 627 538.9 625 538.9 623.8 538.7C 622.5 538.5 623.5 538.3 626 538.3C 628.5 538.3 629.5 538.5 628.3 538.7zM 535.8 545.6C 547.7 547.8 552.1 550.9 545.8 552.8C 542.9 553.7 506 555.2 506 554.4C 506 553.3 511.9 551.4 521.2 549.5L 532.1 547.3L 526.6 546.1C 523.5 545.4 520.8 544.4 520.4 543.9C 519.8 542.9 523.3 543.3 535.8 545.6zM 496.4 550.6C 497.5 553.4 497 554.4 495.6 552.5C 494.4 550.8 493.8 550.7 490.6 551.7C 486.1 553.1 485.9 552.4 490.3 550.5C 494.5 548.6 495.7 548.7 496.4 550.6zM 491.9 563.5C 491.9 567.7 491.7 569.1 491 568C 490.5 567.2 490.1 563.3 490.1 559.5C 490.2 550.9 491.8 554.3 491.9 563.5zM 550.4 562.2C 548.9 565.1 547.1 569.3 546.4 571.5C 545.7 574 544.7 575.4 543.9 575.1C 543.1 574.9 539.6 573.9 536 572.8C 530.4 571.2 509.3 569.2 496.3 569C 491.6 569 492.2 567.2 497.7 564.8C 501.2 563.2 505.3 562.6 513.6 562.2C 526.4 561.7 528.9 562.1 527 564.8C 526.4 565.7 527.8 564.4 530.2 561.8L 534.5 557L 543.8 557L 553 557L 550.4 562.2zM 477.5 582.6L 475.7 599.9L 478.2 605L 480.7 610L 476.3 610L 471.9 610L 472.6 604.7C 472.9 601.9 474.1 593.4 475.1 586C 476.2 578.6 477.4 570.3 477.7 567.5C 478.1 564.8 478.5 563.1 478.8 563.9C 479 564.6 478.5 573 477.5 582.6zM 530.8 578.9C 533.1 580.1 536 581 537.2 581C 538.5 581 541 581.9 542.8 583C 545.2 584.5 546 585.7 546 588C 546 590.3 545.6 590.8 544.3 590.4C 542.7 589.9 542.7 590 544.4 591.4C 545.5 592.3 546.1 593.7 545.7 594.9C 545.4 596 545.7 598.8 546.2 601C 547 604.2 546.9 606.9 545.6 612.8C 544.3 618.9 544.2 621.6 545 625.8C 545.5 628.8 546.3 631.6 546.6 632.2C 547.4 633.5 547.3 633.4 539.1 629.2C 535.6 627.3 529.5 623.4 525.6 620.4C 521.3 617.1 516.4 614.3 513.3 613.4C 510.4 612.6 508 611.6 508 611.3C 508 610.9 509.7 608.4 511.8 605.6C 513.9 602.8 517 598.1 518.6 595.1C 520.9 590.8 522.9 588.7 527.8 585.6L 534.1 581.5L 531.3 580.7C 529.8 580.2 523.3 579.8 517 579.9C 507.9 579.9 505.9 579.7 507.5 578.8C 513.2 575.5 524.2 575.5 530.8 578.9zM 576.8 581.6C 577.5 583.9 578 586.8 577.9 588.1L 577.9 590.5L 576.8 588.3C 576.2 587.1 574.3 585.8 572.4 585.3L 569.1 584.5L 571.8 580.3C 573.3 578 574.8 576.4 575.1 576.8C 575.4 577.2 576.2 579.4 576.8 581.6zM 534.1 635.1C 543.1 636 552.1 638.3 550.9 639.4C 550.7 639.6 548.3 639.4 545.5 639C 542.8 638.5 538.7 638.1 536.5 638.2L 532.5 638.2L 537 639.2C 548.9 641.7 550.8 642.8 549.4 646.4C 548.9 647.6 547.8 647.5 542.2 645.9C 533.8 643.5 504.9 640.8 499.7 641.9C 497.7 642.4 496 642.5 496 642.1C 496 641.4 502.8 635.8 505 634.8C 507.3 633.8 522.7 633.9 534.1 635.1zM 532.5 658.6C 535.8 659.5 541.1 660.8 544.3 661.4C 549.8 662.6 555.2 666.1 553.7 667.6C 553.4 667.9 544.4 666.6 533.8 664.6C 523.2 662.6 513.4 661 512.1 661C 508.6 661 510.2 659.9 515.7 658.4C 522.2 656.7 525.5 656.7 532.5 658.6zM 519 664C 537.1 667.6 542.4 669 546.3 671.6C 553.2 676.1 551.7 677 533.4 678.6C 523.8 679.5 500.8 678.1 501.3 676.7C 501.9 674.8 512.4 671.8 521 671.1L 529.5 670.4L 522.6 669.2C 514.1 667.6 507 665.3 505 663.4C 503.8 662.2 503.9 662 506 662C 507.4 662 513.2 662.9 519 664zM 567.8 673.2C 569.7 675.1 569.3 678 567 678C 565.9 678 560.4 679.3 554.8 680.9C 549.1 682.5 543.4 684.1 542 684.3C 534.4 685.6 548 684.8 557.2 683.4L 568 681.7L 572.7 684.1C 586.8 691.2 585.4 715.4 570.1 731.3C 564.8 736.8 555.6 743.7 558.6 739.9C 565.1 731.9 573.4 719.8 575.5 715.6C 578 710.6 580.8 697.4 579.7 696.3C 578.8 695.5 577 697 577 698.6C 577 701.2 567 714.8 561 720.3C 555 725.9 549 729.4 546.4 728.8C 545.5 728.6 547.7 726.3 552.2 722.9C 562.2 715.2 569.3 708.7 573.2 703.7L 576.4 699.5L 571 704.5C 558.1 716.4 544.1 723.3 539.1 720.1C 538.1 719.4 539 718.7 542.5 717.1C 550 713.8 567 701.6 567 699.6C 567 699.3 565 700.2 562.7 701.6C 557.7 704.4 543.8 706.1 542.6 704.1C 542.2 703.5 542.6 703 543.6 703C 544.5 703 548.7 701 552.9 698.6C 557.1 696.2 562.2 693.6 564.3 692.9C 566.4 692.2 568.7 690.9 569.3 690.1C 570.3 688.9 570.2 688.8 568.3 689.8C 565.2 691.5 561.5 691.3 547.7 688.6C 541 687.3 533.3 685.9 530.5 685.5L 525.5 684.8L 530 683.5C 532.5 682.8 539 681 544.5 679.4C 550 677.9 556.8 675.6 559.5 674.4C 565.4 671.7 566.2 671.6 567.8 673.2zM 589.6 705.6C 591.9 707.3 593.1 709.3 594 712.9C 594.7 716.1 596 718.4 597.5 719.4C 599.6 720.8 608.2 732.8 609.5 736.2C 610.1 737.8 597.4 755.7 593 759.5C 590.3 761.8 591.2 759.8 594.3 756.2C 597.8 752.4 594.4 753.8 588.9 758.5C 586 761 583.4 762.8 583.2 762.5C 583 762.3 583.9 759.3 585.3 755.8C 586.6 752.3 588.5 746.1 589.4 742C 590.3 737.9 592 731.9 593 728.7C 594.1 725.6 595 722.5 595 721.8C 595 721.2 592.2 724.9 588.8 730.1C 581.7 740.8 578.3 742.9 579.4 736.1C 579.7 733.9 581.1 729.6 582.4 726.8C 586.6 717.4 586.3 716.3 581.5 723.5C 575.7 732.1 572.8 735.2 576.4 728.8C 577.9 726.3 579.3 723.4 579.5 722.3C 579.7 721.3 580.6 718 581.4 715C 582.2 712 583.1 707.8 583.5 705.7C 584.1 701.7 584.3 701.7 589.6 705.6zM 619.8 747.6L 624.4 751.7L 620.2 756.7C 617.9 759.5 613.5 765.7 610.5 770.6C 599.8 787.8 595.5 791.4 582.3 794.4C 571.8 796.8 571.6 796.4 580.9 791.9C 587.8 788.7 590.8 786.4 597.4 779.7C 605.1 771.9 612.6 760.4 611.8 757.9C 611.6 757.3 609.9 758.1 608 759.6L 604.6 762.5L 607.8 756.9C 609.6 753.8 611 750 611 748.4C 611 745.8 610.6 746.1 607.2 751.5C 602.2 759.7 598.9 764.2 598.3 763.7C 598.1 763.4 599.9 760.1 602.4 756.2C 607.1 749 608.8 745.3 609.6 741.1C 610.4 736.9 611.2 736.7 613.2 740.2C 614.3 742 617.2 745.3 619.8 747.6z"/>
<path style="stroke:none; fill:#000000" d="M 516 279C 518 280.3 519.3 280.3 518.5 279C 518.2 278.4 517.1 278 516.2 278C 514.7 278 514.7 278.2 516 279z"/>
<path style="stroke:none; fill:#000000" d="M 538.1 264.5C 538.1 265.8 540.9 269.5 541.4 268.9C 541.7 268.7 541 267.4 540 266C 538.9 264.6 538 263.9 538.1 264.5z"/>
<path style="stroke:none; fill:#000000" d="M 572.8 285.7C 573.4 285.9 574.6 285.9 575.3 285.7C 575.9 285.4 575.4 285.2 574 285.2C 572.6 285.2 572.1 285.4 572.8 285.7z"/>
<path style="stroke:none; fill:#000000" d="M 549 295.6C 543.2 301.1 542.3 303.5 547.8 299.1C 549.8 297.4 552.6 295.2 553.9 294.2C 555.5 292.9 555.9 292.1 555.2 291.6C 554.5 291.2 551.9 292.9 549 295.6z"/>
<path style="stroke:none; fill:#000000" d="M 594 303.9C 594 304.4 595.1 305 596.5 305.2C 598.5 305.6 598.8 305.5 597.9 304.4C 596.6 302.8 594 302.5 594 303.9z"/>
<path style="stroke:none; fill:#000000" d="M 594.5 314C 594.1 314.6 595.6 315 598.2 315C 601.3 315 602.1 314.7 601 314C 599 312.7 595.3 312.7 594.5 314z"/>
<path style="stroke:none; fill:#000000" d="M 611.3 328.7C 612.2 328.9 613.8 328.9 614.8 328.7C 615.7 328.4 614.9 328.2 613 328.2C 611.1 328.2 610.3 328.4 611.3 328.7z"/>
<path style="stroke:none; fill:#000000" d="M 639.6 389.9C 639.2 390.4 639.9 391.4 641.1 392C 643.9 393.5 644.5 392.7 642.1 390.6C 640.9 389.5 640 389.3 639.6 389.9z"/>
<path style="stroke:none; fill:#000000" d="M 632.4 423.7C 634.5 425.8 638 431.1 640.2 435.5C 643.9 442.9 644.5 442.8 641.4 435.2C 639.5 430.4 640.6 431.3 644 437.2C 645.6 440.1 647 441.9 647 441.2C 647 438.2 642.8 432.1 636.7 426.2C 629.7 419.6 626.1 417.5 632.4 423.7z"/>
<path style="stroke:none; fill:#000000" d="M 612.6 435.9C 613.1 436.4 617.4 438.2 622.2 439.9C 635.2 444.4 636.6 445.3 638.6 450.5C 640.1 454.4 642.4 457 644.4 457C 644.7 457 642.9 454 640.3 450.4C 635 442.7 629.7 438.6 622.7 436.5C 617 434.8 611.1 434.5 612.6 435.9z"/>
<path style="stroke:none; fill:#000000" d="M 615.2 489.2L 615.6 495.3L 619.8 495.7L 624 496.1L 624 489.6L 624 483L 619.4 483L 614.8 483L 615.2 489.2z"/>
<path style="stroke:none; fill:#000000" d="M 508.8 564.7C 511.7 564.9 516.2 564.9 518.8 564.7C 521.4 564.5 519 564.4 513.5 564.4C 508 564.4 505.9 564.5 508.8 564.7z"/>
<path style="stroke:none; fill:#000000" d="M 539.3 597.9C 533.9 598.8 532.6 600 537.1 600C 539.1 600 541.5 599.3 542.6 598.5C 543.6 597.7 544.3 597.1 544 597.2C 543.7 597.2 541.6 597.6 539.3 597.9z"/>
<path style="stroke:none; fill:#000000" d="M 530 604.3C 530.3 604.5 532.9 606.2 535.8 607.9C 539.6 610.1 541 610.6 541 609.5C 541 607.6 537.2 605.2 532.9 604.4C 531.1 604 529.7 604 530 604.3z"/>
<path style="stroke:none; fill:#000000" d="M 512 675C 511 675.7 513.4 675.9 519.5 675.9C 525.5 675.8 527.7 675.5 526 675C 522.4 673.9 513.8 673.9 512 675z"/>
<path style="stroke:none; fill:#000000" d="M 597.2 735.2C 597.7 736.7 603.9 737 604.3 735.5C 604.4 734.9 602.8 734.4 600.6 734.2C 597.8 733.9 596.9 734.2 597.2 735.2z"/>
<path style="stroke:none; fill:#000000" d="M 646 218.4C 646 218.6 646.8 219.4 647.8 220.1C 649.3 221.4 649.4 221.3 648.1 219.7C 646.8 218.1 646 217.6 646 218.4z"/>
<path style="stroke:none; fill:#000000" d="M 658.3 230.7C 655.4 231.8 658.7 237 662.4 237C 665.2 237 665.6 233.9 663.1 231.8C 660.7 229.9 660.3 229.8 658.3 230.7z"/>
<path style="stroke:none; fill:#000000" d="M 690 262C 690 262.5 690.5 263 691.1 263C 691.6 263 691.8 262.5 691.5 262C 691.2 261.4 690.7 261 690.4 261C 690.2 261 690 261.4 690 262z"/>
<path style="stroke:none; fill:#000000" d="M 693.3 271.4C 693.4 272.5 694.2 273.5 695 273.7C 696 274 696.1 273.9 695.4 273.3C 694.8 272.9 694 271.8 693.7 271C 693.2 269.9 693.1 270.1 693.3 271.4z"/>
<path style="stroke:none; fill:#000000" d="M 703.2 309.2C 703.8 311 706 311.3 706 309.6C 706 308.7 705.3 308 704.4 308C 703.5 308 703 308.5 703.2 309.2z"/>
<path style="stroke:none; fill:#000000" d="M 707 326.9C 707 329.2 708.4 331 710 331C 712.3 331 713.2 329.7 712.4 327.6C 711.8 325.9 707 325.3 707 326.9z"/>
<path style="stroke:none; fill:#000000" d="M 257.5 519.9C 256.7 521.4 257.8 523 259.6 523C 260.5 523 261 522.3 260.8 521.3C 260.4 519.3 258.4 518.5 257.5 519.9z"/>
<path style="stroke:none; fill:#000000" d="M 706.7 543.8C 705.7 544.8 705 546.6 705 547.7C 705 550 708 553 710.3 553C 712.4 553 716 549.5 716 547.5C 716 545.4 712.4 542 710.2 542C 709.1 542 707.6 542.8 706.7 543.8z"/>
<path style="stroke:none; fill:#000000" d="M 258.4 634.4C 257.4 637 258.8 639.2 261.2 638.8C 262.9 638.6 263.5 637.8 263.5 636C 263.5 634.2 262.9 633.4 261.2 633.2C 259.9 633 258.7 633.5 258.4 634.4z"/>
<path style="stroke:none; fill:#000000" d="M 767.5 641C 766.3 643 768.1 646.1 770.3 645.8C 773.4 645.4 773.4 640.6 770.3 640.2C 769.2 640 767.9 640.4 767.5 641z"/>
<path style="stroke:none; fill:#000000" d="M 264.4 665.1C 263.4 666.8 265.7 668.7 267.1 667.3C 268.3 666.1 267.5 664 266 664C 265.5 664 264.8 664.5 264.4 665.1z"/>
<path style="stroke:none; fill:#000000" d="M 723.7 673C 719.8 676.4 718.8 679.7 720.1 684.6C 721.4 689.1 725.3 692 730.2 692C 735.6 692 739.4 689.8 741.5 685.4C 746.7 674.5 732.9 664.9 723.7 673z"/>
<path style="stroke:none; fill:#000000" d="M 275.1 696.7C 275 700.7 269.8 705.4 266.3 704.7C 265 704.5 263.2 704.8 262.3 705.5C 260.8 706.6 260.9 706.9 263.4 708.5C 266.4 710.5 269 714.8 269 718C 269 719.8 269.4 720 273 719.4C 276.9 718.8 277 718.8 277 721.6C 277 723.6 277.3 724.1 277.9 723.2C 278.5 722.2 278.9 722.9 279.4 725.4C 280.1 728.9 282.3 732 284.2 732C 284.7 732 284.2 730.5 283.1 728.6C 279.2 722.3 281.5 711.3 287.2 708.9L 290 707.7L 287.7 705.6C 286.4 704.5 283.7 702.7 281.7 701.8C 279.4 700.7 277.5 698.8 276.6 696.8L 275.2 693.5L 275.1 696.7z"/>
<path style="stroke:none; fill:#000000" d="M 704.6 710.2C 701.1 715.2 703.8 721 709.7 721C 713.3 721 716.3 718.1 716.3 714.5C 716.3 708.5 707.9 705.5 704.6 710.2z"/>
<path style="stroke:none; fill:#000000" d="M 312 744.5C 311.3 745.9 310 747 309.2 747C 308.3 747 308 747.3 308.4 747.7C 308.8 748.2 309.6 748.5 310.2 748.5C 310.8 748.5 311.4 749.3 311.6 750.3C 311.9 752.2 317 758.8 318.4 758.9C 318.9 759 318.9 757.5 318.5 755.7C 318.1 754 317.6 751.5 317.3 750.2C 316.9 748.6 317.2 748 318.6 747.9C 320.4 747.9 320.4 747.8 318.7 747.1C 317 746.5 317 746.3 318.8 744.7C 320.2 743.4 321.6 743.1 323.5 743.6L 326.3 744.3L 323.9 745.6C 322.6 746.3 322 746.9 322.5 746.9C 323.1 746.9 324.6 746.3 326 745.6L 328.5 744.2L 325.7 742.9C 323.6 741.9 321.9 741.9 318.9 742.7C 316.8 743.2 315 743.3 315 742.9C 315 741.1 313.3 742.1 312 744.5z"/>
<path style="stroke:none; fill:#000000" d="M 274.5 745C 273.4 746.7 275 748.2 276.6 746.9C 277.3 746.3 277.7 745.4 277.4 744.9C 276.7 743.7 275.3 743.8 274.5 745z"/>
<path style="stroke:none; fill:#000000" d="M 699.4 750C 694.4 752 692.3 759.2 695.8 762.3C 698.3 764.6 703.6 764.4 706 762C 708.9 759.1 708.7 752.6 705.8 750.6C 703.3 748.8 702.4 748.7 699.4 750z"/>
<path style="stroke:none; fill:#000000" d="M 284.4 776.1C 283.4 777.8 285.7 779.7 287.1 778.3C 288.3 777.1 287.5 775 286 775C 285.5 775 284.8 775.5 284.4 776.1z"/>
<path style="stroke:none; fill:#000000" d="M 309.2 780.2C 306.4 783 308.5 788 312.5 788C 315.2 788 317 786.2 317 783.5C 317 780.8 315.2 779 312.5 779C 311.3 779 309.9 779.5 309.2 780.2z"/>
<path style="stroke:none; fill:#000000" d="M 333.2 785.6C 333.3 786.5 334.1 787.5 334.8 787.8C 335.7 788.1 336.1 787.6 335.8 786.4C 335.7 785.5 334.9 784.5 334.2 784.2C 333.3 783.9 332.9 784.4 333.2 785.6z"/>
<path style="stroke:none; fill:#000000" d="M 249.4 790.5C 247.9 792.8 247.9 793.2 249.4 795.5C 251.3 798.4 254.1 798.7 256.4 796.4C 258.5 794.3 258.4 791.7 256.2 789.7C 253.6 787.3 251.3 787.6 249.4 790.5z"/>
<path style="stroke:none; fill:#000000" d="M 327.6 793C 327.9 794.9 329 797.4 330 798.5C 331 799.6 332 801.4 332.4 802.5C 332.7 803.6 334.1 805 335.4 805.6C 337.5 806.6 337.4 806.2 334.2 802.1C 332.3 799.6 329.8 795.7 328.8 793.5L 326.9 789.5L 327.6 793z"/>
<path style="stroke:none; fill:#000000" d="M 683.6 798.6C 681.4 800.7 683.3 804.2 686.3 803.8C 690 803.3 689.6 797.1 685.8 797C 685.4 797 684.4 797.7 683.6 798.6z"/>
<path style="stroke:none; fill:#000000" d="M 385 799C 385 799.5 385.5 800 386.1 800C 386.6 800 386.8 799.5 386.5 799C 386.2 798.4 385.7 798 385.4 798C 385.2 798 385 798.4 385 799z"/>
<path style="stroke:none; fill:#000000" d="M 387 809.5C 386.1 810.6 386 811.4 386.7 812.1C 388.1 813.5 391 812.1 391 809.9C 391 807.6 388.7 807.4 387 809.5z"/>
<path style="stroke:none; fill:#000000" d="M 339 812.5C 339 814.2 342.6 816.4 344.1 815.4C 344.8 815 344.5 814.1 343.4 812.9C 341.4 810.6 339 810.4 339 812.5z"/>
<path style="stroke:none; fill:#000000" d="M 361 822.3C 361 824.2 362.6 825.4 363.4 824.1C 363.7 823.6 363.3 822.7 362.5 822C 361.3 821 361 821 361 822.3z"/>
<path style="stroke:none; fill:#000000" d="M 322.5 830C 322.2 830.5 322.6 831 323.4 831C 324.3 831 325 830.5 325 830C 325 829.4 324.6 829 324.1 829C 323.5 829 322.8 829.4 322.5 830z"/>
<path style="stroke:none; fill:#000000" d="M 343.6 832.8C 343.3 833.2 344 833.7 345.1 833.7C 347.4 833.9 347.6 833.4 345.5 832.7C 344.7 832.3 343.9 832.4 343.6 832.8z"/>
<path style="stroke:none; fill:#000000" d="M 364.5 834C 363.6 835.5 364.8 837 366.8 836.9C 368.2 836.8 368.2 836.7 366.6 836.3C 365.2 835.9 365.1 835.6 366 835C 366.8 834.5 366.9 834 366.2 833.6C 365.6 833.3 364.9 833.4 364.5 834z"/>
<path style="stroke:none; fill:#000000" d="M 315.5 839C 315.2 839.5 315.4 840 315.9 840C 316.5 840 317 839.5 317 839C 317 838.4 316.8 838 316.6 838C 316.3 838 315.8 838.4 315.5 839z"/>
<path style="stroke:none; fill:#000000" d="M 411.1 839.4C 409.2 841.7 413.3 843.6 415.4 841.4C 416.3 840.5 416.8 839.4 416.5 838.9C 415.6 837.5 412.4 837.8 411.1 839.4z"/>
<path style="stroke:none; fill:#000000" d="M 306.5 841C 304.5 843.2 305.6 843.6 309.5 841.8C 311.3 841 311.7 840.4 310.8 839.8C 308.9 838.7 308.5 838.8 306.5 841z"/>
<path style="stroke:none; fill:#000000" d="M 348 839.4C 348 839.6 348.7 840.3 349.5 841C 350.8 842.1 350.9 842 350.4 840.6C 349.9 839.2 348 838.3 348 839.4z"/>
<path style="stroke:none; fill:#000000" d="M 399.5 843C 399.2 843.5 399.6 844 400.4 844C 401.3 844 402 843.5 402 843C 402 842.4 401.6 842 401.1 842C 400.5 842 399.8 842.4 399.5 843z"/>
<path style="stroke:none; fill:#000000" d="M 331 846.4C 331 846.6 331.7 847 332.5 847.4C 333.3 847.7 334 847.5 334 847C 334 846.4 333.3 846 332.5 846C 331.7 846 331 846.2 331 846.4z"/>
<path style="stroke:none; fill:#000000" d="M 320.5 852C 320.2 852.5 320.3 853 320.9 853C 321.4 853 322.2 852.5 322.5 852C 322.8 851.4 322.7 851 322.1 851C 321.6 851 320.8 851.4 320.5 852z"/>
<path style="stroke:none; fill:#000000" d="M 354.5 855C 354 855.8 355.3 856.5 356.3 855.8C 356.4 855.7 357.6 856.2 359 856.9L 361.5 858.1L 359.1 856.1C 356.5 853.8 355.4 853.5 354.5 855z"/>
<path style="stroke:none; fill:#000000" d="M 365.8 856.2C 365 856.9 363.6 858 362.5 858.6C 359.6 860.2 359.6 861.9 362.4 863C 365.2 864 365.8 865.5 363.8 866.4C 363.1 866.7 363.4 866.8 364.6 866.5C 365.8 866.2 367.2 866.5 367.8 867.2C 368.9 868.6 369 868.8 369.1 872.7C 369.1 875.3 369.3 875.1 370.6 871.6C 372.5 866.2 374.8 864 378.1 864C 380.4 864 380.8 863.7 380.3 862.2C 379.3 859.6 377.9 858.6 373.2 856.7C 368.1 854.7 367.5 854.6 365.8 856.2z"/>
<path style="stroke:none; fill:#000000" d="M 333.7 858.6C 332.6 859.7 332.9 863 334 863C 335.5 863 336.4 860 335.3 858.9C 334.8 858.4 334.1 858.3 333.7 858.6z"/>
<path style="stroke:none; fill:#000000" d="M 353 861.8C 353 863.7 354.2 866 355.2 866C 356.6 866 355.7 861.7 354.3 861.2C 353.6 861 353 861.3 353 861.8z"/>
<path style="stroke:none; fill:#000000" d="M 300 863.6C 300 864.5 298.7 865.7 297 866.3C 293.7 867.5 292.7 870.6 295.9 869.5C 297.2 869.1 298.4 869.8 300 871.7L 302.1 874.5L 301.5 870.7C 301.1 868.4 301.3 866.3 302 865.5C 303.2 864 302.6 862 300.9 862C 300.4 862 300 862.7 300 863.6z"/>
<path style="stroke:none; fill:#000000" d="M 307.8 862.7C 306.8 862.9 306 863.6 306 864.1C 306 865.4 307.2 865.2 309.4 863.5C 311.4 862 311 861.8 307.8 862.7z"/>
<path style="stroke:none; fill:#000000" d="M 386.7 864.1C 385.8 864.6 384.5 864.8 384 864.5C 383.4 864.1 384.2 865.9 385.7 868.4C 387.7 871.6 389.8 873.6 393 875.1C 395.4 876.3 397.9 877.9 398.6 878.7C 399.6 880.1 399.7 880.1 400.3 878.6C 400.8 877.3 401.3 877.2 402.8 878.1C 404.3 879.1 405.1 878.8 407.3 876.6C 408.8 875.1 409.9 873.6 409.7 873.2C 409.6 872.8 411 871.8 412.7 871C 415.7 869.6 415.8 869.4 414.2 867.5C 411.5 864.3 407.3 862.8 405 864.2C 403.5 865.2 402.3 865.2 399.7 864.2C 395.7 862.7 389.2 862.7 386.7 864.1z"/>
<path style="stroke:none; fill:#000000" d="M 520.5 865.2C 518.9 865.8 515.6 867.1 513.2 868.3L 508.9 870.3L 511.2 872.7C 514.3 876 512.8 876.7 504 876C 497.1 875.5 493.8 876.2 498.1 877.3C 499.7 877.7 500 878.2 499.2 879.6C 498.2 881.3 496.5 881.6 481 882.3C 478 882.5 474.6 882.9 473.4 883.3C 471.1 884.1 462.3 879.2 454.8 872.9C 452.2 870.7 448.7 868.7 446.9 868.3C 443.8 867.7 443.8 867.7 444.5 871.1C 444.9 873 446.1 875.7 447.2 877.2C 449.1 880 449.9 880.2 459.1 880.4C 461.2 880.5 464.3 881.6 466.6 883.2C 468.7 884.6 473.1 886.4 476.3 887.1C 479.5 887.8 482.3 888.7 482.6 889.2C 482.9 889.6 484.4 890 485.9 890C 487.9 890 488.9 890.6 489.3 891.9C 489.6 893.2 491 894.1 493.4 894.5C 495.4 894.9 497.4 895.8 497.8 896.5C 498.2 897.2 499.6 898 501 898.3C 502.4 898.6 505.1 899.3 507 899.7C 509 900.2 510.9 901.4 511.4 902.6C 512.2 904.4 513.1 904.6 518.4 904.4C 521.8 904.2 526.7 903.6 529.3 903C 533 902.1 534.4 902.1 535.5 903C 536.6 903.9 537 903.9 537 903.1C 537 902.5 535.6 901.1 533.9 900.1C 530.9 898.3 530.9 898.1 532.8 897.1C 533.9 896.5 538.1 896 542.1 896C 550.3 896 555.9 893.5 556.1 889.7C 556.2 885 557.1 880.8 558.5 877.2C 560.1 873.6 560.1 873.5 557.4 871.3L 554.6 869.1L 557.4 868.4C 558.9 868.1 562.4 868 565.2 868.2C 569.6 868.7 570.1 868.6 568.6 867.4C 564.5 864.5 554.5 864.5 551.9 867.6C 550.6 869.2 545.3 869.5 541.8 868.1C 539.7 867.3 530.3 865.2 525.5 864.5C 524.4 864.4 522.2 864.7 520.5 865.2z"/>
<path style="stroke:none; fill:#000000" d="M 582.1 867.6C 582 869.5 581.2 869.9 576.4 870.5C 571.4 871.1 570.9 871.3 572.2 872.7C 573.1 873.5 575.6 874.4 577.8 874.7C 581.6 875.2 582 875 582.5 872.7C 582.9 871.3 583 869.1 582.7 867.9C 582.3 865.7 582.3 865.7 582.1 867.6z"/>
<path style="stroke:none; fill:#000000" d="M 333.3 867.7C 332.4 868 332.3 868.7 333 870.1C 334.2 872.3 338 872.7 338 870.5C 338 868.8 335.1 867.1 333.3 867.7z"/>
<path style="stroke:none; fill:#000000" d="M 565.5 879.9C 563.3 880.6 562.2 884 564.1 884C 564.8 884 567.4 885.3 569.9 886.9C 572.4 888.5 575.8 890 577.4 890.2C 580.1 890.5 580.3 890.2 580.4 887.2C 580.5 884.9 579.9 883.5 578.7 882.9C 577.7 882.3 577.1 881.6 577.4 881.2C 577.6 880.8 576.8 880.4 575.7 880.3C 574.5 880.2 572.2 879.9 570.5 879.7C 568.9 879.5 566.6 879.6 565.5 879.9z"/>
<path style="stroke:none; fill:#000000" d="M 659.2 882.7C 659.4 883.7 660.2 884.5 661 884.5C 661.8 884.5 662.6 883.7 662.8 882.7C 663 881.5 662.5 881 661 881C 659.5 881 659 881.5 659.2 882.7z"/>
<path style="stroke:none; fill:#000000" d="M 401 896C 401 896.5 401.7 897 402.6 897C 403.4 897 403.8 896.5 403.5 896C 403.2 895.4 402.5 895 401.9 895C 401.4 895 401 895.4 401 896z"/>
<path style="stroke:none; fill:#000000" d="M 546 903.1C 544.5 903.5 544.2 903.8 545.2 903.9C 546.1 904 547.5 904.9 548.3 906C 549.5 907.7 550.1 907.9 552.8 906.9C 557.6 905.2 556.9 903.3 551.3 902.7C 549.8 902.5 547.4 902.7 546 903.1z"/>
<path style="stroke:none; fill:#000000" d="M 576 909.1C 576 910.2 576.4 910.9 577 910.5C 577.5 910.2 577.7 909.3 577.3 908.5C 576.6 906.4 576 906.6 576 909.1z"/>
<path style="stroke:none; fill:#000000" d="M 667.9 910.6C 666.8 912 667 912.6 669.8 915.1C 671.6 916.7 673.5 917.8 674 917.5C 675.6 916.5 675.1 912.4 673.2 910.7C 670.9 908.6 669.6 908.6 667.9 910.6z"/>
<path style="stroke:none; fill:#000000" d="M 660.4 911.4C 659.6 913.5 660.3 917.5 661.5 917.5C 662.1 917.5 662.6 915.8 662.8 913.7C 663.1 910 661.5 908.5 660.4 911.4z"/>
<path style="stroke:none; fill:#000000" d="M 408.5 919C 408.1 919.7 408.2 920.6 408.8 921.2C 410.2 922.6 413.3 921.4 412.8 919.7C 412.2 918.1 409.4 917.6 408.5 919z"/>
</g>
</g>
</svg>