<?xml version="1.0" encoding="UTF-8" standalone="yes"?>
<!-- Created with sK1/UniConvertor (http://sk1project.org/) -->
<svg xmlns="http://www.w3.org/2000/svg" xmlns:xlink="http://www.w3.org/1999/xlink"
  width="1024pt" height="1024pt" viewBox="0 0 1024 1024"
  fill-rule="evenodd">
<g>
<g>
<path style="stroke:none; fill:#000000" d="M 421 164.4C 404.8 168.9 389.9 181 380.6 197.2C 377.9 201.8 377.8 201.9 375.2 200.6C 373.7 199.9 367.6 197.6 361.5 195.5C 348.3 190.9 346.4 191.1 340 198C 336.6 201.7 335.1 202.7 334 202C 330 199.4 324.7 202.3 323.4 207.7C 323 209.3 322.2 210.8 321.6 211.2C 321 211.6 320.5 213.5 320.4 215.4C 320.3 217.3 318.8 222.8 317 227.7L 313.6 236.5L 303.5 236.2C 285.9 235.5 281.9 237.8 275.9 252.1C 272.5 260 272.2 260.5 268.6 261.2C 257.7 263.5 254 271.6 247.1 308C 238.8 351.5 232.1 409.9 232 438.2C 232 447.4 231.5 458 230.8 461.8C 229.1 471.7 229.8 473.3 237.3 476.9C 241.5 478.9 247.1 483.2 254.9 490.4C 263.2 498.1 267.4 501.3 270.4 502.2C 272.6 502.8 274.6 503.4 274.8 503.5C 274.9 503.6 274.4 507.9 273.5 513.1C 272.7 518.4 272 528.8 272 537.1C 272 549.3 272.4 553.3 274.4 561.2C 280.5 585.4 295.6 602.5 316.2 608.7C 320.5 609.9 321.4 610.7 323.1 614.3C 325.5 619.7 325.5 621.5 322.9 625.1C 321.1 627.7 321 628.5 321.9 633.7C 323.3 640.8 323.3 648.1 322 651.5C 321.5 652.9 319.4 655 317.5 656.1C 314.3 658 314 658.6 314 663C 314 667.8 313.9 667.9 307.6 672.4C 295 681.4 287.8 692.6 284.5 708.4L 282.6 717.2L 277.5 720.7C 270 725.6 269.1 728.1 271.2 737C 271.4 737.9 270.6 738.6 269.2 738.8C 266.5 739.2 263.3 744 262.4 749C 261.9 751.3 260.1 754 256.9 757.1C 253.6 760.3 250.7 764.7 247.5 771.4L 242.9 781.1L 245 784.4C 247.3 788.1 257.5 799.9 278.5 823.2C 286.2 831.7 294.2 841 296.3 843.8L 300 849L 248.2 849.3L 196.5 849.5L 260 849.8L 323.5 850L 331.5 844C 336 840.6 344.4 835.8 351 832.8C 361.2 828.1 363.2 827.5 368.8 827.6C 377.3 827.7 387.5 832.9 404.9 845.9C 412.9 852 419.2 856 420.6 856C 421.8 856 428.9 855.1 436.2 854C 443.5 853 456.3 851.2 464.5 850.1C 474.3 848.8 481.6 847.2 485.6 845.6L 491.7 843.1L 514.1 847.5C 534.5 851.5 538.3 852 556.5 852.5C 576.4 853.1 598.6 854.8 621.5 857.5C 648.8 860.7 648.7 860.7 657.1 856.5C 661.1 854.4 672.8 848.9 683 844.3C 698.8 837.1 702.7 835.7 709.5 834.9C 758 829.2 765.1 828.6 788.5 828L 813.5 827.4L 791.3 827.2C 773.1 827 765.3 827.4 748.3 829.5C 736.9 830.8 724.2 832.2 720.3 832.6L 713 833.3L 713 816.8L 713 800.4L 716.2 798L 719.3 795.7L 718.7 775.6C 717.8 747.7 715.9 734.3 711 721.2C 708.8 715.4 707 709.2 707 707.4C 707 705.6 705.4 700.9 703.5 696.9C 699.4 688.3 699.2 685 702.3 680.7C 704.1 678 704.5 676.2 704.5 669.5C 704.5 662.1 704.8 660.9 708.3 654.5C 717.5 637.6 717.5 637.4 717.3 626.5C 717.1 617.2 717.3 616 720.5 608.5C 722.4 604.1 724.6 597.3 725.6 593.5C 726.7 589 728.1 585.6 729.7 584L 732.2 581.5L 731.7 589.1C 731.4 593.3 730.4 599.5 729.4 602.9C 728.1 607.7 728 609.6 728.8 611.5C 730.2 614.6 734.4 615.7 738.4 614C 740.1 613.3 744.7 612.4 748.5 611.9C 759.7 610.4 761.7 609.4 765.7 603.4L 769.3 598L 772.9 600.9C 779.6 606.1 783.7 607.3 790.3 605.8C 799.9 603.8 806.1 595.3 806.8 583C 807.6 568.8 802.8 555.1 789.4 533.4L 781 519.8L 784.1 508.1C 786.9 497.6 787.1 496.1 786.1 491.9C 785 487.8 785.1 486.8 786.8 483.6C 788.4 480.6 788.6 479.2 787.9 475.8C 787.1 472.7 787.3 471.2 788.5 469.4C 790.4 466.5 790.4 462.9 788.4 456.5C 787.5 453.5 787 448.1 787 443C 787.1 438.3 786.9 419 786.5 400C 785.9 372.9 785.5 365.2 784.4 363.9C 783.6 363 782.7 358 782.1 351.3C 781.5 345.1 780.3 337.3 779.4 333.8C 778.3 329.4 778 326 778.5 322.5C 780.1 311.4 778.2 304.5 773.2 303.4C 771.7 303.1 769.2 302.5 767.5 302.1C 765.6 301.6 763.8 300.2 762.5 298.1C 758.4 291.3 755.8 289.3 749.7 288.6C 743.5 287.8 743.7 288 741.5 277.4C 740.5 272.4 737.2 270 729.4 268.8C 725.7 268.3 720.6 266.8 718.1 265.6C 713.7 263.6 713.6 263.3 711.8 256C 704.7 227 680.9 206.9 653.5 206.6C 643.5 206.6 636.4 208.2 627.5 212.9C 617.8 217.9 608.6 226.9 602.3 237.6C 596.4 247.4 594.9 252.4 597.2 254.7C 598.4 255.9 598.5 257.1 597.8 260.7C 597.2 263.2 597 270.2 597.2 276.4C 597.6 286.5 597.9 288.3 601.4 296.5C 603.5 301.4 605.4 306.4 605.7 307.5C 606.4 310.6 596.2 320.4 590.7 321.9C 585.4 323.4 562.6 340.2 557.7 346.2C 553.9 350.9 551 356.4 549 362.3C 548.4 364.4 543.8 371.5 539 377.9C 534.2 384.4 529.6 390.8 528.9 392.1C 528 393.6 527.5 397.9 527.5 404C 527.5 412.5 527.1 414.1 524.6 419C 523 422 520.7 425.8 519.3 427.4C 517.8 429.2 517.2 430.9 517.5 432.1C 518.3 434.4 516.3 434.6 514 432.5C 513 431.6 510.3 430.6 507.9 430.2L 503.5 429.5L 503.2 423.1C 503 419.3 503.4 416.3 504.1 415.4C 505.3 414 505.5 403.3 504.4 399.7C 503.6 397 500.1 397.6 499.4 400.6C 499 402 499.1 409 499.6 416.1C 500.1 423.2 500.3 429 500.1 429C 499.8 429 497.4 426.5 494.5 423.5C 490.2 418.8 488.9 418 485.9 418C 479.8 418 478.6 416.3 479.4 408.7C 480 402.5 479.9 402.1 477.4 400.1C 475.9 398.9 473.9 398 472.9 398C 471.4 398 471 397.3 471 394.6C 471 391.4 471.1 391.3 477.7 389.5C 506.1 381.8 523 359.8 519.1 335.8C 517.6 326.2 513.4 317.6 507.7 311.8C 497.9 302.1 486.6 299.5 470.9 303.5C 468.5 304.1 468.2 303.8 467.6 300.6C 467.2 298.6 466.9 296.7 466.9 296.3C 466.9 295.9 468.8 295 471.2 294.4C 476.8 293 480.6 290.9 485.4 286.8C 488.9 283.7 489.2 283.2 488.1 281.1C 487 279.1 487.3 278.4 490.5 274.8C 492.6 272.6 495.7 267.5 497.6 263.6C 505.5 246.9 505.8 231.2 498.4 211.6C 496.9 207.8 496.8 206.6 497.8 206.3C 498.5 206 499.5 204.9 500.1 203.9C 500.9 202.3 500.5 200.9 497.9 196.9C 490 184.6 465.8 168.3 449.8 164.5C 442.3 162.7 427.2 162.7 421 164.4zM 448.5 166.5C 456.3 168.5 467.6 174 472 177.9L 475.5 180.9L 472 180.2C 467.4 179.3 440.2 179.3 436.8 180.3L 434.1 181L 436.5 186.3L 439 191.5L 431.6 192.6C 422.3 194.1 416.3 196.7 410.5 202.1C 404.9 207.3 401.6 213.5 400.1 221.5C 399.5 224.7 398.8 227.5 398.6 227.7C 398.1 228.3 388.6 218.7 384.1 213C 378.3 205.7 378.2 204.9 382.9 197C 392.1 181.5 407.2 169.5 422 166C 427.9 164.6 442.2 164.9 448.5 166.5zM 354.1 196.6C 349.8 198.4 345.4 204.9 338.4 220.2C 335 227.5 331.6 233.6 330.8 233.8C 328.6 234.2 326.6 228.7 327.4 224.5C 328.3 219.8 336.2 204.4 340.2 199.6C 344.4 194.5 348.1 193 353.2 194.3L 357.2 195.3L 354.1 196.6zM 436.7 203.2C 438.8 204.6 441.4 207.3 442.5 209.1L 444.4 212.5L 440 208.7C 422.2 193.5 397.6 212.9 408.6 233.6L 411.2 238.5L 408.5 236C 397.5 225.7 402.5 207 417.9 201.3C 423.4 199.3 432.1 200.1 436.7 203.2zM 333 203.5C 334 204.7 334 205.6 333 208C 331.9 210.6 331.2 211 327.9 211C 324.1 211 324.1 211 325.1 208.3C 327.2 202.6 330.6 200.6 333 203.5zM 378.5 208.1C 379.2 210 390.5 224.6 399 234.2C 402.3 238 402.8 239 401.3 239C 393.2 238.9 374.2 221.3 372.4 212.2C 371.9 209.9 372.3 208.9 374.1 207.6C 377.1 205.5 377.7 205.6 378.5 208.1zM 429.1 208.9C 432.2 212.1 432.7 214.8 430.9 219.9C 429.5 223.8 428.2 223.9 428.8 220C 429.8 213.3 426.3 208 420.8 208C 418.3 208 417.9 207.7 419 207C 421.9 205.1 426.1 205.9 429.1 208.9zM 658.6 209.1C 662.9 209.7 669.2 211.3 672.7 212.7L 679.1 215.2L 673.7 220.9C 670.8 224 667 228.6 665.3 231.1L 662.1 235.7L 654.8 233.1C 648.6 231 645.8 230.6 636 230.6C 625.7 230.6 623.5 231 615.2 233.8C 610.1 235.6 605.7 237 605.4 237C 605.1 237 606.3 235 608 232.5C 616.7 219.8 630.5 211.2 645.4 209C 648.2 208.6 650.6 208.2 650.7 208.1C 650.8 208.1 654.3 208.5 658.6 209.1zM 353.2 212.9C 353.6 213.3 351.7 217.5 348.8 222.4L 343.7 231.2L 341.3 228.8L 339 226.4L 340.9 220.8C 344.1 211.5 344.5 211 348.8 211.7C 350.8 212 352.8 212.6 353.2 212.9zM 498.6 219.2C 502.3 230.5 502.5 244.3 499.1 254.5C 496.6 262.3 491.5 271.2 487.6 274.9C 484.8 277.5 484.7 277.5 478.8 272.2L 476.2 269.8L 479.5 265.1C 489.3 251.3 494.2 233.4 492 219.7C 491.2 214.5 491.3 213.5 492.8 212.4C 493.7 211.7 494.8 211 495.2 211C 495.6 211 497.1 214.7 498.6 219.2zM 324.9 225.1C 319.3 239.1 318.3 240.7 316.4 238.8C 315.5 237.8 316 235 319.2 225.2L 323.3 213L 326.5 213L 329.8 213L 324.9 225.1zM 386.6 235.3C 394.1 243.1 396.2 246 394.5 246C 393.1 246 384 240.8 381.2 238.6C 375.3 233.5 376.2 236.5 383 244.3C 391.3 253.6 383.5 250.2 373.9 240.3C 366.7 232.8 364 229.2 364 226.9C 364 225.9 365.4 222.8 367.1 220L 370.2 215L 374.2 220.7C 376.5 223.9 382 230.5 386.6 235.3zM 304.8 240.4C 305.2 242.4 298.9 255.1 292.5 265C 287.8 272.4 282.7 276.8 274.9 280.5C 269 283.2 268.1 283.4 266.1 282.1C 265 281.4 266.2 278 271.9 264.9C 275.9 255.9 279.6 247.6 280.1 246.5C 283.5 239.7 287.3 237.9 297 238.2C 303.4 238.5 304.5 238.8 304.8 240.4zM 627.6 249.6C 626.1 254.2 624.6 258 624.1 258C 623.7 258 622.5 255.4 621.7 252.3C 620.1 247 620.2 246.5 621.8 244.7C 624.4 241.7 629.4 238.8 629.9 240.1C 630 240.6 629 244.9 627.6 249.6zM 373.9 250.5C 376.8 251.2 381.7 253.1 384.6 254.6C 390.1 257.4 398.5 263.9 397.6 264.7C 397.4 264.9 395 264 392.3 262.7C 380.3 256.6 373.1 254.7 362 254.6C 353.6 254.5 350.4 254.9 345.9 256.6C 335.7 260.5 325.5 268.7 315.7 281C 312.9 284.4 312.9 284.4 314.3 281.5C 318.7 272.5 330.1 260.4 339 255.2C 349.3 249.1 362.2 247.4 373.9 250.5zM 302.6 264.8C 297.3 278.5 292.7 294.1 286 319.9C 284.1 327 283.9 323.9 285.5 314.4C 287.1 305 291.4 289 295.6 276.8C 298.5 268 305.3 253.4 305.7 254.7C 305.9 255.2 304.5 259.8 302.6 264.8zM 604 269.4C 604 278 605.9 285.9 609.9 293.9L 612.9 299.7L 610 301.8L 607.1 304L 604.1 297.7C 602.5 294.3 600.6 289.5 600 287C 598.6 282 598.3 267.3 599.4 262.2C 600.2 259 600.3 258.9 602.1 260.6C 603.6 262 604 263.7 604 269.4zM 269.4 265.2C 269.1 266.5 267.8 269.5 266.6 272C 264.6 276.3 264.3 276.5 260.8 276.2C 257.5 275.9 257.1 276.1 256.1 279.2C 254.2 285.1 251.8 299 252.4 300.5C 252.7 301.3 253.9 302 255 302C 256.3 302 257 302.7 257 303.9C 257 304.9 255 316.7 252.6 330.1C 248.4 353.1 245.9 369.1 244.5 382.2C 244.1 385.4 243.4 388 242.9 388C 242.3 388 241 386 239.9 383.5C 237.7 378.6 237.7 379 241.1 354C 244.2 331.5 251.5 290.7 254.3 280.5C 257.2 270.1 262.7 263.1 268.3 263C 269.7 263 270 263.5 269.4 265.2zM 381.6 277C 389.1 280.7 394.3 287.1 397.1 296.1C 399.7 304.3 399.5 305.3 396.3 300C 392.4 293.3 387.2 287.2 382.7 283.9C 377.7 280.3 374.6 279.9 377.8 283.2C 380.2 285.9 383.9 293.7 384 296.3C 384 297.5 382.8 298.6 380.9 299.3C 378.6 300.2 378 301 378.4 302.5C 380.7 311.4 381.3 311 368.9 307.9C 362.1 306.1 358.7 305.8 351 306.3C 341.2 306.8 326.3 310.8 324.2 313.3C 323.4 314.2 323.4 319.8 324.1 332.5C 324.6 342.4 325.3 350.6 325.5 350.8C 325.7 351 328.9 350.1 332.7 348.9C 338.2 347 341.6 346.5 350 346.5C 360.2 346.5 360.7 346.6 367.5 350.3C 374.4 353.9 381.7 359.6 380.8 360.6C 380.5 360.8 378.3 359.9 375.9 358.6C 367.3 353.8 359.2 351.8 350.4 352.2C 342.5 352.5 341.9 352.7 335.4 357.2C 328.9 361.6 321.8 368 323.3 368C 323.7 368 326.4 366.8 329.3 365.4C 336.7 361.6 344.7 359 349 359C 353.6 359 359 360.8 359 362.3C 359 365.8 361.4 371.1 364.6 374.9C 366.6 377.2 368 379.3 367.7 379.6C 367.4 379.9 364.4 379.6 360.9 379C 352.9 377.5 347.7 378.3 340.2 382.1C 330.6 386.9 330.8 387.6 341.7 387.2C 354.4 386.7 357.3 387.3 358.6 390.8C 359.4 392.8 361.4 394.4 366.3 396.8C 374.3 400.6 375.1 402.5 368.3 401.3C 365.6 400.9 359.5 400.5 354.5 400.5C 346.5 400.5 344.8 400.8 339 403.6C 335.4 405.4 331.6 407.5 330.5 408.4C 328.6 409.9 328.8 409.9 332.1 408.6C 337.7 406.3 352 404.7 359.4 405.5C 364.4 406 366.8 406.8 369 408.7C 372 411.2 374.5 414.8 373.8 415.5C 373.6 415.8 370.7 415.2 367.5 414.3C 361.6 412.8 348.9 412.9 344.7 414.6C 343 415.2 343 415.4 344.6 417.7C 346.2 420.2 346.2 420.3 335.7 430.6C 329.9 436.3 324.9 441 324.6 441C 322.7 441 317.3 415.8 318.4 411.6C 319.5 407 325.1 401.9 333 398.2L 340.5 394.7L 337.3 393.7C 332.9 392.4 325.7 395.1 320.8 400L 317.1 403.6L 316.8 393.6C 316.5 386.6 315.8 382 314.5 378.8L 312.6 374L 315 368.8C 316.3 365.9 317.5 361.2 317.6 358.5L 317.9 353.5L 316.3 357.2C 310 372.2 308.9 336.7 315.1 314C 318 303.1 322.3 295.9 330.1 288.5C 345.6 273.9 366.1 269.3 381.6 277zM 740.5 280.1C 742.6 287.8 742.2 289.7 740.1 282.5C 739.1 279.2 737.9 275.6 737.5 274.5C 736.9 273 737 272.8 737.9 273.6C 738.6 274.2 739.7 277.1 740.5 280.1zM 737.4 281.7C 738.3 285.9 738.6 288.8 738 289.4C 737 290.4 736.7 289.8 735 283C 734.4 280.5 733.7 277.7 733.4 276.7C 733.1 275.6 733.4 275 734.4 275C 735.4 275 736.3 277.1 737.4 281.7zM 256.5 287.5C 255.1 292.5 254.3 294.7 254.6 292.5C 255.2 287.8 258 277.7 258.5 278.2C 258.7 278.4 257.8 282.6 256.5 287.5zM 277.4 287.6C 280.5 290.6 278.7 295 274.4 295C 270.9 295 269.6 288.9 272.8 287.1C 275.1 285.7 275.6 285.7 277.4 287.6zM 253.7 299.2C 253.4 300 253.1 299.7 253.1 298.6C 253 297.5 253.3 296.9 253.6 297.3C 253.9 297.6 254 298.5 253.7 299.2zM 672.6 306.9C 668.2 311.7 654.2 317.3 642.2 319C 631.2 320.5 613 317 613 313.4C 613 311.6 613.9 311.7 621.4 313.6C 625.9 314.8 630.3 315.1 638.5 314.7C 650.1 314.2 658 312.1 668.5 306.7C 674 303.9 675.2 304 672.6 306.9zM 351 310.9C 351 312.6 350 312.9 344.3 313.5C 340.5 313.9 334.8 314.8 331.5 315.5C 325 317 324.1 316.8 325.9 314.6C 327.5 312.7 333 310.9 340 310C 349.8 308.7 351 308.8 351 310.9zM 488.7 315.5C 494.9 317.3 501.3 323.2 504.3 329.8C 507.6 337 507.4 348.8 503.8 355.6C 500.9 361.1 490.6 371.4 487 372.3C 484.8 372.9 484.8 372.7 485.4 368.2C 485.7 365.6 486.3 360.5 486.7 356.7L 487.3 350L 481.1 350C 474.1 350 472.9 348.4 479.3 347.5C 486.6 346.4 487 345.5 482.7 341.4C 480 338.9 479.1 337.3 479.6 336.1C 481 332.8 481.2 328.9 480 327.5C 478.3 325.4 474.6 325.6 472.5 328C 469.8 330.9 468.6 330.5 467.2 326C 465.4 320 467.9 316.3 474.8 314.9C 480.7 313.8 483.3 313.9 488.7 315.5zM 350 316.5C 350 317.6 348.8 318 345 318C 337.2 318 338.8 315.4 346.8 315.1C 349 315 350 315.5 350 316.5zM 601 323.7C 598 333.1 595.6 344 594.5 353.1C 593.9 358.4 593.7 358.8 591 359.2L 588.1 359.6L 588.7 354.6C 590.1 341.7 596.5 321.6 600.8 316.7C 603.7 313.4 603.8 315.1 601 323.7zM 263.5 322.2C 264.8 324.6 264.8 326.2 263 336.6C 261.9 343.1 259.8 356.7 258.5 366.9C 257.1 377 255.7 385.6 255.5 385.9C 254.9 386.4 250.2 382.1 249 379.9C 247.9 377.9 257.7 321 259.7 317.6C 260.3 316.7 261.1 317.8 263.5 322.2zM 350 321C 350 322.4 346.8 323.1 343.4 322.4C 338.9 321.6 339.1 320.2 343.8 319.8C 348 319.4 350 319.8 350 321zM 362.7 321.1C 371.3 322.6 370.7 323.8 361.8 322.7C 353.3 321.7 348.6 320.2 353.4 320.1C 355 320 359.2 320.5 362.7 321.1zM 594.5 323.7C 592.1 329.6 587.8 347 586.5 355.9C 585.6 361.7 584.8 366.6 584.6 366.8C 583.5 367.8 583 358.2 583.6 348.4C 584.1 340.6 583.9 337 583.2 337C 581.8 337 578.5 346 576.9 354C 574.8 365.4 573 366.5 571 358C 568.6 348 566.9 356.2 569.1 367.2C 570.2 372.4 570.1 372.9 566.8 379.6C 564.9 383.4 562 390.2 560.5 394.7C 558.9 399.3 557.3 403 556.9 403C 556.5 403 556.5 399.2 556.8 394.5C 557.3 386.4 557.1 385.6 554 378.9C 551.2 372.7 550.8 371 551.3 366C 551.8 359.6 554.5 352.8 558.6 347.5C 562.1 342.9 585.4 325 590 323.3C 594.7 321.6 595.3 321.7 594.5 323.7zM 617.1 332C 615.2 339.3 617.8 342.7 629.5 348.2C 635.7 351.1 636.2 351.5 633.7 351.8C 627.6 352.6 616.7 347.1 612.8 341.3C 609.8 336.7 610.9 329.7 615.3 324.1C 617.4 321.6 618.5 326.5 617.1 332zM 349 325.4C 349 327.1 346.8 328 342.9 328C 339.9 328 338.8 325.7 341.3 324.7C 344 323.5 349 324 349 325.4zM 347.4 329.6C 348.3 329.9 349 331 349 332C 349 333.5 347.8 333.9 341.8 334.5C 335 335.2 331.7 335.9 327.8 337.5C 325 338.6 325.4 333.4 328.1 331.9C 332 329.9 344.2 328.4 347.4 329.6zM 283.4 333.8C 283.6 334.2 283.2 337.7 282.4 341.5C 281.6 345.4 280 353.6 279 359.9C 277.9 366.1 276.8 371.5 276.4 371.9C 274.9 373.2 279 336.5 280.5 333.9C 281.2 332.8 282.7 332.7 283.4 333.8zM 636.5 344.1C 637.3 345.4 633.3 345.2 630.7 343.9C 628.1 342.6 623 337.9 623 336.9C 623 336.1 635.7 342.8 636.5 344.1zM 356.9 338C 359.4 338 362.2 338.5 363 339C 364.3 339.8 364.3 340.1 363 341.5C 361.7 342.7 360 342.9 353.5 342.2C 345.6 341.5 333.4 342.1 329.2 343.5C 325.4 344.6 326.8 342.4 330.9 340.5C 335.4 338.5 345 337 349.4 337.6C 351 337.8 354.3 338 356.9 338zM 709.5 343C 705.7 350.4 701.3 364.6 700.4 372L 699.6 378.5L 698.9 374C 697.4 363.9 702.2 348.4 709.4 340.2C 712.3 336.9 712.3 337.4 709.5 343zM 440.9 351.6C 441 355.3 440.2 360.5 438.9 364.6C 436.4 372.6 436.1 373.2 435 372.5C 434.6 372.2 434.8 369.6 435.6 366.7C 436.3 363.9 437.5 356.8 438.2 351C 439.5 339.7 440.7 340 440.9 351.6zM 723.5 344.7C 721.8 354.7 717 364 713.4 364C 711.3 364 711.6 363 716.4 354.6C 718.8 350.4 721.3 345.6 722 344C 723.7 339.9 724.2 340.2 723.5 344.7zM 469.5 352.6C 469.5 353.6 468.7 354.6 467.8 354.8C 466 355.1 465.2 352.1 466.7 350.6C 467.9 349.5 469.5 350.6 469.5 352.6zM 623.2 362.9C 625.7 364.1 631.9 365.9 637 367C 646.5 369.1 649.2 370.1 652.3 372.8C 654.1 374.4 654.7 376.5 652.9 375.5C 652.3 375.1 648.7 374.4 644.9 373.9C 641.1 373.4 636.8 372.4 635.3 371.6C 633.7 370.8 629.8 369.9 626.5 369.6C 616.3 368.5 614.1 368 612.5 366.4C 610.8 364.6 610.5 357.8 612.1 354.9C 613.1 353 613.3 353.1 616 356.8C 617.5 359 620.8 361.7 623.2 362.9zM 737.6 354.5C 737.3 355.3 736.7 356.6 736.4 357.4C 736 358.4 737.3 359.8 740.2 361.7L 744.5 364.5L 736.6 365C 728.8 365.5 728.8 365.5 724 370.4C 718.5 376 716 376.1 716 370.7C 716 368.4 716.8 366.6 718.6 364.9C 720.1 363.6 722.2 360.5 723.2 358.2L 725.2 353.8L 729.5 354.4C 732.1 354.8 734.1 354.7 734.5 354C 735.5 352.4 738.3 352.8 737.6 354.5zM 449.5 359C 450.9 359.5 452 360.6 452 361.4C 452 362.6 451.3 362.7 448.3 361.8C 444.2 360.7 442 359.3 442 357.8C 442 356.8 444.8 357.2 449.5 359zM 679.7 368.8C 679.4 373.1 678.8 377.4 678.4 378.3C 677.6 380.4 675.7 380.5 674.1 378.6C 673.1 377.4 673.2 376.6 674.3 374.8C 675.1 373.5 676.6 369.9 677.6 366.7C 678.6 363.6 679.6 361 679.8 361C 680.1 361 680 364.5 679.7 368.8zM 594 382.9C 594 403.5 593.9 404 589.9 404C 589.4 404 589 395.3 589 383.5L 589 363L 591.5 363L 594 363L 594 382.9zM 625.9 370.9C 633.1 371.7 634 374 627.2 374C 624.5 374 620.8 374.3 618.9 374.7C 616.1 375.2 615.9 375.4 617.5 376.1C 618.6 376.5 620.7 376.9 622.1 376.9C 623.6 377 625.3 377.6 625.9 378.4C 626.8 379.5 625.8 379.8 620.3 380.3C 616.5 380.7 610.5 381 606.8 381L 600 381L 600 377.5C 600 375 600.8 373.1 602.5 371.4C 604.9 369 605.4 368.9 612.7 369.6C 617 369.9 622.9 370.5 625.9 370.9zM 547.9 378.9C 549.1 381.7 551 388 552.1 393C 554 401.2 554.7 402.6 559.1 407.4C 563.8 412.5 565.3 416 562.9 416C 562.3 416 559.3 413.9 556.3 411.2C 551.1 406.8 550.4 406.5 545.6 406.7C 537.9 407 534.5 406.2 531.6 403.5C 527 399.2 527.9 395.6 536.6 384.1C 540.8 378.5 544.6 374 545 374C 545.4 374 546.7 376.2 547.9 378.9zM 643.8 379.6C 640.4 383.1 638 383.5 638 380.5C 638 378.2 641 376 644.3 376L 647.5 376L 643.8 379.6zM 665.8 382.6C 668.4 384.4 668.6 387 666.5 391C 662.7 398.4 653 399.3 653 392.3C 653 388.7 655.7 384.2 658.8 382.6C 662.3 380.7 663.1 380.7 665.8 382.6zM 421.5 386C 419.9 387.6 418.4 388.8 418.1 388.5C 417.9 388.2 418.9 386.6 420.5 385C 422.1 383.4 423.6 382.2 423.9 382.5C 424.1 382.8 423.1 384.4 421.5 386zM 745.8 393.6C 748.7 395.6 748.6 397.2 745.4 400.9C 742.9 403.9 731.3 410.1 726 411.3C 723.9 411.8 724.3 411.2 728.2 407.7C 733.5 403 737 397.6 737 394.2C 737 392.4 737.5 392 740.3 392C 742.1 392 744.6 392.7 745.8 393.6zM 412.5 394C 412.2 394.5 410.5 395.9 408.7 397L 405.5 399.2L 409 396.1C 412.5 392.9 413.6 392.3 412.5 394zM 303.4 400.5C 305.5 403.5 309.2 407.5 311.6 409.5C 315 412.3 316 413.8 316 416.1C 316 419 316 419 313.1 417.5C 309.2 415.6 304.5 409.8 301.3 403L 298.7 397.5L 296.9 403.4C 295.9 406.6 294.4 413.9 293.6 419.6C 292 430.4 291.4 431.9 284.6 443.5C 280.6 450.4 280.5 450.4 280.2 447.3C 280 444.9 280.9 442.4 283.5 438.2C 286.4 433.4 287.4 430.3 289.1 420.9C 290.5 412.8 292 407.4 294.6 402.2C 296.5 398.3 298.5 395 298.9 395C 299.3 395 301.4 397.5 303.4 400.5zM 276 398.9C 278.3 403.3 273.7 407.2 269.9 404.1C 267.8 402.5 267.7 401.9 268.8 399.6C 270.2 396.4 274.4 396 276 398.9zM 239.5 401C 239.9 401.6 239.4 406.2 238.6 411.3C 237.7 416.3 236.9 425.9 236.8 432.5C 236.7 439.1 236.3 445.6 236 447C 235.4 449.4 235.3 449.3 234 445.5C 232.5 441 233.2 416.9 235.1 406.2C 236.2 400.3 237.8 398.3 239.5 401zM 676 407.7L 678.8 409.3L 676.2 414.1C 674.7 416.8 673.2 419 672.8 419C 672.3 419 672 416.1 672 412.5C 672 408.9 672.3 406 672.6 406C 672.9 406 674.5 406.7 676 407.7zM 602.5 408C 602.9 408.6 600.3 409 595.5 409C 590.7 409 588.1 408.6 588.5 408C 588.8 407.4 592 407 595.5 407C 599 407 602.2 407.4 602.5 408zM 688.8 409.4C 690 410.5 689.9 411.3 688.3 414.1C 687.3 416 686.3 418.4 686 419.5C 685.5 421.1 684.8 420.2 682.7 415.6C 679.4 408.4 679.7 406.5 684.3 407.4C 686 407.8 688.1 408.7 688.8 409.4zM 705.8 408.2C 708.5 410.9 705.6 418.1 702.7 416.3C 702 415.9 700.7 415.7 699.8 415.8C 698.4 416.1 698 415.4 698 412.8C 698 408.9 699.5 407 702.5 407C 703.7 407 705.1 407.5 705.8 408.2zM 250.4 411.6C 251.3 412.4 252 413.8 252 414.5C 252 415.9 249.4 419 248.2 419C 246.8 419 243 415.9 243 414.8C 243 413.2 246.1 410 247.6 410C 248.3 410 249.6 410.7 250.4 411.6zM 549 419.2L 552.5 420.6L 548 423.2C 540.2 427.8 539.1 427.7 532.7 422.4C 529.6 419.9 527 417.5 527 417.2C 527 416.2 545.7 417.8 549 419.2zM 650 426L 650 434L 635 434L 620 434L 620 426L 620 418L 635 418L 650 418L 650 426zM 596.8 419.7C 595.8 419.9 594.2 419.9 593.3 419.7C 592.3 419.4 593.1 419.2 595 419.2C 596.9 419.2 597.7 419.4 596.8 419.7zM 739.5 425.7C 742.7 427.9 745.2 428.5 753 429.1C 769.1 430.5 770.5 431.5 761.3 435.1C 757.1 436.7 753 437.4 746.5 437.5C 738.6 437.7 737 438.1 733.6 440.4C 727.5 444.5 726 443.5 730.5 438.2C 733.7 434.4 733.6 432.6 730 426.5C 728.4 423.7 727 421.2 727 420.8C 727 419.6 735.2 422.9 739.5 425.7zM 482.2 422.6C 484.6 423.9 485.8 424 487.7 423.1C 491.8 421.2 493.5 423.7 490.3 427.2C 489.4 428.2 487.5 429 486 429C 482.6 429 478 425.5 478 422.9C 478 420.6 478.3 420.6 482.2 422.6zM 666 427.6C 666 430.4 665.6 431.9 665 431.5C 664.5 431.2 664 428.9 664 426.4C 664 423.6 664.4 422.1 665 422.5C 665.6 422.8 666 425.1 666 427.6zM 525.8 427.8C 526.1 429.4 525.4 430.3 523.5 431C 520.2 432.3 520 432.3 520 430.7C 520 428.7 523.1 424.9 524.3 425.3C 525 425.5 525.6 426.6 525.8 427.8zM 372.5 428.1C 379 431.5 379.1 432.3 373 431.6C 370 431.3 362.8 430.7 357.1 430.3L 346.7 429.7L 351.1 427.9C 357.4 425.3 367.4 425.4 372.5 428.1zM 605.1 431.5C 605.8 434.5 606.1 437.2 605.9 437.4C 605.7 437.6 602.1 437.9 598 438.1L 590.5 438.5L 590.2 432.8C 589.9 426.4 590 426.3 598.7 426.1L 603.9 426L 605.1 431.5zM 497.7 432.7C 498.7 435.3 498.7 436 497.8 436C 495.6 435.9 490.7 431.3 491.5 430.1C 492.8 427.9 496.3 429.4 497.7 432.7zM 505 436C 505 436.5 503.9 437 502.5 437C 501.1 437 500 436.5 500 436C 500 435.4 501.1 435 502.5 435C 503.9 435 505 435.4 505 436zM 536.9 437.6C 540.2 438.5 542.9 440.2 545 442.6C 548.6 446.8 548.4 447.8 544.3 445.7C 540.6 443.7 531 442 524 442C 520.9 442 518.1 441.7 517.7 441.4C 517.4 441 517.8 439.4 518.6 437.8C 520.2 434.8 520.3 434.8 526.1 435.4C 529.3 435.8 534.2 436.8 536.9 437.6zM 371.3 437.1C 373.7 438.3 376.9 441.9 377 443.4C 377 443.8 373.3 444 368.8 443.6C 364.2 443.3 358.7 443.4 356.5 443.9C 352 445 347 449.9 347 453.1C 347 455 347.2 455 350.5 452.5C 354.6 449.3 360.4 448.3 365.3 449.9C 372.3 452.2 371.8 453.5 362.8 456.6C 353.8 459.8 347 465 347 468.8C 347 471.8 348.5 471.6 353 468C 358.8 463.4 365.7 460.8 373 460.3C 379.3 459.8 385 461 385 462.8C 385 463.3 382.4 464 379.1 464.3C 371.4 465 364.5 468.1 359 473.5C 355.4 476.9 353.5 478 349.8 478.5C 345.6 479.1 344.8 478.9 342.6 476.7C 341.2 475.2 340 473.2 340 472.2C 340 471.2 338.9 469.3 337.5 468C 334.4 465.1 334.4 464.8 337.4 461.3C 338.7 459.8 340.5 455.8 341.5 452.5C 344 443.8 347.8 440.4 358.1 437.6C 364.8 435.8 368.5 435.7 371.3 437.1zM 580.3 442.2C 580.9 446.6 579.7 458.2 578.2 463.5C 575.3 473.1 567.2 482.1 558.5 485.3C 555.9 486.2 553.6 486.9 553.4 486.8C 552.7 486 559.6 471.9 562.6 468.1C 565 464.9 566 462.6 566 460.1C 566 455.9 566.5 455.1 570.7 452.2C 573 450.6 574.6 448.1 576.1 444C 577.3 440.7 578.6 438 579 438C 579.4 438 580 439.9 580.3 442.2zM 600 445.5C 600 447.7 599.6 448 596.5 448C 593.4 448 593 447.7 593 445.5C 593 443.3 593.4 443 596.5 443C 599.6 443 600 443.3 600 445.5zM 609 445.5C 609 447.3 608.5 448 607 448C 605.5 448 605 447.3 605 445.5C 605 443.7 605.5 443 607 443C 608.5 443 609 443.7 609 445.5zM 532 451C 535.4 452.8 540.8 459.5 539.7 460.6C 539.4 460.9 538.3 460.7 537.2 460.1C 536.2 459.6 532 458.2 528 457.1C 521.5 455.3 516 452 516 449.9C 516 447.5 526.6 448.2 532 451zM 753 455.5C 757.5 457.8 756.6 459 750.6 459C 747.7 459 742.5 459.3 739.1 459.6C 734.1 460.2 733 460 733 458.8C 733 454.8 747.2 452.5 753 455.5zM 460.6 464C 461.8 464 465.7 465.3 469.2 467C 473.4 469 477.1 470 480.2 470C 484 470 485.5 470.6 489 473.5C 491.7 475.8 494.2 477 496.2 477C 498.8 477 499.1 477.3 498.4 479.2C 498 480.5 497.6 482.8 497.6 484.5C 497.5 486.1 496.1 489.7 494.6 492.3C 491.1 498.2 489.9 503.8 491.1 508.8C 491.6 510.8 491.7 514.4 491.4 516.8C 490.9 520 491.2 521.5 492.4 522.9C 494 524.6 493.9 525 492 528.2C 489.8 532 488.2 538.9 486.5 552.1C 485.6 558.6 486.1 559.7 495.3 573.5C 502.4 584 504.9 587 506.6 587C 508.8 587 511 584 511 581.1C 511 578.5 511.4 578.2 515.2 577.7C 519.8 577.1 522 575 522 571.3C 522 569.5 522.8 568.6 525 567.9C 526.6 567.3 528.2 565.9 528.5 564.9C 528.9 563.8 529.1 557.9 528.9 551.7C 528.7 538.6 530.3 523 532.4 519.2C 533.2 517.7 534.1 515.3 534.4 513.9C 535.3 509.7 544.1 501 547.4 501C 551.9 501 561.9 498.1 567.9 495C 579.6 489.1 586.5 480.4 590.1 467L 591.9 460.5L 591.9 467C 591.9 480 591.5 480.8 577.8 494.8C 553.5 519.7 546.6 532.6 546.5 553C 546.5 564.5 548.1 569.7 553.4 575.4C 555.2 577.3 555.9 578.8 555.4 579.9C 554.7 581.5 553.2 594.8 552.5 605.2C 552.3 609.1 551.5 611.8 550.1 613.6C 548.4 615.7 548 617.7 548 623C 548 627.9 547.2 632.1 544.9 638.6C 542 647.1 541.8 648.3 541.3 668C 541.1 679.3 541.2 694.4 541.7 701.7C 542.5 713.7 542.9 715.1 545.3 718.3C 547.6 721.4 548 722.9 548 728.7C 548.1 732.5 548.8 737.3 549.7 739.5C 551.2 743.3 551.4 745.3 550.9 751.7C 550.8 753.5 552 756.4 554.4 759.9C 558.2 765.5 558.8 768.8 557 774.9C 555.7 779.6 556.9 781.2 563.7 783.5L 569.5 785.5L 569.2 791.1C 568.8 796.6 569 796.8 574 802.9C 578.7 808.6 579.1 809.4 578 811.5C 577 813.3 577.1 814.5 578.1 817.4C 579.3 820.7 579.2 821.2 577.2 824C 573.8 828.6 572.8 831.9 572.5 839.6C 572.1 851.3 572.6 851 554 851C 539.3 851 536.4 850.7 514.8 846.5L 491.6 842L 483.6 845.1C 474.6 848.5 475.9 848.6 450 844.8L 435.5 842.8L 431 838.5C 428.5 836.2 424.6 832.9 422.4 831.2C 418.8 828.5 418.2 827.4 417.7 823.3C 417.2 818.7 416.5 817.8 411.4 814.2C 409.7 813.1 409.9 813 412.9 813.3L 416.4 813.7L 413.2 810.9L 410.1 808.1L 413.6 806.1C 417.2 803.9 418 801.1 415.5 799C 413.5 797.4 413.6 796.4 416 793C 417.6 790.7 417.8 789.7 417 787.5C 415.8 784.3 416.2 783.5 420 781.5C 424.5 779.2 426 775.3 426 765.8C 426 758.1 426.3 756.9 430 749.6C 433.5 742.7 434 740.8 434 735C 434 728.8 434.3 727.9 438.2 722.4C 446.3 710.8 450 699.2 450 684.7C 450 677.6 450.3 676.4 453.1 672.4C 455.6 668.8 456.1 667.2 455.6 664.7C 453.6 654.4 453.7 652.2 456.4 647.5C 459 643.2 459 642.7 457.9 637C 456.8 631.1 456.8 630.9 459.2 629C 460.6 628 462.3 625.7 463 624C 464.5 620.3 465.3 620.3 467.8 623.5C 468.9 624.9 470 626 470.3 626C 471.4 626 476.9 617.7 476.4 616.8C 476.1 616.4 475 616 473.9 616C 472.9 616 472 615.5 472 615C 472 614.4 470.9 613.5 469.6 613C 465.8 611.6 465.7 605.6 469.2 601C 474.4 594.2 474.7 584.1 469.9 576.3C 467.7 572.7 460.3 567 455.3 565C 452.6 564 452 563.2 452 560.7C 452 559.1 450.7 553.8 449 549.1C 446.9 543 445.7 537 445 528.9C 444.5 522.6 443.7 514.1 443.3 510C 442.9 505.9 442.5 502.1 442.5 501.6C 442.5 501.2 444.5 500 447 499.1C 451.2 497.6 451.5 497.2 452.2 493C 452.5 490.5 452.9 483 452.9 476.3C 453 461.7 453.3 460.4 456.3 462.5C 457.5 463.3 459.4 464 460.6 464zM 744 464.9C 744 466.5 740.9 469 738.9 469C 736.3 469 736.5 466.5 739.3 465.2C 742.1 463.8 744 463.7 744 464.9zM 379.9 472.6C 383.6 473.4 384 475 380.5 475C 377.3 475 363.1 482.4 360.3 485.5C 358.6 487.4 358.2 488.8 358.6 491.7L 359.1 495.5L 355.5 491.6L 352 487.6L 357.2 482.2C 365.5 473.8 372 471 379.9 472.6zM 767.6 473.1C 774.8 474.9 773.5 475.6 763.9 475.2C 754.5 474.7 744.5 476.2 739.7 478.7C 735.4 480.9 734.1 479.7 737.4 476.7C 738.9 475.3 742.1 473.7 744.4 473.1C 750.3 471.8 762.3 471.8 767.6 473.1zM 606.7 482.6C 607.5 484.6 605.4 486 601.3 486C 597.2 486 595 485.1 595 483.5C 595 480.8 605.7 480 606.7 482.6zM 664.5 483C 664.2 483.5 660.8 484 656.9 484C 653 484 650 483.6 650 483C 650 482.4 653.2 482 657.6 482C 662.3 482 664.9 482.4 664.5 483zM 750.9 487.6C 755.9 491.8 755 492.5 745 492.5C 740.1 492.5 736 492.3 736 492C 736 491.1 739.3 486.6 740.4 485.8C 742.8 484.2 747.9 485.1 750.9 487.6zM 663.6 489.2C 664.7 491 661.7 492 655.3 492C 649.4 492 647.5 491 650.2 489.4C 653.6 487.3 662.4 487.2 663.6 489.2zM 604.5 491C 604.9 491.6 603.8 492 602.1 492C 600.4 492 599 491.5 599 491C 599 490.4 600.1 490 601.4 490C 602.8 490 604.2 490.4 604.5 491zM 745.7 500.6C 747.5 502 748.8 503.6 748.4 504.1C 747.9 505 734.7 512 733.5 512C 732.5 512 733 509 735.1 503.5C 736.9 498.8 737.5 498 739.7 498C 741.1 498 743.8 499.2 745.7 500.6zM 368.9 502.5C 373.4 504 374.9 506.3 373.2 509C 372.1 510.8 372.2 511.5 374 513.9C 377.8 519.3 376 520 368.7 516.3C 365.1 514.5 363 516 363 520.4C 363 525.1 361.6 526.6 360.2 523.5C 357.6 517.8 359.4 508 363 508C 363.8 508 363.3 506.8 361.7 505.2C 356.6 499.8 358.9 499 368.9 502.5zM 398.6 502.6C 399.8 507.4 395.8 508.3 394 503.6C 393 501 393.6 500 396 500C 397.3 500 398.2 500.9 398.6 502.6zM 300.6 505.7C 299.4 510.2 299 525.2 300 532C 300.8 537.9 302.4 542.2 307.2 552L 313.4 564.5L 314.1 553.5C 314.8 542.2 316.1 535.6 318.7 530.7C 320.8 526.5 321.1 527.8 319.5 534C 317.9 540 317.6 546.1 318.6 553.4L 319.3 558L 323.5 555.6C 325.8 554.2 333.4 550.4 340.3 547.1C 351.3 541.9 352.7 541.5 351.4 543.6C 349.1 547.1 339.6 553.1 331.2 556.4C 321.6 560.1 316.5 564.9 315.6 571C 315.2 573.5 314.4 577.6 313.8 580.3C 312.7 584.5 312.9 585.5 314.8 589.5C 317.4 594.9 316.5 595.1 309.8 590.9C 299.4 584.2 291.4 572.5 287.3 558C 284.4 547.3 285.1 517.6 288.6 505.7C 289 504.3 290.3 504 295.1 504C 300.4 504 301.1 504.2 300.6 505.7zM 384.2 505.7C 386 507.8 387.3 512.4 386.3 513.4C 385 514.6 381 509.7 381 506.8C 381 503.6 382 503.2 384.2 505.7zM 582.1 514.8C 579.8 519.7 578 524.7 578 525.9C 578 527.1 576.2 530.2 574.1 532.8C 570.2 537.5 568 543 568 548.2C 568 551.4 561 561.4 559.6 560C 559.2 559.6 558.7 556.3 558.7 552.8C 558.6 544.5 561.9 535 567.9 525.8C 572.8 518.3 584.9 504.5 585.7 505.4C 586 505.7 584.4 509.9 582.1 514.8zM 412 517.6C 414.6 524.6 414 527.1 411.1 521C 409.3 517 408.3 512 409.4 512C 409.7 512 410.8 514.5 412 517.6zM 739.1 519.2C 744.4 521 750 524.8 750 526.7C 750 528 749.2 528.2 744.5 527.6C 741.5 527.3 739 527.3 739 527.8C 739 528.2 741.1 529.9 743.7 531.6C 749.6 535.3 747 536.2 740.2 532.8C 735.3 530.4 733.6 528 732.5 521.7C 731.9 518.5 732 518 733.7 518C 734.8 518 737.2 518.5 739.1 519.2zM 396.7 534.2C 398 535.4 399 537.3 399 538.4C 399 541.6 397 548 396.1 548C 395.6 548 394.9 545 394.5 541.3C 394.1 537.7 393.6 534.1 393.3 533.3C 392.5 531.3 394.1 531.7 396.7 534.2zM 743.4 540.8C 747.7 542.8 750 545.7 746.3 544.6C 745.3 544.3 741.9 543.4 738.8 542.5C 733 540.9 731.4 539.8 732.5 538.1C 733.1 537 736.7 537.9 743.4 540.8zM 789.9 561.5C 793.2 568.9 793.5 570.3 793.5 579.2C 793.5 589.9 792.4 592.2 786.8 593.5C 784.6 594.1 783.4 593.5 779.6 590C 775.4 586.1 775 585.3 775 581.1C 775 578.6 773.8 572.5 772.3 567.7L 769.7 558.9L 773.5 555C 777.2 551.2 777.3 551.1 776.6 545.3C 776.2 542 776.3 539.1 776.7 538.7C 777.6 537.8 785.3 551.1 789.9 561.5zM 593.3 544.3C 601.6 547.3 612 553.2 616.5 557.4C 619.1 559.9 620 561.6 620 564C 620 565.7 619.7 567 619.3 566.8C 618.8 566.6 615.8 565.1 612.4 563.3C 609 561.6 605.2 560 603.9 559.8C 600.3 559.4 578.4 561 575 562C 572.3 562.8 572.1 562.7 573 561C 575.9 555.6 581 553.5 592.5 552.8L 596.5 552.5L 593.5 550.9C 591.9 550 588.2 548.7 585.3 548C 582.4 547.4 579.6 546.2 579 545.5C 575.7 541.5 583.7 540.8 593.3 544.3zM 516.3 552.3C 518.4 558.9 518.5 562.4 516.6 563.9C 514.6 565.6 511.2 563.7 510.4 560.6C 509.8 558.2 512.8 547 514 547C 514.3 547 515.4 549.4 516.3 552.3zM 603.5 566.9C 607 568.5 614.7 575.6 613.8 576.5C 613.7 576.6 611.3 576.4 608.5 576C 602 574.9 592 574.8 592 575.8C 592 576.3 594.8 578.2 598.1 580.1C 603.9 583.3 609.7 588.7 608.6 589.7C 608.3 590 605.7 588.9 602.8 587.2C 584.6 577.1 586.3 577.7 575.9 577.1C 570.6 576.8 565.8 576.2 565.4 575.7C 563.9 574.3 572.2 567.1 576.4 566.1C 584 564.4 599.1 564.8 603.5 566.9zM 459.2 570.5C 465.3 574.3 468.7 578.9 470.1 584.8C 471.1 589.2 469.7 595.4 467 599L 465.1 601.5L 462.3 598.9C 460.8 597.5 458.7 596 457.8 595.7C 456.3 595.2 456 593.8 456 588C 456 582.7 455.4 579.4 453.5 574.9C 451.1 569.4 451 567 452.8 567C 453.2 567 456.1 568.6 459.2 570.5zM 751 570.5C 751 572.4 749 573.4 747.8 572.2C 747 571.4 747.1 570.6 748 569.6C 749.4 567.9 751 568.4 751 570.5zM 677 581.6C 677 581.8 675.6 582 673.9 582C 671.6 582 669.7 580.8 665.4 576.6C 662.4 573.6 660 570.7 660 570.1C 660 569.5 663.8 571.8 668.5 575.1C 673.2 578.5 677 581.4 677 581.6zM 759 570.3C 759 571.1 758.7 572 758.3 572.3C 757.4 573.2 754.9 571 755.6 569.9C 756.4 568.5 759 568.8 759 570.3zM 592.7 592.2C 603.2 596.1 600.1 596.8 581.8 594.8C 575.8 594.2 571 593.4 571 593C 571 591.9 573.2 590.3 575.5 589.7C 578.7 588.9 587.1 590.1 592.7 592.2zM 658.6 599.5C 659.6 601.9 656.3 606 653.4 606C 649.8 606 647 604.3 647.7 602.5C 649 598.9 657.5 596.6 658.6 599.5zM 590.9 600C 598.9 601.4 603.3 603.6 608.9 609.4C 614.5 615.1 612.6 616.6 605.4 612.1C 594.8 605.3 579.7 602.3 569.5 604.9C 566.9 605.6 564.5 605.9 564.3 605.6C 564 605.4 565.7 603.8 568.1 602.1C 571.7 599.4 573.2 599 578.4 599C 581.8 599 587.4 599.5 590.9 600zM 362.8 613.2C 365.7 616.1 362.9 618 353.5 619.5C 350.2 620 348.9 619.7 346.7 618C 345.2 616.8 344 615 344 613.9C 344 612.2 344.8 612 352.8 612C 358.3 612 362 612.4 362.8 613.2zM 587.5 615.9C 589.7 616.9 592.2 618.5 593 619.5C 594.4 621.2 594.3 621.3 589.5 620.7C 572.2 618.4 565.9 617.9 560.3 618.2C 553.4 618.5 552.2 617.7 557.3 616.1C 567.1 612.8 580.3 612.8 587.5 615.9zM 582.9 625C 585.3 626.1 587 627.3 586.7 627.6C 586.4 627.9 583 627.7 579.1 627.1C 575.3 626.5 568.8 625.9 564.8 625.9L 557.5 625.8L 562.5 624.5C 570.1 622.5 577.8 622.7 582.9 625zM 331.5 628.4L 337.5 629.7L 331.9 630.4C 324.9 631.4 322.6 631 322.2 628.7C 321.8 626.6 323.2 626.6 331.5 628.4zM 365.3 633.2C 367.1 634.6 370.2 641.4 369.4 642.2C 369.2 642.5 366.6 642.3 363.7 641.8C 358.7 640.8 340.8 641.3 332.3 642.6C 328.9 643.1 327.8 642.8 326.1 641.1C 324.9 639.9 324 637.9 324 636.5C 324 634 324.1 634 333.3 633.9C 338.3 633.8 345 633.5 348 633C 356.8 631.8 363.5 631.9 365.3 633.2zM 579.1 638.6C 581.4 640.6 581.6 643.6 579.5 644.4C 578.7 644.7 578 646 578 647.4C 578 651.1 575.5 653 570.5 653C 568.1 653 563.8 653.9 561 655C 550.3 659.2 545 659.2 545 655.1C 545 652.9 548.8 650.9 557.8 648.5C 561.2 647.5 564.3 646.3 564.6 645.9C 564.9 645.4 561.5 645 557.1 645C 547.5 645 546.3 643.4 553.8 640.2C 566.6 634.8 574.4 634.3 579.1 638.6zM 632.5 666C 633.1 666.9 633.5 677.1 633.5 690L 633.5 712.5L 637.3 719.5C 640.2 724.7 641.4 728.3 642 733.7C 642.6 738.4 644 743 646.1 747.2C 648.3 751.6 649.5 755.8 650.1 761.2C 650.6 765.5 651.9 771.2 653 773.9C 654 776.7 655.3 782.2 655.8 786.2C 656.5 791.9 657.8 795.5 661.3 802C 663.7 806.7 666.7 814.2 667.9 818.6L 670 826.7L 667.5 838.5C 666.1 845 664.7 850.6 664.5 851C 664.3 851.4 660.7 853.3 656.6 855.4L 649.2 859.1L 637.8 858.1C 631.6 857.5 625.9 857 625.3 857C 624.3 857 624 850.5 624 828L 624 799L 628.4 795C 634 789.9 634.5 787.5 632 780.3C 630.9 777.1 630 772.4 630 769.8C 630 766.9 629 762.5 627.4 758.7C 625.1 753 624.9 751.8 625.7 744C 626.8 731.7 626.4 728.9 620.9 714.5C 615.2 699.5 614.7 696.2 618 691.8C 620 689 620.1 688.4 619 684.9C 618.2 682.6 618 679.5 618.4 676.8C 619.1 672.7 620.8 657.2 620.9 653.9C 621 653 622.8 649.6 625 646.4C 627.1 643.2 629.3 639.2 629.7 637.5C 630.2 635.5 630.7 639.5 631 649.5C 631.3 657.7 632 665.2 632.5 666zM 673.8 638.3C 681.9 638.3 683 638.4 683 640C 683 644.1 677.6 645.5 665.6 644.5C 661 644.1 656.3 643.2 655.3 642.5C 653.6 641.2 653.6 641.1 655.4 639.1C 657 637.3 658 637.1 660.9 637.7C 662.9 638.1 668.7 638.4 673.8 638.3zM 329 650C 332.3 652.6 333.4 652.9 339.1 652.8C 346.8 652.7 352.1 654.8 360 661.1C 363 663.5 368.2 666.9 371.5 668.7C 377.5 671.9 377.5 672 374 672C 369.6 672 360.8 668.4 355.1 664.2C 350.3 660.7 348.3 660.3 345.6 662.3C 343.9 663.5 344 663.8 347 667C 348.7 668.8 350.5 671.1 351.1 672.2C 351.9 673.8 351.7 674 348.8 674C 347 674 343.9 673.6 342.1 673C 340.2 672.5 338.5 672.2 338.2 672.4C 338 672.6 338.8 674.7 340 676.9C 343.2 683.3 344.1 686 342.9 686C 342.3 686 337.2 681.4 331.4 675.8C 325.7 670.3 320.7 665.9 320.4 666.2C 319.3 667.3 325 679.1 331.1 688.6L 337.4 698.3L 333.7 701.5C 329.2 705.4 322.5 707.5 317.9 706.5C 312.7 705.4 309.1 703.2 303.2 697.6C 298.6 693.4 297.9 692.9 298.5 695C 302.3 707.8 313.2 717 324.7 717C 328.7 717 330.9 718.5 329.2 720.2C 328.3 721.1 325.5 721.4 321 721.3L 314.1 721.2L 316.5 725L 319 728.9L 316.1 730.9C 312.6 733.4 310.7 733.5 300 731.4C 295.5 730.6 291.5 730.1 291.2 730.5C 290 731.7 300.8 741.3 307.5 745.1C 313.7 748.5 314.2 749 311.5 749C 303 749 279.6 739.6 275 734.4C 273.4 732.5 272 730.3 272 729.6C 272 727.8 278.2 722.3 282.5 720.3C 285.6 718.8 286.1 718.9 296 722.9C 306.9 727.3 310 727.9 310 725.5C 310 721.1 300 714.1 291.5 712.5C 289.3 712.1 287.2 711.4 286.9 710.9C 285.8 709 287.9 700.1 290.9 693.7C 293.8 687.5 302 678.7 311.3 671.7C 314.7 669.2 315 668.5 315 664C 315 659.4 315.2 659 318.4 657.5C 321.8 655.9 324 652.5 324 649C 324 646.4 324.5 646.5 329 650zM 360 649.8L 364.5 652L 353 651.5C 343.2 651 340 650.7 337 650C 336.7 650 337.6 649.3 339 648.4C 342.6 646.3 354.2 647.1 360 649.8zM 677.4 647.9L 680.4 648.5L 677.1 651.2C 674.2 653.7 673.1 654 666 654C 658.2 654 653 652.9 653 651.2C 653 648.6 670 646.3 677.4 647.9zM 673.4 661.5C 672.4 664 660.2 665 660.7 662.5C 660.9 661.2 664.5 660.2 669.7 660.1C 673 660 673.8 660.3 673.4 661.5zM 668.2 668.6C 669.6 669.5 669.1 670.5 666.1 672.3C 662.4 674.5 659.8 674.5 657 672.2L 654.7 670.3L 657.1 668.6C 659.4 667 665.5 667 668.2 668.6zM 568.1 693C 569.1 693.6 570 694.7 570 695.5C 570 696.7 568.2 697 560.8 697C 551 697 550.4 696.3 558 693.6C 563.4 691.8 565.5 691.7 568.1 693zM 387.4 707.2C 388.4 716.3 388.3 717 385.5 717C 383.7 717 382.4 716.1 381.2 714C 379.4 710.8 378 710.1 378 712.4C 378 713.1 376.9 715.4 375.5 717.5C 374 719.5 373 721.4 373.2 721.5C 373.4 721.6 376.2 723.3 379.5 725.1C 386.1 728.8 399.8 741.3 403.1 746.7C 406.5 752.1 404.8 752.7 393.9 750.1L 384.8 747.8L 382.9 749.9C 381.1 751.9 374.6 754.2 367.4 755.6C 362.1 756.6 362.3 758 367.7 758C 378.6 758 391.6 762.9 397.9 769.4L 400.9 772.5L 395.4 772.2C 387.7 771.7 386.4 773.2 391 777.2C 393.4 779.3 393.9 780 392.5 779.7C 378.5 775.8 363.3 776.5 360.5 781C 359.1 783.2 362.3 787.9 368.1 792.1C 371.3 794.5 373.8 796.6 373.6 796.7C 373 797.3 355.2 793.2 352.8 791.9C 349.4 790.2 347 787.9 347 786.3C 347 785.6 348.1 783.3 349.5 781.2C 351.7 777.8 352 776.4 351.8 769.4C 351.6 761.6 351.7 761.2 360.3 739.5C 365.1 727.4 369.5 716.5 370 715.4C 370.7 713.5 384.5 702.1 386.1 702C 386.4 702 387 704.4 387.4 707.2zM 574.5 725.4C 576.2 726.6 576 726.8 572 728.2C 565 730.5 566.2 731.6 575.7 731.5C 585.3 731.5 591.3 733.2 590.8 735.9C 590.3 738.6 584.6 739.5 576 738.1C 568.5 736.8 567.8 736.9 561.6 739.1C 558 740.4 554.8 741.1 554.4 740.8C 553.1 739.4 562.9 726.4 566.4 725C 569.5 723.7 572.4 723.8 574.5 725.4zM 275 744.5C 276.9 747.2 278.6 748.7 279.4 748.4C 280.9 747.8 305.8 757.4 307.5 759.2C 309.3 761 292.1 758.2 284.3 755.3C 282.6 754.7 282.6 754.8 284.1 756.6C 286.6 759.5 288.2 762.9 287.5 764C 285.7 766.9 271.4 755.8 267.4 748.5C 265.7 745.4 265.7 745 267.3 742.6C 269.7 738.9 271.5 739.3 275 744.5zM 353.1 751.4C 350.5 757.6 350 760.2 350 766.7C 350 772.6 349.5 775.6 348 778.5C 346.1 782.1 346 783.7 346.6 795C 346.9 801.9 347.9 810.9 348.6 815C 350.6 825.8 350.5 826.2 345.9 828.8C 343.6 830.1 341.4 830.8 341 830.3C 340.6 829.9 339.5 826.6 338.6 823.1C 336.8 816.1 334.4 812.1 330 809C 328 807.6 327 806 327 804.3C 327 802.7 325.8 800.6 323.6 798.6C 320.8 796 317 790.3 317 788.6C 317 788.4 318.4 787.9 320 787.5C 324.5 786.5 326 784.4 326 779.5C 326 775.2 326.1 775 330 773.9C 335.1 772.3 336 771.3 342.8 758.4C 346.9 750.8 349.6 746.8 352 745.3C 353.8 744 355.5 743.2 355.8 743.4C 356 743.7 354.8 747.3 353.1 751.4zM 265.9 755.4C 268.4 759.3 268.6 760.7 266.5 759C 265.7 758.3 265 758.1 265 758.4C 265 759.5 268.1 765.3 271.1 769.7C 272.7 772 274 774.3 274 774.8C 274 776.4 268.2 778 262.8 778C 258.5 778 257.4 777.6 254.4 774.6C 249.4 769.6 249.8 767.2 257.3 759.1C 260.7 755.3 263.6 752.2 263.7 752.1C 263.8 752 264.8 753.5 265.9 755.4zM 359.7 803.7C 370.2 813.8 375.2 824 369.7 824C 366.9 824 360.2 819.7 354.2 814.2C 350 810.3 350 810.3 350 803.1C 350 794.6 350.2 794.6 359.7 803.7zM 291.5 802C 291.5 804.3 291.1 804.5 286 804.8L 280.5 805.1L 283.5 802C 287.2 798.1 291.5 798.1 291.5 802zM 305.5 817.3C 309.5 820.8 309.9 824 306.3 824C 302.4 824 297 821.8 295.5 819.7C 294.1 817.7 294.1 817.4 296.1 815.7C 299.2 813.2 301.2 813.6 305.5 817.3zM 592 829.4C 592 830.7 584.4 834 581.3 834C 578.7 834 580.1 830.9 583.3 829.5C 587.5 827.6 592 827.6 592 829.4zM 603 839.1C 605.8 840.3 608 841.7 608 842.1C 608 844.5 602.4 845.2 593.8 844C 584.7 842.8 580.1 843.2 576.3 845.6C 573.8 847.2 573.5 846.8 575 844C 576.2 841.7 582.2 838 586.4 836.9C 590.8 835.8 597.2 836.6 603 839.1z"/>
<path style="stroke:none; fill:#000000" d="M 287.5 244.6C 284.2 248.1 283.4 252.5 285.4 255.5C 289.6 261.9 298 254.8 297.1 245.5C 296.7 241.3 291.1 240.7 287.5 244.6z"/>
</g>
</g>
</svg>