<?xml version="1.0" encoding="UTF-8" standalone="yes"?>
<!-- Created with sK1/UniConvertor (http://sk1project.org/) -->
<svg xmlns="http://www.w3.org/2000/svg" xmlns:xlink="http://www.w3.org/1999/xlink"
  width="1024pt" height="1024pt" viewBox="0 0 1024 1024"
  fill-rule="evenodd">
<g>
<g>
<path style="stroke:none; fill:#000000" d="M 490 112C 435.9 116.7 388.4 129.4 342.3 151.5C 315.8 164.2 289.8 180.6 266 199.6C 250.6 211.9 218.2 243.8 206.6 258.2C 193.5 274.3 180.5 292.7 171.1 308.5C 141 358.8 124.3 407.5 116.3 467.5C 114.1 484 113.8 536.8 115.8 553.4C 119.5 584.4 125.7 612.9 134.5 639.8C 139.9 656.2 140.2 656.5 152.5 660.1C 156.4 661.2 162.7 663.3 166.6 664.6C 170.4 666 176.3 667.3 179.6 667.4C 183.5 667.6 187.2 668.6 190.5 670.2C 198.9 674.5 200.8 674.5 215.2 670.9L 228.2 667.6L 234.4 669.2C 237.9 670.1 242.2 671.5 244.1 672.3L 247.5 673.7L 243.5 675C 241.2 675.7 230.4 676.6 218 677C 206.2 677.5 194.5 678.3 192.1 678.9C 187.7 680.1 185.2 679.4 176 674.5C 171.6 672.1 166.8 671.8 162.7 673.5C 158.7 675.1 158.5 675 157.8 670.5C 157.6 669.2 155.1 667.3 150.5 664.8C 146.7 662.8 143.3 661.3 143.1 661.6C 142.2 662.5 147.4 667 151.5 668.9C 155 670.5 155.9 671.5 156.4 674.4C 156.8 676.4 157.3 678 157.6 678C 157.9 678 159.8 677.1 162 676C 164.2 674.9 166.7 674 167.7 674C 168.8 674 171.3 674.9 173.5 676C 175.7 677.1 178.4 678 179.7 678C 182.7 678 183.6 679.8 180.8 680.4C 179.5 680.6 175.4 681.6 171.5 682.5C 167.7 683.5 162.4 684.7 159.8 685.3C 157.1 685.9 155 686.9 155 687.4C 155.1 688 158.1 694.3 161.8 701.5L 168.5 714.5L 175.5 714.9C 191.9 715.9 195.2 715.5 201 712.5C 205.5 710.1 208.4 709.4 217 708.7C 230.3 707.5 238.1 707.5 245 708.4C 249.5 709 252.4 708.7 260.5 706.5C 266.8 704.8 274.2 703.6 280.6 703.3C 292.3 702.7 294.4 703.2 313.7 711.6C 321.5 715 329.6 717.7 335.9 719C 341.4 720.1 347.8 721.9 350.3 722.9C 352.7 723.9 358 725.5 362.1 726.3C 372 728.4 374.6 729.5 380.5 734C 383.2 736.1 386.9 738.2 388.5 738.6C 390.2 739 393.7 741.3 396.4 743.7C 399.7 746.6 402.5 748.2 405.2 748.6C 408.3 749.1 410 750.3 413.2 754.1C 415.6 757 418.4 759.1 420.1 759.5C 421.7 759.9 423.9 761.4 425 763C 427.8 766.9 433.1 768.6 438.1 767.1C 442 765.9 446.9 761 447.1 758.2C 447.1 757.1 447.3 757 447.7 757.7C 448.6 760 451.7 759.1 454.4 755.9C 456.5 753.4 457 751.8 457 747.2C 457 737.6 452.9 725.9 448.1 721.6C 446 719.7 445.9 719.7 440.4 722.4C 434.5 725.3 423.8 728 417.9 728C 414 728 407.4 723.8 404.6 719.5C 402.3 716 402.6 715.3 406.6 714.7C 410.5 714 415.9 715.8 419.4 718.8C 420.8 720 420.6 719.3 418.7 716.8C 416.1 713.2 416 713.1 418.1 712.5C 420.6 711.7 423.3 713.9 426.7 719.7C 428.1 722.1 429.4 724 429.6 724C 430.1 724 428.4 719.8 426 715.1C 423.6 710.2 423.5 710 425.8 710C 426.8 710 429.7 708.7 432.3 707C 434.9 705.4 437.2 704 437.4 704C 437.6 704 439.6 706.9 441.9 710.3C 444.2 713.8 447.1 717.7 448.5 719L 451 721.3L 456.4 718.6C 461.4 716.1 462.2 715.9 465.6 717C 467.6 717.7 473.1 721.2 477.9 724.8C 482.6 728.5 491.9 735.5 498.5 740.4C 505.1 745.4 512.5 751.5 515 754C 521.5 760.5 535.4 778.2 541.5 787.5C 549.3 799.4 552 801.5 566.6 807C 575.7 810.4 583.7 815.3 591.9 822.3C 594.9 824.9 597.9 827 598.4 827.1C 599 827.2 604.5 827.1 610.5 827.1C 617.1 826.9 624.7 827.5 629.5 828.5C 635.8 829.7 641.3 829.9 655 829.4C 675.4 828.8 681.1 827.8 686.3 824.4C 690.5 821.6 693.9 815.4 694 810.4L 694 807.3L 698.8 808.1C 704.5 809.1 709 810.4 711.9 812C 713.9 813 714.1 813 713.1 811.3C 712.2 809.6 712.4 809.4 715.2 809.8C 717.2 810.1 718.1 809.9 717.6 809.2C 717.3 808.7 712.6 807.9 707.2 807.5C 701.9 807.1 696.9 806.4 696.1 806C 695.3 805.6 694 803.3 693.1 800.9C 691 795.2 687.7 793.4 674.9 791.1C 662.9 789 659.3 787.6 652.4 782.8C 649.7 780.9 646.6 779 645.6 778.6C 644.6 778.3 644 777.7 644.3 777.4C 644.6 777.1 649.9 778.1 656.2 779.7C 664.9 781.8 669.2 782.3 675 782.1C 690 781.3 694.5 781.6 702 783.9C 708.8 786 710.4 786.2 719.5 785.4C 743.4 783.3 764.2 784.4 788.4 789.2L 799.4 791.3L 807.5 782.8C 823.3 766.3 842.3 741 856.3 717.7C 863.7 705.5 880 673.9 880 671.8C 880 670.8 878.2 670.6 871.8 671.2C 849.3 673 848 673.2 847 675.1C 844.4 679.8 839.7 681.2 833 679.3C 830.7 678.6 830.9 678.5 834.5 678C 838.4 677.4 838.4 677.4 836 676.3C 834.6 675.7 830.1 674.6 826 673.9C 819.8 672.8 819 672.5 821.5 672C 824.3 671.4 824.3 671.4 820.1 670.8C 816.7 670.3 813.3 670.9 805 673.5C 790.3 678.1 788.2 678.4 783.7 676.5C 778.5 674.3 770.2 674.3 766.5 676.4C 764.9 677.3 761.3 679.9 758.5 682.1C 752.2 687.1 745.8 689 735.6 688.9C 727.1 688.9 721.5 688.1 713.8 685.9C 709.7 684.8 708.7 684.8 705 686.5C 701.2 688.2 700.6 688.2 694.2 686.7C 690.5 685.9 684.8 684.2 681.5 683C 673.6 680 669.2 681.1 661.7 688C 655.5 693.7 655.3 693.7 642.5 691.1L 633.5 689.3L 638.4 687.1C 641 685.9 645.3 684.5 647.9 683.9C 650.4 683.3 656.1 681.6 660.5 680.2C 667.4 678 670.2 677.7 681 677.8C 687.9 677.8 697 678.4 701.2 679.1L 708.9 680.3L 714.2 676.7C 718.5 673.8 721.3 672.8 728.6 671.5C 742.4 669.2 746.7 667.6 756.7 661C 766.7 654.5 768.4 654.1 778.2 656.1C 786.7 657.8 786.6 657.7 783.5 661C 780.9 663.7 780.8 664 782.6 664.1C 786.2 664.3 789.5 663.8 791.5 662.7C 793.4 661.7 793.4 661.7 791.2 660.7C 790 660.1 789.1 659.2 789.3 658.6C 789.8 657.1 795.6 654.2 801 652.9C 804.8 652 805.2 651.7 803.5 650.8C 802.4 650.2 800.6 648.7 799.4 647.3C 797.4 644.9 797.3 644.9 795 646.8L 792.7 648.7L 794.9 650.7L 797.1 652.7L 792.6 653.9C 787.7 655.1 780.3 655.2 772.6 654.2L 767.6 653.5L 777.7 648.2C 783.3 645.3 790.3 642.5 793.3 641.9C 798.4 640.9 799.3 641 802.7 642.9C 812 648.1 817.5 650.2 824.3 651.1C 839.3 653 844.7 654.2 850.2 656.7L 855.9 659.3L 864.2 657.1C 868.8 655.8 875.9 654.5 880 654.2L 887.4 653.5L 890.3 646C 894.8 634.3 901.6 609.7 905 593C 910.3 566.7 912.1 549.9 912.7 521.5C 913.3 493.5 912.3 475.6 909 452.5C 891.6 333.6 814.8 222.9 707.5 161.8C 662.3 136.1 606 118.3 553 113C 538.2 111.5 502.4 111 490 112zM 611.8 154.5C 627.4 157.7 639.9 164.9 651.3 176.9C 674.2 201.2 679 235 663.7 264.4C 658.8 273.9 645.1 288.4 635.8 293.9C 613 307.2 589.1 308.4 566 297.3C 558.1 293.5 555.3 291.4 548 284.1C 543.3 279.4 538.6 273.9 537.6 272C 535.5 268 535.8 268.3 542.5 276.4C 551.6 287.4 565.9 296 581.3 300L 589.1 302L 599.1 299.8C 604.6 298.7 608.8 297.5 608.6 297.3C 608.4 297 604.7 297.5 600.5 298.4C 591.1 300.3 591.5 300.3 593.4 298.5C 594.2 297.7 595.6 297.3 596.4 297.6C 597.3 297.9 598.6 297.7 599.4 297.1C 600.2 296.4 601.2 296 601.6 296.1C 603.3 296.5 608.5 294.7 611.4 292.7C 614.2 290.8 614.2 290.6 612.4 289.2C 610.6 287.9 610.7 287.8 613 288.5C 615.2 289.2 615.3 289.1 614.1 287.6C 613.4 286.7 613.1 286 613.6 286C 614.1 286 613.8 285.6 613 285C 612.2 284.5 611.9 283.8 612.3 283.4C 612.6 283 613.6 283.3 614.5 284C 615.5 284.8 616 284.9 616 284.1C 616 283.5 617 283 618.1 283C 619.7 283 620.1 283.5 619.7 285C 619.1 287.2 620.5 287.7 621.7 285.7C 622.1 285 624.2 283.1 626.2 281.5C 628.7 279.5 629.8 278 629.5 276.9C 629.2 275.9 630.1 273.9 631.5 272.1C 633 270.5 634.2 268.2 634.3 267C 634.4 265 636 264.1 636 266.1C 636 266.6 636.5 266.8 637 266.5C 637.6 266.2 638 264.8 638 263.4C 638 262.1 637.6 261 637 261C 636.5 261 636 260.2 636 259.2C 636 255.7 634.5 254.8 630.6 255.8C 627.2 256.8 627 256.7 627 254.5C 627 253 626.3 252 624.8 251.7C 623.6 251.3 622.9 250.8 623.2 250.5C 623.5 250.1 624.8 250.3 625.9 251C 628.2 252.2 630.4 251.5 629.5 249.9C 629.1 249.4 629.6 249 630.4 249C 631.3 249 632 248.3 632 247.5C 632 246.7 631.3 246 630.5 246C 629.6 246 629 245.1 629 243.5C 629 242.1 628.6 241 628 241C 626.4 241 626.9 238.4 628.9 236.6C 629.9 235.7 631.4 235.2 632.3 235.6C 633.3 236 634.2 235.6 634.5 234.8C 634.8 234 635.7 233.3 636.4 233.3C 638.3 233.3 644 228.8 643.3 227.7C 643 227.2 642.4 227.4 641.9 228.1C 641.1 229.2 640.7 229.1 639.5 227.6C 638.7 226.5 638 224.9 638 223.9C 638 223 637.2 221.6 636.3 220.9C 634.7 219.7 634.6 219.7 635.6 221C 636.1 221.8 636.6 223.2 636.5 224C 636 228.2 636.1 228.1 634 226.8C 631.7 225.4 631.4 223 633.2 221.2C 634.1 220.3 634.1 220 633.1 220C 632.4 220 632.1 219.6 632.5 219.1C 632.8 218.6 632.6 217.9 632 217.5C 631.5 217.2 631 216.2 631 215.3C 631 213.9 631.2 213.9 632.9 215.4C 634.7 217.1 634.9 217 635.6 214.8C 636.3 212.6 636.3 212.6 637.1 214.5C 637.8 216.4 637.9 216.4 637.9 214.3C 638 213.1 637.2 211.7 636.3 211.1C 634.8 210.3 634.7 209.8 635.7 208.2C 636.7 206.5 636.5 205.9 634.5 204C 632.8 202.4 632.1 202.2 631.8 203.2C 631.4 204.3 631 204.2 629.6 203.1C 628.7 202.3 628.1 201.1 628.4 200.4C 628.9 199.2 627.4 197.6 625.8 197.5C 625.5 197.5 624.8 197.1 624.3 196.6C 623.8 196 624.1 196 625 196.5C 626.3 197.3 626.3 197.2 625.1 195.6C 624.3 194.7 623 194.2 622.1 194.5C 621.3 194.8 620.9 194.8 621.3 194.4C 621.7 194 621.6 193.2 621.1 192.6C 620.7 192 620 190.4 619.7 189.1C 619.3 187.4 619.6 186.7 621 186.3C 622.2 186 622.7 185.3 622.2 184.2C 621.7 182.7 621.8 182.6 623.5 184C 625.3 185.4 625.3 185.4 623.5 182.8C 622.4 181.3 620.9 180 620.3 180C 618.8 180 618.5 178 620 178C 620.6 178 621 177.3 621 176.5C 621 175.7 621.5 175 622.1 175C 622.7 175 623 175.9 622.7 177C 622.4 178.1 622.6 179.3 623.1 179.6C 623.6 179.9 623.9 179.6 623.8 178.8C 623.6 178.1 624.1 177.6 624.8 177.7C 625.4 177.9 626 177.6 626 177.1C 626 175.4 623.5 173.6 617.2 170.5C 611.9 168 611 167.1 611.1 165C 611.3 162.7 611.3 162.6 611.7 164.7C 612.1 167 613.1 167.6 614.3 166.3C 614.7 166 614.5 165.1 614 164.4C 613.2 163.5 613.4 163.2 614.6 163.4C 615.5 163.4 616.5 163 616.7 162.3C 617.3 160.6 612 159.4 611 161C 610.4 161.9 610 161.8 609.2 160.4C 608.2 158.7 606.8 158.5 595.3 158.6C 588.3 158.6 580.7 159 578.5 159.5C 573.8 160.4 574.3 159.4 579.7 157.4C 583 156.1 583.1 156 580.5 156.4C 571.7 157.8 558.6 164.8 549.3 173.2C 546.6 175.5 545.6 176.2 547 174.6C 551.3 169.7 560.7 163.1 568.2 159.5C 581.3 153.4 597.6 151.5 611.8 154.5zM 617.7 193.6C 619.3 196.1 619.3 196.3 617.6 197.6C 615.9 198.8 616.1 199.1 620.4 201.2C 624.1 202.9 625 203.9 625 205.9C 625 209 625.9 210.4 628.3 211.3C 629.5 211.8 630 211.4 630 210C 630 208.7 630.6 208.2 632 208.3C 633.1 208.4 634 209 634 209.6C 634 210.3 634.3 211.7 634.7 212.7C 635.4 214.4 635.3 214.4 633.5 212.7C 632.1 211.2 631.5 211.1 630.9 212.2C 630.4 212.9 630 214.3 630 215.2C 630 216.2 629.6 217 629 217C 628.5 217 628 216.2 628 215.3C 628 214 627.7 213.9 626.8 214.8C 625 216.6 624.4 216.3 622 212.5C 619.9 209 619.9 208.8 621.5 207C 623.5 204.8 623.1 204.6 617 204.9C 615.1 205 612.8 204.6 612 204C 610.7 203.1 610.7 202.8 612.3 201.6C 613.7 200.5 613.8 200.1 612.8 199.7C 612 199.4 612.2 199.1 613.3 199.1C 614.3 199 614.9 198.6 614.6 198.1C 614.2 197.6 614.5 197 615.1 196.8C 615.7 196.6 615.3 195.3 614 193.7C 611.9 191 611.9 191 613.9 191C 615 191 616.7 192.2 617.7 193.6zM 462 197C 462 197.5 461.3 198 460.5 198C 459.7 198 459 197.5 459 197C 459 196.4 459.7 196 460.5 196C 461.3 196 462 196.4 462 197zM 326.5 207.5C 326.5 208.8 325.7 209.6 324.3 209.8C 322.6 210.1 322 209.6 322 208.2C 322 207.2 322.3 206 322.7 205.6C 324 204.3 326.5 205.5 326.5 207.5zM 622.4 215.6C 622.7 216.4 622.6 216.8 622 216.5C 621.4 216.2 621 215.5 621 214.9C 621 213.5 621.7 213.8 622.4 215.6zM 619.1 217.4C 618.4 218.3 618.8 218.6 620.7 218.5C 622.1 218.5 623.5 219.2 623.8 220C 624.3 221.3 624.1 221.3 622.6 220.1C 621.1 218.9 620.9 218.9 621.2 220.1C 621.6 222 619 221.9 617.7 219.9C 616.5 218 617.5 214.6 619 215.5C 619.7 216 619.8 216.6 619.1 217.4zM 620.8 223.6C 619.2 224.4 618 225.5 618 226C 618 226.5 617.3 226.7 616.5 226.4C 615.7 226 615 225.3 615 224.8C 615 224.2 615.6 224 616.3 224.3C 617 224.6 618.4 224.2 619.5 223.4C 620.5 222.6 621.9 222 622.4 222C 623 222.1 622.3 222.8 620.8 223.6zM 628.6 225.3C 628.9 225.6 628.1 226.4 626.9 227.1C 625.1 228 624.5 228 624.2 227C 623.9 226.1 623.6 226.1 622.9 227.1C 622.3 228.2 621.8 228.2 620.9 227.3C 620.3 226.7 620 225.8 620.4 225.2C 620.9 224.3 627.6 224.3 628.6 225.3zM 637.1 229.3C 636.1 230.2 636 230.1 636.6 228.7C 636.9 227.7 637.5 227.2 637.8 227.5C 638.1 227.8 637.8 228.6 637.1 229.3zM 611.6 235.7C 613.2 237.8 613.4 239.4 612 238.5C 610.7 237.7 608.7 234 609.6 234C 610 234 610.9 234.8 611.6 235.7zM 619 245C 619 245.5 618.5 246 617.9 246C 617.4 246 617.2 245.5 617.5 245C 617.8 244.4 618.3 244 618.6 244C 618.8 244 619 244.4 619 245zM 627 248C 627 249.1 626.6 250 626.1 250C 624.7 250 623.8 248.2 624.5 247C 625.5 245.3 627 245.9 627 248zM 618.9 247.9C 619.6 248.4 619.8 249 619.4 249.3C 618.9 249.6 617.9 249.2 617.2 248.4C 615.8 246.8 616.7 246.6 618.9 247.9zM 622 253.6C 622 254.4 621.5 254.8 621 254.5C 620.4 254.1 620.2 253.4 620.5 252.9C 621.4 251.5 622 251.8 622 253.6zM 278 274.6C 278 275.4 277.5 275.8 277 275.5C 276.4 275.1 276.2 274.4 276.5 273.9C 277.4 272.5 278 272.8 278 274.6zM 608 285.4C 608 285.7 607.6 286.2 607 286.5C 606.5 286.8 606 286.6 606 286.1C 606 285.5 606.5 285 607 285C 607.6 285 608 285.2 608 285.4zM 701 319C 701 319.5 700.6 320 700 320C 699.5 320 699 319.5 699 319C 699 318.4 699.5 318 700 318C 700.6 318 701 318.4 701 319zM 479.1 324.4C 507.4 330.4 531.2 355.9 538.3 387.7C 538.9 390.5 538.9 390.5 534.8 388C 532.9 386.9 529.7 386 527.4 386C 519.3 386 505.4 391.7 494 399.7L 488.5 403.6L 488.4 409.6C 488.2 419.2 483.4 425.7 474.8 428C 463.4 431.1 443.7 421.4 425.2 403.6C 420.1 398.6 413.8 391.7 411.3 388.2C 405.8 380.5 399.7 369 400.6 368.1C 401 367.8 401.5 368.1 401.8 368.9C 403.2 372.9 415.2 389.1 422.2 396.5C 442.8 418.3 465.9 429.6 476.4 423.1C 482.8 419.1 486 410.7 483.2 405.3C 480.5 400.4 460.7 391 452.9 391C 447.6 391 440 387.5 440 385.1C 440 384.1 441.1 382.3 442.4 381.1L 444.7 378.9L 448.6 381.1C 452.5 383.3 452.5 383.3 446.9 377.4C 443.8 374.2 439.7 369.5 437.7 367C 433 361 426.3 348.4 425.5 343.9C 424.9 340.8 425.3 339.8 427.9 336.8C 431.7 332.4 442.8 326.5 450.6 324.6C 458.3 322.7 470.8 322.7 479.1 324.4zM 327.5 367C 347.9 370.3 362.7 374.3 366.1 377.6C 369.9 381.3 369.8 381.9 365.3 381C 363.2 380.6 359.5 379.9 357 379.6L 352.6 378.9L 356.7 381.9C 364.8 387.8 365.5 391.1 362 408.2C 359.1 422 359.1 422 369.8 422C 393.8 422 416.8 428.3 432.7 439.1C 439.3 443.6 448.5 452.4 453.2 458.8C 456.1 462.7 458.7 464.8 463.9 467.4C 467.6 469.3 472.3 471.2 474.3 471.5C 476.3 471.9 478 472.5 478 472.7C 478 473 476.8 474.7 475.3 476.5C 473.7 478.2 472 480.5 471.4 481.6C 470.3 483.4 470.1 483.4 467.2 481.7C 460.9 478.1 460.5 478.7 460.4 491.8C 460.3 501.5 459.8 504.9 457.7 511.5C 453.1 525.5 443.9 538 432.9 545C 425.1 550.1 425.4 548.3 434.1 539.2C 453 519.4 458.3 497.8 450 474.3C 447.4 466.8 440.2 457.1 432.3 450.5C 424.8 444.3 409 436.2 399.5 433.6C 386.3 430.1 364 428.9 360.6 431.5C 359.5 432.3 356.9 433 354.8 433C 351.1 433 351 432.9 351 429.6C 351 424.9 351.9 423 354 423C 355.3 423 356 423.9 356.3 425.7C 356.7 427.8 356.7 427.6 356.6 425L 356.5 421.5L 347.5 420.3C 342.6 419.7 327.9 417.8 315 416.1C 291.4 413 268.5 408.9 267.2 407.5C 266.8 407.1 270.2 407 274.8 407.4L 283.1 408.1L 280.6 404.3C 278.6 401.4 278 399.3 278 394.8C 278 389.8 278.4 388.8 281.1 386.1C 284.7 382.5 287.6 381.6 293.2 382.3C 300.6 383.3 305.4 391.2 303 398.5C 301.4 403.4 296.3 407.9 291.5 408.7L 287.5 409.3L 290.5 410.6C 297 413.4 301.8 412 306.1 405.9C 312.8 396.4 308.9 383.7 297.6 378.4C 291.7 375.6 285.5 375.3 280.2 377.5C 273.3 380.5 269.8 385.1 267.9 394C 266.9 398.6 266.6 399 263.9 399C 261.2 399 261 398.7 261 395.2C 261 388.5 263.7 382.5 269.1 377.5C 274.9 372 278 370.6 292 366.8C 303.8 363.7 306.5 363.7 327.5 367zM 412.3 393.7C 414.5 397.8 414.4 400.5 412 405.7C 409.6 411 408.8 411.3 410.6 406.2C 411.3 404.2 411.9 401.5 412 400.3C 412 399.1 408.6 393.1 404.5 386.9C 400.4 380.8 397 375.3 397 374.8C 397 373.4 410.4 389.9 412.3 393.7zM 184 391C 184 391.5 183.5 392 182.9 392C 182.4 392 182.2 391.5 182.5 391C 182.8 390.4 183.3 390 183.6 390C 183.8 390 184 390.4 184 391zM 529.4 392.6C 530.6 395.7 530 412.3 528.4 418.4C 524.8 432.4 515.7 446.2 506.3 451.7L 501.7 454.4L 504.6 456.7C 507 458.6 507.3 459.2 506 460C 503.2 461.8 500.5 461 493.2 456.6C 485.8 452 472 441.2 472 439.9C 472 439.5 473.4 438.3 475.2 437.2L 478.4 435.1L 482.2 438.6C 484.3 440.5 486.5 442 487 442C 487.6 442 490.7 439.3 493.9 436.1C 498.1 431.9 501.1 427.7 503.9 421.8C 507.5 414.4 511 401.5 511 396C 511 394.9 511.7 394 512.5 394C 515.8 394 513.1 411 508.2 421.4C 504.5 429.1 496.8 439.4 492.4 442.4L 489 444.7L 491.3 446.7C 492.5 447.8 494.7 449.5 496.3 450.5L 499 452.2L 504.5 447.6C 518.8 435.3 524.8 422.6 525.7 402.7C 526.1 394.3 526.6 391 527.5 391C 528.2 391 529.1 391.7 529.4 392.6zM 864.4 399.1C 864.1 399.6 863.4 399.8 862.9 399.4C 862.4 399.1 862.2 398.4 862.6 397.9C 862.9 397.4 863.6 397.2 864.1 397.6C 864.6 397.9 864.8 398.6 864.4 399.1zM 480.3 406.1C 484.1 410.8 481 419.9 474.7 421.9C 465.1 425.1 459.2 413.9 466.8 406.8C 468.3 405.4 470.2 404 471 403.7C 473.6 402.7 478.4 403.9 480.3 406.1zM 673 406C 673 406.5 672.5 407 671.9 407C 671.4 407 671.2 406.5 671.5 406C 671.8 405.4 672.3 405 672.6 405C 672.8 405 673 405.4 673 406zM 278.5 415C 283.5 416.2 292 418 297.5 419.1C 311.7 422 311.2 421.5 305.5 426.7L 300.6 431.2L 294 430.6C 280.6 429.3 272.4 427.8 267.6 425.7L 262.8 423.7L 263.3 418.8C 264.1 412.7 264.6 411.9 267.3 412.5C 268.5 412.8 273.6 413.9 278.5 415zM 315 428.3C 315 430 313.3 432 309.2 435.2C 306.1 437.6 301.2 442.2 298.5 445.4C 294.5 450.2 293.6 451.8 293.9 454.6C 294 456.5 294.2 459.6 294.3 461.5C 294.5 464.3 294.9 465 296.5 465C 298 465 298.2 464.8 297.1 464.1C 296.1 463.5 295.9 462.2 296.4 459.6C 297.1 456.1 297.2 456 301.8 456C 307.8 456 308.8 456.7 309.2 461L 309.5 464.5L 311.6 462.4C 312.8 461.2 314.1 458.3 314.5 456C 315.2 452 315 451.5 311.6 448.3C 307.1 444 306.7 439.2 310.5 435.5C 312.6 433.3 313.8 433 320.4 433C 327.4 433 328.1 432.8 332.6 429.4C 336.2 426.6 337.7 426 338.9 426.7C 342.3 428.8 343.1 432.2 342.5 441C 341.6 453.1 340.6 456.6 337.2 459.8C 335.2 461.7 333.9 464.1 333.5 466.6C 331.7 478 329.3 486.8 324.8 499C 320.3 511.1 319.7 513.7 319.1 524C 318.4 534.5 317.9 536.4 314.4 544C 310.7 552.1 310.5 552.9 310.7 561.5C 310.9 568.8 310.6 571.4 308.9 575.5C 306.9 580.2 306.8 581 308 588.2C 309.1 595.1 309 596.5 307.4 600.9C 305.6 605.9 305.6 606 307.9 610.9L 310.3 615.8L 307.5 620.7C 304.3 626.2 304 632.3 306.4 638.2C 307.3 640.3 308 643.7 308 645.9C 308 649.1 308.7 650.6 311.1 653.1L 314.2 656.3L 312.1 658.4C 310.2 660.3 308.6 660.5 296.8 660.8C 286.7 661.1 283.5 660.9 282.9 659.8C 282.4 659.1 282 655.7 282 652.4L 282 646.2L 277.3 643.9C 273.5 642 272.5 641 272.5 639C 272.5 636.9 273.3 636.2 277.5 634.8C 282.7 633.1 282.6 632.9 275 630.9C 265.3 628.4 260.2 624.3 261.5 619.9C 262.4 617.2 268.3 613.5 275.5 611.4C 285.4 608.4 285.2 607.4 274.7 606.5C 269.6 606.1 264 605.2 262.3 604.5C 259.4 603.3 259 602.6 259 599.5L 259 596L 268.3 596.6C 276.6 597.1 278.2 596.9 284.5 594.6C 288.9 592.9 290.2 592.2 288 592.5C 278.4 594 272.6 594.2 266.6 593C 263 592.3 259.8 591.4 259.5 591.1C 259.3 590.7 259.4 589.3 259.7 588.1C 260.3 585.9 260.6 585.9 268.9 586.4C 276.7 586.8 276.9 586.8 271.3 586C 258.4 584.2 258.1 583.1 263.4 557.5C 264.9 550.3 266.5 540.7 267.1 536C 267.6 531.3 268.9 524.3 269.9 520.5C 271 516.6 272.1 511.8 272.5 509.7L 273.1 506L 276 507.5C 281 510.1 287.4 510.4 294.5 508.5C 298.1 507.6 301.3 506.4 301.5 506C 301.8 505.5 300.6 505.5 298.8 506.1C 297 506.6 293.9 507 292 507L 288.5 507L 292.5 504.5C 296.3 502.2 297 502.1 306.3 502.7C 312.5 503.1 316 502.9 316 502.3C 316 501.7 311.1 501 304.7 500.6C 277.2 499 248 492.5 248 488C 248 485.3 249.8 485.1 257 487.2C 260.6 488.2 264.4 489.3 265.5 489.6C 267.4 490.1 267.7 489.4 268.8 481.8C 271 466.2 270.1 458.8 265.4 453.9C 260.7 449 265.2 446 271.9 449.5C 275.3 451.2 276 452.8 276 458.5C 276 463.7 273.4 483.2 272.1 487.7L 271.2 490.8L 278.4 491.9C 285.5 493 307.4 494.9 314 495C 316.4 495 317.1 494.7 316.3 493.9C 315.7 493.3 308.2 492.5 299.5 492C 282.3 491 275 490.1 275 489.1C 275 487.4 283.1 458.7 284.1 456.7C 286.9 451.6 301.4 435.4 308.3 429.9C 314 425.4 315 425.1 315 428.3zM 268.1 431.2C 273 434.3 274.1 434.5 284.3 435L 295.3 435.5L 291.1 440.7C 285.2 448.2 282.1 448.9 268.8 446.1C 263.2 444.9 258.4 443.7 258.2 443.5C 257.4 442.7 261.4 428 262.4 428C 262.7 428 265.2 429.5 268.1 431.2zM 756 433C 756 433.5 755.6 434 755.1 434C 754.5 434 753.8 433.5 753.5 433C 753.2 432.4 753.6 432 754.4 432C 755.3 432 756 432.4 756 433zM 491 458.2C 495.8 461.3 498.4 463.6 497.5 463.8C 494.3 464.5 477.5 453.4 470.5 446.1C 468.1 443.5 467.8 442.7 469 442C 470 441.4 472.1 442.7 476.6 447C 480.1 450.2 486.5 455.2 491 458.2zM 248.7 449.6C 248.9 450.1 247.9 452.1 246.5 454C 244.3 456.9 244 457.1 244 455.3C 244 450.2 247.5 446 248.7 449.6zM 307.2 450.1C 311.8 451.3 312 451.7 311 456C 310.3 459 310.2 459.1 310.1 456.9C 310 454.1 307.4 453 300.9 453C 297.8 453 296.5 451.7 297.4 449.3C 298 447.7 298.4 447.8 307.2 450.1zM 403.3 452C 416.2 456 429.5 467.6 435.2 479.7C 439.6 489 440.9 501.2 438.6 512.6C 436.6 522.8 432.5 532.2 428.1 536.4L 425.2 539.2L 420.4 533.1C 417.8 529.7 415.6 527 415.4 527C 414.7 527 417.5 535 419.6 539.2C 420.9 541.8 422 544.6 422 545.4C 422 546.2 420 550.7 417.6 555.3C 415.1 560 412.8 565.4 412.5 567.4C 411.7 571.3 410.9 571.8 409 569.6C 407.3 567.4 399.9 565.3 388.5 563.5C 372.3 561 367.5 559.9 369.1 559C 370.8 558 388.3 555 392.1 555C 393.5 555 395.2 554.4 395.8 553.7C 396.3 553.1 399.8 543.3 403.5 532C 407.2 520.7 411.1 509.1 412.1 506.2C 413.1 503.3 414 500.3 414 499.5C 414 498 398.7 489.9 396 490.1C 394.5 490.2 404 495.1 409.2 496.9C 412 497.9 412.8 499.4 411.1 500.4C 410.6 500.7 407.1 499.8 403.4 498.4C 391.4 493.9 370.7 487 369 487C 368 487 363.6 489.5 359.2 492.5C 354.7 495.5 351 497.6 351 497.2C 351 494.2 367.5 482.6 374.9 480.3C 381.9 478.2 390.9 478.6 393.6 481.1C 395.3 482.7 407.9 486.9 411.3 487C 413.3 487 409.5 482.8 405.2 480.3C 400.8 477.7 399.8 477.5 388.5 477.5C 374.8 477.5 371.7 478.5 357.4 488L 349.5 493.1L 357.5 485.5C 369.4 474.2 381.2 468 390.7 468C 395 468 394.2 466.4 389.5 465.6C 382.2 464.2 365.1 469.5 356.1 475.9C 352.1 478.8 351.7 478.5 354.2 474.3C 358 467.9 367.1 459.5 374 456.1L 380.5 452.9L 376.1 453.6C 373.7 453.9 370.1 454.9 368.2 455.7C 362.2 458.2 363.7 456.4 370 453.6C 381.1 448.6 390.7 448.1 403.3 452zM 263.7 476C 265.4 479.3 265.4 487 263.8 487C 260.7 487 255 484.8 255 483.6C 255 481.7 257.1 475.7 258.3 474.2C 259.8 472.3 262.3 473.1 263.7 476zM 476.4 487.7C 487.2 488.3 487.2 488.3 489 491.4C 490 493.1 491.5 495.2 492.4 496C 493.8 497.4 493.3 497.5 487.5 497.2C 483.9 497 479 497.1 476.6 497.4C 472.4 498.1 472.1 498.3 469.8 503.8C 468.4 506.9 466.5 511.6 465.6 514.2C 464.2 518.1 463.4 519 461.4 519C 460.1 519 459 518.8 459 518.6C 459 518.3 459.9 514.2 461.1 509.4C 462.5 503.5 463 498.3 462.8 493.3C 462.6 487.1 462.7 486.1 464 486.6C 464.8 486.9 470.4 487.4 476.4 487.7zM 240.3 492.3C 240.8 495.6 240.7 496 239.5 495C 238 493.7 237.5 489.9 238.7 488.7C 239.6 487.8 239.6 487.9 240.3 492.3zM 387.6 496.4C 408.6 503.6 410 504.2 410 505.7C 410 506.4 409.7 507 409.4 507C 408.7 507 369.7 493.8 369.1 493.4C 368.6 493 370 491 370.9 491C 371.4 491 378.9 493.4 387.6 496.4zM 388.5 503.5C 399 507.1 407.6 510 407.8 510C 407.9 510 408 510.9 408 512.1C 408 513.7 407.6 514 406.3 513.5C 405.3 513.1 396 509.9 385.5 506.3C 375.1 502.6 366.3 499.6 366.1 499.4C 365.5 498.9 367.1 497 368.3 497C 369 497 378.1 499.9 388.5 503.5zM 268.8 505.2C 258.5 546.3 254.4 585 257.4 613.6C 259.8 636.6 262.4 643.5 271.5 651.8C 277.9 657.6 276.7 658.7 269.4 653.7C 260 647.5 254.7 631.4 253.4 605.3C 253 597.2 252.3 592.3 251.7 592.7C 251.2 593 250.4 592.6 249.9 591.9C 249.3 590.9 249 591.1 249 592.7C 249 595.5 245.6 595.8 242.2 593.4C 237.2 590 240.6 585 247.9 585L 252.7 585L 253.4 574.7C 254.3 560.6 255.5 552.8 260.5 527.5C 262.8 515.4 265.1 503.8 265.4 501.7C 266 498.7 266.5 498 268.4 498L 270.7 498L 268.8 505.2zM 484.3 517.2C 483.9 528.8 483.3 535.8 482.6 536.2C 482 536.6 479.4 537 476.8 537C 472.8 537 472 536.7 472 535.2C 472 530.9 474.1 501.4 474.5 500.2C 474.8 499.5 476.8 499 479.9 499L 484.9 499L 484.3 517.2zM 492.9 500.6C 493.1 500.8 492.7 505.8 492 511.8C 491.3 517.7 491 523.2 491.3 524C 491.6 524.8 491.9 524.1 491.9 522.3C 492 520.6 492.5 518.8 493 518.5C 494.7 517.5 495.3 520.7 493.9 523.2C 493.2 524.5 492.3 527.7 492 530.5C 491.5 535.3 491.4 535.5 488.1 535.8L 484.7 536.1L 485.3 528.4C 485.7 524.2 486 515.8 486 509.9L 486 499L 489.3 499.7C 491 500 492.7 500.4 492.9 500.6zM 496.4 503.7C 495.6 508.8 495.2 510.2 494.2 509.7C 492.9 508.8 494.1 500 495.5 500C 496.5 500 496.7 501 496.4 503.7zM 371.5 504.9C 381.3 508 405 516.7 405.7 517.4C 406.1 517.7 405.9 518.5 405.3 519.1C 404.6 519.8 401.2 518.9 394.4 516.5C 389 514.5 380 511.3 374.6 509.4C 363.6 505.6 363.5 505.6 364.5 504.1C 365.3 502.8 364.4 502.7 371.5 504.9zM 257 507.2C 258.1 508.4 259 510.5 259 511.8C 259 515.3 254.3 535.8 252 542.2L 250.1 547.5L 250.1 541C 250.1 534.4 251.4 517 252.6 509.2C 253.3 504.4 254.1 504.1 257 507.2zM 385.8 517.2C 400 522.3 403 523.7 403 525.3C 403 526.7 402.6 527 401.3 526.5C 398.6 525.5 362.7 513 362.3 513C 362.1 513 362 512.3 362 511.4C 362 509 365.4 509.9 385.8 517.2zM 235.1 517.1C 234.4 521.5 234.2 521.8 234.1 519C 234 515.4 235 510.6 235.6 511.3C 235.9 511.5 235.6 514.1 235.1 517.1zM 383.2 524.3C 397.1 529.1 401 530.9 401 532.2C 401 534.5 400.9 534.5 391 530.9C 386.3 529.2 377.3 525.9 371 523.7C 357.7 519 358.6 519.5 359.5 518C 360.5 516.4 362.4 517 383.2 524.3zM 369.5 526.9C 393.7 535.4 399 537.5 399 538.7C 399 539.4 398.3 540 397.4 540C 395.8 540 358 527.3 357.2 526.5C 356.8 526.1 357.7 523 358.2 523C 358.4 523 363.5 524.7 369.5 526.9zM 464 526.5C 466.4 528.7 467.2 533.5 465.9 538.2C 465.2 541.1 465.2 542.5 466 543.5C 466.9 544.6 466.6 545.1 465 546C 462.7 547.2 445 548.7 445 547.7C 445 546.2 447.6 541.4 449 540.3C 450.3 539.2 450.3 539.1 448.8 539C 446.2 539 446.5 537.7 450.8 530.4C 454.5 523.8 454.5 523.8 458.3 524.3C 460.4 524.6 463 525.6 464 526.5zM 389.5 541.2C 394.2 542.9 396.6 544.3 396.8 545.5C 397.3 547.7 397.3 547.7 374.3 540C 355.1 533.5 353.4 532.7 354.4 531.2C 354.9 530.3 372.4 535.3 389.5 541.2zM 374 543.7C 390.4 549.5 395 551.5 395 552.9C 395 554.5 384.5 551.9 368 546.3C 358.9 543.3 351.4 540.6 351.2 540.5C 351.1 540.4 351.2 539.5 351.6 538.6C 352.5 536.4 354.6 536.8 374 543.7zM 538.5 547C 538.9 547.6 537.1 548 533.8 548C 528 548 526.4 548.7 525.9 551.1C 525.6 552.4 524.9 552.5 522.1 551.8C 518.7 550.9 518.7 550.9 520.9 549.3C 522.1 548.5 524.3 547.4 525.8 547C 529.7 545.8 537.8 545.8 538.5 547zM 465.5 553.8C 465.1 554.2 460.6 554.5 455.4 554.5C 450.2 554.5 446 554.8 446 555.2C 446 555.7 450.3 556 455.5 556L 465 556L 465 562C 465 565.3 465.3 568 465.6 568C 466 568 467.9 567.1 469.9 565.9L 473.5 563.8L 469.4 567.8C 465 572.1 459.1 574 450 574C 447.2 574 445 574.4 445 575C 445 575.8 452.6 575.6 461.8 574.5C 464.8 574.2 465 574.3 465 577.1L 465 580L 456 580C 448.6 580 446.9 579.7 446 578.2C 445 576.6 445 576.6 445.2 578.4C 445.4 579.8 444.7 580.5 442.5 581.2C 440.9 581.6 439 581.8 438.3 581.6C 437.7 581.3 437 581.6 436.8 582.2C 436.5 582.9 432.2 583.5 425.7 583.8L 415 584.3L 415 579.1L 415 574L 425.5 574C 431.2 574 438.1 573.5 440.8 573L 445.7 571.9L 445.3 566.2C 444.7 558 444.6 557.9 441 559.3C 438.5 560.3 438 560.9 438.5 562.7C 439 565 439 565 427.5 565C 421.2 565 416 564.8 416 564.5C 416 564.3 418.1 562.9 420.8 561.6C 423.4 560.2 427.5 557.7 430 556.1C 435.7 552.2 437 552.2 437.1 556.2L 437.3 559.5L 437.9 556C 438.4 552.9 438.8 552.5 441.3 552.8C 443.2 553 444 552.6 444 551.5C 444 550.7 444.5 550 445 550C 445.6 550 446 550.6 446 551.2C 446 552.1 446.3 552.1 446.9 551.1C 447.5 550.2 450.7 549.5 456.6 549.1C 465.4 548.5 465.5 548.5 465.8 550.8C 466 552.1 465.9 553.5 465.5 553.8zM 544.5 558.1C 542.1 563.3 537.3 570 536 570C 535.4 570 535.7 568.6 536.6 566.9C 537.8 564.5 537.9 563.6 537 563C 535.6 562.1 536.1 559.2 538.7 552.2L 540.3 547.9L 543.3 550.9L 546.4 553.9L 544.5 558.1zM 475.6 550.1L 478.4 551.1L 475.1 553.7C 473.3 555.2 470.7 558.6 469.4 561.4L 467 566.5L 467.4 558C 467.6 553.3 467.8 549.4 467.9 549.2C 468.2 548.6 473.2 549.1 475.6 550.1zM 485.9 552.3C 485.7 552.5 483.3 554.6 480.6 557.1L 475.8 561.5L 478.6 556.7C 480.8 553.2 482.1 552 483.9 552C 485.2 552 486.1 552.1 485.9 552.3zM 502 552.8C 502 553.2 499.8 555.8 497 558.5C 491.7 563.7 490.4 563.5 494.4 558.1C 497.9 553.4 502 550.5 502 552.8zM 510 553.1C 511.1 553.8 511.2 554.3 510.3 554.6C 509.7 554.9 507.3 556.4 505.1 558.1C 502.8 559.7 500.8 561 500.5 561C 499.6 561 504.3 553.9 505.9 553C 507.9 551.8 508.2 551.8 510 553.1zM 549.4 559.6C 550.3 563 546.9 570.1 542.8 573.5L 539.8 576.1L 543.6 575.5C 546.9 575 548.3 575.4 552.9 578.4C 555.9 580.4 560.8 582.4 563.9 583.1C 573.9 585.1 576 586.1 579.3 590.2C 581 592.4 584.4 596.4 586.7 599.1C 589 601.8 591.4 605.8 592 608.1C 592.8 610.9 594.8 613.8 598.5 617.3C 604.6 623.2 606.1 626.3 605.3 631.5C 604.9 633.9 605.2 635.6 606.2 636.8C 608.5 639.4 611.4 652.6 611.4 661L 611.5 668.5L 601.5 669.2C 594.3 669.7 589.5 670.6 584.5 672.5C 570.4 677.9 566.7 679.1 564.7 678.8C 562.8 678.5 562.8 678.2 566 674.7C 569.8 670.3 572.9 668.6 580.2 666.5L 585.5 665L 579.5 665.6C 576.2 665.9 572.5 666.4 571.3 666.7C 569.9 667 569 666.8 569 666C 569 665.3 567.3 662.8 565.1 660.4C 563 658 560.9 654.5 560.5 652.8C 559.8 649.8 559.7 649.7 559.3 651.8C 558.7 654.7 560.5 659.3 563.1 661.6C 567 665.1 564.8 664.9 557 660.9C 552.6 658.6 549 656.2 549 655.4C 549 653.6 555.1 649.2 561.8 646.1C 564.7 644.7 567 643.2 567 642.7C 567 642.2 564.4 642.1 560.8 642.4L 554.5 643.1L 560.3 639.4C 563.5 637.4 565.9 635.6 565.8 635.4C 565.6 635.2 563 635.7 560 636.5C 552.8 638.4 549.1 638.4 548.3 636.4C 548 635.5 548.4 631.3 549.4 627.1C 550.6 621.5 552.1 617.8 555.4 613C 557.8 609.4 560.8 604.5 562 602C 563.2 599.5 565.2 596.5 566.3 595.2C 568.3 593.1 568.3 593 566.4 593C 564.5 593 553.3 604.1 548 611.2C 546.5 613.3 544.9 617 544.6 619.5C 544.2 622 543.5 624 543 624C 542.5 624 540.5 625.4 538.5 627.1C 535.7 629.6 535 630.9 535 633.8L 535 637.3L 532.6 635.1C 531.3 633.9 529.7 630.9 529.1 628.5C 527.7 623 527.7 601 529.1 595C 529.6 592.5 530.3 589.6 530.5 588.5C 530.8 587.4 530.1 588.3 529 590.5L 527.1 594.5L 527 588.6C 527 583.7 526.7 582.9 525.4 583.4C 524.5 583.7 523.1 584 522.1 584C 519.5 584 517.5 602.9 517.5 628.6C 517.5 644.9 517.2 650.1 516.1 651.3C 514.5 653.3 515.2 659.4 518.1 667.7C 519.1 670.8 519.8 673.5 519.6 673.7C 519 674.3 513 660 511.4 654.2C 509.8 648.1 508.1 620.9 508 601.7C 508 590.8 507.9 590 506.1 590C 504.7 590 503.9 591 503.3 593.2C 502.9 595 502.6 611.9 502.8 630.7C 502.9 649.6 502.8 665 502.4 665C 500.8 665 495 659.8 493.1 656.6C 491.9 654.7 490.1 649.9 489 645.8L 487 638.5L 487.6 645.4C 488.4 655.2 490.5 661.1 495 667.1C 498.5 671.7 499 673.1 499 677.6C 499 680.5 499.3 683.7 499.6 684.7C 500.8 687.9 494.2 679.7 491.1 674C 487.5 667.2 485.4 660.1 483.6 648.5L 482.2 639.5L 481.4 644C 480.7 647.9 480.5 648.2 480 646C 479.3 643.7 479.2 643.6 478.5 645.4C 478 646.5 478.2 651 478.8 655.4C 479.7 661.7 481.3 666 486 675.8C 489.3 682.7 491.8 688.5 491.6 688.7C 490.9 689.5 479.7 673.5 477.2 668.1C 474.6 662.5 471.1 643 471 633.7C 471 628.9 470.3 628.1 468.2 630.2C 466.6 631.8 466.6 619.3 468 610.1C 468.6 606.6 468.9 603.6 468.7 603.3C 468 602.7 464.2 618.9 463 627.6C 462 635.1 462.2 636.9 465 651.1C 466.7 660.1 468 669.6 468 674L 468 681.5L 465.9 679C 462.1 674.2 460.2 669.4 457 656.2C 455.3 649 453.6 643 453.4 643C 452.3 643 456.4 664.6 459.5 675C 461.4 681.5 462.8 692.7 462 696.5C 461.9 697 461.2 694.6 460.5 691C 458.2 680.6 453.9 667.9 451.5 665.2C 450 663.5 448.7 662.9 447.6 663.3C 445.3 664.2 442.4 671.1 439.7 682.2L 437.4 691.5L 431.9 683.5C 428.9 679.1 426.2 675.2 425.9 674.6C 425.5 674.1 418.8 676.2 410.9 679.3C 394.4 685.8 390.1 686.9 389.9 684.9C 389.4 679.2 392.1 675.9 400.5 671.8C 403.8 670.2 405.6 669.2 404.5 669.4C 403.4 669.7 400.7 670.1 398.5 670.4L 394.5 670.9L 398.5 669.6C 400.7 668.8 403.4 668.1 404.4 668.1C 405.5 668 406.1 667.7 405.8 667.4C 405.4 667.1 398.3 667.6 389.9 668.4C 381.6 669.3 374.5 669.9 374.3 669.6C 374 669.3 383.8 665.6 399.5 660.1C 402.4 659 402.3 659 398.6 659.6C 396.5 659.9 391.1 661.2 386.6 662.5C 382.2 663.8 378.4 664.7 378.3 664.6C 378.1 664.4 381.1 662.2 385 659.5C 388.8 656.8 392 654.3 392 653.9C 392 652.6 390.5 652 382.8 650.1L 375.5 648.4L 381 644.7C 390.3 638.5 398.5 635.6 406.7 635.6C 414.2 635.5 415.4 634.6 410.9 632.2C 406.6 629.9 398.5 631.4 384.6 637C 371.1 642.4 368.9 642.6 368.2 638.4C 367.9 636.2 370.9 632.9 375.3 630.7C 378 629.3 377.9 629.3 371.3 628.6C 367.5 628.2 363.9 627.5 363.1 627.1C 361.7 626.2 364.5 625.7 379.5 624.5C 383.4 624.2 388.7 623.7 391.4 623.3C 398.3 622.4 395 621.4 382.5 620.5C 368.5 619.4 366.8 618.5 376 617C 380.1 616.4 385.5 615.2 388 614.5L 392.5 613.1L 384.5 613.1C 380.1 613.1 373.6 613.5 370 613.9C 352.7 616.3 352.5 616.3 353.5 615.1C 354.1 614.5 359.5 612.9 365.5 611.5C 383.9 607.3 383.8 607.4 370.6 606.6C 364.1 606.2 357.8 605.5 356.6 605C 355.5 604.5 355 604.1 355.6 604.1C 356.2 604 360.9 602 366.1 599.5L 375.5 595L 364.3 595.6C 357.3 596 353 595.9 353 595.3C 353 593.9 366.2 590.2 373.5 589.5C 376.8 589.2 380.6 588.6 382 588.3L 384.5 587.7L 381.5 586.9C 375.7 585.1 360.7 584.8 352.8 586.2C 348.6 587 345.3 587.3 345.6 586.8C 346.9 584.8 355.1 581 360.8 579.9C 372.9 577.6 395.1 580.9 404.7 586.6C 408.4 588.7 409.1 588.9 409.6 587.5C 411.2 583.5 406.4 580.8 392.1 577.7C 374.9 574.1 354 574.8 341.5 579.6C 336.8 581.5 343.5 572.8 349.1 570C 358.5 565.1 383.4 565.2 397.8 570.1C 405.7 572.8 412 578.3 412 582.6C 412 585.5 412.3 585.7 418.1 586.8C 422.5 587.8 425.1 589 428.1 591.7C 430.3 593.7 431.9 595.4 431.7 595.6C 431.5 595.8 427.3 595.3 422.4 594.5C 408.4 592.2 408.6 592.1 409.3 597.7C 409.6 600.4 410.3 605 410.9 608C 411.5 611 412.3 615.7 412.6 618.3C 412.9 621 413.5 623 413.9 622.8C 414.4 622.6 417.3 619.4 420.5 615.7C 424.7 610.6 426.5 609.2 427.1 610.2C 427.6 610.9 428 615.4 428 620.2C 428 627.2 427.4 630.9 425.1 638.1C 422.7 645.4 422.3 647.8 423.2 649.9C 424.1 652.4 424.3 652.2 428.3 644.5C 430.5 640.1 433.6 632.9 435.2 628.5L 438.1 620.5L 437.5 627.5C 436.9 634.8 434.9 644.7 431.1 658.8C 428.5 668.2 428.6 671.5 431.4 671.5C 434.3 671.5 436.8 667.3 439 658.5C 440.7 652.1 441.1 647 441.3 633C 441.5 617.3 441.3 615.1 439.5 611.5C 437.9 608.2 436.9 607.4 434 607C 430.8 606.5 431.1 606.3 437.5 605.1C 441.3 604.4 448.7 602 454 599.8C 460.8 596.9 465.7 595.5 471.2 594.9C 476.1 594.4 482 592.9 487.7 590.6C 492.5 588.7 499.3 586.6 502.7 586C 506.2 585.4 510.9 584.2 513.2 583.4C 515.6 582.6 520.5 581.2 524.2 580.4C 535.5 577.8 545.2 568.9 546.6 559.8C 547.3 555.7 548.4 555.6 549.4 559.6zM 522.4 561C 525.3 562.1 525.8 564.5 523.4 565.4C 518.9 567.1 514.1 564.8 515.4 561.5C 516 559.8 518.7 559.6 522.4 561zM 483.5 565.2C 481.4 571.8 480.9 572.8 481.4 569.5C 481.9 566.1 483.7 561 484.4 561C 484.7 561 484.3 562.9 483.5 565.2zM 457.4 582L 465.2 582L 464.8 587.5C 464.5 590.5 464.1 593.2 463.9 593.4C 463.7 593.6 459.3 594 454.3 594.3L 445 594.9L 445 587.8C 445 581 445.1 580.8 447.3 581.4C 448.5 581.7 453 582 457.4 582zM 563.5 667.9C 563.2 668.5 560.5 670.3 557.5 672C 551.5 675.4 547 680.2 547 683C 547 690.9 561.8 689.3 581 679.4C 591.5 674 598.4 672 606.6 672L 610.8 672L 612.5 677.2C 613.5 680.1 615.1 683.9 616.1 685.6C 618.3 689.3 618.5 691 616.7 693.4C 614.8 696 598.5 698 579 697.9C 563.2 697.9 562.7 697.8 567 696.4C 569.5 695.7 574.6 694.7 578.5 694.3C 588.5 693.4 584 692.2 570 692C 556 691.9 551.2 690.9 548.3 687.5C 543.5 681.9 545.7 677.8 557.3 670.9C 564.4 666.7 564.3 666.7 563.5 667.9zM 426 682.8C 426 683.3 424.2 684.2 421.9 684.9C 419.6 685.6 417.1 686.4 416.1 686.7C 412.7 688 416.3 685.4 420.3 683.8C 425.2 681.8 426 681.7 426 682.8zM 429 687.9C 429 689.3 399.3 698.6 398.2 697.5C 397.3 696.7 398 696.4 411.5 692C 418.7 689.7 425 687.7 425.5 687.5C 427.5 686.8 429 687 429 687.9zM 430 692C 430 693.5 426.7 694.6 412.3 698C 398.6 701.3 398 701.4 398 700.2C 398 699.7 403.3 698.1 409.8 696.6C 416.2 695.1 423.1 693.3 425 692.6C 429.5 690.8 430 690.8 430 692zM 431.8 697.2C 431.3 698.6 406.8 705.9 402.3 705.9C 395.8 706.1 399.3 704.2 411.8 701C 418.8 699.2 425.4 697.4 426.5 696.9C 429.5 695.7 432.2 695.8 431.8 697.2zM 434 700.4C 434 702.1 426.6 705 415.1 708C 406.5 710.2 400.5 710.6 401.5 709C 401.8 708.4 403.1 708 404.3 708C 407.1 707.9 425.3 702.8 430 700.7C 431.9 699.9 433.6 699.1 433.8 699.1C 433.9 699 434 699.6 434 700.4zM 617 701.9C 617.5 703 618 707.5 618 712C 618 721.2 619.1 724.2 625.1 730.7C 628.2 734 629 735.8 629 738.7C 629 742.1 628.1 743.3 618.2 753C 612.3 758.8 606 764.2 604.2 764.9C 601.4 766.1 599.3 766 589.9 764.5C 583 763.4 579.4 762.4 580.2 761.9C 580.9 761.4 582.7 761 584.2 761C 590.2 761 597.2 758.7 600.6 755.8C 603.8 753 607.4 748 605.3 749.3C 603.6 750.4 576.9 752.3 576 751.4C 575.5 750.9 581.9 748.3 591.6 745.1C 600.6 742.1 607.9 739.5 607.6 739.3C 607.4 739.1 603.2 739.8 598.4 741C 587.5 743.6 584.7 743.7 574 741.1C 569.3 739.9 564.2 739 562.5 738.9C 559.8 738.8 559.9 738.7 564 737.4C 566.5 736.7 572 734.4 576.3 732.3L 584.1 728.6L 581.8 726.8C 579.6 725.1 579.6 725 581.5 725C 586.7 725 607.9 717.6 606.6 716.3C 606.4 716.1 602.5 716.9 597.9 718.1C 592.1 719.6 587.9 720.1 584 719.7C 577.1 719.1 567.9 716 567 714C 565.3 710.5 562 701.6 562.3 701.3C 562.5 701.2 567.8 701.9 574.1 703C 589.1 705.6 596.7 705.5 605.5 702.5C 614.3 699.6 615.7 699.5 617 701.9zM 386.5 703.8C 387.6 704.5 390.2 711.1 389.7 711.7C 389.4 712 374.6 707.1 370.5 705.4C 369.1 704.7 370.8 704.3 376.5 703.9C 380.9 703.6 384.7 703.3 385 703.2C 385.3 703.1 386 703.4 386.5 703.8zM 445.5 731.7C 447.7 737.1 448.4 740.4 448.6 747.5L 448.9 756.5L 448 749.9C 447.5 746.2 445.7 739.4 444 734.7C 440.7 725.2 440.6 725 441.9 725C 442.4 725 444 728 445.5 731.7zM 433.3 736.7C 434.2 739.9 435.2 746.1 435.4 750.5L 436 758.5L 433.6 747.5C 432.3 741.4 430.8 735 430.4 733.1C 429.2 727.4 431.6 730.4 433.3 736.7zM 634 761.2C 634 766.6 634.5 769.8 635.5 771.4C 637 773.6 636.9 773.8 634.4 775.5C 630.4 778.1 619.9 788 621.1 788C 622.8 788 626.2 785.9 631.8 781.3C 637.4 776.8 640.4 775.9 641.4 778.6C 642.5 781.5 642 782.8 637.4 788.4C 633.1 793.8 632.7 794 628.2 793.9C 622.4 793.9 614.6 791 614.2 788.8C 614 787.9 616.4 784.6 619.8 781.1C 623.1 777.7 625.5 774.8 625.1 774.5C 624 773.9 618.2 775.5 607.5 779.5C 602.6 781.3 597.1 783 595.3 783.3C 592.1 783.9 592.1 783.9 593.3 781.3C 594.2 779.3 597.4 777.3 606.5 773C 613.1 769.9 620 766.8 621.8 766.1C 623.5 765.3 625 764.4 625 763.9C 625 762.5 624.4 762.7 615.8 766.6C 601.3 773.1 589.1 775.4 581 773.1C 579.1 772.5 580 772.2 584.9 771.7C 591.9 770.9 607 765.4 614.1 760.9C 616.6 759.3 620.8 755.7 623.5 752.9L 628.3 747.9L 631.1 750.6C 633.8 753.2 634 753.9 634 761.2zM 560.7 768.2C 562.9 770.3 564 772.3 564 774.2C 564 778.2 562.6 777.7 559.1 772.3C 554.2 764.9 555 762.7 560.7 768.2zM 654.8 786.5C 660.3 789.7 665.6 791.8 673 793.6C 688.5 797.4 691 799.2 691 806.3C 691 810.5 688.5 813 680.5 816.6C 670.8 821.1 661.5 821.1 645.4 816.7C 638.3 814.7 630.8 812.8 628.8 812.5C 626 812 624.6 811 623.2 808.5C 619.8 802.8 611.6 798 605.1 798C 602.7 797.9 602.6 797.9 604.4 796.8C 606.3 795.7 617.5 796 641.7 797.6C 649.9 798.1 650.4 798 648.5 796.5C 647.4 795.7 644.7 794.4 642.5 793.8C 640.3 793.2 638.4 792.5 638.2 792.4C 637.6 792 645.2 782 646.1 782C 646.6 782 650.5 784 654.8 786.5z"/>
<path style="stroke:none; fill:#000000" d="M 622.5 188C 622.8 188.5 623.3 189 623.6 189C 623.8 189 624 188.5 624 188C 624 187.4 623.5 187 622.9 187C 622.4 187 622.2 187.4 622.5 188z"/>
<path style="stroke:none; fill:#000000" d="M 625.5 191C 625.2 191.5 625.4 192 625.9 192C 626.5 192 627 191.5 627 191C 627 190.4 626.8 190 626.6 190C 626.3 190 625.8 190.4 625.5 191z"/>
<path style="stroke:none; fill:#000000" d="M 629 193C 629 193.5 629.5 194 630.1 194C 630.6 194 630.8 193.5 630.5 193C 630.2 192.4 629.7 192 629.4 192C 629.2 192 629 192.4 629 193z"/>
<path style="stroke:none; fill:#000000" d="M 630.6 195.7C 629.8 196.5 633.7 200.3 634.9 199.9C 635.4 199.7 634.8 198.5 633.5 197.4C 632.2 196.2 630.9 195.5 630.6 195.7z"/>
<path style="stroke:none; fill:#000000" d="M 640.5 221C 640.8 221.5 641.3 222 641.6 222C 641.8 222 642 221.5 642 221C 642 220.4 641.5 220 640.9 220C 640.4 220 640.2 220.4 640.5 221z"/>
<path style="stroke:none; fill:#000000" d="M 646.6 224.2C 646.1 225.8 646.1 227.8 646.6 228.7C 647.3 230.3 647.4 230.2 647.7 228.2C 648 227 648 225 647.7 223.7C 647.4 221.6 647.3 221.7 646.6 224.2z"/>
<path style="stroke:none; fill:#000000" d="M 619 290L 616.5 290.8L 619.3 290.9C 620.8 291 622 290.5 622 290C 622 289.4 621.9 289 621.8 289.1C 621.6 289.2 620.4 289.6 619 290z"/>
<path style="stroke:none; fill:#000000" d="M 615.2 294.6C 614.1 295.8 614.3 296 616 296C 617.1 296 618 295.6 618 295.1C 618 293.4 616.5 293.2 615.2 294.6z"/>
<path style="stroke:none; fill:#000000" d="M 613.6 201.5C 612.5 202.3 611.8 203 612.1 203.1C 617.3 203.9 617.8 203.8 617.3 201.9C 616.7 199.6 616.1 199.6 613.6 201.5z"/>
<path style="stroke:none; fill:#000000" d="M 475.9 394C 478.4 395.1 481 396.6 481.7 397.2C 482.4 397.8 483 398 483 397.7C 483 396.6 477.3 393.1 474.4 392.5C 472.3 392 472.6 392.4 475.9 394z"/>
<path style="stroke:none; fill:#000000" d="M 327 378.6C 354.6 385 356.9 387.3 355.7 407.9C 355.3 415.5 355.4 416.7 356.2 413.5C 356.7 411.3 357.2 405.4 357.3 400.5C 357.5 392.9 357.2 391.1 355.5 388.8C 352.1 384.3 344.7 381 332.2 378.4C 317 375.3 313.4 375.4 327 378.6z"/>
<path style="stroke:none; fill:#000000" d="M 322.5 407.3C 320.9 408.5 321.3 408.8 326.5 409.4C 332.8 410.1 333.6 409.9 332.7 407.5C 331.9 405.6 325.1 405.5 322.5 407.3z"/>
<path style="stroke:none; fill:#000000" d="M 468.7 476.7C 467.7 477.7 467.9 480 469 480C 469.5 480 470.4 479.1 471 478C 471.8 476.5 471.8 476 470.7 476C 469.9 476 469 476.3 468.7 476.7z"/>
<path style="stroke:none; fill:#000000" d="M 318.6 441.9C 319.2 442.6 322.4 443.4 325.6 443.7C 330.4 444.1 331.3 444 330.3 443C 329.6 442.3 326.5 441.5 323.3 441.2C 318.9 440.9 317.8 441.1 318.6 441.9z"/>
<path style="stroke:none; fill:#000000" d="M 311.9 470.4C 313.2 471.7 314.4 474.6 314.7 476.9C 315.2 480.9 316.3 482 317.5 480C 317.8 479.5 317.6 478.1 316.9 476.8C 316 475.1 316 474.4 317.4 473.5C 318.3 472.8 319 472 319 471.7C 319 470.7 313.3 468 311.4 468C 309.9 468 310 468.3 311.9 470.4z"/>
<path style="stroke:none; fill:#000000" d="M 286.2 471.6C 285 472.4 284 473.5 284 474.1C 284 474.6 288.2 475 293.5 475C 298.7 475 303 474.6 303 474.1C 303 473.1 293.4 470 290.3 470C 289.3 470 287.4 470.7 286.2 471.6z"/>
<path style="stroke:none; fill:#000000" d="M 293.6 481.2C 294.3 482.3 301.1 484 305 484C 307.7 484 308.1 483.7 307.2 482.8C 305.9 481.5 292.9 480 293.6 481.2z"/>
<path style="stroke:none; fill:#000000" d="M 311.8 509C 310.2 510 307.2 517.9 305 527C 304.4 529.5 302.7 534.6 301.3 538.3C 298.9 544.5 298.7 545.5 299.9 549.3C 300.5 551.6 301.6 555.4 302.1 557.7C 302.7 560.1 303.6 562 304.1 562C 305.4 562 305.2 557.4 303.6 550.6C 302.1 544.1 302.4 542.1 306.4 534.2C 307.9 531.3 309.8 525.5 310.6 521.2C 311.5 517 312.9 512.3 313.6 510.7C 315.1 507.9 314.6 507.4 311.8 509z"/>
<path style="stroke:none; fill:#000000" d="M 292 568.5C 291.9 571.2 291.5 575.4 291.1 577.8C 290.2 582.3 291.1 584 293.5 582C 296.6 579.4 296.6 569.5 293.5 565.4C 292.2 563.7 292.1 563.9 292 568.5z"/>
<path style="stroke:none; fill:#000000" d="M 265.5 572.4C 263.9 573.6 263.7 574.3 264.6 575.7C 267 579.8 279 583.1 279 579.6C 279 578.7 277 577.7 273.8 577C 266.9 575.4 264.5 574.1 268.3 574C 270.1 574 271 573.5 270.8 572.7C 270.1 570.9 267.7 570.7 265.5 572.4z"/>
<path style="stroke:none; fill:#000000" d="M 470.5 493.9C 471.1 494.4 474.6 495 478.4 495.3C 482.3 495.6 484.7 495.5 483.9 495C 481.8 493.9 469.4 492.8 470.5 493.9z"/>
<path style="stroke:none; fill:#000000" d="M 451.2 542.5C 451.2 544.1 451.4 544.7 451.7 543.7C 451.9 542.8 451.9 541.4 451.7 540.7C 451.4 540.1 451.2 540.8 451.2 542.5z"/>
<path style="stroke:none; fill:#000000" d="M 552.9 587C 551 588.1 548.4 593.8 549.3 594.7C 549.7 595 550.4 594 551 592.4C 551.6 590.8 552.9 588.7 553.7 587.8C 555.5 585.8 555.3 585.6 552.9 587z"/>
<path style="stroke:none; fill:#000000" d="M 499.7 593.2C 499.4 595 498.4 602.3 497.4 609.5C 495.9 620.9 495.9 623.1 497.1 627.4L 498.5 632.2L 498.6 620.4C 498.7 613.8 499.4 604.3 500.2 599.2C 501 594.2 501.3 590 500.9 590C 500.5 590 500 591.5 499.7 593.2z"/>
<path style="stroke:none; fill:#000000" d="M 549.8 600.5C 544.3 606.6 543.7 608.1 547.9 605.1C 550.7 603.1 555.7 596.3 554.9 595.6C 554.7 595.4 552.4 597.6 549.8 600.5z"/>
<path style="stroke:none; fill:#000000" d="M 461 604.2C 459.7 607.9 458.3 624.9 459.5 623.8C 460.2 623.1 463 601.8 462.5 601.2C 462.3 601 461.7 602.4 461 604.2z"/>
<path style="stroke:none; fill:#000000" d="M 421.1 629.4C 419.4 633.5 418 637.9 418 639.2L 418.1 641.5L 419.5 639C 421.4 635.8 425.4 623 424.7 622.4C 424.5 622.1 422.8 625.3 421.1 629.4z"/>
<path style="stroke:none; fill:#000000" d="M 565 655.9C 565 657.2 571.4 660 574.2 659.9C 575.9 659.9 575.3 659.3 571.5 657.5C 565.9 654.8 565 654.6 565 655.9z"/>
<path style="stroke:none; fill:#000000" d="M 598.8 663.7C 600 663.9 601.8 663.9 602.8 663.7C 603.7 663.4 602.7 663.2 600.5 663.3C 598.3 663.3 597.5 663.5 598.8 663.7z"/>
<path style="stroke:none; fill:#000000" d="M 407.8 666.7C 408.5 667 409.4 666.9 409.7 666.6C 410.1 666.3 409.5 666 408.4 666.1C 407.3 666.1 407 666.4 407.8 666.7z"/>
<path style="stroke:none; fill:#000000" d="M 581.8 714.7C 583.6 714.9 586.3 714.9 587.8 714.7C 589.3 714.5 587.8 714.3 584.5 714.3C 581.2 714.3 580 714.5 581.8 714.7z"/>
<path style="stroke:none; fill:#000000" d="M 645.5 791.5C 649.5 793.4 652.2 793.3 649 791.5C 647.6 790.7 645.6 790.1 644.5 790.1C 643 790.2 643.2 790.5 645.5 791.5z"/>
<path style="stroke:none; fill:#000000" d="M 680 804.6C 677 806 672.3 808 669.5 809L 664.5 810.9L 668.1 810.9C 673.3 811 683.2 809.1 685.8 807.4C 688.1 805.9 688.9 802 686.8 802C 686.1 802 683 803.2 680 804.6z"/>
<path style="stroke:none; fill:#000000" d="M 150.4 677.7C 152.1 681 154.4 682 160.5 681.9L 164.5 681.8L 161.5 680.5C 159.9 679.7 157.5 679.1 156.4 679C 155.2 679 153 678 151.5 676.8L 148.8 674.7L 150.4 677.7z"/>
<path style="stroke:none; fill:#000000" d="M 723 676C 719.6 677.1 729.3 677.1 733.5 676C 736 675.4 735.5 675.2 731 675.2C 728 675.2 724.4 675.6 723 676z"/>
<path style="stroke:none; fill:#000000" d="M 257 711.1C 254 712.2 248.8 714 245.5 715.1C 240.1 716.8 239.9 717 243.5 716.6C 246.9 716.3 255.6 713.4 263.5 710C 267.6 708.2 262.4 709.1 257 711.1z"/>
<path style="stroke:none; fill:#000000" d="M 261 714.4C 261 715.5 271.6 718.1 281.2 719.3C 292.2 720.7 295.1 719.9 285.7 718.1C 282.9 717.6 276.9 716.4 272.5 715.6C 264.4 714 261 713.6 261 714.4z"/>
<path style="stroke:none; fill:#000000" d="M 406.8 717.6C 407.4 718.7 408.6 720.4 409.4 721.5C 410.9 723.3 410.9 723.2 409.6 720C 408.8 718.1 407.7 716.4 407 716.2C 406.1 715.9 406.1 716.3 406.8 717.6z"/>
<path style="stroke:none; fill:#000000" d="M 236.8 717.7C 237.5 718 238.4 717.9 238.7 717.6C 239.1 717.3 238.5 717 237.4 717.1C 236.3 717.1 236 717.4 236.8 717.7z"/>
<path style="stroke:none; fill:#000000" d="M 330.1 728.4C 330.3 728.6 332.8 729 335.5 729.4C 339.1 729.9 340.1 729.8 339 729.1C 337.7 728.1 329.1 727.5 330.1 728.4z"/>
<path style="stroke:none; fill:#000000" d="M 179 732.5C 179 732.8 181.7 737.2 185.1 742.1L 191.2 751.2L 194 748.5C 197.3 745.4 209.9 741.9 214.6 742.8C 217.2 743.3 217 742.9 212 738.5L 206.7 733.8L 198.5 734.4C 192.5 734.9 189.4 734.7 186.1 733.5C 181.6 732 179 731.6 179 732.5z"/>
<path style="stroke:none; fill:#000000" d="M 348.5 735C 350.6 737.3 357.5 739.6 365 740.5C 368 740.9 371.4 741.4 372.5 741.7C 373.9 742.1 374.2 741.9 373.5 741.1C 372.9 740.6 369.3 739.4 365.4 738.6C 361.5 737.8 356 736.2 353.1 735C 346.7 732.5 346.2 732.5 348.5 735z"/>
<path style="stroke:none; fill:#000000" d="M 376 736.9C 376 738.2 380.1 741 382 741C 383 740.9 382.4 740.1 380.5 738.5C 377.3 735.9 376 735.4 376 736.9z"/>
<path style="stroke:none; fill:#000000" d="M 266.4 740.9C 267.1 742 273.4 745 275.1 745C 277.2 745 274.9 743.5 270.2 741.6C 267.8 740.7 266.1 740.4 266.4 740.9z"/>
<path style="stroke:none; fill:#000000" d="M 289.3 744.3C 293.6 748.3 293.9 749.8 290.6 752.9C 288.1 755.3 285.4 755.4 280.5 753.5L 278.5 752.7L 280.5 754.3C 281.6 755.2 285.7 757.1 289.5 758.6C 295.4 760.9 298 762.7 305.5 770C 313.7 778 324.3 785.1 325.8 783.6C 326.1 783.3 325.3 780.8 324.1 778.1C 322.2 774.2 322 772.9 322.9 771.2C 324.6 768 328.1 766 332 766C 336.1 765.9 344.2 760.2 340.5 759.9C 336.9 759.7 334.6 760.2 331.9 761.7C 329.4 763.2 328.9 763.1 323.4 760.3C 320.1 758.7 315.5 756 313.1 754.2C 309.7 751.7 307.7 751 304.1 751C 299.4 751 297.5 750.1 289.8 744.2L 285.5 740.8L 289.3 744.3z"/>
<path style="stroke:none; fill:#000000" d="M 485.5 757C 488.9 762.7 492.7 766.1 497.9 768C 508.6 771.9 510.9 773.3 516.7 779.4C 521.3 784.3 523.6 785.9 527.5 787C 530.5 787.8 533.7 789.6 535.4 791.4L 538.3 794.5L 536.4 791C 535.3 789.1 532.3 786.1 529.8 784.5C 527.2 782.8 524.6 780.1 523.8 778.5C 522.8 776.2 520.5 774.5 514 771.3C 509.3 769 502.9 766.3 499.7 765.4C 496 764.3 492.3 762.3 489.3 759.6C 486.7 757.3 485 756.2 485.5 757z"/>
<path style="stroke:none; fill:#000000" d="M 409.5 787.6C 406.4 789.1 402.6 790 399.5 790L 394.5 790.1L 399.5 792.7C 406 796 409.1 799 415.2 807.7C 419.1 813.3 421.5 815.6 425.6 817.9L 431 820.8L 431.6 818.2C 432.5 814.4 433.7 813.2 439.2 810.4C 441.8 809.1 444.7 806.9 445.6 805.5C 447.2 803 450.4 801.4 452.8 801.9C 454.9 802.3 461.1 799.9 460.5 798.9C 459.7 797.6 456.3 797.8 454.1 799.2C 452.6 800.1 451.7 799.9 449.4 798.1C 446.9 796.1 445.8 795.9 440.8 796.4C 435.2 797.1 435.1 797.1 430.1 792.6C 420.8 784.4 417.7 783.6 409.5 787.6z"/>
<path style="stroke:none; fill:#000000" d="M 476.1 799.4C 476.3 799.6 477.6 800.3 479 800.9C 481.4 802 481.4 802 479.6 800.6C 478 799.3 474.7 798.2 476.1 799.4z"/>
<path style="stroke:none; fill:#000000" d="M 385.8 810.7C 386.5 811 387.4 810.9 387.7 810.6C 388.1 810.3 387.5 810 386.4 810.1C 385.3 810.1 385 810.4 385.8 810.7z"/>
<path style="stroke:none; fill:#000000" d="M 745 811C 745 812.2 747.4 812.2 751 811C 753.1 810.3 752.9 810.2 749.3 810.1C 746.9 810 745 810.4 745 811z"/>
<path style="stroke:none; fill:#000000" d="M 380.8 811.7C 381.5 812 382.4 811.9 382.7 811.6C 383.1 811.3 382.5 811 381.4 811.1C 380.3 811.1 380 811.4 380.8 811.7z"/>
<path style="stroke:none; fill:#000000" d="M 770 814C 770.8 814.5 772.4 814.9 773.5 814.9L 775.5 814.9L 773.5 814C 772.4 813.5 770.8 813.1 770 813.1C 768.7 813 768.7 813.1 770 814z"/>
<path style="stroke:none; fill:#000000" d="M 749 814.4C 749 814.7 751.4 815.7 754.3 816.8C 763.9 820.4 764.8 820.4 760 817.1C 757.3 815.3 754.2 814 752.3 814C 750.5 814 749 814.2 749 814.4z"/>
<path style="stroke:none; fill:#000000" d="M 358.9 818.1L 356.5 820.1L 359.5 818.4C 363.4 816 363.5 816 362.3 816C 361.7 816 360.2 816.9 358.9 818.1z"/>
<path style="stroke:none; fill:#000000" d="M 714.5 817C 714.1 817.7 712.3 817.9 709.4 817.4C 706.6 817 705 817.1 705 817.8C 705 819.1 706.5 819.5 715 821C 723.4 822.5 729.9 825.8 736.7 832C 742.3 837.1 743.4 837.7 744.5 836C 744.8 835.4 746.3 835 747.8 835L 750.5 835L 748 833C 746.6 831.9 744.5 831 743.2 831C 739.9 831 735 828.6 731 825.1C 727 821.7 726.8 821.8 738 821.9L 743.5 821.9L 735.1 819.9C 728.6 818.2 726.6 818.1 726 819C 725 820.6 719.3 819.6 716.9 817.4C 715.7 816.3 715 816.2 714.5 817z"/>
<path style="stroke:none; fill:#000000" d="M 531 834.2C 531 835.1 551.6 847 556.5 848.9C 559.3 850 564.7 851.8 568.5 852.9C 572.4 854 577.6 856.3 580.1 857.9C 582.9 859.8 587.5 861.6 592 862.5C 596 863.3 601.7 865.4 604.5 867C 615.4 873.2 610.5 868.8 598.5 861.5C 595.2 859.5 591.3 856.7 589.8 855.2L 587 852.6L 587 855.3C 587 856.8 586.7 858 586.4 858C 586 858 583.2 856.5 580.1 854.6C 577 852.7 571.6 850.4 568 849.5C 564.4 848.6 555.2 844.9 547.5 841.3C 530.6 833.5 531 833.7 531 834.2z"/>
<path style="stroke:none; fill:#000000" d="M 446.8 836.5C 448.6 837.4 453.8 838.6 458.3 839.1C 462.8 839.7 467.7 840.9 469.2 841.6C 470.7 842.4 473.2 843 474.8 843C 476.9 843 478.3 843.8 479.4 845.5C 482.2 849.7 485.5 851.1 496 852.5C 504.8 853.6 506.6 854.1 509.2 856.6C 511.5 858.7 512.1 859 511.7 857.7C 511.3 856.7 511 855.7 511 855.5C 511 854.2 495 845.8 488.5 843.7C 484.1 842.3 478.3 840.4 475.5 839.5C 466.5 836.6 464.2 836.2 459.8 837.1C 456 837.8 451.7 837.3 445.4 835.5C 444.4 835.2 445 835.7 446.8 836.5z"/>
<path style="stroke:none; fill:#000000" d="M 697 855C 696.2 855.5 692.8 855.7 689.4 855.4C 684.9 854.9 683.1 855.1 682.5 856C 681.9 857 682.3 857.2 683.9 856.7C 686 856.2 705.1 858.2 711.5 859.6C 714.1 860.2 714.3 860.1 713.2 858.8C 710 854.9 700.6 852.7 697 855z"/>
<path style="stroke:none; fill:#000000" d="M 344.8 864.5C 350.7 868.9 351.2 869.1 361.2 870.2C 366.9 870.8 374.3 871.4 377.8 871.5C 381.7 871.6 384.6 872.3 385.8 873.2C 386.7 874.1 389.2 875.5 391.3 876.3C 393.3 877.2 395 878.4 395 878.9C 395 880.9 399.7 883 408 884.6C 414.4 885.8 417.2 886.8 419.7 889C 422.9 891.8 428.4 894 432.5 894C 433.6 894 437.4 895.4 441 897C 445.7 899.2 446.8 899.5 445 898C 443.6 896.9 439.1 894.6 435 892.9C 430.9 891.2 424.8 887.6 421.6 884.9C 417.5 881.6 414.1 879.7 410.6 878.9C 407.8 878.3 403.5 876.5 401 875C 392.6 869.8 384.2 868.1 367.9 868.3L 353.3 868.4L 346.8 864.2C 338.3 858.7 337.3 858.8 344.8 864.5z"/>
<path style="stroke:none; fill:#000000" d="M 639.5 877.1C 640.1 878 647 880.4 647.5 879.8C 647.7 879.6 645.9 878.7 643.5 877.9C 641 877 639.3 876.6 639.5 877.1z"/>
<path style="stroke:none; fill:#000000" d="M 606 877.9C 606 878.4 607.4 879.1 609 879.5C 614 880.6 621.2 885.1 620.6 886.6C 620.3 887.4 619.7 888.7 619.4 889.5C 618.6 891.4 622.1 892.8 626.2 892.2L 629.2 891.8L 625.8 888.3C 619.5 881.7 612.5 877 609.2 877C 607.4 877 606 877.4 606 877.9z"/>
</g>
</g>
</svg>