<?xml version="1.0" encoding="UTF-8" standalone="yes"?>
<!-- Created with sK1/UniConvertor (http://sk1project.org/) -->
<svg xmlns="http://www.w3.org/2000/svg" xmlns:xlink="http://www.w3.org/1999/xlink"
  width="1024pt" height="1024pt" viewBox="0 0 1024 1024"
  fill-rule="evenodd">
<g>
<g>
<path style="stroke:none; fill:#000000" d="M 484 157.5C 455.3 162.1 428.9 178.5 412.4 202C 408.8 207.2 406.2 210 405 210C 402 210 399.1 213.9 398.4 218.7C 397.9 222.4 398.1 223.5 399.8 225.3L 401.9 227.5L 399.6 234C 394.6 247.7 392.4 265.7 393.9 279.5C 398 315.1 413.2 338.4 447.8 362L 450 363.5L 447.7 370C 445.5 376.2 445.3 376.5 441.8 376.8C 437.8 377.1 436 379.8 436 385.5C 436 388.1 436.6 389.4 438.6 390.7C 441.2 392.3 441.2 392.5 440.5 400.4C 439.7 409.8 439.2 411 433.5 417C 428.2 422.6 427.6 425.2 429.1 434.5C 430.8 444.3 429.5 448.6 423.5 453.7C 417.6 458.6 416.7 461.4 418.6 468.7C 420.6 476.2 420 479.6 415.6 486.2C 410.9 493.2 410.1 499.3 412.5 507.6C 413.5 510.8 414.2 516.1 414.1 519.3C 414 523.1 414.8 527.8 416.6 533.5L 419.2 542L 417.5 549C 415.8 555.8 415.8 556.3 417.5 560C 419.9 565.4 418.8 569.5 414.1 572.4C 408.9 575.7 394.9 582.7 385.6 586.6C 378.1 589.8 377.6 589.9 374.3 588.5C 369.4 586.4 368.1 586.6 366.9 589.6C 366.1 591.9 366.4 592.9 368.7 596.3L 371.4 600.2L 368.5 602.4C 362.1 607 357.8 611.6 354.4 617.4C 352.4 620.8 349.3 624.7 347.5 626.2C 341 631.7 339.5 639 343 648C 344.2 651 345 655.4 345 658.9C 345 663.8 345.8 666.4 349.9 675.3C 353 681.9 356.7 687.9 359.7 691.2C 362.3 694.2 368.2 701.2 372.8 706.7C 385.2 721.9 404.1 736 412 736C 414.2 736 416.6 735.1 418.4 733.6L 421.4 731.3L 423.7 734C 425.8 736.5 425.9 737.4 425.4 744.2C 425 749.1 425.1 752.4 425.9 753.8C 427.2 756.2 433.6 758.3 438.3 757.8C 441.3 757.5 441.5 757.7 441.8 761.2C 442.4 768.1 450.6 771.4 456.2 767L 458.7 765.1L 461 767.5C 462.3 768.9 465.3 770.7 467.7 771.6C 471.5 773.1 472 773.6 472 776.5L 472 779.7L 467.3 778.9C 464.6 778.5 448.1 777.9 430.5 777.6C 395.5 777 367.3 774.7 343 770.5C 322.6 767 314.5 766.6 300.5 768.3C 287 770 278.2 769.5 264 766.1C 249.9 762.7 240.9 762 208 761.3C 174.2 760.7 166.3 761.7 195.7 762.9L 213.5 763.7L 192.5 763.9C 179.7 764.1 172.3 764.5 173.5 765C 174.6 765.5 177.8 766 180.5 766.1C 187.7 766.4 169.4 767.7 155.6 767.9C 149.6 767.9 144.9 768.3 145.2 768.6C 145.6 768.9 149.8 769.5 154.7 769.9C 163.4 770.7 163.4 770.7 148.5 771C 123.5 771.4 120 771.8 120 774.5C 120 775.9 118.3 776.1 96 777.8L 84.5 778.7L 100 779C 131.5 779.5 128.4 780.7 95.1 780.8C 76.7 780.9 61.9 781.3 62.2 781.6C 62.6 781.9 67.9 782.8 74.2 783.5L 85.5 784.8L 74.8 784.9C 62.6 785 59.6 786.9 71.3 787.1C 80.3 787.3 93.5 788.6 89.5 788.9C 87.9 789.1 91.5 790 97.5 791C 110.6 793 115.1 794.4 117.5 797C 119.5 799.2 120.2 798.7 109.3 802.6C 106.4 803.6 104 804.8 104 805.1C 104 806.1 111.4 808.9 118.4 810.5C 121.8 811.4 134.4 812.4 147.5 813C 176.4 814.3 188.2 815.4 204 818.6C 219.8 821.8 224.6 823.2 239.5 828.8L 251.5 833.4L 271.5 833.5C 292.4 833.6 299.1 834.5 309.8 839.1L 314 841L 312 843C 307 848 311.3 852.4 328.4 859.2C 342.9 865 340.5 864.7 370.9 864.2C 379.9 864.1 387 863.7 386.6 863.3C 386.2 862.9 378.2 862.3 368.7 862L 351.5 861.3L 364.8 861.2C 375.8 861 378 860.7 378 859.5C 378 858.3 379.8 858 387.8 858C 400.2 858 408.3 856.7 419.5 852.8C 428.4 849.8 428.6 849.7 438 850.8C 443.2 851.4 454.7 853.5 463.5 855.4C 490.9 861.4 513.7 864.3 526.5 863.6C 532.6 863.3 549.5 862.3 564.1 861.5C 594.8 859.9 601.2 859 637 851.1C 682.8 840.9 690.8 840 740 839C 782.4 838.2 786.8 837.7 794.9 832.6C 803 827.5 813 813.1 813 806.5C 813 804.8 814.4 800.8 816 797.6C 819.4 790.9 819.8 785.2 817.5 777.4C 815.7 771.2 813.2 767.5 799.5 750.5C 787.3 735.4 784 730 784 725.4C 784 717.9 781.1 712.3 770.2 698.6C 764.3 691.2 757.8 683.8 755.7 682.1C 746.9 675.2 732.6 672.4 722.7 675.7L 717 677.7L 718.3 675.6C 719.1 674.4 724.1 665.1 729.4 654.8C 734.8 644.4 739.3 636 739.5 636C 739.7 636 746 636.7 753.7 637.5C 775.5 640 775.9 639.9 788.5 634.3C 794.6 631.5 807.9 625.6 818.3 621C 832.1 614.9 837 612.3 837 611C 837 610 835.9 603.7 834.5 596.9C 833.1 590.1 831.5 581.6 831 578C 830.1 571.7 830.1 571.5 832.8 569.3L 835.5 567.2L 833.2 555.9C 831.9 549.7 830.4 544 829.8 543.3C 829.2 542.6 827.5 542 826 542C 823.3 542 823.3 542 820.7 527.4L 818.1 512.8L 821.6 504.7C 830.8 483.2 833 466.5 829.1 446C 826.4 432.2 818.1 398.5 814.4 386.9C 812.9 382.3 809.6 374.2 807 369C 799.3 353.5 792.2 336.6 789.6 327.2C 788.2 322.4 785.3 309.2 783.1 297.9C 778.8 275.9 775.8 266.1 770.5 256.5C 766.4 249.1 755.7 236.4 751.9 234.5C 747.5 232.2 722.2 228.6 719.4 229.9C 717.9 230.5 715.5 234.1 712.9 239.2L 708.7 247.5L 710.4 253.9C 711.3 257.5 712.2 260.6 712.4 260.8C 712.7 261 713.9 260.5 715.2 259.6C 716.4 258.8 720.1 257.4 723.4 256.6C 728.7 255.2 729.6 255.2 732.5 256.6C 734.3 257.4 736.7 259.1 737.8 260.3C 740 262.7 743 275.4 743 282.9C 743.1 287.3 743.1 287.4 744.6 285.5C 745.9 283.9 746.1 281.7 745.7 274.5L 745.2 265.5L 747.9 268.7C 750.5 271.8 755 282.9 755 286C 755 286.9 753.3 288 750.9 288.8C 748.6 289.5 740.7 293 733.4 296.5L 720 302.8L 719.1 299.2C 718.5 297.2 715.6 284.7 712.5 271.5C 706.3 244.8 703.4 234.7 698.3 221.6C 696.4 216.8 695 212.6 695.2 212.5C 695.4 212.3 704.5 208.1 715.5 203C 726.5 197.9 737.2 193 739.3 192C 743 190.2 743 190.2 743.5 192.3C 746.7 205.9 751 225.9 751 227.4C 751 228.5 751.3 229.1 751.6 228.8C 752.3 228.1 746.4 192.5 745.1 189.4C 743.8 186.3 735.7 184.6 726.6 185.4C 704 187.5 705.5 187.5 698.7 184.2C 692.6 181.2 692.3 181.1 670.4 180.3C 648.4 179.5 648.4 179.5 645.1 176.8C 643.4 175.3 640.1 173.5 637.9 172.8L 633.8 171.6L 606.9 185.3L 580.1 199L 571.8 190.4C 554 171.9 534.4 161.1 512 157.4C 501.8 155.7 495.3 155.8 484 157.5zM 517.9 160.6C 537.7 165.1 554.1 174.9 569.7 191.4C 579.5 201.7 587.8 216.9 588.7 226.2C 589.8 237.3 585 252.5 575.8 266.7C 571.1 273.9 550.8 299.4 542.1 309C 537.3 314.4 537.1 314.4 535.6 312.5C 533.3 309.6 532.6 306.1 533.9 303.7C 536.9 297.7 537.1 295.9 535 291.3C 533.9 288.8 533 285.7 533 284.4C 533 281.4 536.9 278.4 543.9 276.3C 554.3 273 561.2 263.4 559.6 254.5C 558.7 249.9 553 243.5 548.3 241.9C 544.9 240.8 538.6 241 534.5 242.5C 532.5 243.2 532.5 243.1 534.4 241.6C 536.4 240 536.4 240 534.4 240C 529.4 240 524.5 242.5 518.4 248.1C 513.6 252.4 511 254 509 254C 505.1 254 502.9 250.7 503.6 246C 504.3 241.7 503.4 240.7 496.6 238.9C 492.2 237.6 491.5 237.1 490.3 233.6C 488.6 228.6 486.9 226.7 482 224.5C 479.8 223.5 477.9 222 477.8 221.1C 477.5 217.1 478.4 214.3 481.2 210.8C 482.8 208.7 483.9 207 483.5 207C 483.2 207 479.2 209.9 474.7 213.5C 462.7 223.2 462.6 223.1 462 204C 461.6 191.5 461.1 187.8 459.6 184.9C 457.9 181.5 457.9 181.2 459.5 178.7C 461.7 175.3 468.5 172.1 483.5 167.5C 490.1 165.4 495.8 163.4 496.2 163.1C 498.1 161.5 470.2 164.4 463.4 166.5C 461.8 167.1 461.7 167 463.1 166.1C 465.4 164.6 481.5 160.1 488.5 159C 496 157.9 509.3 158.6 517.9 160.6zM 678.5 208.9L 682.5 209.6L 679.2 211.4C 676 213.1 674.9 213 649.2 210.5C 634.5 209.1 622.1 207.7 621.5 207.5C 619.9 206.7 674.1 208.1 678.5 208.9zM 447.5 217.5C 460 223.6 471.2 232.2 483.5 245.1C 493.5 255.5 499.5 263.1 502.1 268.4C 503.9 272.1 503.4 271.8 497.3 265C 475.3 240.7 463.1 229.8 447 220.3C 441.8 217.2 436.2 213.9 434.5 212.8C 429 209.3 435.6 211.6 447.5 217.5zM 428.4 220.4C 435.7 224.7 436.7 226.2 430.2 223C 426.8 221.3 421.6 219.3 418.7 218.5L 413.5 217L 418.9 217.4C 422 217.7 425.9 218.9 428.4 220.4zM 695 227C 696.3 230.2 695.7 233.4 693.8 232.8C 693.2 232.6 692.1 230.5 691.5 228.2C 690.3 224.4 690.4 224 692 224C 693 224 694.3 225.3 695 227zM 689 233.6C 689 235.7 686.2 235.3 685 233.1C 684.5 232 684.3 230.4 684.7 229.4C 685.3 227.9 685.5 227.9 687.2 230C 688.2 231.2 689 232.8 689 233.6zM 607.3 233C 612 238.5 613.2 253 609.8 264.2L 608.7 267.8L 605.6 265.9C 603.9 264.9 601.5 264 600.3 264C 597.6 264 597.5 263.5 599.4 258.4C 600.1 256.2 601.1 251.2 601.5 247.3C 602 242.1 602.6 240 603.8 239.5C 605.2 239 605.2 238.8 604 238C 602.8 237.3 602.8 236.8 603.8 235.8C 605.7 233.9 605.2 233 602.5 233C 600.1 233 599.3 232 600.7 230.7C 602.1 229.2 605 230.2 607.3 233zM 742 234.7C 751.7 236.5 754.1 237.8 757.1 242.6C 759.1 246 759.4 250.6 757.5 250.4C 757 250.3 755.3 251.1 753.8 252.2C 750.6 254.4 750.2 253.5 752.1 248.2C 752.7 246.5 753 244.3 752.8 243.3C 752.5 242 751.8 242.6 750.2 245.6C 748.2 249.6 745.7 251.5 744 250.5C 743.5 250.2 744.1 248.2 745.3 246C 747.4 242.3 747.4 242 745.8 240.3C 744.1 238.7 744 238.7 744 241.3C 744 243.3 743.5 244 742 244C 740.4 244 740 243.3 740 240.6C 740 238.7 739.6 236.8 739 236.5C 738.4 236.1 738 237.7 738 240.6L 738 245.3L 732.4 244.7C 729.3 244.4 726.6 243.9 726.3 243.7C 726.1 243.4 725.6 240.6 725.3 237.5L 724.7 231.7L 729.1 232.4C 731.5 232.7 737.3 233.8 742 234.7zM 464 243.2C 468.7 246.8 475.9 253.3 480.1 257.7C 487.8 265.8 498.4 279.9 497.5 280.8C 497.2 281.1 493.7 278.2 489.7 274.4C 485.8 270.5 479.5 265.7 475.8 263.7C 467.7 259.2 462.2 253.1 461.3 247.6C 460.9 244.9 459.3 242.1 456.6 239.1C 452 234 452.1 234 464 243.2zM 551.9 247.1C 557.3 253.7 558.4 256.6 557.1 260.9C 555.9 265.2 552 269.3 551.3 267.2C 550.9 266.3 549.5 266.1 545.9 266.6C 541.9 267.1 540.6 266.9 539 265.5C 534.4 261.3 536.2 251.4 542.1 248.8C 543.7 248.1 545 247.2 545 246.8C 545 245 543 245.2 539.9 247.3C 530.7 253.5 532.3 266.1 542.9 271.7C 547.7 274.2 546 274.9 540.7 272.6C 533 269.4 529.3 260.3 532.5 252.2C 534.9 246.3 539.1 243 544.3 243C 548 243 548.9 243.5 551.9 247.1zM 765.9 253.5C 768.2 257 770 260.2 770 260.5C 770 260.8 768.4 261 766.5 261C 763.2 261 761.7 259.6 764.2 258.8C 766.1 258.1 764.1 256 761.5 256C 759 256 757.4 254.5 758.9 253.6C 759.3 253.3 760 251.7 760.3 250C 760.7 248.4 761.1 247 761.4 247C 761.6 247 763.7 249.9 765.9 253.5zM 587.8 260.9C 588.4 264.5 577.8 284.9 571.1 293.1C 565.3 300.4 555.9 309.9 557.5 307C 558 306.2 561 301.6 564.1 296.9C 570.8 287 582.5 266 584.1 261.2C 585.3 257.6 587.3 257.4 587.8 260.9zM 408.5 288.6C 410.3 295 414.3 303.3 419.9 312.5C 427.6 325 427.5 324.8 423.1 320.1C 415 311.5 419.4 318.7 429.3 330.2C 436.2 338.3 433.5 337.4 425.8 329.1C 411.8 314 403.9 292 404.1 269L 404.2 260.5L 405.5 271.6C 406.2 277.8 407.6 285.4 408.5 288.6zM 773.4 268.9C 774.6 273.2 774.7 274.6 773.8 275.8C 772.3 277.6 768.9 278.9 767.3 278.3C 765.3 277.5 765.8 275 767.9 275C 770.6 275 771.2 273.7 769.9 270.1C 768.7 266.7 769.5 261.1 771 262.6C 771.4 263.1 772.5 265.9 773.4 268.9zM 605.1 268C 606.1 268.6 607 270 607 271C 607 273.6 597.8 291.4 591.4 301.1L 586.4 308.7L 583 306.3C 581.1 305.1 578.8 304 577.9 304C 577.1 304 576.1 303.7 575.7 303.4C 575.4 303.1 578.8 298.7 583.2 293.6C 592.7 282.9 599.3 270.7 595.9 270.2C 594 269.9 593.5 268.9 594.7 267.7C 595.7 266.6 602.9 266.9 605.1 268zM 643.4 279.4C 644.4 283 644.1 285.7 642.5 287C 641.2 288 641 287.9 641 285.9C 641 284.5 640.1 281.9 639.1 279.9L 637.2 276.4L 640 276.8C 641.8 277.1 643 278 643.4 279.4zM 777.8 282C 779.1 287 781 297.7 781 299.7C 781 300.4 780.1 301 779 301C 776.7 301 776.2 297.2 778.2 295.2C 779.1 294.3 779 294 777.7 294C 775.3 294 773.7 289.5 775.1 286.8C 776.1 284.9 776 284.8 773.7 285.4C 769.9 286.3 769.4 282.7 772.8 279.2C 774.3 277.7 775.8 276.7 776.1 277C 776.4 277.3 777.2 279.5 777.8 282zM 647.8 278.6C 650.1 280.2 650.7 283.4 649 284.5C 648.5 284.8 648 284.4 648 283.6C 648 282.7 647.1 281.1 646 280C 642.7 276.7 643.8 275.8 647.8 278.6zM 636.4 280.2C 637.2 281.5 638.1 283.5 638.4 284.6C 639 286.6 638.5 286.9 632.9 287.9C 617.4 290.6 603.9 300.5 583.7 324C 581.1 327 579 329.1 579 328.6C 579 328.1 580.8 324.5 583 320.5C 585.2 316.5 587 312.7 587 312C 587 310.5 593.7 301.3 599.4 295.1C 605 289.1 611.1 285.1 620.5 281.3C 630.2 277.4 634.4 277.1 636.4 280.2zM 762.7 285.7C 765.9 289.8 767.1 293.6 770.9 311.1C 779.7 351.6 789.1 392.5 793.9 411.5C 802.5 445.7 804 453.6 804 462.9C 804 477.7 799.4 492.3 792.2 501L 789.3 504.4L 786.7 493.5C 785.3 487.4 783.6 479.6 782.9 476C 781.9 470.8 781.5 470 781 472C 780.4 474.2 780.3 474.1 779.6 470.5C 779.2 468.3 778.5 465.8 777.9 465C 776.7 463.2 776.8 463.4 781.5 491.5C 783.5 503 785.2 513.1 785.3 513.9C 785.5 515.6 769.6 524.4 767.7 523.7C 767 523.5 765.3 517.5 763.8 510.4C 748.8 440 749.8 445.4 750.5 435.1C 751.3 424.4 750.5 421.3 746.4 417.5C 743 414.4 743.8 412.3 748.7 411.5C 758.1 409.9 760.3 408.5 761.5 403.7C 762.2 401.1 762.1 401 759.2 401.6C 756.7 402.1 755.5 401.6 752.2 398.5C 747.5 394.3 746.3 391.6 748.1 389.3C 748.8 388.5 753 386.1 757.5 384.1C 761.9 382 766.9 379.1 768.6 377.7L 771.7 375.1L 774.3 385.1C 777.3 396.4 778.7 399.8 781.2 401.4C 783.9 403 784.4 401.4 782.1 398.3C 779.6 394.8 776.3 385.1 775.5 378.4C 775 375 775.4 371.2 776.5 366.6C 778.7 357.9 778.1 352.2 774.1 343.9C 772.4 340.4 771.1 338.2 771.4 339C 771.6 339.8 772.8 344.6 774 349.5C 775.7 355.9 776.1 359.4 775.5 361.5L 774.7 364.5L 773.9 360.3C 772.1 350.9 768.1 347.7 761.3 350.5C 757.4 352.1 756 354.7 756 360C 756 364.6 758.1 368.5 761.8 370.4C 763.9 371.5 764 371.8 762.5 372.3C 761.4 372.8 759.8 372 757.5 369.7C 748.3 360.5 754.8 344.7 766.5 347.8C 770 348.7 770.3 348.7 768.6 347.4C 767.5 346.6 765.1 346 763.3 346L 760 346L 760 334.2C 760 322.3 763.5 296.8 765.2 296.2C 765.7 296 764.5 293.6 762.5 290.9C 760.6 288.2 759 285.5 759 285C 759 283.4 761.2 283.8 762.7 285.7zM 520.8 299.3C 524.9 307.8 528 317.2 528 321.2C 528 325.8 526.8 323.8 523.1 313.1C 521.3 307.9 517.8 299.6 515.4 294.6L 510.9 285.5L 514.3 289.2C 516.1 291.3 519 295.8 520.8 299.3zM 756.2 293.7C 758.8 296.8 759 298.7 757.4 307.2C 756.5 312.3 755.9 321.2 755.9 330.2L 756 345L 750.4 349C 747.4 351.3 742.8 355.9 740.4 359.3C 735.9 365.4 734 367.1 734 365.2C 734 361.9 725.6 321 724.4 318.8C 723.7 317.4 721.6 315.1 719.9 313.7L 716.8 311.3L 723.6 308.6C 730.8 305.7 737.3 301.6 740.5 298C 745.5 292.3 753.2 290.3 756.2 293.7zM 645.1 310.1C 665.8 323.7 682.3 338.1 687.4 346.9C 689.1 350 688.9 349.9 682.9 345C 675.5 339 661.4 331.9 652 329.4C 643.2 327 627.4 327 619.6 329.4C 612.8 331.4 600.4 337.5 591.5 343.1C 588.1 345.2 583.3 347.7 580.9 348.5L 576.5 350L 581 346.1L 585.5 342.2L 582 341.8L 578.5 341.5L 585.9 334.2C 589.9 330.2 597.3 324.3 602.2 321C 612.1 314.4 611.9 313.6 601.8 317.9C 598 319.5 595 320.7 595 320.5C 595 319.8 606.1 312 610 310C 616.9 306.4 625 304.1 630.6 304.1C 635.3 304 636.7 304.6 645.1 310.1zM 783.3 309.8C 784 313.5 783.9 314.4 782.3 315.6C 779.6 317.6 778.6 316.8 777.7 311.5C 777.1 307.9 777.2 306.5 778.2 305.8C 780.8 304.2 782.4 305.5 783.3 309.8zM 582 308.8C 585.1 311.3 584.1 316 580.5 316C 578.4 316 577.4 317.2 574.4 323.2C 569.6 332.8 565.5 339.2 559.2 346.7L 554 352.9L 550 351.2C 547.8 350.3 546 349.2 546 348.8C 546 348.4 548.1 346.5 550.6 344.6C 554.3 341.7 554.9 340.9 553.6 340.4C 552.2 339.9 552.6 339.3 555.4 337.4C 558.4 335.3 565 327.2 565 325.6C 565 325.3 564.2 325 563.3 324.9C 562.2 324.9 562.8 324.3 564.8 323.4C 568.1 322 568.9 320.5 566.8 319.8C 566.1 319.5 567.4 317.5 569.8 314.8C 573.7 310.5 573.9 310.2 571.9 309.7C 568.4 308.8 570.8 307 575.4 307C 578.2 307 580.6 307.7 582 308.8zM 785.4 321.5C 786.2 325.6 785.6 327 783.1 327C 780.5 327 779.7 322.3 781.9 320C 784.2 317.4 784.7 317.6 785.4 321.5zM 788.4 331.6C 788.8 333.1 788.6 334.8 787.8 335.7C 786.7 337 786.5 336.9 785.8 334.5C 785.1 331.7 785.7 329 787 329C 787.4 329 788.1 330.2 788.4 331.6zM 505.1 335C 497.8 338.8 492.2 343.1 496.3 341.7C 498.8 340.8 498.5 341.2 493.5 345.3L 489 349.1L 489 346.4C 489 342.6 495.4 336.8 503.2 333.7C 512.6 329.9 513.5 330.5 505.1 335zM 651.6 333C 664.8 336.4 675.3 342.2 684.7 351.5C 694.5 361.2 699.3 370.1 701.6 383.2C 704.2 397.6 702.2 410 694.9 424C 691 431.5 679.2 447.6 678.3 446.6C 677.8 446.2 681.3 439.4 689.6 425C 694.6 416.1 697 407.7 697 398.6C 697 388.6 692.4 377 688.3 377C 686.5 377 686.6 386.6 688.5 394.5C 690.4 402.3 690.4 405.6 688.5 401.3C 686.8 397.4 682 390.1 682 391.5C 682 392.1 682.7 394.7 683.5 397.4C 685.6 404.4 685.4 418.1 683 427.5C 681.1 435 680.4 436.8 679.7 435.9C 679.5 435.7 679.8 431.3 680.3 426.3C 681.1 419.7 681 416.4 680.2 414.6C 679.1 412.2 670.4 406.3 669.4 407.3C 669.1 407.5 671 409.7 673.5 412.1C 677.4 415.8 678 416.9 678 420.4C 678 422.7 677.7 425.5 677.4 426.7C 676.8 428.9 676.6 428.8 672.2 425C 669.8 422.8 667.3 421 666.9 421C 665.4 421 665.9 422.8 668.4 425.7C 669.6 427.2 671.2 429.5 671.9 430.7C 673.1 433.1 673.3 441.3 672.2 447.3L 671.5 451.1L 668.2 445.5C 666.4 442.5 664.7 440 664.4 440C 664.2 440 665.6 443.1 667.5 447C 669.4 450.8 671 455.4 671 457.2C 671 460.4 671 460.4 667.5 454.8C 661.8 445.7 660.8 446.8 664.6 457.8C 668.6 469.3 668.8 473.9 665.9 486.3L 663.7 495.4L 662 491.9C 658.7 485.7 655.9 483.9 647.8 482.9C 638.5 481.9 635 481.8 635 482.7C 635 483.2 638.9 485.5 643.7 488C 648.5 490.5 654.3 494.4 656.7 496.7C 660.4 500.3 661 501.5 661 505C 661 507.5 660.5 509.3 659.7 509.6C 658.9 509.9 652.6 506.4 645.5 502C 630.4 492.4 628.1 491.4 608.2 486.4C 592.9 482.6 588.7 480.7 601.3 483.4C 605 484.1 608 484.3 608 483.9C 608 482.7 604.7 481.4 594 478.5L 585.5 476.1L 591 476.1C 594 476 600.6 476.6 605.7 477.4C 614.1 478.7 616.1 479.4 629.8 486.9C 638 491.3 645 495 645.4 495C 647.4 495 645 492.6 637 486.6C 627.8 479.8 624 476.3 624 474.8C 624 474.4 626 474.3 628.5 474.7C 631 475 633 475 633 474.6C 633 474.2 630.2 472.6 626.8 470.9C 623.3 469.3 621.6 468.2 623 468.5C 626.4 469.2 666.3 471 666.8 470.5C 667.6 469.7 665.7 467.9 663.2 466.8C 661.7 466.3 652.6 465 643 464C 625.9 462.3 625.7 462.2 634.5 462C 650 461.6 649.7 460.2 634 460C 626 459.9 615.7 459.5 611 459.1L 602.5 458.5L 616.9 457.6C 630.9 456.8 631.4 456.7 634.2 454C 636.2 451.9 637 450.2 637 447.6C 637 442.7 635 441.8 627 443.5C 623.4 444.3 620.1 444.5 619.7 444C 619.2 443.6 621.3 441.4 624.3 439.2C 629.8 435.1 634 430.6 634 428.7C 634 428.1 631.7 428 627.9 428.4C 622 429.1 621.9 429.1 622.2 426.9C 622.4 425.3 624.5 423.4 629 420.8C 636.6 416.3 638.6 416.3 649.8 420.9C 653.8 422.6 657 423.7 657 423.4C 657 423.1 655.9 421.4 654.5 419.5C 651.8 416 641.6 408.7 631.5 402.9L 625.5 399.5L 633.5 398.3C 637.9 397.7 643.6 397.1 646.2 397.1C 654.7 396.9 655.7 395.7 651.2 390.6C 648.6 387.6 648.3 386.4 647.1 373.4C 645.1 353.2 646.2 354.6 632.7 355.4C 626.5 355.7 618.9 356.3 615.8 356.7L 610 357.3L 610 362.1C 610 367.7 611.3 369 613.5 365.6C 615.5 362.5 622.9 359 627.4 359C 630.7 359 630.8 359.1 631.5 364.1C 631.9 366.8 632 369.3 631.9 369.4C 631.7 369.6 627 370.3 621.5 371.1L 611.5 372.5L 611.7 380L 611.9 387.5L 610 376.5C 609 370.4 608.1 362.7 608.1 359.2L 608 353L 614.5 348.3C 618 345.8 620.7 343.3 620.4 342.8C 619.6 341.5 606.7 341.9 601.4 343.4L 596.5 344.9L 599.5 342.4C 611.8 332.3 633.5 328.4 651.6 333zM 790.5 338.9C 790.2 339.5 789.4 340 788.8 340C 788.2 340 788.2 339.4 789 338.5C 790.4 336.8 791.6 337.2 790.5 338.9zM 793 343.9C 793 344.4 795.5 350.1 798.5 356.5C 801.5 362.8 804 368.5 804 369C 804 369.5 803 370.4 801.9 371.1C 800.2 372 799.6 371.9 798.9 370.9C 797.7 368.9 797.8 366.6 799.2 365.2C 800.9 363.5 799.6 362.8 796.7 363.9C 793.1 365.3 792.2 363.5 795 360.5C 797.4 357.9 796.9 355 794.4 357.1C 791.9 359.1 790.2 356.5 792.4 354.1C 793.5 352.9 793.7 352 793.1 351.6C 792.5 351.2 792.3 350.3 792.7 349.5C 793 348.6 792.6 348 791.7 348C 789.8 348 788.8 345.6 790.3 344.1C 791.6 342.8 793 342.7 793 343.9zM 548.9 356.1C 550.9 358 551.8 360.6 550.3 359.8C 547.6 358.6 542 354.7 542 354C 542 352.7 546.8 354.1 548.9 356.1zM 768.8 355.8C 770.5 358 770.3 363 768.3 365.2C 764.8 369.1 759 366.1 759 360.3C 759 354 765.1 351.1 768.8 355.8zM 754.7 371.3C 757.1 373.8 757.2 374.1 755.3 373.1C 751.6 371.2 749 367 749.1 363.1L 749.2 359.5L 750.6 363.9C 751.4 366.4 753.2 369.7 754.7 371.3zM 645.2 371.4C 645.5 372.9 645.2 374.1 644.4 374.4C 642.1 375.3 617.9 377.2 617.2 376.6C 616.9 376.2 617.1 375.6 617.6 375.1C 618.5 374.2 634.3 370.3 639.5 369.7C 641.2 369.5 643 369.2 643.6 369.1C 644.3 369.1 645 370.1 645.2 371.4zM 807.3 375C 807.6 376.3 807.2 377.4 806 378C 802 380.1 800.6 378.2 803.7 374.8C 805.8 372.5 806.6 372.5 807.3 375zM 645.8 382.7C 646.1 388.5 645.9 388.8 642.6 391.8C 638.8 395.1 631.9 397 624.2 396.9L 619.5 396.9L 625.5 395C 628.8 393.9 633.5 392.8 636 392.4C 641.2 391.6 644 390.4 644 388.8C 644 388.1 640.7 388 632.8 388.5C 626.7 388.9 621 389.4 620.1 389.6C 619.2 389.9 620.5 389.1 623 387.9C 625.5 386.8 631.3 384.7 636 383.4C 640.7 382.1 642.9 381.2 641 381.4C 636.7 382 619.6 383.3 619.3 383.1C 619.1 383.1 619 382.7 619.1 382.2C 619.2 380.7 641 375.8 644.5 376.5C 645.1 376.6 645.6 379.4 645.8 382.7zM 812.3 388.7C 812.8 391.4 812.5 392.9 811.3 394.2C 808.8 397 807.8 396.3 809.5 393C 811.4 389.3 811.4 389 809 389C 806.6 389 806.5 388.2 808.6 385.9C 810.8 383.5 811.6 384.1 812.3 388.7zM 443 386.5C 442.3 387.3 441.3 388 440.8 388C 440.2 388 440.3 387.3 441 386.5C 441.7 385.7 442.7 385 443.2 385C 443.8 385 443.7 385.7 443 386.5zM 743 387.2C 743 387.9 742.1 389.8 741 391.5C 739.3 394 739 394.2 739 392.5C 739 388.9 740.2 386 741.6 386C 742.4 386 743 386.6 743 387.2zM 819.4 414.5C 827.8 448.3 829.2 456.2 828.7 467.5C 828.1 478.5 826.9 483.9 821.3 498.9C 817.6 508.9 816 511.3 816 506.5C 816 503.8 813 501.7 810.6 502.6C 808.3 503.5 808.6 506 811 506C 812.6 506 813 506.7 813 509.7C 812.9 512.8 812.7 513.2 811.9 511.7C 810.5 509.3 809.4 510.3 808.6 514.5C 807.8 518.6 806.4 519.8 805.5 517C 804.5 513.9 803.3 514.6 802.7 518.7C 801.7 524.8 797 530 797 525C 797 522.1 795.7 522.5 793.5 526.2C 791.8 529.1 791.6 529.2 790.9 527.4C 790.5 526.4 790.1 526.1 790.1 526.8C 790 528.4 785.5 533 784 533C 783.5 533 783 532.3 783 531.5C 783 529.1 781.4 529.8 780 532.7L 778.7 535.5L 778.1 533.1C 777.5 530.7 777.4 530.7 774.4 534.4C 772.3 537.1 770.6 538.3 768.5 538.4C 766.8 538.5 765 538.9 764.4 539.3C 763.6 539.7 763 539 762.6 537.4C 762.2 535.9 762 534.7 762.2 534.5C 762.4 534.4 767.1 531.9 772.7 529.1C 791.1 519.7 804.5 507.8 810.5 495.6C 814.8 487 818.5 472.4 819.5 461C 820 454.3 820.7 451.7 822.7 448.7C 825.6 444.5 825.2 443 821.8 445.4C 818.2 447.9 817.7 447.4 818.4 441.9C 818.9 438.5 818.8 437 818 437.5C 816.2 438.6 816.9 433.9 819 431.3C 821.5 428.1 820.8 426.9 817 427.7C 813.4 428.4 813 426.5 816 422.7C 818.9 419.1 818.7 416.8 815.5 417.6C 812.6 418.3 812 416.1 814.5 414C 816.6 412.2 816.4 411.1 814 411.7C 812.9 412 812 411.8 812 411.3C 812 410.7 812.9 409.5 814 408.5C 816.5 406.2 816.6 404.7 814.1 405.5C 811.9 406.2 810.6 402.7 812.1 399.9C 812.6 398.9 813 397.1 813 395.9C 813 390.8 815 396.4 819.4 414.5zM 456.9 413C 456.9 415.5 456.6 418 456.2 418.6C 455.8 419.3 455.5 416.4 455.4 412.2C 455.4 408 455.7 405.5 456.1 406.6C 456.5 407.6 456.9 410.5 456.9 413zM 514.5 406.5C 523.6 407.7 523.6 408 514.8 411.2L 506.5 414.1L 498.5 412.5C 494.1 411.6 490.1 410.5 489.5 410.2C 488.1 409.3 504.1 405.1 507 405.5C 508.4 405.7 511.8 406.2 514.5 406.5zM 526.8 411.2C 528.3 412.7 528.4 417.1 526.9 416.7C 526.2 416.6 524.9 419 524 422C 523.1 425 521.1 429.9 519.6 432.9C 516 439.8 515 438.5 515 426.7C 515 418.6 514.9 418 512.9 418C 511.2 418 510.9 418.4 511.4 420.7C 513.7 432 514.9 441.5 514.1 442.3C 513.5 442.9 512.9 441.8 512.4 439.4C 512.1 437.2 510.9 431.2 509.9 426C 508.9 420.8 508.3 416.3 508.6 416.1C 509 415.7 523.9 410.2 525.1 410.1C 525.4 410 526.1 410.5 526.8 411.2zM 528 424.8C 527.4 427.3 525.8 431.2 524.4 433.5C 521.3 438.6 521.3 437.3 524.4 431.2C 525.7 428.6 527.1 424.5 527.5 422C 527.9 419.5 528.5 418.1 528.8 418.8C 529 419.5 528.7 422.2 528 424.8zM 702.6 432.3C 701.9 435.5 700.9 437 692.8 446L 687 452.3L 687 448.9C 687 444.4 691 436.3 695.5 431.7C 697.4 429.7 699 427.3 699 426.3C 699.1 424.8 699.4 424.9 701.1 427C 702.6 428.7 703 430.3 702.6 432.3zM 710.1 454.2C 713.5 467.7 714.5 477.1 712.9 480.5C 711.6 483.2 710.9 483.5 706.4 483.8C 703.6 484 700.1 483.6 698.5 483L 695.6 481.9L 701.5 476C 704.8 472.7 707.2 470 706.9 470C 706.6 470 701.3 472.7 695.1 476C 688.9 479.3 683.2 482 682.4 482C 680.9 482 674 476.2 674 475C 674 474.6 676 473 678.5 471.6C 681 470.1 683 468.7 683 468.3C 683 468 680.9 468 678.3 468.3L 673.5 468.8L 680.5 465.3C 688.3 461.3 696.5 455.3 702.5 449.1C 704.9 446.5 706.8 445.4 707.4 446C 707.9 446.5 709.1 450.2 710.1 454.2zM 725.3 481.7C 726.3 482.7 727 484.7 727 486.8C 727 492.7 718.6 499 710.6 499C 709.1 499 709 498.7 710 497.5C 710.7 496.6 711 495.6 710.6 495.2C 710.2 494.8 709.2 495.4 708.4 496.4C 707.1 498.2 707 498.2 706.1 495.6C 704.8 492.3 703 492.2 703 495.6C 703 499 700.5 498.5 697.2 494.2L 694.7 491L 701.2 491C 712.6 491 721.9 486.3 719.2 482C 718.5 480.9 718 479.7 718 479.4C 718 478.3 723.4 480.1 725.3 481.7zM 500.8 491C 502.7 495.1 503.7 496.1 506.8 497C 508.8 497.5 511.4 498 512.5 498C 515.7 498 517.3 499.6 517.3 502.6C 517.3 505.5 514.8 508.1 509.1 511.2C 506.7 512.5 506 513.6 506 515.9C 506 520.2 508 521.6 515.1 522.4C 520.5 523 521.8 523.6 525.6 527.3C 528.2 529.8 530.2 532.8 530.6 534.5L 531.2 537.6L 523.8 538.8C 519.5 539.6 511.2 542.3 503.6 545.6C 496.6 548.6 490.6 550.9 490.4 550.8C 490.2 550.6 490.8 548.2 491.6 545.5C 492.7 541.9 493 538.7 492.4 534C 491.1 521.8 491.4 518.9 494.9 511.1C 497.9 504.5 498.1 503.3 497.1 499.6C 495.3 492.3 495.1 490.5 495.7 488.2C 496.6 484.7 498.3 485.6 500.8 491zM 692.6 489.8C 693.2 490.2 694 492 694.3 493.8C 694.9 496.9 694.8 497.1 692.7 496.5C 690 495.7 688 493.2 688 490.8C 688 489 690.5 488.4 692.6 489.8zM 614 496.5C 629 500.5 656.2 513.1 656.8 516.4C 657 517.4 656.2 519.2 655 520.5C 653.4 522.2 653 523.6 653.4 525.7C 653.8 527.8 653.2 529.7 651 533.2C 649.3 535.9 647.6 538 647.1 538C 646.6 538 644 536.2 641.4 534C 635.1 528.8 625.6 524 621.5 524C 617 524 612 525.1 612 526.1C 612 526.5 617.4 529.7 624 533.1C 644.8 543.7 645.8 545.4 638.5 559.8C 635.9 564.8 632.3 570.6 630.4 572.7L 627 576.5L 627.6 572.2L 628.3 568L 622.7 568C 617.9 568 616.9 567.6 615.1 565.4C 612 561.4 612.4 559.9 616.3 560.7L 619.5 561.3L 617 558.6C 615.7 557.1 611.2 554 607.1 551.8C 603 549.5 600.1 547.5 600.6 547.3C 602 546.8 616.4 552.1 623.8 555.9C 628.1 558.1 630 558.6 630.8 557.8C 631.7 556.9 632.6 557 634.5 557.8C 636.6 558.8 637.2 558.7 637.7 557.5C 638.4 555.4 635.7 552.5 629 548.2C 626 546.2 624 544.5 624.6 544.3C 625.9 543.9 635.8 547.6 637.7 549.2C 638.7 550 639 549.8 639 548.7C 639 545.3 629.2 539.4 604.9 528.4C 599.2 525.8 591.6 522.6 588 521.3L 581.5 518.9L 588.8 519.4C 596.7 520.1 597 519.8 594.4 514.8C 593 512.1 593 511.8 594.3 512.3C 598.6 513.9 603.9 514.1 610.1 513C 613.9 512.3 617 511.4 617 511C 617 510.6 615 509.7 612.5 509C 610 508.3 606.9 506.9 605.6 505.9C 604.3 504.9 600.9 503.1 597.9 502C 594.9 500.8 592.3 499.6 592.1 499.4C 591.2 498.5 598.7 500.4 603.4 502.2L 608.3 504.1L 603.4 499.6L 598.5 495.1L 603.5 495.1C 606.3 495 611 495.7 614 496.5zM 703 510.5C 700.1 512.2 675.9 520.2 675.3 519.7C 674.2 518.6 699.5 509.1 703.5 509.1C 705.3 509.1 705.2 509.2 703 510.5zM 723.3 521.7C 725.4 524.6 726.3 527.3 726.7 531.8L 727.3 538L 723.4 539.7C 717.5 542.3 708.1 541.9 698.2 538.7C 693.6 537.2 686.8 535.5 682.9 534.9L 676 533.7L 679.2 531.7C 682.9 529.4 717.9 517 719.5 517.4C 720.1 517.5 721.8 519.5 723.3 521.7zM 818.9 529C 820 534.8 821.2 540.3 821.5 541.2C 822 542.4 821 543.2 817.7 544.5C 812.1 546.6 808.1 550.7 807.1 555.2C 806.6 557.3 806.9 561.6 808 566.8C 809.3 573.6 810.2 575.6 813 578.5C 816.2 581.8 816.7 584.6 813.6 582.1C 812.3 581 812.2 581.3 813 584.2C 814.4 588.9 814.3 598 812.9 598C 811.5 598 812.4 607.8 814 609.4C 814.7 610.1 816 609.4 818.1 607.4L 821.3 604.5L 820.6 607.5C 818.6 615.9 817.7 618.1 815.7 619.4C 813.9 620.6 792.3 630 791.4 630C 791.3 630 792.5 628.7 794.1 627.1C 796.2 625 797 623.2 797 620.6C 797 609.9 789.6 606.9 782.4 614.5L 779.2 617.9L 773.5 588.3L 767.7 558.6L 773.8 552.8C 777.2 549.7 781.5 546.3 783.2 545.4C 786.2 543.9 786.1 544.2 781.3 549.3C 775.5 555.4 774.4 558.1 775.4 564.3C 776.5 570.9 778.3 573 783.1 573L 787.2 573L 786.5 564.6L 785.8 556.3L 788.9 555.2C 790.6 554.6 792.2 554.4 792.4 554.8C 792.6 555.2 794 561.1 795.4 568C 796.8 574.9 798.2 581.5 798.5 582.7C 799.1 585.1 801.9 585.9 802.1 583.7C 802.4 579.9 801.5 573.8 798.5 559.5C 796.6 550.7 795 542.6 794.8 541.4C 794.6 539.9 797.4 536.6 805.5 528.8C 811.6 523 816.6 518.3 816.7 518.4C 816.8 518.4 817.7 523.2 818.9 529zM 758.7 540.8C 759.1 544.4 758.9 546 758.1 546C 757.5 546 757 544.9 757 543.6C 757 542.2 756.5 540.8 756 540.5C 754 539.3 748.9 541.1 748 543.3C 747.3 545.3 747.1 545.3 746.5 543.7C 745.5 541.2 744.2 541.6 743.8 544.7C 743.5 547.7 741 549.1 740.9 546.3C 740.9 545.1 740.3 545.7 739.4 547.8C 737.9 551.2 736 551.3 736 547.9C 736 545.1 734.1 545.6 733.4 548.6C 733 550.1 732.2 550.9 731.5 550.6C 730.7 550.3 729.9 550.8 729.6 551.6C 728.8 553.8 727.1 552.4 727.7 550C 728.4 547.4 727.3 547.5 724.9 550.2C 723.3 552.2 723.1 552.2 723 550.7C 723 548.1 721.7 548.6 719.8 552C 717.9 555.4 714.2 556.4 716 553.1C 717.3 550.6 717.3 550 716 550C 715.4 550 714.4 551.1 713.8 552.5C 712.5 555.4 711 555.8 711 553.2C 711 551.8 710.5 552 708.7 554.1C 707.3 555.8 704.7 557.2 701.7 557.9C 679.4 563.2 643.2 563.3 644.2 558.1C 644.5 556.7 647 556.4 661.5 555.9C 684.6 555 694.4 553.1 720 544.6C 737.1 538.9 756.3 533.9 757.3 534.9C 757.7 535.3 758.3 538 758.7 540.8zM 657.5 543.6C 659.2 544.3 662 549 662 551.2C 662 552.2 659.8 552.5 653.5 552.5C 648.8 552.5 645 552.1 645 551.7C 645 551.3 645.9 549.1 647 547C 648.8 543.5 649.5 543 652.4 543C 654.3 543 656.6 543.3 657.5 543.6zM 829.4 548.9C 830.2 551.6 831.1 556.2 831.5 559.2L 832.2 564.5L 829.3 564.7C 827.7 564.7 827.3 564.6 828.4 564.3C 830 563.9 830.1 563.2 829.6 558.7C 829.2 555.8 828.5 551.8 827.9 549.8L 827 546.1L 822.5 547.5C 817 549.1 816.5 547.8 821.8 545.7C 827.3 543.4 827.8 543.6 829.4 548.9zM 735.4 563.8C 738.5 569.9 740 578.7 740 591.6C 740 614.1 735.1 635 724.2 659.5L 721.5 665.5L 721 652.5C 720.5 638.3 719.2 634.2 712.9 627L 709.9 623.5L 711.6 627.5C 716.6 639.9 717 642.3 713.5 639C 712.1 637.7 709.2 632 706.9 625.9C 703.8 618 701.8 614.2 699.1 611.6C 694.9 607.5 677.8 597.8 670.6 595.4L 665.7 593.7L 669.1 591.9C 671 590.9 673 590.1 673.7 590C 675.2 590 683.8 595.2 694.5 602.5L 702.5 608L 696.5 602.3C 689.6 595.8 690.2 596.1 709 608.2C 714.7 611.9 719.7 614.6 720 614.3C 721.2 613.1 700.3 596.3 690.9 590.9L 685.5 587.9L 694 588.5C 698.7 588.9 705.4 589.6 709 590.1C 719.2 591.5 725 591.3 725 589.5C 725 586.5 720.3 584.9 706.9 583.4C 699.5 582.6 691.3 581.3 688.5 580.6C 683.9 579.3 684.8 579.2 700.5 579.7C 716.7 580.2 729 579.1 729 577.1C 729 576.7 725.1 575.6 720.3 574.7C 715.4 573.8 709.7 572.5 707.5 571.9L 703.5 570.7L 712.2 568.4C 717 567.1 723.5 565 726.7 563.6C 729.9 562.2 732.8 561.1 733.2 561C 733.6 561 734.6 562.3 735.4 563.8zM 594 569.6C 610.5 577.6 620 583.2 618.2 583.8C 617.7 583.9 614.6 583.4 611.3 582.6C 601.9 580.2 594.5 579.7 589.1 581C 585 582 583.7 581.9 581.1 580.6C 577.6 578.8 575.7 575.9 576.6 573.6C 577 572.6 575.8 571.2 573.1 569.4C 570.8 567.9 569 566.4 569 565.9C 569 564.7 574.1 562.1 576.5 562C 577.6 562 585.5 565.4 594 569.6zM 660 573.3C 632 581.9 626 583.6 626 583.1C 626 582.8 627.5 580.9 629.3 578.9C 631.7 576.3 633.9 575 636.8 574.5C 643.8 573.4 654.3 572.3 659 572.2L 663.5 572.2L 660 573.3zM 828.5 577.7C 828.9 580.4 829.6 584 830.1 585.9C 830.5 587.8 830.7 589.6 830.5 589.8C 830 590.3 829.8 589.8 827.3 581.5L 825.5 575.5L 825.2 580.2C 825 582.7 824.3 585.4 823.5 586C 821.8 587.4 821.5 586.8 820.6 580.2C 820.1 576.7 820.3 575.9 821.7 575.4C 822.7 575.1 824.2 574.5 825 574C 827.5 572.5 827.9 572.8 828.5 577.7zM 434.4 584.1C 437.2 587.3 437.3 587.9 436.4 590.4C 435.4 592.9 433.2 592.3 431.5 589C 430.7 587.4 429.1 585.6 427.9 585C 426.3 584.1 426.1 583.6 427.1 582.4C 428.9 580.2 431.6 580.8 434.4 584.1zM 579.3 593.6C 590.1 598.6 599 602.4 599 602C 599 601.5 596 598.8 592.4 595.9C 588.7 593 586.1 590.5 586.7 590.3C 587.2 590.1 594.6 589.4 603.2 588.7L 618.8 587.4L 616.8 590.3C 613.9 594.4 604 604.9 602.1 605.9C 601.1 606.5 598.8 606.2 596 605.3C 591.8 603.9 551 582.2 551 581.4C 551 580.7 559.6 584.4 579.3 593.6zM 824.8 592.1C 824.3 595.1 824.4 595.2 827.8 594.5C 830.4 594 831.1 594.2 830.8 595.2C 830.2 596.8 824.7 600.1 822.2 600.3C 821.1 600.3 819.4 601.7 818.4 603.2C 816 606.7 815.4 606.7 814.6 603.3C 814 601.2 814.5 600.2 817 597.8C 818.7 596.3 820.5 595 821.1 595C 821.6 595 822 593.6 822 592C 822 589.9 822.5 589 823.6 589C 824.8 589 825.1 589.7 824.8 592.1zM 574.8 612.8C 574.6 613.7 573.5 614.6 572.4 614.8C 570.8 615 570.4 615.7 570.7 617.4C 571.5 621.3 567.8 623 558.5 623C 551.2 623 530.6 620 529.4 618.7C 529.1 618.5 532.9 617.7 537.7 617C 552.1 614.9 550.5 614 529.7 612.4C 524.3 612 521.4 611.4 522.2 610.9C 524.1 609.7 532.4 609.8 537.7 611.1C 541.1 612 544.6 612 551.7 611.1C 564.7 609.5 564.9 609.4 560.4 603.6L 556.7 598.8L 565.9 605C 572.3 609.2 575 611.6 574.8 612.8zM 440.4 601C 438.8 602.6 425 607.1 423.8 606.4C 422.4 605.5 424.9 604.1 432 601.9C 438.3 599.9 441.9 599.5 440.4 601zM 833.8 609.4C 833.6 610.6 831.6 612.1 828.2 613.6L 823 615.9L 823.6 610.2C 824 607.1 824.7 604 825.3 603.5C 826 602.8 826.1 603.1 825.7 604.2C 825.3 605.4 825.6 606 826.5 606C 827.6 606 827.6 606.5 826.3 609C 825.5 610.7 825 612.6 825.3 613.3C 825.8 614.8 831.9 604.2 832.1 601.5C 832.2 600.4 832.6 601.3 833.1 603.5C 833.7 605.7 833.9 608.3 833.8 609.4zM 828.2 604.2C 827.5 604.9 827 605 827 604.4C 827 603 828.2 601.8 828.9 602.5C 829.1 602.8 828.8 603.6 828.2 604.2zM 462.4 608.2C 462.7 610 463.2 614 463.4 617L 463.9 622.5L 462.6 617.4C 460.4 608.9 459.8 605 460.8 605C 461.4 605 462 606.5 462.4 608.2zM 660.8 608.6C 671.3 613.8 687 631 693.8 644.6C 699.4 655.8 703.5 676.1 701.2 682C 700.4 684.1 700.2 683.5 699.6 678.2C 698.8 671.1 696.5 663.9 692.5 656C 689.5 650.1 683.9 641.8 683.3 642.4C 683.1 642.6 684.3 646 685.9 650L 688.8 657.3L 685.5 662.8C 676.4 677.8 660.1 695 654.9 695C 653.3 695 652 695.3 652 695.6C 652 695.9 653.3 699.2 655 702.9C 657.7 709.3 660.5 718.9 659.7 719.6C 659.5 719.8 657.2 715.6 654.5 710.3C 646.1 693.7 634.1 679 620.8 669C 611.3 661.8 593.5 652.9 583.1 650.1C 579 649 575.5 647.8 575.2 647.5C 574.2 646.5 581.5 647 589.7 648.6C 601.6 650.8 602.7 650.2 595.2 645.5C 591.7 643.3 587.9 640.7 586.7 639.7C 584.5 637.9 584.5 637.9 588 638.4C 593 639.3 604.5 644.9 607.2 647.7C 609.3 650 616 654 617.6 654C 617.9 654 616.1 652.5 613.4 650.7C 607.7 646.8 606.8 645 610.4 645C 611.8 645 613 644.7 613 644.2C 613 643.1 606.9 639.9 605.9 640.6C 605.4 640.9 605.1 640.6 605.2 639.9C 605.5 638.7 597.4 633.8 593.1 632.7C 590.8 632.1 590.8 632.1 592.6 629C 593.7 627.3 595.7 624.8 597.1 623.4C 599.5 621.1 600.1 620.9 603.7 621.9C 608.8 623.3 623.8 632.7 626.3 636.2C 628.3 638.8 628.2 641.7 626 645C 625.2 646.2 624.7 646.3 623 645.2C 620.7 643.8 620.6 644 622.1 647.3C 623 649.4 622.8 650.7 620.6 655C 617.6 661.1 617.3 662.4 619.9 659.3C 620.9 658.1 623 655.6 624.5 653.9L 627.1 650.7L 631.3 652.9L 635.5 655.1L 631.7 651.6C 626.9 647.3 627.6 645 632.6 648.1C 634.5 649.3 636.4 650 636.7 649.7C 637 649.3 635.7 648.1 633.7 647C 627.9 643.6 628.2 642 634.3 642.7C 641.5 643.5 644.4 645.5 656.1 657.8C 667.3 669.6 667.4 669.5 657.7 656.8C 649.6 646.3 640.3 638 624.7 627.6L 613 619.6L 613 613.7L 613 607.8L 617.8 608.5C 624.8 609.5 633.5 614 642.2 621.2C 665 640.1 670 644 670 642.9C 670 642.2 663 634.8 654.5 626.4C 646 617.9 639.6 611 640.3 611C 641 611 644.4 611.9 647.9 613.1C 651.3 614.3 654.4 615 654.7 614.7C 655 614.4 654.3 612.6 653.1 610.7C 652 608.8 651 607 651 606.6C 651 605.2 656 606.2 660.8 608.6zM 695.3 613.3C 696.5 614.3 697.1 615 696.5 614.7C 694.4 613.9 683 606.7 683 606.3C 683 605.7 692.7 611.2 695.3 613.3zM 442 612.7C 442 616.5 441 617.6 437.5 618.3C 435.9 618.6 433.6 619.1 432.5 619.5C 430.8 620 430.3 619.4 429.3 616.3C 428.7 614.2 428.3 612.3 428.5 612.1C 429.2 611.5 435.5 610.2 438.8 610.1C 441.7 610 442 610.3 442 612.7zM 791.3 618.7C 790.2 620.2 789 622.2 788.7 623C 788.3 624 788.1 623.9 788.1 622.4C 788 620.2 791.8 614.5 792.7 615.4C 793 615.7 792.3 617.1 791.3 618.7zM 584.4 626.9L 579.7 632.9L 576.1 630.2C 574.1 628.8 572.3 627.5 572.2 627.4C 571.6 627 578.3 623.8 583.5 621.9C 586.2 620.9 588.6 620.3 588.8 620.5C 589 620.7 587 623.5 584.4 626.9zM 784.7 630.2C 785.6 631.2 785.9 632 785.4 632C 783.4 632 782 630.2 781.5 627C 781 623.8 781 623.7 782 626C 782.6 627.3 783.8 629.3 784.7 630.2zM 565.1 629.6C 572 631.7 576.3 635.9 575.4 639.7C 573.9 645.9 573.3 646.3 567.1 645.6C 564 645.2 557.8 644.5 553.3 643.9C 548.8 643.4 543.8 642.4 542.3 641.8C 538 639.9 529.8 634.8 530.3 634.3C 530.6 634.1 536.9 635.3 544.4 636.9C 557.9 640 567 640.8 567 639.1C 567 638 563.5 635.6 554.5 630.7L 547.5 626.9L 553.7 627.5C 557.2 627.8 562.3 628.8 565.1 629.6zM 438.5 631C 433.4 634.2 427.7 636.3 428.2 634.8C 428.6 633.6 438.2 629.1 440.5 629C 441.1 629 440.1 629.9 438.5 631zM 516.6 639.6C 520 641.5 526 643.6 530.1 644.5C 534.2 645.3 541.4 647 546.3 648.4C 553.4 650.4 555 650.6 555 649.4C 555 647.9 560.8 647.6 566.3 648.9C 569.1 649.5 569.1 649.6 560.9 657C 556.3 661.1 552.1 664.3 551.5 664.1C 551 663.9 548 663.1 545 662.3C 531.7 658.8 509.4 644.4 504.2 636L 501 630.8L 505.7 633.6C 508.4 635.1 513.2 637.8 516.6 639.6zM 601 638C 601.8 638.5 602.1 639 601.5 639C 601 639 599.8 638.5 599 638C 598.2 637.5 598 637 598.5 637C 599.1 637 600.2 637.5 601 638zM 510.5 650.6C 514.9 653.1 520.8 656.5 523.5 658C 526.3 659.6 533.1 662.3 538.8 664.1C 544.4 665.8 548.8 667.5 548.6 667.7C 548.3 668 544.3 667.7 539.6 667.1C 525.8 665.2 522 667.6 530.6 672.6C 535.2 675.3 535.2 675.4 534.6 679.7C 534.1 683.6 530.2 692.7 527.7 695.8C 526.2 697.7 524.9 695.1 526.2 692.7C 526.9 691.2 526.9 690.5 525.9 689.9C 524.1 688.8 521 688.8 521 689.8C 521 690.3 518 689.2 514.4 687.3C 510.7 685.5 506.6 684 505.3 684C 503.9 684 500.2 682.6 497.1 680.9L 491.5 677.8L 496.3 682.4C 498.9 684.9 503.6 688.1 506.8 689.6C 520.1 696 523 699.5 523 708.9C 523 714.1 520.5 719 516.5 721.6C 514 723.2 513.5 723.1 499.6 718.2C 485.8 713.3 445.3 694.2 451.5 695.5C 456.1 696.5 477.8 704.1 494.5 710.5C 511.1 716.9 517 718.2 517 715.7C 517 714.8 515 712.9 512.6 711.5C 507.1 708.3 504.6 705.5 505.4 703.5C 505.9 702 505.2 701.9 498.6 702.5C 492.4 703.1 490.5 702.9 486.8 701.2C 482.8 699.5 482.2 698.7 481.6 695.4C 480.4 689.2 478.6 687.2 472.2 685.5C 463.1 682.9 463.3 683 465 682C 465.8 681.4 468.2 681 470.3 681C 475.1 681 475 679.6 470 674.9C 464.8 669.9 464.8 668.6 470.3 669.3C 473 669.7 476 669.4 478.6 668.4C 484.1 666.3 491.6 667.8 500.8 672.7C 504.5 674.7 512.8 678.4 519.3 681C 532.2 686.2 532.9 686 528.5 678.4C 527.1 676.1 525.4 671.3 524.8 667.8C 523.5 661.7 523.3 661.4 518 657.8C 515 655.8 509 652.3 504.7 650C 498.3 646.8 497.4 646 499.7 646C 501.3 646 506.1 648.1 510.5 650.6zM 472.5 655.5C 469 657.1 465 657.4 465 656.1C 465 655 468 654.3 472.5 654.2L 475.5 654.2L 472.5 655.5zM 585.2 659.4C 602.1 665.7 618.8 676.7 632.6 690.4C 642.9 700.8 648.3 709.1 649.6 717.2L 650.1 720.5L 648.3 718C 642 709.3 637.3 703.6 636.2 703.2C 635.4 703 635.8 705.1 637.5 709.7C 641.3 719.7 642.1 724.1 640.9 728.4C 639.7 732.8 638.5 732.4 637.7 727.2C 637 723 628.6 708.6 622.8 701.6C 620.7 699.1 616.1 695.2 612.5 692.8C 608.9 690.5 606.4 688.4 606.9 688.2C 607.4 688 610.3 688.5 613.4 689.4C 616.5 690.2 618.8 690.4 618.5 690C 617.8 688.9 609.8 686.3 604.5 685.4L 600.5 684.7L 613.1 697.6C 620 704.7 626.5 712 627.5 713.9C 629.4 717.7 633 727.7 633 729.4C 633 730 630.2 727.8 626.9 724.5C 623.5 721.2 621.1 719.4 621.5 720.5C 624.7 729.2 626 733.7 626 736.4C 626 739.4 626 739.4 623.1 734.7C 620 729.9 613.5 724.6 606.2 721C 599.2 717.5 599.3 719.3 606.3 723.9C 613.8 728.8 619.9 735 621.9 739.7C 623.1 742.6 623 743.3 621.3 746.2L 619.4 749.5L 608.4 750.1C 593.3 750.9 584.7 754.2 571.9 763.8C 566.6 767.8 561.8 771 561.1 771C 559.6 771 556.1 767 556 765.3C 556 763.1 570.4 756.1 581.5 753.1C 587.6 751.5 595.2 749.1 598.5 747.8C 603.8 745.8 604.2 745.5 601.6 745.2C 597 744.6 582.2 746.9 576.9 749.1C 573.2 750.5 570.6 750.9 566.7 750.4C 563.3 750 557.9 750.5 550.7 751.9C 544.8 753.1 539.2 754 538.4 754C 536 754 536.9 752.3 540 751C 541.7 750.3 543.2 749.4 543.5 749C 543.8 748.6 537.8 748.4 530.2 748.6C 520.9 748.9 517.4 748.7 519.3 748.1C 520.9 747.6 530.1 746.8 539.8 746.5C 558.4 745.8 559.8 745.6 572.3 740.8C 584.9 736 581.8 733 566.1 734.8C 561.2 735.4 556.2 735.6 554.9 735.4C 551.2 734.5 547.9 732.7 548.3 731.7C 548.7 730.3 559.4 726.2 565.9 724.9C 572.2 723.7 573.3 723.9 586.8 728.9C 595.7 732.3 597.4 732.3 590.8 728.9C 583.3 725.1 574.1 722 562.4 719.5C 548.6 716.5 544.6 714.7 553.5 715.4C 556.8 715.7 563 716.2 567.3 716.6L 575.2 717.2L 574.5 714.8C 573.3 710.9 570.9 709.4 557.5 704C 541.7 697.8 540.9 697.4 543 696C 545.6 694.3 558.1 694.9 565.9 697C 569.9 698.2 573.4 698.9 573.6 698.7C 574.3 698 562.7 691.7 556.9 689.5C 551.1 687.4 550.9 687.3 552.6 685.6C 554 684.1 555.4 683.9 560 684.4C 565.2 685 565.7 684.9 568.4 682.1L 571.2 679.2L 567.6 672.7C 563.4 665.2 563.2 663.1 566.3 660.3C 570.7 656.3 576.3 656 585.2 659.4zM 693.8 665C 695.6 667.8 696 669.6 695.9 676.4C 695.9 681.8 695.3 686 694.1 688.9L 692.3 693.3L 691.8 686.9C 691.5 683.4 690.1 677.6 688.7 674.1C 686.2 668.2 686.2 667.6 687.5 664.3C 689.2 660.2 690.6 660.4 693.8 665zM 686.8 685.6C 687.4 696.7 685.9 700.8 684.1 693.4C 683.4 690.7 681.7 685.9 680.3 682.7L 677.7 676.9L 680.6 673.9L 683.4 671L 684.9 673.7C 685.7 675.2 686.5 680.5 686.8 685.6zM 442.6 683C 441.4 687.2 441.1 687.5 437.4 687.8L 433.5 688.1L 438.4 683.1C 441.2 680.3 443.5 678.2 443.6 678.3C 443.8 678.5 443.3 680.6 442.6 683zM 747.6 680.5C 753.6 683 758.5 687.6 768.3 699.8C 780.8 715.4 780.8 715.4 782.4 724.8C 784.1 734.4 785.6 737.3 795.6 749.6C 803.4 759.2 805.5 763.8 799.4 757.9C 795 753.8 781.3 737.1 777.7 731.5C 776.1 728.9 774.8 724.9 774 720C 772.6 710.8 770 706.1 760.7 696.3C 753.2 688.4 745.3 683 741 683L 738.5 682.9L 740.9 681C 743.7 678.6 743.2 678.6 747.6 680.5zM 678.4 687.2C 681 693 682.2 699.1 681.1 700.8C 680.7 701.4 678.9 702.1 677.1 702.2L 673.7 702.5L 671.7 694.9C 669.7 687.4 669.7 687.2 671.6 684.7C 674.4 680.8 675.8 681.4 678.4 687.2zM 746.7 692.1C 754.2 695.7 757.3 705.4 755 718C 753.2 728.3 740.6 759.2 735.6 765.5C 734.4 767.1 734.5 766.2 736 761.5C 739.4 751.6 742 736.7 742 727.7C 742 718.6 741.2 713 740 713C 738 713 734.1 730.2 733.9 739.4C 733.8 743.5 733.6 744 733 742C 732.6 740.6 732.2 737.9 732.1 736C 732 731.2 730.1 725 728.9 725C 728.2 725 728.1 730.7 728.6 742.4C 729.2 758.5 729.1 760.3 727.1 766.8C 725.2 773.1 723.6 775.9 722.5 774.9C 722.3 774.7 722.6 770.4 723.1 765.5C 725.1 745.7 719.2 727.2 706.4 713.1C 704.4 710.8 703 709 703.3 709C 703.6 709 707.2 711.6 711.3 714.9C 719.3 721.3 721.9 722.5 725.6 721.6C 731.3 720.1 732.4 710.3 728.1 698.9L 726.1 693.8L 730.3 691.9C 735.8 689.5 741.4 689.5 746.7 692.1zM 669.4 698.3C 671.5 704.5 671.4 705.8 668.9 709.9L 666.9 713.2L 662.9 705.4C 658.6 696.8 658.4 696 660.3 696C 660.9 696 662.6 695.1 664 694C 667 691.8 667.3 692 669.4 698.3zM 765.4 708.1C 766.8 710.6 768.7 715.6 769.6 719.1C 772.5 730.3 775.8 735.2 792.2 752.5C 797.4 758 802.2 763.5 802.8 764.6C 803.9 766.7 803.8 766.8 795.1 767.2C 787.3 767.6 785.4 768.1 777.5 771.8C 771.2 774.8 767.9 775.9 766 775.5C 763.5 775 760.2 775.9 751.5 779.5L 747.5 781.1L 750.2 778.8C 757.9 772.3 778.7 753.5 778.5 753.2C 778.4 753 775.8 754.3 772.9 756.1L 767.5 759.2L 770 756.4C 771.4 754.9 773.6 752.6 775 751.4C 778.2 748.5 775.9 748.2 771.9 751.1C 770.3 752.2 764.9 756.7 759.8 761C 754.7 765.4 750.4 768.7 750.2 768.5C 750 768.3 751 766.5 752.5 764.6C 755.5 760.6 755.1 760.1 751.2 762.8C 746 766.4 745.7 766.5 747 763.9C 747.7 762.6 751.2 756.6 754.8 750.6C 761.3 739.8 767 725.9 767 721C 767 719.2 765.6 721.1 762.2 727.5C 757.6 736.1 746 755 746 753.8C 746 753.5 748.2 748.5 750.9 742.8C 759.2 725.2 761.3 718.2 760.8 710.2C 760.5 704.8 759.8 702.3 757.7 698.9L 754.9 694.5L 758.9 699C 761.1 701.4 764 705.5 765.4 708.1zM 439.6 703.4C 437 710.3 435.6 713.2 430.3 722.8C 425.6 731.1 424.9 730.1 429.3 721.4C 431.2 717.6 434.2 711.1 436 707C 441 695.5 443.5 693 439.6 703.4zM 693.6 711.5C 702.3 716.6 711.9 731.6 715.6 746C 716.7 750 717.4 756.7 717.4 763.5C 717.5 774.1 717.4 774.7 714.2 780.9C 710.9 787.2 709 788.8 711 783.6C 712.2 780.4 712.4 772 711.2 772C 710.8 772 709.9 775 709.2 778.6C 707.9 785.3 705.3 792.7 704.5 791.9C 704.3 791.6 703.6 786 703 779.4C 702.4 772.9 701.1 764.3 700.2 760.5L 698.5 753.5L 697.9 768C 697.3 783.5 695.8 792.7 693.1 797.5L 691.5 800.5L 691.2 797C 690.4 786.6 687.5 771.6 684.9 764.9C 681.4 755.8 669.6 738.4 663.5 733.4C 659 729.8 657.5 725.8 660.3 724.7C 660.9 724.5 664.4 722.1 668 719.4C 674.3 714.6 674.6 714.5 681.6 714.5L 688.8 714.5L 687.4 711.7C 686.1 709.3 686.1 709 687.6 709C 688.6 709 691.3 710.1 693.6 711.5zM 509.9 725.9C 511 726.6 510.9 727.9 509.1 733.1C 506.1 742 505.7 742.5 503.5 740C 501.9 738.2 501.8 737.5 502.9 733.8C 505.7 724.7 506.5 723.8 509.9 725.9zM 462.1 737.6C 460.9 740.2 459.8 742.1 459.5 741.8C 459.2 741.6 459.9 739.6 461 737.5C 462.1 735.3 463 732.9 463.1 732C 463.1 731.1 463.3 731 463.6 731.7C 463.9 732.4 463.2 735 462.1 737.6zM 655 732C 656.6 732 669 742.8 673 747.6C 679.5 755.5 685.9 773.2 687.5 787.7C 688.1 792.6 687.8 794.4 686 798.3C 683.6 803.4 681.4 805.8 683 801.5C 684.7 797.1 684.1 787.6 681.4 774.8C 677.1 754.2 676.4 756.2 679.6 780.3C 681.4 794.4 681.4 804.8 679.4 808L 677.9 810.5L 678.4 808C 680.9 796.8 679.8 790.5 672.2 775C 667.3 765 666.8 768.5 671.3 781C 676.9 796.4 676.9 797.2 671.5 807.7C 669 812.7 665.6 818.2 664 820.1L 661 823.5L 661.6 819.3C 662.1 815.8 661.7 814.3 658.8 809.1L 655.4 803L 653.5 808.8C 652.5 811.9 651.1 817.1 650.4 820.3C 648.9 826.7 646 833 643.6 834.9C 642.8 835.6 643.4 833.8 645 830.8C 648.3 824.9 649 819 646.4 819C 645.5 819 641.5 822.1 637.6 826C 633.6 829.8 630.1 833 629.8 833C 629 833 629.7 829.8 632.8 820.5C 635.2 813.5 635.5 811 635.4 799.9L 635.4 787.4L 643.4 787.8C 653.9 788.3 659.4 786.8 664.2 782C 668.3 778 669.7 774.1 665.8 777.8C 663.4 780 658.9 782 656.4 782C 655.4 782 655 780.6 654.9 776.7C 654.9 773.9 654.5 770.6 654 769.5C 653.5 768.2 653.2 770.1 653.3 775L 653.5 782.5L 649 782.3C 640.7 782 633.9 780.9 632.9 779.7C 632.4 779 631.2 777.6 630.4 776.5C 629 774.6 628.9 774.7 629.5 778.1C 630.1 782 630.1 782 621.1 784.9C 616.8 786.3 616.7 786.3 617.4 784.5C 617.7 783.6 618.4 776.8 619.1 769.2C 620.2 754.7 621.2 749.5 623.2 746.7C 624.4 745.1 625 745.4 630.8 750.1L 637.2 755.2L 634.6 750.4C 630.9 743.4 631.2 741.8 636.8 738.1C 643.4 733.9 644 733.9 656.3 739.4C 659.4 740.8 662 741.6 662 741.1C 662 740.6 659.4 738.1 656.3 735.5C 653.1 732.8 651.3 731 652.3 731.3C 653.3 731.7 654.5 732 655 732zM 482.9 740.6C 481.2 744.4 479.4 749.3 479 751.5C 478.2 754.8 478.2 754.4 478.6 749.5C 479 745.3 480.1 742 482.3 738.3C 484 735.4 485.6 733.2 485.7 733.4C 485.9 733.6 484.6 736.8 482.9 740.6zM 464.9 743.5C 462.5 748.8 461.4 750.4 461.2 749C 460.7 745.9 466.1 733.7 467.3 734.9C 468 735.6 467.1 738.5 464.9 743.5zM 502.5 743.9C 503.1 744.9 501.1 750 500 750C 499.7 750 499.6 748.4 499.8 746.5C 500.2 743.1 501.3 742 502.5 743.9zM 618 752.9C 618 756.8 615.6 759.1 608.4 762.5C 599.6 766.5 587.4 775.3 583.6 780.3C 579.6 785.6 580.5 785.6 586.8 780.2C 594.1 774 599.8 770.1 608 766C 613.7 763.1 614.3 763 612.5 765C 611.4 766.2 608.5 768.6 606 770.3C 603.5 772 599.6 775 597.3 777.1C 593.3 780.8 587.8 784 583.3 785.4C 581.6 786 580.4 785.5 578.5 783.4C 576.7 781.4 575.4 780.9 573.4 781.3C 570.8 781.8 570.8 781.7 571.2 777.5C 571.8 772.3 575.1 767.8 582.8 761.8C 588.7 757.1 593.7 754.3 598 752.9C 601.6 751.8 618 751.8 618 752.9zM 477 757.9C 475.8 760.3 474.1 761.4 473.2 760.5C 472.8 760.2 473.6 759 475 758C 478.1 755.6 478.3 755.6 477 757.9zM 813.7 773.4C 816.6 779 817.1 787.5 814.9 792.5C 813.7 795.3 813.5 795 813 786C 812.5 777.9 811.9 775.6 809.2 770.3C 807.4 766.9 806 763.7 806 763.3C 806.1 761.8 811.1 768.5 813.7 773.4zM 615.7 774.8C 615.3 778 614.8 781.4 614.4 782.3C 613.6 784.4 610 784.6 610 782.6C 610 780.2 608.2 779.8 604.9 781.5C 603.2 782.4 601.6 782.9 601.3 782.7C 600.2 781.6 613.5 769 615.8 769C 616.1 769 616 771.6 615.7 774.8zM 803.5 771.4C 805.8 772.4 807.6 774.2 809.1 777.2C 811.3 781.4 812.1 788.5 810.6 790.8C 809.1 793.3 795.7 796.5 786.5 796.5C 774.5 796.5 759.9 795 760.6 793.9C 760.9 793.4 762.6 793 764.5 793C 766.4 793 770.1 792.6 772.7 792.1C 809.6 784.9 808.5 785.2 805 783.8C 801.9 782.6 797.1 783.4 784.6 787.1C 779.1 788.7 773.3 790 771.6 790C 769 790 769.8 789.4 776 786.7C 784.4 783 794.6 777.4 795.5 775.9C 795.9 775.4 794.5 775 792.6 775C 790.6 775 789 774.6 789 774.1C 789 773 794.5 770.8 799.3 770.1C 799.7 770.1 801.6 770.6 803.5 771.4zM 727.2 781.5C 728.7 784.3 730 787.7 730 789.1C 730 793.5 727.8 794.4 717 794.4L 707.2 794.5L 710.9 790.5C 712.9 788.3 716 784.1 717.9 781.2C 720.1 777.8 721.8 776 722.9 776.2C 723.8 776.4 725.7 778.8 727.2 781.5zM 631.6 788.6C 632.6 792.4 631.2 807.1 629 817.9C 626.8 828.4 623.7 834.8 620 836.7C 617.6 837.9 606 838.6 606 837.5C 606 837.2 607.8 834.6 610.1 831.8C 617.2 822.8 622.3 811 623.5 800.3C 623.9 797.1 624 794.7 623.7 795C 623.4 795.3 621.7 799.4 620.1 804C 616.9 813 613.1 822 612.5 822C 612.3 822 612.8 819.8 613.5 817.1C 616.8 804.7 616.3 795.2 612.4 796.7C 611.6 797 608.6 800.7 605.8 804.9C 599.4 814.6 596.5 817.7 591.7 820.2C 587.1 822.5 586.4 822.1 588.3 818.3C 591.5 812.1 593.1 805.3 593.9 794.7C 594 794.3 594.6 794 595.4 794C 596.2 794 597.1 793.6 597.4 793.2C 597.7 792.7 595.8 792.5 593.1 792.8C 590.3 793 588 792.8 587.6 792.2C 586.2 789.9 599.8 788 605.7 789.6C 607.9 790.2 607.8 790.4 603.5 795.2C 600.5 798.6 599 801.1 599.1 802.9L 599.1 805.5L 600.8 803C 603.6 798.9 609.2 793 611.4 791.8C 613.2 790.8 628.2 786.3 630.2 786.1C 630.6 786 631.3 787.2 631.6 788.6zM 810.9 797.7C 810.4 800.4 809.3 803 808.5 803.6C 806.6 805 806.6 806 808.5 806C 811.1 806 810.2 810.1 806 817.2C 800.1 827 796.9 829.2 786.2 830.1C 781.4 830.5 774.3 830.9 770.4 830.9L 763.3 831L 762.1 826.8C 761.4 824.5 760.1 821.6 759.3 820.3C 757.7 817.9 758.7 817.1 760.8 819.2C 761.4 819.8 762.3 820 762.7 819.6C 763.1 819.2 762.8 818.5 762 818C 756.5 814.8 750.8 809.2 754.3 810.5C 755 810.8 759.7 811.9 764.9 813C 777.9 815.8 780.4 818.2 771.5 819.5C 769.1 819.9 766.3 820.8 765.3 821.5C 763.6 822.8 763.6 823 765.1 824.5C 767.3 826.8 780.6 827.6 788.2 826.1C 794.4 824.8 797 822.4 797 818.2C 797 816.7 798.1 815.3 800.5 813.9C 804.8 811.3 805 809.6 801 810.2C 797 810.8 797.2 809.9 801.5 807.6C 806.1 805.1 806 803.6 801.3 804.3C 799.2 804.6 795 805.1 792 805.4L 786.5 806L 792.5 804C 795.8 802.9 799.2 802 800 802C 800.8 802 802.2 801.6 802.9 801.1C 803.9 800.4 803.1 800.3 800.4 800.5C 783.1 802.3 781.6 801.6 796 798.6C 800.2 797.7 805.1 796.1 807 795.1C 811.9 792.5 811.8 792.5 810.9 797.7z"/>
<path style="stroke:none; fill:#000000" d="M 534.4 305.1C 533.5 306.7 536.4 309.2 538.3 308.4C 540.4 307.6 540.5 305.4 538.4 304.6C 536.1 303.7 535.2 303.9 534.4 305.1z"/>
<path style="stroke:none; fill:#000000" d="M 767.1 410.5C 754.1 416.8 753.8 417 754.3 419.7C 754.7 421.3 756.2 428.6 757.8 436C 761.4 452.8 762.1 454.4 766.3 453.6C 769.5 453 783.2 445.5 788.8 441.3C 792.8 438.3 792.9 436.5 789.4 420.5C 786.6 407.7 785 404 782.2 404C 781.3 404.1 774.5 407 767.1 410.5zM 783 409.1C 784.5 411.8 783.7 412.5 781 411C 778.4 409.6 777.4 410.2 779.5 412C 780.3 412.7 781 414.9 781 417C 781 419.2 781.7 421.3 782.6 422.1C 785.8 424.7 787.4 429.6 787.1 435.7C 787 437.6 786.5 437.8 782.3 437.7C 777.8 437.5 777.5 437.6 775.3 441.6C 772.9 445.8 766.5 450 765 448.3C 763.7 447 762.9 440.2 763.9 439.6C 765.8 438.4 766.2 431.4 764.6 427.5C 762.6 422.9 761.6 423.3 763 428.1C 764.2 432.2 764.3 438 763.2 438C 762.7 438 761.6 434.5 760.7 430.2C 759.7 426 758.7 421.5 758.4 420.2C 757.9 418.5 758.2 418 759.7 418C 760.7 418 762.1 417.5 762.7 416.9C 763.9 415.7 780.1 407.1 781.2 407C 781.6 407 782.4 407.9 783 409.1z"/>
<path style="stroke:none; fill:#000000" d="M 769 432C 767.4 435 768.4 437 771.5 437C 774.4 437 775.8 434.5 774.3 432.1C 772.8 429.7 770.3 429.6 769 432z"/>
<path style="stroke:none; fill:#000000" d="M 735.3 328.7C 733.5 329.4 733.7 333.5 735.6 335.1C 736.7 336 737.6 336.1 738.8 335.3C 741.2 333.8 741.5 330.8 739.4 329.3C 737.5 327.9 737.2 327.9 735.3 328.7z"/>
<path style="stroke:none; fill:#000000" d="M 731 334.9C 731 337 732.3 339 733.6 339C 735.1 339 735.3 338 734.4 335.6C 733.7 333.9 731 333.4 731 334.9z"/>
<path style="stroke:none; fill:#000000" d="M 816.5 485.2C 815 487.4 815.1 487.5 817.2 488.2C 821.4 489.3 823 489.1 823 487.2C 823 485.1 821.2 483 819.4 483C 818.7 483 817.4 484 816.5 485.2z"/>
<path style="stroke:none; fill:#000000" d="M 733 599.3C 733 601.2 735 602.9 736.6 602.3C 737.4 602 738 600.9 738 599.9C 738 598.5 737.3 598 735.5 598C 734.1 598 733 598.6 733 599.3z"/>
<path style="stroke:none; fill:#000000" d="M 721.8 601.3C 717.5 602.4 714 603.6 714 603.9C 714 604.2 715.7 605.5 717.8 606.7C 719.8 607.9 724.1 611.2 727.3 614L 733 619.2L 733 615.3C 733 610.7 731 607.6 726.8 605.4L 723.7 603.8L 727.9 602C 732 600.1 733.2 598.9 730.8 599.1C 730.1 599.1 726 600.1 721.8 601.3z"/>
<path style="stroke:none; fill:#000000" d="M 712 621.7C 712 622 713.1 623.8 714.5 625.6C 717.5 629.5 729 638.6 729 637.1C 729 635.6 714.7 621 713.2 621C 712.6 621 712 621.3 712 621.7z"/>
<path style="stroke:none; fill:#000000" d="M 822.5 598C 822.8 598.5 823.3 599 823.6 599C 823.8 599 824 598.5 824 598C 824 597.4 823.5 597 822.9 597C 822.4 597 822.2 597.4 822.5 598z"/>
<path style="stroke:none; fill:#000000" d="M 500 697.7C 503 699.1 508 700.5 511 700.7C 516.1 701.2 516.4 701.1 514.4 699.7C 511.9 697.8 501.3 695 497.4 695.1C 494.8 695.2 495.2 695.5 500 697.7z"/>
<path style="stroke:none; fill:#000000" d="M 565.5 687.9C 566.1 688.5 569.9 690.3 574 692C 584.2 696.2 598.1 704 606 709.9C 609.6 712.6 612.7 714.6 612.9 714.4C 613.1 714.2 611.4 711.6 609 708.5C 601.6 698.9 590.7 691.1 582 689.1C 575.1 687.6 564.4 686.8 565.5 687.9z"/>
<path style="stroke:none; fill:#000000" d="M 558.5 699.5C 566 703.1 579.2 707.6 585 708.5L 588.5 709.1L 585.5 707.7C 578.9 704.6 555 696 553.3 696.1C 552.3 696.1 554.7 697.7 558.5 699.5z"/>
<path style="stroke:none; fill:#000000" d="M 599.6 723.8C 601.5 725.6 612.2 731.1 611.5 730C 610.7 728.8 600.9 723 599.6 723C 599 723 599 723.3 599.6 723.8z"/>
<path style="stroke:none; fill:#000000" d="M 673 729.5C 673 731.5 677.9 738.7 684 745.7C 687.9 750.3 691.3 754 691.5 754C 692 754 689.4 747.8 686.8 742.6C 683.4 735.9 673 726.1 673 729.5z"/>
<path style="stroke:none; fill:#000000" d="M 709.5 765C 709.9 766.4 710.7 767.9 711.2 768.5C 711.9 769.2 712 768.7 711.5 767C 711.1 765.6 710.3 764 709.8 763.5C 709.1 762.8 709 763.3 709.5 765z"/>
<path style="stroke:none; fill:#000000" d="M 643.4 752.7C 645.2 756.3 651 763.6 651 762.3C 651 761.2 643.2 750 642.4 750C 642.2 750 642.6 751.2 643.4 752.7z"/>
</g>
</g>
</svg>